<?xml version="1.0" encoding="UTF-8" standalone="no"?>
<!DOCTYPE svg PUBLIC "-//W3C//DTD SVG 1.1//EN"
 "http://www.w3.org/Graphics/SVG/1.1/DTD/svg11.dtd">
<!-- Generated by graphviz version 2.43.0 (0)
 -->
<!-- Title: QskMetaFunction::FunctionCall Pages: 1 -->
<svg width="531pt" height="170pt"
 viewBox="0.00 0.00 531.00 170.00" xmlns="http://www.w3.org/2000/svg" xmlns:xlink="http://www.w3.org/1999/xlink">
<g id="graph0" class="graph" transform="scale(1 1) rotate(0) translate(4 166)">
<title>QskMetaFunction::FunctionCall</title>
<!-- Node1 -->
<g id="node1" class="node">
<title>Node1</title>
<g id="a_node1"><a xlink:title=" ">
<polygon fill="#bfbfbf" stroke="black" points="186,-71.5 186,-90.5 353,-90.5 353,-71.5 186,-71.5"/>
<text text-anchor="middle" x="269.5" y="-78.5" font-family="Helvetica,sans-Serif" font-size="10.00">QskMetaFunction::FunctionCall</text>
</a>
</g>
</g>
<!-- Node3 -->
<g id="node3" class="node">
<title>Node3</title>
<g id="a_node3"><a xlink:href="../classQskMetaFunctionCall_1_1FunctorFunctionCall" target="_top" xlink:title=" ">
<polygon fill="none" stroke="black" points="389,-120.5 389,-161.5 523,-161.5 523,-120.5 389,-120.5"/>
<text text-anchor="start" x="397" y="-149.5" font-family="Helvetica,sans-Serif" font-size="10.00">QskMetaFunctionCall</text>
<text text-anchor="start" x="397" y="-138.5" font-family="Helvetica,sans-Serif" font-size="10.00">::FunctorFunctionCall</text>
<text text-anchor="middle" x="456" y="-127.5" font-family="Helvetica,sans-Serif" font-size="10.00">&lt; Function, N, Args, R &gt;</text>
</a>
</g>
</g>
<!-- Node1&#45;&gt;Node3 -->
<g id="edge2" class="edge">
<title>Node1&#45;&gt;Node3</title>
<path fill="none" stroke="midnightblue" d="M309.5,-93.68C333.4,-101.46 364.56,-111.59 391.91,-120.48"/>
<polygon fill="midnightblue" stroke="midnightblue" points="310.33,-90.27 299.73,-90.51 308.16,-96.93 310.33,-90.27"/>
</g>
<!-- Node4 -->
<g id="node4" class="node">
<title>Node4</title>
<g id="a_node4"><a xlink:href="../classQskMetaFunctionCall_1_1MemberFunctionCall" target="_top" xlink:title=" ">
<polygon fill="none" stroke="black" points="394.5,-60.5 394.5,-101.5 517.5,-101.5 517.5,-60.5 394.5,-60.5"/>
<text text-anchor="start" x="402.5" y="-89.5" font-family="Helvetica,sans-Serif" font-size="10.00">QskMetaFunctionCall</text>
<text text-anchor="start" x="402.5" y="-78.5" font-family="Helvetica,sans-Serif" font-size="10.00">::MemberFunctionCall</text>
<text text-anchor="middle" x="456" y="-67.5" font-family="Helvetica,sans-Serif" font-size="10.00">&lt; Function, Args, R &gt;</text>
</a>
</g>
</g>
<!-- Node1&#45;&gt;Node4 -->
<g id="edge3" class="edge">
<title>Node1&#45;&gt;Node4</title>
<path fill="none" stroke="midnightblue" d="M363.18,-81C373.77,-81 384.36,-81 394.38,-81"/>
<polygon fill="midnightblue" stroke="midnightblue" points="363.04,-77.5 353.04,-81 363.04,-84.5 363.04,-77.5"/>
</g>
<!-- Node5 -->
<g id="node5" class="node">
<title>Node5</title>
<g id="a_node5"><a xlink:href="../classQskMetaFunctionCall_1_1StaticFunctionCall" target="_top" xlink:title=" ">
<polygon fill="none" stroke="black" points="395.5,-0.5 395.5,-41.5 516.5,-41.5 516.5,-0.5 395.5,-0.5"/>
<text text-anchor="start" x="403.5" y="-29.5" font-family="Helvetica,sans-Serif" font-size="10.00">QskMetaFunctionCall</text>
<text text-anchor="start" x="403.5" y="-18.5" font-family="Helvetica,sans-Serif" font-size="10.00">::StaticFunctionCall</text>
<text text-anchor="middle" x="456" y="-7.5" font-family="Helvetica,sans-Serif" font-size="10.00">&lt; Function, Args, R &gt;</text>
</a>
</g>
</g>
<!-- Node1&#45;&gt;Node5 -->
<g id="edge4" class="edge">
<title>Node1&#45;&gt;Node5</title>
<path fill="none" stroke="midnightblue" d="M309.55,-68.3C334.46,-60.2 367.23,-49.54 395.36,-40.4"/>
<polygon fill="midnightblue" stroke="midnightblue" points="308.16,-65.07 299.73,-71.49 310.33,-71.73 308.16,-65.07"/>
</g>
<!-- Node2 -->
<g id="node2" class="node">
<title>Node2</title>
<g id="a_node2"><a xlink:title=" ">
<polygon fill="none" stroke="#bfbfbf" points="0,-71.5 0,-90.5 150,-90.5 150,-71.5 0,-71.5"/>
<text text-anchor="middle" x="75" y="-78.5" font-family="Helvetica,sans-Serif" font-size="10.00">QtPrivate::QSlotObjectBase</text>
</a>
</g>
</g>
<!-- Node2&#45;&gt;Node1 -->
<g id="edge1" class="edge">
<title>Node2&#45;&gt;Node1</title>
<path fill="none" stroke="midnightblue" d="M160.35,-81C168.78,-81 177.33,-81 185.74,-81"/>
<polygon fill="midnightblue" stroke="midnightblue" points="160.15,-77.5 150.15,-81 160.15,-84.5 160.15,-77.5"/>
</g>
</g>
</svg>
