<?xml version="1.0" encoding="UTF-8" standalone="no"?>
<!DOCTYPE svg PUBLIC "-//W3C//DTD SVG 1.1//EN"
 "http://www.w3.org/Graphics/SVG/1.1/DTD/svg11.dtd">
<!-- Generated by graphviz version 2.43.0 (0)
 -->
<!-- Title: QskBox Pages: 1 -->
<svg width="683pt" height="256pt"
 viewBox="0.00 0.00 683.00 256.00" xmlns="http://www.w3.org/2000/svg" xmlns:xlink="http://www.w3.org/1999/xlink">
<g id="graph0" class="graph" transform="scale(1 1) rotate(0) translate(4 252)">
<title>QskBox</title>
<!-- Node1 -->
<g id="node1" class="node">
<title>Node1</title>
<g id="a_node1"><a xlink:title=" ">
<polygon fill="#bfbfbf" stroke="black" points="339,-114.5 339,-133.5 393,-133.5 393,-114.5 339,-114.5"/>
<text text-anchor="middle" x="366" y="-121.5" font-family="Helvetica,sans-Serif" font-size="10.00">QskBox</text>
</a>
</g>
</g>
<!-- Node6 -->
<g id="node6" class="node">
<title>Node6</title>
<g id="a_node6"><a xlink:href="../classQskDialogButtonBox" target="_top" xlink:title=" ">
<polygon fill="none" stroke="black" points="433,-228.5 433,-247.5 551,-247.5 551,-228.5 433,-228.5"/>
<text text-anchor="middle" x="492" y="-235.5" font-family="Helvetica,sans-Serif" font-size="10.00">QskDialogButtonBox</text>
</a>
</g>
</g>
<!-- Node1&#45;&gt;Node6 -->
<g id="edge5" class="edge">
<title>Node1&#45;&gt;Node6</title>
<path fill="none" stroke="midnightblue" d="M374.64,-143.07C384.21,-164.59 402.63,-199.16 429,-219 434.13,-222.86 440.05,-225.94 446.15,-228.4"/>
<polygon fill="midnightblue" stroke="midnightblue" points="377.78,-141.52 370.66,-133.68 371.34,-144.25 377.78,-141.52"/>
</g>
<!-- Node7 -->
<g id="node7" class="node">
<title>Node7</title>
<g id="a_node7"><a xlink:href="../classQskGridBox" target="_top" xlink:title=" ">
<polygon fill="none" stroke="black" points="455,-190.5 455,-209.5 529,-209.5 529,-190.5 455,-190.5"/>
<text text-anchor="middle" x="492" y="-197.5" font-family="Helvetica,sans-Serif" font-size="10.00">QskGridBox</text>
</a>
</g>
</g>
<!-- Node1&#45;&gt;Node7 -->
<g id="edge6" class="edge">
<title>Node1&#45;&gt;Node7</title>
<path fill="none" stroke="midnightblue" d="M382.04,-141.51C393.7,-154.1 410.89,-170.62 429,-181 436.91,-185.53 446.02,-189.1 454.78,-191.86"/>
<polygon fill="midnightblue" stroke="midnightblue" points="384.5,-139.01 375.21,-133.9 379.29,-143.68 384.5,-139.01"/>
</g>
<!-- Node8 -->
<g id="node8" class="node">
<title>Node8</title>
<g id="a_node8"><a xlink:href="../classQskIndexedLayoutBox" target="_top" xlink:title="Base class of layouts with index ordered elements.">
<polygon fill="none" stroke="black" points="429,-152.5 429,-171.5 555,-171.5 555,-152.5 429,-152.5"/>
<text text-anchor="middle" x="492" y="-159.5" font-family="Helvetica,sans-Serif" font-size="10.00">QskIndexedLayoutBox</text>
</a>
</g>
</g>
<!-- Node1&#45;&gt;Node8 -->
<g id="edge7" class="edge">
<title>Node1&#45;&gt;Node8</title>
<path fill="none" stroke="midnightblue" d="M402.9,-135C420.94,-140.53 442.6,-147.17 459.92,-152.48"/>
<polygon fill="midnightblue" stroke="midnightblue" points="403.88,-131.64 393.3,-132.06 401.83,-138.34 403.88,-131.64"/>
</g>
<!-- Node11 -->
<g id="node11" class="node">
<title>Node11</title>
<g id="a_node11"><a xlink:href="../classQskInputPanelBox" target="_top" xlink:title=" ">
<polygon fill="none" stroke="black" points="439,-114.5 439,-133.5 545,-133.5 545,-114.5 439,-114.5"/>
<text text-anchor="middle" x="492" y="-121.5" font-family="Helvetica,sans-Serif" font-size="10.00">QskInputPanelBox</text>
</a>
</g>
</g>
<!-- Node1&#45;&gt;Node11 -->
<g id="edge10" class="edge">
<title>Node1&#45;&gt;Node11</title>
<path fill="none" stroke="midnightblue" d="M403.48,-124C414.59,-124 427.02,-124 438.95,-124"/>
<polygon fill="midnightblue" stroke="midnightblue" points="403.3,-120.5 393.3,-124 403.3,-127.5 403.3,-120.5"/>
</g>
<!-- Node12 -->
<g id="node12" class="node">
<title>Node12</title>
<g id="a_node12"><a xlink:href="../classQskInputPredictionBar" target="_top" xlink:title=" ">
<polygon fill="none" stroke="black" points="429.5,-76.5 429.5,-95.5 554.5,-95.5 554.5,-76.5 429.5,-76.5"/>
<text text-anchor="middle" x="492" y="-83.5" font-family="Helvetica,sans-Serif" font-size="10.00">QskInputPredictionBar</text>
</a>
</g>
</g>
<!-- Node1&#45;&gt;Node12 -->
<g id="edge11" class="edge">
<title>Node1&#45;&gt;Node12</title>
<path fill="none" stroke="midnightblue" d="M402.9,-113C420.94,-107.47 442.6,-100.83 459.92,-95.52"/>
<polygon fill="midnightblue" stroke="midnightblue" points="401.83,-109.66 393.3,-115.94 403.88,-116.36 401.83,-109.66"/>
</g>
<!-- Node13 -->
<g id="node13" class="node">
<title>Node13</title>
<g id="a_node13"><a xlink:href="../classQskTabBar" target="_top" xlink:title=" ">
<polygon fill="none" stroke="black" points="458,-38.5 458,-57.5 526,-57.5 526,-38.5 458,-38.5"/>
<text text-anchor="middle" x="492" y="-45.5" font-family="Helvetica,sans-Serif" font-size="10.00">QskTabBar</text>
</a>
</g>
</g>
<!-- Node1&#45;&gt;Node13 -->
<g id="edge12" class="edge">
<title>Node1&#45;&gt;Node13</title>
<path fill="none" stroke="midnightblue" d="M382.04,-106.49C393.7,-93.9 410.89,-77.38 429,-67 437.79,-61.96 448.06,-58.12 457.69,-55.25"/>
<polygon fill="midnightblue" stroke="midnightblue" points="379.29,-104.32 375.21,-114.1 384.5,-108.99 379.29,-104.32"/>
</g>
<!-- Node14 -->
<g id="node14" class="node">
<title>Node14</title>
<g id="a_node14"><a xlink:href="../classQskVirtualKeyboard" target="_top" xlink:title=" ">
<polygon fill="none" stroke="black" points="435.5,-0.5 435.5,-19.5 548.5,-19.5 548.5,-0.5 435.5,-0.5"/>
<text text-anchor="middle" x="492" y="-7.5" font-family="Helvetica,sans-Serif" font-size="10.00">QskVirtualKeyboard</text>
</a>
</g>
</g>
<!-- Node1&#45;&gt;Node14 -->
<g id="edge13" class="edge">
<title>Node1&#45;&gt;Node14</title>
<path fill="none" stroke="midnightblue" d="M374.64,-104.93C384.21,-83.41 402.63,-48.84 429,-29 434.13,-25.14 440.05,-22.06 446.15,-19.6"/>
<polygon fill="midnightblue" stroke="midnightblue" points="371.34,-103.75 370.66,-114.32 377.78,-106.48 371.34,-103.75"/>
</g>
<!-- Node2 -->
<g id="node2" class="node">
<title>Node2</title>
<g id="a_node2"><a xlink:href="../classQskControl" target="_top" xlink:title="Base class of all controls.">
<polygon fill="none" stroke="black" points="232,-114.5 232,-133.5 303,-133.5 303,-114.5 232,-114.5"/>
<text text-anchor="middle" x="267.5" y="-121.5" font-family="Helvetica,sans-Serif" font-size="10.00">QskControl</text>
</a>
</g>
</g>
<!-- Node2&#45;&gt;Node1 -->
<g id="edge1" class="edge">
<title>Node2&#45;&gt;Node1</title>
<path fill="none" stroke="midnightblue" d="M313.23,-124C322,-124 330.93,-124 338.85,-124"/>
<polygon fill="midnightblue" stroke="midnightblue" points="313.07,-120.5 303.07,-124 313.07,-127.5 313.07,-120.5"/>
</g>
<!-- Node3 -->
<g id="node3" class="node">
<title>Node3</title>
<g id="a_node3"><a xlink:href="../classQskQuickItem" target="_top" xlink:title=" ">
<polygon fill="none" stroke="black" points="110,-133.5 110,-152.5 196,-152.5 196,-133.5 110,-133.5"/>
<text text-anchor="middle" x="153" y="-140.5" font-family="Helvetica,sans-Serif" font-size="10.00">QskQuickItem</text>
</a>
</g>
</g>
<!-- Node3&#45;&gt;Node2 -->
<g id="edge2" class="edge">
<title>Node3&#45;&gt;Node2</title>
<path fill="none" stroke="midnightblue" d="M206.26,-134.17C214.91,-132.71 223.68,-131.23 231.76,-129.87"/>
<polygon fill="midnightblue" stroke="midnightblue" points="205.49,-130.75 196.21,-135.87 206.65,-137.66 205.49,-130.75"/>
</g>
<!-- Node4 -->
<g id="node4" class="node">
<title>Node4</title>
<g id="a_node4"><a xlink:title=" ">
<polygon fill="none" stroke="#bfbfbf" points="0,-133.5 0,-152.5 74,-152.5 74,-133.5 0,-133.5"/>
<text text-anchor="middle" x="37" y="-140.5" font-family="Helvetica,sans-Serif" font-size="10.00">QQuickItem</text>
</a>
</g>
</g>
<!-- Node4&#45;&gt;Node3 -->
<g id="edge3" class="edge">
<title>Node4&#45;&gt;Node3</title>
<path fill="none" stroke="midnightblue" d="M84.18,-143C92.65,-143 101.45,-143 109.79,-143"/>
<polygon fill="midnightblue" stroke="midnightblue" points="84.07,-139.5 74.07,-143 84.07,-146.5 84.07,-139.5"/>
</g>
<!-- Node5 -->
<g id="node5" class="node">
<title>Node5</title>
<g id="a_node5"><a xlink:href="../classQskSkinnable" target="_top" xlink:title=" ">
<polygon fill="none" stroke="black" points="111.5,-95.5 111.5,-114.5 194.5,-114.5 194.5,-95.5 111.5,-95.5"/>
<text text-anchor="middle" x="153" y="-102.5" font-family="Helvetica,sans-Serif" font-size="10.00">QskSkinnable</text>
</a>
</g>
</g>
<!-- Node5&#45;&gt;Node2 -->
<g id="edge4" class="edge">
<title>Node5&#45;&gt;Node2</title>
<path fill="none" stroke="midnightblue" d="M204.52,-113.53C213.77,-115.1 223.23,-116.69 231.89,-118.15"/>
<polygon fill="midnightblue" stroke="midnightblue" points="205.06,-110.07 194.62,-111.86 203.89,-116.98 205.06,-110.07"/>
</g>
<!-- Node9 -->
<g id="node9" class="node">
<title>Node9</title>
<g id="a_node9"><a xlink:href="../classQskLinearBox" target="_top" xlink:title="Layout stringing items in rows and columns.">
<polygon fill="none" stroke="black" points="591,-171.5 591,-190.5 675,-190.5 675,-171.5 591,-171.5"/>
<text text-anchor="middle" x="633" y="-178.5" font-family="Helvetica,sans-Serif" font-size="10.00">QskLinearBox</text>
</a>
</g>
</g>
<!-- Node8&#45;&gt;Node9 -->
<g id="edge8" class="edge">
<title>Node8&#45;&gt;Node9</title>
<path fill="none" stroke="midnightblue" d="M565.34,-171.89C574,-173.07 582.61,-174.25 590.61,-175.34"/>
<polygon fill="midnightblue" stroke="midnightblue" points="565.56,-168.39 555.18,-170.5 564.62,-175.32 565.56,-168.39"/>
</g>
<!-- Node10 -->
<g id="node10" class="node">
<title>Node10</title>
<g id="a_node10"><a xlink:href="../classQskStackBox" target="_top" xlink:title=" ">
<polygon fill="none" stroke="black" points="592.5,-133.5 592.5,-152.5 673.5,-152.5 673.5,-133.5 592.5,-133.5"/>
<text text-anchor="middle" x="633" y="-140.5" font-family="Helvetica,sans-Serif" font-size="10.00">QskStackBox</text>
</a>
</g>
</g>
<!-- Node8&#45;&gt;Node10 -->
<g id="edge9" class="edge">
<title>Node8&#45;&gt;Node10</title>
<path fill="none" stroke="midnightblue" d="M565.24,-152.13C574.52,-150.86 583.73,-149.6 592.21,-148.44"/>
<polygon fill="midnightblue" stroke="midnightblue" points="564.62,-148.68 555.18,-153.5 565.56,-155.61 564.62,-148.68"/>
</g>
</g>
</svg>
