<?xml version="1.0" encoding="UTF-8" standalone="no"?>
<!DOCTYPE svg PUBLIC "-//W3C//DTD SVG 1.1//EN"
 "http://www.w3.org/Graphics/SVG/1.1/DTD/svg11.dtd">
<!-- Generated by graphviz version 2.43.0 (0)
 -->
<!-- Title: QskGesture Pages: 1 -->
<svg width="478pt" height="82pt"
 viewBox="0.00 0.00 477.50 82.00" xmlns="http://www.w3.org/2000/svg" xmlns:xlink="http://www.w3.org/1999/xlink">
<g id="graph0" class="graph" transform="scale(1 1) rotate(0) translate(4 78)">
<title>QskGesture</title>
<!-- Node1 -->
<g id="Node000001" class="node">
<title>Node1</title>
<g id="a_Node000001"><a xlink:title=" ">
<polygon fill="#999999" stroke="#666666" points="264.5,-74 190.5,-74 190.5,-55 264.5,-55 264.5,-74"/>
<text text-anchor="middle" x="227.5" y="-62" font-family="Helvetica,sans-Serif" font-size="10.00">QskGesture</text>
</a>
</g>
</g>
<!-- Node2 -->
<g id="Node000002" class="node">
<title>Node2</title>
<g id="a_Node000002"><a xlink:href="classQskPanGesture.html" target="_top" xlink:title=" ">
<polygon fill="white" stroke="#bfbfbf" points="91,-19 0,-19 0,0 91,0 91,-19"/>
<text text-anchor="middle" x="45.5" y="-7" font-family="Helvetica,sans-Serif" font-size="10.00">QskPanGesture</text>
</a>
</g>
</g>
<!-- Node1&#45;&gt;Node2 -->
<g id="edge1_Node000001_Node000002" class="edge">
<title>Node1&#45;&gt;Node2</title>
<g id="a_edge1_Node000001_Node000002"><a xlink:title=" ">
<path fill="none" stroke="#63b8ff" d="M188.64,-52.18C154.6,-42.27 105.88,-28.08 74.97,-19.08"/>
<polygon fill="#63b8ff" stroke="#63b8ff" points="187.68,-55.55 198.26,-54.98 189.64,-48.83 187.68,-55.55"/>
</a>
</g>
</g>
<!-- Node3 -->
<g id="Node000003" class="node">
<title>Node3</title>
<g id="a_Node000003"><a xlink:href="classQskSwipeGesture.html" target="_top" xlink:title=" ">
<polygon fill="white" stroke="#bfbfbf" points="212,-19 109,-19 109,0 212,0 212,-19"/>
<text text-anchor="middle" x="160.5" y="-7" font-family="Helvetica,sans-Serif" font-size="10.00">QskSwipeGesture</text>
</a>
</g>
</g>
<!-- Node1&#45;&gt;Node3 -->
<g id="edge2_Node000001_Node000003" class="edge">
<title>Node1&#45;&gt;Node3</title>
<g id="a_edge2_Node000001_Node000003"><a xlink:title=" ">
<path fill="none" stroke="#63b8ff" d="M208.67,-48.6C196.66,-39.11 181.53,-27.13 171.46,-19.17"/>
<polygon fill="#63b8ff" stroke="#63b8ff" points="206.72,-51.53 216.74,-54.98 211.06,-46.04 206.72,-51.53"/>
</a>
</g>
</g>
<!-- Node4 -->
<g id="Node000004" class="node">
<title>Node4</title>
<g id="a_Node000004"><a xlink:href="classQskTapAndHoldGesture.html" target="_top" xlink:title=" ">
<polygon fill="white" stroke="#bfbfbf" points="361,-19 230,-19 230,0 361,0 361,-19"/>
<text text-anchor="middle" x="295.5" y="-7" font-family="Helvetica,sans-Serif" font-size="10.00">QskTapAndHoldGesture</text>
</a>
</g>
</g>
<!-- Node1&#45;&gt;Node4 -->
<g id="edge3_Node000001_Node000004" class="edge">
<title>Node1&#45;&gt;Node4</title>
<g id="a_edge3_Node000001_Node000004"><a xlink:title=" ">
<path fill="none" stroke="#63b8ff" d="M246.62,-48.6C258.8,-39.11 274.16,-27.13 284.38,-19.17"/>
<polygon fill="#63b8ff" stroke="#63b8ff" points="244.16,-46.08 238.43,-54.98 248.46,-51.6 244.16,-46.08"/>
</a>
</g>
</g>
<!-- Node5 -->
<g id="Node000005" class="node">
<title>Node5</title>
<g id="a_Node000005"><a xlink:href="classQskTapGesture.html" target="_top" xlink:title=" ">
<polygon fill="white" stroke="#bfbfbf" points="469.5,-19 379.5,-19 379.5,0 469.5,0 469.5,-19"/>
<text text-anchor="middle" x="424.5" y="-7" font-family="Helvetica,sans-Serif" font-size="10.00">QskTapGesture</text>
</a>
</g>
</g>
<!-- Node1&#45;&gt;Node5 -->
<g id="edge4_Node000001_Node000005" class="edge">
<title>Node1&#45;&gt;Node5</title>
<g id="a_edge4_Node000001_Node000005"><a xlink:title=" ">
<path fill="none" stroke="#63b8ff" d="M269.09,-52.31C305.95,-42.39 359,-28.12 392.6,-19.08"/>
<polygon fill="#63b8ff" stroke="#63b8ff" points="267.9,-49.01 259.15,-54.98 269.72,-55.77 267.9,-49.01"/>
</a>
</g>
</g>
</g>
</svg>
