<?xml version="1.0" encoding="UTF-8" standalone="no"?>
<!DOCTYPE svg PUBLIC "-//W3C//DTD SVG 1.1//EN"
 "http://www.w3.org/Graphics/SVG/1.1/DTD/svg11.dtd">
<!-- Generated by graphviz version 2.43.0 (0)
 -->
<!-- Title: QskProgressIndicatorSkinlet Pages: 1 -->
<svg width="288pt" height="137pt"
 viewBox="0.00 0.00 287.50 137.00" xmlns="http://www.w3.org/2000/svg" xmlns:xlink="http://www.w3.org/1999/xlink">
<g id="graph0" class="graph" transform="scale(1 1) rotate(0) translate(4 133)">
<title>QskProgressIndicatorSkinlet</title>
<!-- Node1 -->
<g id="Node000001" class="node">
<title>Node1</title>
<g id="a_Node000001"><a xlink:title=" ">
<polygon fill="#999999" stroke="#666666" points="215,-74 61,-74 61,-55 215,-55 215,-74"/>
<text text-anchor="middle" x="138" y="-62" font-family="Helvetica,sans-Serif" font-size="10.00">QskProgressIndicatorSkinlet</text>
</a>
</g>
</g>
<!-- Node3 -->
<g id="Node000003" class="node">
<title>Node3</title>
<g id="a_Node000003"><a xlink:href="classQskProgressBarSkinlet.html" target="_top" xlink:title=" ">
<polygon fill="white" stroke="#bfbfbf" points="128,-19 0,-19 0,0 128,0 128,-19"/>
<text text-anchor="middle" x="64" y="-7" font-family="Helvetica,sans-Serif" font-size="10.00">QskProgressBarSkinlet</text>
</a>
</g>
</g>
<!-- Node1&#45;&gt;Node3 -->
<g id="edge2_Node000001_Node000003" class="edge">
<title>Node1&#45;&gt;Node3</title>
<g id="a_edge2_Node000001_Node000003"><a xlink:title=" ">
<path fill="none" stroke="#63b8ff" d="M117.97,-49.15C104.59,-39.57 87.44,-27.29 76.11,-19.17"/>
<polygon fill="#63b8ff" stroke="#63b8ff" points="115.94,-52.01 126.11,-54.98 120.02,-46.32 115.94,-52.01"/>
</a>
</g>
</g>
<!-- Node4 -->
<g id="Node000004" class="node">
<title>Node4</title>
<g id="a_Node000004"><a xlink:href="classQskProgressRingSkinlet.html" target="_top" xlink:title=" ">
<polygon fill="white" stroke="#bfbfbf" points="279.5,-19 146.5,-19 146.5,0 279.5,0 279.5,-19"/>
<text text-anchor="middle" x="213" y="-7" font-family="Helvetica,sans-Serif" font-size="10.00">QskProgressRingSkinlet</text>
</a>
</g>
</g>
<!-- Node1&#45;&gt;Node4 -->
<g id="edge3_Node000001_Node000004" class="edge">
<title>Node1&#45;&gt;Node4</title>
<g id="a_edge3_Node000001_Node000004"><a xlink:title=" ">
<path fill="none" stroke="#63b8ff" d="M158.31,-49.15C171.86,-39.57 189.24,-27.29 200.73,-19.17"/>
<polygon fill="#63b8ff" stroke="#63b8ff" points="156.2,-46.36 150.05,-54.98 160.24,-52.07 156.2,-46.36"/>
</a>
</g>
</g>
<!-- Node2 -->
<g id="Node000002" class="node">
<title>Node2</title>
<g id="a_Node000002"><a xlink:href="classQskSkinlet.html" target="_top" xlink:title="Describes the rendering interface of a QskControl. Change the skinlet to change the appearance of the...">
<polygon fill="white" stroke="#666666" points="172.5,-129 103.5,-129 103.5,-110 172.5,-110 172.5,-129"/>
<text text-anchor="middle" x="138" y="-117" font-family="Helvetica,sans-Serif" font-size="10.00">QskSkinlet</text>
</a>
</g>
</g>
<!-- Node2&#45;&gt;Node1 -->
<g id="edge1_Node000001_Node000002" class="edge">
<title>Node2&#45;&gt;Node1</title>
<g id="a_edge1_Node000001_Node000002"><a xlink:title=" ">
<path fill="none" stroke="#63b8ff" d="M138,-99.66C138,-90.93 138,-80.99 138,-74.09"/>
<polygon fill="#63b8ff" stroke="#63b8ff" points="134.5,-99.75 138,-109.75 141.5,-99.75 134.5,-99.75"/>
</a>
</g>
</g>
</g>
</svg>
