<?xml version="1.0" encoding="UTF-8" standalone="no"?>
<!DOCTYPE svg PUBLIC "-//W3C//DTD SVG 1.1//EN"
 "http://www.w3.org/Graphics/SVG/1.1/DTD/svg11.dtd">
<!-- Generated by graphviz version 2.43.0 (0)
 -->
<!-- Title: QskDialogSubWindow Pages: 1 -->
<svg width="300pt" height="357pt"
 viewBox="0.00 0.00 299.50 357.00" xmlns="http://www.w3.org/2000/svg" xmlns:xlink="http://www.w3.org/1999/xlink">

<svg id="main" version="1.1" xmlns="http://www.w3.org/2000/svg" xmlns:xlink="http://www.w3.org/1999/xlink" xml:space="preserve" onload="init(evt)">
<style type="text/css"><![CDATA[
.node, .edge {opacity: 0.7;}
.node.selected, .edge.selected {opacity: 1;}
.edge:hover path { stroke: red; }
.edge:hover polygon { stroke: red; fill: red; }
]]></style>
<script type="application/ecmascript" xlink:href="svg.min.js"/>
<svg id="graph" class="graph">
<g id="graph0" class="graph" transform="scale(1 1) rotate(0) translate(4 353)">
<title>QskDialogSubWindow</title>
<!-- Node1 -->
<g id="Node000001" class="node">
<title>Node1</title>
<g id="a_Node000001"><a xlink:title=" ">
<polygon fill="#999999" stroke="#666666" points="207,-74 83,-74 83,-55 207,-55 207,-74"/>
<text text-anchor="middle" x="145" y="-62" font-family="Helvetica,sans-Serif" font-size="10.00">QskDialogSubWindow</text>
</a>
</g>
</g>
<!-- Node8 -->
<g id="Node000008" class="node">
<title>Node8</title>
<g id="a_Node000008"><a xlink:href="classQskMessageSubWindow.html" target="_top" xlink:title=" ">
<polygon fill="white" stroke="#bfbfbf" points="136,-19 0,-19 0,0 136,0 136,-19"/>
<text text-anchor="middle" x="68" y="-7" font-family="Helvetica,sans-Serif" font-size="10.00">QskMessageSubWindow</text>
</a>
</g>
</g>
<!-- Node1&#45;&gt;Node8 -->
<g id="edge7_Node000001_Node000008" class="edge">
<title>Node1&#45;&gt;Node8</title>
<g id="a_edge7_Node000001_Node000008"><a xlink:title=" ">
<path fill="none" stroke="#63b8ff" d="M124.15,-49.15C110.24,-39.57 92.39,-27.29 80.6,-19.17"/>
<polygon fill="#63b8ff" stroke="#63b8ff" points="122.41,-52.2 132.63,-54.98 126.38,-46.43 122.41,-52.2"/>
</a>
</g>
</g>
<!-- Node9 -->
<g id="Node000009" class="node">
<title>Node9</title>
<g id="a_Node000009"><a xlink:href="classQskSelectionSubWindow.html" target="_top" xlink:title=" ">
<polygon fill="white" stroke="#bfbfbf" points="291.5,-19 154.5,-19 154.5,0 291.5,0 291.5,-19"/>
<text text-anchor="middle" x="223" y="-7" font-family="Helvetica,sans-Serif" font-size="10.00">QskSelectionSubWindow</text>
</a>
</g>
</g>
<!-- Node1&#45;&gt;Node9 -->
<g id="edge8_Node000001_Node000009" class="edge">
<title>Node1&#45;&gt;Node9</title>
<g id="a_edge8_Node000001_Node000009"><a xlink:title=" ">
<path fill="none" stroke="#63b8ff" d="M166.12,-49.15C180.21,-39.57 198.29,-27.29 210.24,-19.17"/>
<polygon fill="#63b8ff" stroke="#63b8ff" points="163.84,-46.47 157.53,-54.98 167.77,-52.26 163.84,-46.47"/>
</a>
</g>
</g>
<!-- Node2 -->
<g id="Node000002" class="node">
<title>Node2</title>
<g id="a_Node000002"><a xlink:href="classQskSubWindow.html" target="_top" xlink:title=" ">
<polygon fill="white" stroke="#bfbfbf" points="191,-129 99,-129 99,-110 191,-110 191,-129"/>
<text text-anchor="middle" x="145" y="-117" font-family="Helvetica,sans-Serif" font-size="10.00">QskSubWindow</text>
</a>
</g>
</g>
<!-- Node2&#45;&gt;Node1 -->
<g id="edge1_Node000001_Node000002" class="edge">
<title>Node2&#45;&gt;Node1</title>
<g id="a_edge1_Node000001_Node000002"><a xlink:title=" ">
<path fill="none" stroke="#63b8ff" d="M145,-99.66C145,-90.93 145,-80.99 145,-74.09"/>
<polygon fill="#63b8ff" stroke="#63b8ff" points="141.5,-99.75 145,-109.75 148.5,-99.75 141.5,-99.75"/>
</a>
</g>
</g>
<!-- Node3 -->
<g id="Node000003" class="node">
<title>Node3</title>
<g id="a_Node000003"><a xlink:href="classQskPopup.html" target="_top" xlink:title=" ">
<polygon fill="white" stroke="#bfbfbf" points="177.5,-184 112.5,-184 112.5,-165 177.5,-165 177.5,-184"/>
<text text-anchor="middle" x="145" y="-172" font-family="Helvetica,sans-Serif" font-size="10.00">QskPopup</text>
</a>
</g>
</g>
<!-- Node3&#45;&gt;Node2 -->
<g id="edge2_Node000002_Node000003" class="edge">
<title>Node3&#45;&gt;Node2</title>
<g id="a_edge2_Node000002_Node000003"><a xlink:title=" ">
<path fill="none" stroke="#63b8ff" d="M145,-154.66C145,-145.93 145,-135.99 145,-129.09"/>
<polygon fill="#63b8ff" stroke="#63b8ff" points="141.5,-154.75 145,-164.75 148.5,-154.75 141.5,-154.75"/>
</a>
</g>
</g>
<!-- Node4 -->
<g id="Node000004" class="node">
<title>Node4</title>
<g id="a_Node000004"><a xlink:href="classQskControl.html" target="_top" xlink:title="Base class of all controls.">
<polygon fill="white" stroke="#666666" points="180.5,-239 109.5,-239 109.5,-220 180.5,-220 180.5,-239"/>
<text text-anchor="middle" x="145" y="-227" font-family="Helvetica,sans-Serif" font-size="10.00">QskControl</text>
</a>
</g>
</g>
<!-- Node4&#45;&gt;Node3 -->
<g id="edge3_Node000003_Node000004" class="edge">
<title>Node4&#45;&gt;Node3</title>
<g id="a_edge3_Node000003_Node000004"><a xlink:title=" ">
<path fill="none" stroke="#63b8ff" d="M145,-209.66C145,-200.93 145,-190.99 145,-184.09"/>
<polygon fill="#63b8ff" stroke="#63b8ff" points="141.5,-209.75 145,-219.75 148.5,-209.75 141.5,-209.75"/>
</a>
</g>
</g>
<!-- Node5 -->
<g id="Node000005" class="node">
<title>Node5</title>
<g id="a_Node000005"><a xlink:href="classQskItem.html" target="_top" xlink:title=" ">
<polygon fill="white" stroke="#666666" points="130,-294 72,-294 72,-275 130,-275 130,-294"/>
<text text-anchor="middle" x="101" y="-282" font-family="Helvetica,sans-Serif" font-size="10.00">QskItem</text>
</a>
</g>
</g>
<!-- Node5&#45;&gt;Node4 -->
<g id="edge4_Node000004_Node000005" class="edge">
<title>Node5&#45;&gt;Node4</title>
<g id="a_edge4_Node000004_Node000005"><a xlink:title=" ">
<path fill="none" stroke="#63b8ff" d="M114.73,-266.96C122.4,-257.72 131.63,-246.6 137.87,-239.09"/>
<polygon fill="#63b8ff" stroke="#63b8ff" points="111.96,-264.82 108.27,-274.75 117.35,-269.29 111.96,-264.82"/>
</a>
</g>
</g>
<!-- Node6 -->
<g id="Node000006" class="node">
<title>Node6</title>
<g id="a_Node000006"><a xlink:title=" ">
<polygon fill="white" stroke="#bfbfbf" points="138,-349 64,-349 64,-330 138,-330 138,-349"/>
<text text-anchor="middle" x="101" y="-337" font-family="Helvetica,sans-Serif" font-size="10.00">QQuickItem</text>
</a>
</g>
</g>
<!-- Node6&#45;&gt;Node5 -->
<g id="edge5_Node000005_Node000006" class="edge">
<title>Node6&#45;&gt;Node5</title>
<g id="a_edge5_Node000005_Node000006"><a xlink:title=" ">
<path fill="none" stroke="#63b8ff" d="M101,-319.66C101,-310.93 101,-300.99 101,-294.09"/>
<polygon fill="#63b8ff" stroke="#63b8ff" points="97.5,-319.75 101,-329.75 104.5,-319.75 97.5,-319.75"/>
</a>
</g>
</g>
<!-- Node7 -->
<g id="Node000007" class="node">
<title>Node7</title>
<g id="a_Node000007"><a xlink:href="classQskSkinnable.html" target="_top" xlink:title=" ">
<polygon fill="white" stroke="#666666" points="231.5,-294 148.5,-294 148.5,-275 231.5,-275 231.5,-294"/>
<text text-anchor="middle" x="190" y="-282" font-family="Helvetica,sans-Serif" font-size="10.00">QskSkinnable</text>
</a>
</g>
</g>
<!-- Node7&#45;&gt;Node4 -->
<g id="edge6_Node000004_Node000007" class="edge">
<title>Node7&#45;&gt;Node4</title>
<g id="a_edge6_Node000004_Node000007"><a xlink:title=" ">
<path fill="none" stroke="#63b8ff" d="M175.95,-266.96C168.11,-257.72 158.67,-246.6 152.29,-239.09"/>
<polygon fill="#63b8ff" stroke="#63b8ff" points="173.43,-269.39 182.57,-274.75 178.76,-264.86 173.43,-269.39"/>
</a>
</g>
</g>
</g>
</svg>
</svg>

<style type='text/css'>
<![CDATA[
[data-mouse-over-selected='false'] { opacity: 0.7; }
[data-mouse-over-selected='true']  { opacity: 1.0; }
]]>
</style>
<script type="application/ecmascript"><![CDATA[
document.addEventListener('DOMContentLoaded', (event) => {
  highlightEdges();
  highlightAdjacentNodes();
});
]]></script>
</svg>
