<?xml version="1.0" encoding="UTF-8" standalone="no"?>
<!DOCTYPE svg PUBLIC "-//W3C//DTD SVG 1.1//EN"
 "http://www.w3.org/Graphics/SVG/1.1/DTD/svg11.dtd">
<!-- Generated by graphviz version 2.43.0 (0)
 -->
<!-- Title: QskSkinnable Pages: 1 -->
<svg width="355pt" height="619pt"
 viewBox="0.00 0.00 355.00 619.00" xmlns="http://www.w3.org/2000/svg" xmlns:xlink="http://www.w3.org/1999/xlink">
<g id="graph0" class="graph" transform="scale(1 1) rotate(0) translate(4 615)">
<title>QskSkinnable</title>
<!-- Node1 -->
<g id="Node000001" class="node">
<title>Node1</title>
<g id="a_Node000001"><a xlink:title=" ">
<polygon fill="#999999" stroke="#666666" points="83,-315 0,-315 0,-296 83,-296 83,-315"/>
<text text-anchor="middle" x="41.5" y="-303" font-family="Helvetica,sans-Serif" font-size="10.00">QskSkinnable</text>
</a>
</g>
</g>
<!-- Node2 -->
<g id="Node000002" class="node">
<title>Node2</title>
<g id="a_Node000002"><a xlink:href="classQskControl.html" target="_top" xlink:title="Base class of all controls.">
<polygon fill="#fff0f0" stroke="red" points="190,-315 119,-315 119,-296 190,-296 190,-315"/>
<text text-anchor="middle" x="154.5" y="-303" font-family="Helvetica,sans-Serif" font-size="10.00">QskControl</text>
</a>
</g>
</g>
<!-- Node1&#45;&gt;Node2 -->
<g id="edge1_Node000001_Node000002" class="edge">
<title>Node1&#45;&gt;Node2</title>
<g id="a_edge1_Node000001_Node000002"><a xlink:title=" ">
<path fill="none" stroke="#63b8ff" d="M93.47,-305.5C101.99,-305.5 110.65,-305.5 118.65,-305.5"/>
<polygon fill="#63b8ff" stroke="#63b8ff" points="93.2,-302 83.2,-305.5 93.2,-309 93.2,-302"/>
</a>
</g>
</g>
<!-- Node3 -->
<g id="Node000003" class="node">
<title>Node3</title>
<g id="a_Node000003"><a xlink:href="classQskAbstractButton.html" target="_top" xlink:title=" ">
<polygon fill="white" stroke="orangered" points="340.5,-611 232.5,-611 232.5,-592 340.5,-592 340.5,-611"/>
<text text-anchor="middle" x="286.5" y="-599" font-family="Helvetica,sans-Serif" font-size="10.00">QskAbstractButton</text>
</a>
</g>
</g>
<!-- Node2&#45;&gt;Node3 -->
<g id="edge2_Node000002_Node000003" class="edge">
<title>Node2&#45;&gt;Node3</title>
<g id="a_edge2_Node000002_Node000003"><a xlink:title=" ">
<path fill="none" stroke="#63b8ff" d="M158.01,-325.52C165.57,-382.8 189.88,-545.7 226,-583.5 229.28,-586.93 233.19,-589.72 237.42,-591.98"/>
<polygon fill="#63b8ff" stroke="#63b8ff" points="161.44,-324.73 156.69,-315.26 154.49,-325.62 161.44,-324.73"/>
</a>
</g>
</g>
<!-- Node9 -->
<g id="Node000009" class="node">
<title>Node9</title>
<g id="a_Node000009"><a xlink:href="classQskAbstractTextInput.html" target="_top" xlink:title=" ">
<polygon fill="white" stroke="orangered" points="347,-574 226,-574 226,-555 347,-555 347,-574"/>
<text text-anchor="middle" x="286.5" y="-562" font-family="Helvetica,sans-Serif" font-size="10.00">QskAbstractTextInput</text>
</a>
</g>
</g>
<!-- Node2&#45;&gt;Node9 -->
<g id="edge3_Node000002_Node000009" class="edge">
<title>Node2&#45;&gt;Node9</title>
<g id="a_edge3_Node000002_Node000009"><a xlink:title=" ">
<path fill="none" stroke="#63b8ff" d="M155.32,-325.49C156.04,-371.22 164.34,-484.27 226,-546.5 229.34,-549.87 233.29,-552.62 237.55,-554.85"/>
<polygon fill="#63b8ff" stroke="#63b8ff" points="158.82,-325.38 155.28,-315.39 151.82,-325.41 158.82,-325.38"/>
</a>
</g>
</g>
<!-- Node14 -->
<g id="Node000014" class="node">
<title>Node14</title>
<g id="a_Node000014"><a xlink:href="classQskBoundedControl.html" target="_top" xlink:title=" ">
<polygon fill="white" stroke="orangered" points="343,-537 230,-537 230,-518 343,-518 343,-537"/>
<text text-anchor="middle" x="286.5" y="-525" font-family="Helvetica,sans-Serif" font-size="10.00">QskBoundedControl</text>
</a>
</g>
</g>
<!-- Node2&#45;&gt;Node14 -->
<g id="edge4_Node000002_Node000014" class="edge">
<title>Node2&#45;&gt;Node14</title>
<g id="a_edge4_Node000002_Node000014"><a xlink:title=" ">
<path fill="none" stroke="#63b8ff" d="M156.57,-325.41C159.85,-365.96 173.04,-458.56 226,-509.5 229.58,-512.94 233.79,-515.73 238.3,-517.98"/>
<polygon fill="#63b8ff" stroke="#63b8ff" points="160.05,-324.96 155.88,-315.22 153.07,-325.44 160.05,-324.96"/>
</a>
</g>
</g>
<!-- Node23 -->
<g id="Node000023" class="node">
<title>Node23</title>
<g id="a_Node000023"><a xlink:href="classQskBox.html" target="_top" xlink:title=" ">
<polygon fill="white" stroke="orangered" points="313.5,-500 259.5,-500 259.5,-481 313.5,-481 313.5,-500"/>
<text text-anchor="middle" x="286.5" y="-488" font-family="Helvetica,sans-Serif" font-size="10.00">QskBox</text>
</a>
</g>
</g>
<!-- Node2&#45;&gt;Node23 -->
<g id="edge5_Node000002_Node000023" class="edge">
<title>Node2&#45;&gt;Node23</title>
<g id="a_edge5_Node000002_Node000023"><a xlink:title=" ">
<path fill="none" stroke="#63b8ff" d="M158.32,-325.34C164.32,-360.22 181.65,-432.6 226,-472.5 235.15,-480.73 247.95,-485.2 259.33,-487.62"/>
<polygon fill="#63b8ff" stroke="#63b8ff" points="161.71,-324.38 156.69,-315.05 154.8,-325.47 161.71,-324.38"/>
</a>
</g>
</g>
<!-- Node35 -->
<g id="Node000035" class="node">
<title>Node35</title>
<g id="a_Node000035"><a xlink:href="classQskComboBox.html" target="_top" xlink:title=" ">
<polygon fill="white" stroke="#666666" points="331,-463 242,-463 242,-444 331,-444 331,-463"/>
<text text-anchor="middle" x="286.5" y="-451" font-family="Helvetica,sans-Serif" font-size="10.00">QskComboBox</text>
</a>
</g>
</g>
<!-- Node2&#45;&gt;Node35 -->
<g id="edge6_Node000002_Node000035" class="edge">
<title>Node2&#45;&gt;Node35</title>
<g id="a_edge6_Node000002_Node000035"><a xlink:title=" ">
<path fill="none" stroke="#63b8ff" d="M160.85,-324.93C169.68,-353.38 190,-406.16 226,-435.5 230.68,-439.32 236.17,-442.33 241.87,-444.7"/>
<polygon fill="#63b8ff" stroke="#63b8ff" points="164.2,-323.92 158.02,-315.32 157.49,-325.9 164.2,-323.92"/>
</a>
</g>
</g>
<!-- Node36 -->
<g id="Node000036" class="node">
<title>Node36</title>
<g id="a_Node000036"><a xlink:href="classQskFocusIndicator.html" target="_top" xlink:title=" ">
<polygon fill="white" stroke="#bfbfbf" points="339.5,-426 233.5,-426 233.5,-407 339.5,-407 339.5,-426"/>
<text text-anchor="middle" x="286.5" y="-414" font-family="Helvetica,sans-Serif" font-size="10.00">QskFocusIndicator</text>
</a>
</g>
</g>
<!-- Node2&#45;&gt;Node36 -->
<g id="edge7_Node000002_Node000036" class="edge">
<title>Node2&#45;&gt;Node36</title>
<g id="a_edge7_Node000002_Node000036"><a xlink:title=" ">
<path fill="none" stroke="#63b8ff" d="M164.97,-324.22C176.57,-345.29 198.15,-379.12 226,-398.5 230.87,-401.89 236.4,-404.65 242.07,-406.91"/>
<polygon fill="#63b8ff" stroke="#63b8ff" points="168,-322.47 160.23,-315.27 161.82,-325.75 168,-322.47"/>
</a>
</g>
</g>
<!-- Node37 -->
<g id="Node000037" class="node">
<title>Node37</title>
<g id="a_Node000037"><a xlink:href="classQskGraphicLabel.html" target="_top" xlink:title=" ">
<polygon fill="white" stroke="#bfbfbf" points="336,-389 237,-389 237,-370 336,-370 336,-389"/>
<text text-anchor="middle" x="286.5" y="-377" font-family="Helvetica,sans-Serif" font-size="10.00">QskGraphicLabel</text>
</a>
</g>
</g>
<!-- Node2&#45;&gt;Node37 -->
<g id="edge8_Node000002_Node000037" class="edge">
<title>Node2&#45;&gt;Node37</title>
<g id="a_edge8_Node000002_Node000037"><a xlink:title=" ">
<path fill="none" stroke="#63b8ff" d="M172.7,-322.26C186.22,-334.62 206.05,-351.05 226,-361.5 232.31,-364.81 239.32,-367.6 246.25,-369.93"/>
<polygon fill="#63b8ff" stroke="#63b8ff" points="174.84,-319.46 165.15,-315.17 170.05,-324.57 174.84,-319.46"/>
</a>
</g>
</g>
<!-- Node38 -->
<g id="Node000038" class="node">
<title>Node38</title>
<g id="a_Node000038"><a xlink:href="classQskInputGrabber.html" target="_top" xlink:title=" ">
<polygon fill="white" stroke="#bfbfbf" points="336,-352 237,-352 237,-333 336,-333 336,-352"/>
<text text-anchor="middle" x="286.5" y="-340" font-family="Helvetica,sans-Serif" font-size="10.00">QskInputGrabber</text>
</a>
</g>
</g>
<!-- Node2&#45;&gt;Node38 -->
<g id="edge9_Node000002_Node000038" class="edge">
<title>Node2&#45;&gt;Node38</title>
<g id="a_edge9_Node000002_Node000038"><a xlink:title=" ">
<path fill="none" stroke="#63b8ff" d="M198.81,-317.83C216.03,-322.73 235.54,-328.28 251.68,-332.88"/>
<polygon fill="#63b8ff" stroke="#63b8ff" points="199.55,-314.4 188.98,-315.03 197.64,-321.13 199.55,-314.4"/>
</a>
</g>
</g>
<!-- Node39 -->
<g id="Node000039" class="node">
<title>Node39</title>
<g id="a_Node000039"><a xlink:href="classQskInputPanel.html" target="_top" xlink:title=" ">
<polygon fill="white" stroke="#bfbfbf" points="329.5,-315 243.5,-315 243.5,-296 329.5,-296 329.5,-315"/>
<text text-anchor="middle" x="286.5" y="-303" font-family="Helvetica,sans-Serif" font-size="10.00">QskInputPanel</text>
</a>
</g>
</g>
<!-- Node2&#45;&gt;Node39 -->
<g id="edge10_Node000002_Node000039" class="edge">
<title>Node2&#45;&gt;Node39</title>
<g id="a_edge10_Node000002_Node000039"><a xlink:title=" ">
<path fill="none" stroke="#63b8ff" d="M200.59,-305.5C214.4,-305.5 229.53,-305.5 243.15,-305.5"/>
<polygon fill="#63b8ff" stroke="#63b8ff" points="200.34,-302 190.34,-305.5 200.34,-309 200.34,-302"/>
</a>
</g>
</g>
<!-- Node40 -->
<g id="Node000040" class="node">
<title>Node40</title>
<g id="a_Node000040"><a xlink:href="classQskPageIndicator.html" target="_top" xlink:title=" ">
<polygon fill="white" stroke="#666666" points="337,-278 236,-278 236,-259 337,-259 337,-278"/>
<text text-anchor="middle" x="286.5" y="-266" font-family="Helvetica,sans-Serif" font-size="10.00">QskPageIndicator</text>
</a>
</g>
</g>
<!-- Node2&#45;&gt;Node40 -->
<g id="edge11_Node000002_Node000040" class="edge">
<title>Node2&#45;&gt;Node40</title>
<g id="a_edge11_Node000002_Node000040"><a xlink:title=" ">
<path fill="none" stroke="#63b8ff" d="M198.81,-293.17C216.03,-288.27 235.54,-282.72 251.68,-278.12"/>
<polygon fill="#63b8ff" stroke="#63b8ff" points="197.64,-289.87 188.98,-295.97 199.55,-296.6 197.64,-289.87"/>
</a>
</g>
</g>
<!-- Node41 -->
<g id="Node000041" class="node">
<title>Node41</title>
<g id="a_Node000041"><a xlink:href="classQskPopup.html" target="_top" xlink:title=" ">
<polygon fill="white" stroke="orangered" points="319,-241 254,-241 254,-222 319,-222 319,-241"/>
<text text-anchor="middle" x="286.5" y="-229" font-family="Helvetica,sans-Serif" font-size="10.00">QskPopup</text>
</a>
</g>
</g>
<!-- Node2&#45;&gt;Node41 -->
<g id="edge12_Node000002_Node000041" class="edge">
<title>Node2&#45;&gt;Node41</title>
<g id="a_edge12_Node000002_Node000041"><a xlink:title=" ">
<path fill="none" stroke="#63b8ff" d="M173.27,-288.73C186.83,-276.69 206.45,-260.82 226,-250.5 234.63,-245.94 244.55,-242.24 253.78,-239.36"/>
<polygon fill="#63b8ff" stroke="#63b8ff" points="170.7,-286.33 165.66,-295.65 175.42,-291.51 170.7,-286.33"/>
</a>
</g>
</g>
<!-- Node48 -->
<g id="Node000048" class="node">
<title>Node48</title>
<g id="a_Node000048"><a xlink:href="classQskRadioBox.html" target="_top" xlink:title=" ">
<polygon fill="white" stroke="#666666" points="327.5,-204 245.5,-204 245.5,-185 327.5,-185 327.5,-204"/>
<text text-anchor="middle" x="286.5" y="-192" font-family="Helvetica,sans-Serif" font-size="10.00">QskRadioBox</text>
</a>
</g>
</g>
<!-- Node2&#45;&gt;Node48 -->
<g id="edge13_Node000002_Node000048" class="edge">
<title>Node2&#45;&gt;Node48</title>
<g id="a_edge13_Node000002_Node000048"><a xlink:title=" ">
<path fill="none" stroke="#63b8ff" d="M165.07,-287.06C176.76,-266.28 198.44,-232.89 226,-213.5 231.85,-209.38 238.64,-206.13 245.5,-203.56"/>
<polygon fill="#63b8ff" stroke="#63b8ff" points="161.98,-285.42 160.28,-295.88 168.13,-288.76 161.98,-285.42"/>
</a>
</g>
</g>
<!-- Node49 -->
<g id="Node000049" class="node">
<title>Node49</title>
<g id="a_Node000049"><a xlink:href="classQskScrollBox.html" target="_top" xlink:title=" ">
<polygon fill="white" stroke="orangered" points="327,-167 246,-167 246,-148 327,-148 327,-167"/>
<text text-anchor="middle" x="286.5" y="-155" font-family="Helvetica,sans-Serif" font-size="10.00">QskScrollBox</text>
</a>
</g>
</g>
<!-- Node2&#45;&gt;Node49 -->
<g id="edge14_Node000002_Node000049" class="edge">
<title>Node2&#45;&gt;Node49</title>
<g id="a_edge14_Node000002_Node000049"><a xlink:title=" ">
<path fill="none" stroke="#63b8ff" d="M161.07,-285.92C170.09,-257.69 190.55,-205.75 226,-176.5 231.77,-171.74 238.75,-168.16 245.88,-165.48"/>
<polygon fill="#63b8ff" stroke="#63b8ff" points="157.62,-285.21 158.07,-295.8 164.32,-287.24 157.62,-285.21"/>
</a>
</g>
</g>
<!-- Node54 -->
<g id="Node000054" class="node">
<title>Node54</title>
<g id="a_Node000054"><a xlink:href="classQskSegmentedBar.html" target="_top" xlink:title=" ">
<polygon fill="white" stroke="#666666" points="340,-130 233,-130 233,-111 340,-111 340,-130"/>
<text text-anchor="middle" x="286.5" y="-118" font-family="Helvetica,sans-Serif" font-size="10.00">QskSegmentedBar</text>
</a>
</g>
</g>
<!-- Node2&#45;&gt;Node54 -->
<g id="edge15_Node000002_Node000054" class="edge">
<title>Node2&#45;&gt;Node54</title>
<g id="a_edge15_Node000002_Node000054"><a xlink:title=" ">
<path fill="none" stroke="#63b8ff" d="M158.5,-285.35C164.74,-250.6 182.34,-179.3 226,-139.5 230.25,-135.63 235.29,-132.55 240.61,-130.09"/>
<polygon fill="#63b8ff" stroke="#63b8ff" points="154.98,-285.2 156.8,-295.64 161.89,-286.34 154.98,-285.2"/>
</a>
</g>
</g>
<!-- Node55 -->
<g id="Node000055" class="node">
<title>Node55</title>
<g id="a_Node000055"><a xlink:href="classQskSeparator.html" target="_top" xlink:title="Separates a group of items from adjacent items.">
<polygon fill="white" stroke="#666666" points="328,-93 245,-93 245,-74 328,-74 328,-93"/>
<text text-anchor="middle" x="286.5" y="-81" font-family="Helvetica,sans-Serif" font-size="10.00">QskSeparator</text>
</a>
</g>
</g>
<!-- Node2&#45;&gt;Node55 -->
<g id="edge16_Node000002_Node000055" class="edge">
<title>Node2&#45;&gt;Node55</title>
<g id="a_edge16_Node000002_Node000055"><a xlink:title=" ">
<path fill="none" stroke="#63b8ff" d="M156.67,-285.75C160.12,-245.52 173.62,-153.58 226,-102.5 231.28,-97.35 237.95,-93.6 244.91,-90.86"/>
<polygon fill="#63b8ff" stroke="#63b8ff" points="153.17,-285.63 155.93,-295.86 160.15,-286.14 153.17,-285.63"/>
</a>
</g>
</g>
<!-- Node56 -->
<g id="Node000056" class="node">
<title>Node56</title>
<g id="a_Node000056"><a xlink:href="classQskStatusIndicator.html" target="_top" xlink:title=" ">
<polygon fill="white" stroke="#bfbfbf" points="341,-56 232,-56 232,-37 341,-37 341,-56"/>
<text text-anchor="middle" x="286.5" y="-44" font-family="Helvetica,sans-Serif" font-size="10.00">QskStatusIndicator</text>
</a>
</g>
</g>
<!-- Node2&#45;&gt;Node56 -->
<g id="edge17_Node000002_Node000056" class="edge">
<title>Node2&#45;&gt;Node56</title>
<g id="a_edge17_Node000002_Node000056"><a xlink:title=" ">
<path fill="none" stroke="#63b8ff" d="M155.42,-285.65C156.33,-240.25 165.01,-127.93 226,-65.5 229.79,-61.62 234.37,-58.53 239.28,-56.07"/>
<polygon fill="#63b8ff" stroke="#63b8ff" points="151.92,-285.65 155.33,-295.68 158.92,-285.71 151.92,-285.65"/>
</a>
</g>
</g>
<!-- Node57 -->
<g id="Node000057" class="node">
<title>Node57</title>
<g id="a_Node000057"><a xlink:href="classQskSubWindowArea.html" target="_top" xlink:title=" ">
<polygon fill="white" stroke="#bfbfbf" points="344,-19 229,-19 229,0 344,0 344,-19"/>
<text text-anchor="middle" x="286.5" y="-7" font-family="Helvetica,sans-Serif" font-size="10.00">QskSubWindowArea</text>
</a>
</g>
</g>
<!-- Node2&#45;&gt;Node57 -->
<g id="edge18_Node000002_Node000057" class="edge">
<title>Node2&#45;&gt;Node57</title>
<g id="a_edge18_Node000002_Node000057"><a xlink:title=" ">
<path fill="none" stroke="#63b8ff" d="M158.05,-285.58C165.71,-228.57 190.27,-66.44 226,-28.5 229.64,-24.63 234.07,-21.55 238.85,-19.09"/>
<polygon fill="#63b8ff" stroke="#63b8ff" points="154.54,-285.42 156.7,-295.79 161.48,-286.33 154.54,-285.42"/>
</a>
</g>
</g>
</g>
</svg>
