<?xml version="1.0" encoding="UTF-8" standalone="no"?>
<!DOCTYPE svg PUBLIC "-//W3C//DTD SVG 1.1//EN"
 "http://www.w3.org/Graphics/SVG/1.1/DTD/svg11.dtd">
<!-- Generated by graphviz version 2.43.0 (0)
 -->
<!-- Title: QskTextPredictor Pages: 1 -->
<svg width="298pt" height="137pt"
 viewBox="0.00 0.00 297.50 137.00" xmlns="http://www.w3.org/2000/svg" xmlns:xlink="http://www.w3.org/1999/xlink">
<g id="graph0" class="graph" transform="scale(1 1) rotate(0) translate(4 133)">
<title>QskTextPredictor</title>
<!-- Node1 -->
<g id="Node000001" class="node">
<title>Node1</title>
<g id="a_Node000001"><a xlink:title=" ">
<polygon fill="#999999" stroke="#666666" points="197.5,-74 98.5,-74 98.5,-55 197.5,-55 197.5,-74"/>
<text text-anchor="middle" x="148" y="-62" font-family="Helvetica,sans-Serif" font-size="10.00">QskTextPredictor</text>
</a>
</g>
</g>
<!-- Node3 -->
<g id="Node000003" class="node">
<title>Node3</title>
<g id="a_Node000003"><a xlink:href="classQskHunspellTextPredictor.html" target="_top" xlink:title=" ">
<polygon fill="white" stroke="#bfbfbf" points="142,-19 0,-19 0,0 142,0 142,-19"/>
<text text-anchor="middle" x="71" y="-7" font-family="Helvetica,sans-Serif" font-size="10.00">QskHunspellTextPredictor</text>
</a>
</g>
</g>
<!-- Node1&#45;&gt;Node3 -->
<g id="edge2_Node000001_Node000003" class="edge">
<title>Node1&#45;&gt;Node3</title>
<g id="a_edge2_Node000001_Node000003"><a xlink:title=" ">
<path fill="none" stroke="#63b8ff" d="M127.15,-49.15C113.24,-39.57 95.39,-27.29 83.6,-19.17"/>
<polygon fill="#63b8ff" stroke="#63b8ff" points="125.41,-52.2 135.63,-54.98 129.38,-46.43 125.41,-52.2"/>
</a>
</g>
</g>
<!-- Node4 -->
<g id="Node000004" class="node">
<title>Node4</title>
<g id="a_Node000004"><a xlink:href="classQskPinyinTextPredictor.html" target="_top" xlink:title=" ">
<polygon fill="white" stroke="#bfbfbf" points="289.5,-19 160.5,-19 160.5,0 289.5,0 289.5,-19"/>
<text text-anchor="middle" x="225" y="-7" font-family="Helvetica,sans-Serif" font-size="10.00">QskPinyinTextPredictor</text>
</a>
</g>
</g>
<!-- Node1&#45;&gt;Node4 -->
<g id="edge3_Node000001_Node000004" class="edge">
<title>Node1&#45;&gt;Node4</title>
<g id="a_edge3_Node000001_Node000004"><a xlink:title=" ">
<path fill="none" stroke="#63b8ff" d="M168.85,-49.15C182.76,-39.57 200.61,-27.29 212.4,-19.17"/>
<polygon fill="#63b8ff" stroke="#63b8ff" points="166.62,-46.43 160.37,-54.98 170.59,-52.2 166.62,-46.43"/>
</a>
</g>
</g>
<!-- Node2 -->
<g id="Node000002" class="node">
<title>Node2</title>
<g id="a_Node000002"><a xlink:title=" ">
<polygon fill="white" stroke="#bfbfbf" points="176,-129 120,-129 120,-110 176,-110 176,-129"/>
<text text-anchor="middle" x="148" y="-117" font-family="Helvetica,sans-Serif" font-size="10.00">QObject</text>
</a>
</g>
</g>
<!-- Node2&#45;&gt;Node1 -->
<g id="edge1_Node000001_Node000002" class="edge">
<title>Node2&#45;&gt;Node1</title>
<g id="a_edge1_Node000001_Node000002"><a xlink:title=" ">
<path fill="none" stroke="#63b8ff" d="M148,-99.66C148,-90.93 148,-80.99 148,-74.09"/>
<polygon fill="#63b8ff" stroke="#63b8ff" points="144.5,-99.75 148,-109.75 151.5,-99.75 144.5,-99.75"/>
</a>
</g>
</g>
</g>
</svg>
