<?xml version="1.0" encoding="UTF-8" standalone="no"?>
<!DOCTYPE svg PUBLIC "-//W3C//DTD SVG 1.1//EN"
 "http://www.w3.org/Graphics/SVG/1.1/DTD/svg11.dtd">
<!-- Generated by graphviz version 2.43.0 (0)
 -->
<!-- Title: Graphical Class Hierarchy Pages: 1 -->
<svg width="438pt" height="212pt"
 viewBox="0.00 0.00 438.00 212.00" xmlns="http://www.w3.org/2000/svg" xmlns:xlink="http://www.w3.org/1999/xlink">
<g id="graph0" class="graph" transform="scale(1 1) rotate(0) translate(4 208)">
<title>Graphical Class Hierarchy</title>
<!-- Node0 -->
<g id="Node000000" class="node">
<title>Node0</title>
<g id="a_Node000000"><a xlink:title=" ">
<polygon fill="#e0e0e0" stroke="#999999" points="112,-130 0,-130 0,-111 112,-111 112,-130"/>
<text text-anchor="middle" x="56" y="-118" font-family="Helvetica,sans-Serif" font-size="10.00">QSGGeometryNode</text>
</a>
</g>
</g>
<!-- Node1 -->
<g id="Node000001" class="node">
<title>Node1</title>
<g id="a_Node000001"><a xlink:href="classQskBasicLinesNode.html" target="_top" xlink:title=" ">
<polygon fill="white" stroke="#666666" points="263.5,-167 150.5,-167 150.5,-148 263.5,-148 263.5,-167"/>
<text text-anchor="middle" x="207" y="-155" font-family="Helvetica,sans-Serif" font-size="10.00">QskBasicLinesNode</text>
</a>
</g>
</g>
<!-- Node0&#45;&gt;Node1 -->
<g id="edge96_Node000000_Node000001" class="edge">
<title>Node0&#45;&gt;Node1</title>
<g id="a_edge96_Node000000_Node000001"><a xlink:title=" ">
<path fill="none" stroke="#63b8ff" d="M105.3,-132.49C125.45,-137.5 148.52,-143.23 167.5,-147.94"/>
<polygon fill="#63b8ff" stroke="#63b8ff" points="105.92,-129.04 95.37,-130.03 104.23,-135.84 105.92,-129.04"/>
</a>
</g>
</g>
<!-- Node4 -->
<g id="Node000004" class="node">
<title>Node4</title>
<g id="a_Node000004"><a xlink:href="classQskBoxShadowNode.html" target="_top" xlink:title=" ">
<polygon fill="white" stroke="#666666" points="266,-130 148,-130 148,-111 266,-111 266,-130"/>
<text text-anchor="middle" x="207" y="-118" font-family="Helvetica,sans-Serif" font-size="10.00">QskBoxShadowNode</text>
</a>
</g>
</g>
<!-- Node0&#45;&gt;Node4 -->
<g id="edge99_Node000000_Node000004" class="edge">
<title>Node0&#45;&gt;Node4</title>
<g id="a_edge99_Node000000_Node000004"><a xlink:title=" ">
<path fill="none" stroke="#63b8ff" d="M122.34,-120.5C130.85,-120.5 139.53,-120.5 147.92,-120.5"/>
<polygon fill="#63b8ff" stroke="#63b8ff" points="122.06,-117 112.06,-120.5 122.06,-124 122.06,-117"/>
</a>
</g>
</g>
<!-- Node5 -->
<g id="Node000005" class="node">
<title>Node5</title>
<g id="a_Node000005"><a xlink:href="classQskFillNode.html" target="_top" xlink:title=" ">
<polygon fill="white" stroke="#666666" points="244.5,-93 169.5,-93 169.5,-74 244.5,-74 244.5,-93"/>
<text text-anchor="middle" x="207" y="-81" font-family="Helvetica,sans-Serif" font-size="10.00">QskFillNode</text>
</a>
</g>
</g>
<!-- Node0&#45;&gt;Node5 -->
<g id="edge100_Node000000_Node000005" class="edge">
<title>Node0&#45;&gt;Node5</title>
<g id="a_edge100_Node000000_Node000005"><a xlink:title=" ">
<path fill="none" stroke="#63b8ff" d="M105.29,-108.51C126.08,-103.34 150,-97.41 169.3,-92.61"/>
<polygon fill="#63b8ff" stroke="#63b8ff" points="104.23,-105.16 95.37,-110.97 105.92,-111.96 104.23,-105.16"/>
</a>
</g>
</g>
<!-- Node2 -->
<g id="Node000002" class="node">
<title>Node2</title>
<g id="a_Node000002"><a xlink:href="classQskGraduationNode.html" target="_top" xlink:title=" ">
<polygon fill="white" stroke="#666666" points="423.5,-204 308.5,-204 308.5,-185 423.5,-185 423.5,-204"/>
<text text-anchor="middle" x="366" y="-192" font-family="Helvetica,sans-Serif" font-size="10.00">QskGraduationNode</text>
</a>
</g>
</g>
<!-- Node1&#45;&gt;Node2 -->
<g id="edge97_Node000001_Node000002" class="edge">
<title>Node1&#45;&gt;Node2</title>
<g id="a_edge97_Node000001_Node000002"><a xlink:title=" ">
<path fill="none" stroke="#63b8ff" d="M258.31,-169.36C279.68,-174.39 304.26,-180.18 324.43,-184.94"/>
<polygon fill="#63b8ff" stroke="#63b8ff" points="258.97,-165.92 248.43,-167.03 257.36,-172.73 258.97,-165.92"/>
</a>
</g>
</g>
<!-- Node3 -->
<g id="Node000003" class="node">
<title>Node3</title>
<g id="a_Node000003"><a xlink:href="classQskLinesNode.html" target="_top" xlink:title=" ">
<polygon fill="white" stroke="#666666" points="409,-167 323,-167 323,-148 409,-148 409,-167"/>
<text text-anchor="middle" x="366" y="-155" font-family="Helvetica,sans-Serif" font-size="10.00">QskLinesNode</text>
</a>
</g>
</g>
<!-- Node1&#45;&gt;Node3 -->
<g id="edge98_Node000001_Node000003" class="edge">
<title>Node1&#45;&gt;Node3</title>
<g id="a_edge98_Node000001_Node000003"><a xlink:title=" ">
<path fill="none" stroke="#63b8ff" d="M273.94,-157.5C290.45,-157.5 307.71,-157.5 322.71,-157.5"/>
<polygon fill="#63b8ff" stroke="#63b8ff" points="273.79,-154 263.79,-157.5 273.79,-161 273.79,-154"/>
</a>
</g>
</g>
<!-- Node6 -->
<g id="Node000006" class="node">
<title>Node6</title>
<g id="a_Node000006"><a xlink:href="classQskArcRenderNode.html" target="_top" xlink:title=" ">
<polygon fill="white" stroke="#666666" points="421.5,-130 310.5,-130 310.5,-111 421.5,-111 421.5,-130"/>
<text text-anchor="middle" x="366" y="-118" font-family="Helvetica,sans-Serif" font-size="10.00">QskArcRenderNode</text>
</a>
</g>
</g>
<!-- Node5&#45;&gt;Node6 -->
<g id="edge101_Node000005_Node000006" class="edge">
<title>Node5&#45;&gt;Node6</title>
<g id="a_edge101_Node000005_Node000006"><a xlink:title=" ">
<path fill="none" stroke="#63b8ff" d="M254.7,-94.5C276.91,-99.74 303.21,-105.94 324.56,-110.97"/>
<polygon fill="#63b8ff" stroke="#63b8ff" points="255.35,-91.06 244.81,-92.17 253.74,-97.88 255.35,-91.06"/>
</a>
</g>
</g>
<!-- Node7 -->
<g id="Node000007" class="node">
<title>Node7</title>
<g id="a_Node000007"><a xlink:href="classQskBoxRectangleNode.html" target="_top" xlink:title=" ">
<polygon fill="white" stroke="#666666" points="430,-93 302,-93 302,-74 430,-74 430,-93"/>
<text text-anchor="middle" x="366" y="-81" font-family="Helvetica,sans-Serif" font-size="10.00">QskBoxRectangleNode</text>
</a>
</g>
</g>
<!-- Node5&#45;&gt;Node7 -->
<g id="edge102_Node000005_Node000007" class="edge">
<title>Node5&#45;&gt;Node7</title>
<g id="a_edge102_Node000005_Node000007"><a xlink:title=" ">
<path fill="none" stroke="#63b8ff" d="M255.18,-83.5C269.9,-83.5 286.37,-83.5 301.99,-83.5"/>
<polygon fill="#63b8ff" stroke="#63b8ff" points="254.81,-80 244.81,-83.5 254.81,-87 254.81,-80"/>
</a>
</g>
</g>
<!-- Node8 -->
<g id="Node000008" class="node">
<title>Node8</title>
<g id="a_Node000008"><a xlink:href="classQskShapeNode.html" target="_top" xlink:title=" ">
<polygon fill="white" stroke="#666666" points="411.5,-56 320.5,-56 320.5,-37 411.5,-37 411.5,-56"/>
<text text-anchor="middle" x="366" y="-44" font-family="Helvetica,sans-Serif" font-size="10.00">QskShapeNode</text>
</a>
</g>
</g>
<!-- Node5&#45;&gt;Node8 -->
<g id="edge103_Node000005_Node000008" class="edge">
<title>Node5&#45;&gt;Node8</title>
<g id="a_edge103_Node000005_Node000008"><a xlink:title=" ">
<path fill="none" stroke="#63b8ff" d="M254.7,-72.5C276.91,-67.26 303.21,-61.06 324.56,-56.03"/>
<polygon fill="#63b8ff" stroke="#63b8ff" points="253.74,-69.12 244.81,-74.83 255.35,-75.94 253.74,-69.12"/>
</a>
</g>
</g>
<!-- Node9 -->
<g id="Node000009" class="node">
<title>Node9</title>
<g id="a_Node000009"><a xlink:href="classQskStrokeNode.html" target="_top" xlink:title=" ">
<polygon fill="white" stroke="#666666" points="412,-19 320,-19 320,0 412,0 412,-19"/>
<text text-anchor="middle" x="366" y="-7" font-family="Helvetica,sans-Serif" font-size="10.00">QskStrokeNode</text>
</a>
</g>
</g>
<!-- Node5&#45;&gt;Node9 -->
<g id="edge104_Node000005_Node000009" class="edge">
<title>Node5&#45;&gt;Node9</title>
<g id="a_edge104_Node000005_Node000009"><a xlink:title=" ">
<path fill="none" stroke="#63b8ff" d="M230.45,-68.32C249.01,-56.28 276.38,-39.67 302,-28.5 310.27,-24.89 319.44,-21.7 328.16,-19.02"/>
<polygon fill="#63b8ff" stroke="#63b8ff" points="228.52,-65.4 222.09,-73.82 232.37,-71.24 228.52,-65.4"/>
</a>
</g>
</g>
</g>
</svg>
