<?xml version="1.0" encoding="UTF-8" standalone="no"?>
<!DOCTYPE svg PUBLIC "-//W3C//DTD SVG 1.1//EN"
 "http://www.w3.org/Graphics/SVG/1.1/DTD/svg11.dtd">
<!-- Generated by graphviz version 2.43.0 (0)
 -->
<!-- Title: Graphical Class Hierarchy Pages: 1 -->
<svg width="312pt" height="101pt"
 viewBox="0.00 0.00 312.00 101.00" xmlns="http://www.w3.org/2000/svg" xmlns:xlink="http://www.w3.org/1999/xlink">
<g id="graph0" class="graph" transform="scale(1 1) rotate(0) translate(4 97)">
<title>Graphical Class Hierarchy</title>
<!-- Node0 -->
<g id="Node000000" class="node">
<title>Node0</title>
<g id="a_Node000000"><a xlink:href="classQskLayoutEngine2D.html" target="_top" xlink:title=" ">
<polygon fill="white" stroke="#666666" points="115,-56 0,-56 0,-37 115,-37 115,-56"/>
<text text-anchor="middle" x="57.5" y="-44" font-family="Helvetica,sans-Serif" font-size="10.00">QskLayoutEngine2D</text>
</a>
</g>
</g>
<!-- Node1 -->
<g id="Node000001" class="node">
<title>Node1</title>
<g id="a_Node000001"><a xlink:href="classQskGridLayoutEngine.html" target="_top" xlink:title=" ">
<polygon fill="white" stroke="#666666" points="288.5,-93 166.5,-93 166.5,-74 288.5,-74 288.5,-93"/>
<text text-anchor="middle" x="227.5" y="-81" font-family="Helvetica,sans-Serif" font-size="10.00">QskGridLayoutEngine</text>
</a>
</g>
</g>
<!-- Node0&#45;&gt;Node1 -->
<g id="edge128_Node000000_Node000001" class="edge">
<title>Node0&#45;&gt;Node1</title>
<g id="a_edge128_Node000000_Node000001"><a xlink:title=" ">
<path fill="none" stroke="#63b8ff" d="M111.72,-58.22C134.72,-63.29 161.3,-69.14 183.09,-73.94"/>
<polygon fill="#63b8ff" stroke="#63b8ff" points="112.28,-54.76 101.76,-56.03 110.78,-61.6 112.28,-54.76"/>
</a>
</g>
</g>
<!-- Node2 -->
<g id="Node000002" class="node">
<title>Node2</title>
<g id="a_Node000002"><a xlink:href="classQskLinearLayoutEngine.html" target="_top" xlink:title=" ">
<polygon fill="white" stroke="#666666" points="293,-56 162,-56 162,-37 293,-37 293,-56"/>
<text text-anchor="middle" x="227.5" y="-44" font-family="Helvetica,sans-Serif" font-size="10.00">QskLinearLayoutEngine</text>
</a>
</g>
</g>
<!-- Node0&#45;&gt;Node2 -->
<g id="edge129_Node000000_Node000002" class="edge">
<title>Node0&#45;&gt;Node2</title>
<g id="a_edge129_Node000000_Node000002"><a xlink:title=" ">
<path fill="none" stroke="#63b8ff" d="M125.71,-46.5C137.63,-46.5 150.02,-46.5 161.87,-46.5"/>
<polygon fill="#63b8ff" stroke="#63b8ff" points="125.38,-43 115.38,-46.5 125.38,-50 125.38,-43"/>
</a>
</g>
</g>
<!-- Node3 -->
<g id="Node000003" class="node">
<title>Node3</title>
<g id="a_Node000003"><a xlink:href="classQskSubcontrolLayoutEngine.html" target="_top" xlink:title=" ">
<polygon fill="white" stroke="#666666" points="304,-19 151,-19 151,0 304,0 304,-19"/>
<text text-anchor="middle" x="227.5" y="-7" font-family="Helvetica,sans-Serif" font-size="10.00">QskSubcontrolLayoutEngine</text>
</a>
</g>
</g>
<!-- Node0&#45;&gt;Node3 -->
<g id="edge130_Node000000_Node000003" class="edge">
<title>Node0&#45;&gt;Node3</title>
<g id="a_edge130_Node000000_Node000003"><a xlink:title=" ">
<path fill="none" stroke="#63b8ff" d="M111.72,-34.78C134.72,-29.71 161.3,-23.86 183.09,-19.06"/>
<polygon fill="#63b8ff" stroke="#63b8ff" points="110.78,-31.4 101.76,-36.97 112.28,-38.24 110.78,-31.4"/>
</a>
</g>
</g>
</g>
</svg>
