<?xml version="1.0" encoding="UTF-8" standalone="no"?>
<!DOCTYPE svg PUBLIC "-//W3C//DTD SVG 1.1//EN"
 "http://www.w3.org/Graphics/SVG/1.1/DTD/svg11.dtd">
<!-- Generated by graphviz version 2.43.0 (0)
 -->
<!-- Title: Graphical Class Hierarchy Pages: 1 -->
<svg width="531pt" height="167pt"
 viewBox="0.00 0.00 531.00 167.00" xmlns="http://www.w3.org/2000/svg" xmlns:xlink="http://www.w3.org/1999/xlink">
<g id="graph0" class="graph" transform="scale(1 1) rotate(0) translate(4 163)">
<title>Graphical Class Hierarchy</title>
<!-- Node0 -->
<g id="Node000000" class="node">
<title>Node0</title>
<g id="a_Node000000"><a xlink:title=" ">
<polygon fill="#e0e0e0" stroke="#999999" points="150,-89 0,-89 0,-70 150,-70 150,-89"/>
<text text-anchor="middle" x="75" y="-77" font-family="Helvetica,sans-Serif" font-size="10.00">QtPrivate::QSlotObjectBase</text>
</a>
</g>
</g>
<!-- Node1 -->
<g id="Node000001" class="node">
<title>Node1</title>
<g id="a_Node000001"><a xlink:href="classQskMetaFunction_1_1FunctionCall.html" target="_top" xlink:title=" ">
<polygon fill="white" stroke="#666666" points="353,-89 186,-89 186,-70 353,-70 353,-89"/>
<text text-anchor="middle" x="269.5" y="-77" font-family="Helvetica,sans-Serif" font-size="10.00">QskMetaFunction::FunctionCall</text>
</a>
</g>
</g>
<!-- Node0&#45;&gt;Node1 -->
<g id="edge161_Node000000_Node000001" class="edge">
<title>Node0&#45;&gt;Node1</title>
<g id="a_edge161_Node000000_Node000001"><a xlink:title=" ">
<path fill="none" stroke="#63b8ff" d="M160.35,-79.5C168.78,-79.5 177.33,-79.5 185.74,-79.5"/>
<polygon fill="#63b8ff" stroke="#63b8ff" points="160.15,-76 150.15,-79.5 160.15,-83 160.15,-76"/>
</a>
</g>
</g>
<!-- Node2 -->
<g id="Node000002" class="node">
<title>Node2</title>
<g id="a_Node000002"><a xlink:href="classQskMetaFunctionCall_1_1FunctorFunctionCall.html" target="_top" xlink:title=" ">
<polygon fill="white" stroke="#666666" points="523,-159 389,-159 389,-118 523,-118 523,-159"/>
<text text-anchor="start" x="397" y="-147" font-family="Helvetica,sans-Serif" font-size="10.00">QskMetaFunctionCall</text>
<text text-anchor="start" x="397" y="-136" font-family="Helvetica,sans-Serif" font-size="10.00">::FunctorFunctionCall</text>
<text text-anchor="middle" x="456" y="-125" font-family="Helvetica,sans-Serif" font-size="10.00">&lt; Function, N, Args, R &gt;</text>
</a>
</g>
</g>
<!-- Node1&#45;&gt;Node2 -->
<g id="edge162_Node000001_Node000002" class="edge">
<title>Node1&#45;&gt;Node2</title>
<g id="a_edge162_Node000001_Node000002"><a xlink:title=" ">
<path fill="none" stroke="#63b8ff" d="M310.14,-92.18C333.56,-99.66 363.76,-109.32 390.53,-117.88"/>
<polygon fill="#63b8ff" stroke="#63b8ff" points="311.14,-88.82 300.55,-89.11 309.01,-95.49 311.14,-88.82"/>
</a>
</g>
</g>
<!-- Node3 -->
<g id="Node000003" class="node">
<title>Node3</title>
<g id="a_Node000003"><a xlink:href="classQskMetaFunctionCall_1_1MemberFunctionCall.html" target="_top" xlink:title=" ">
<polygon fill="white" stroke="#666666" points="517.5,-100 394.5,-100 394.5,-59 517.5,-59 517.5,-100"/>
<text text-anchor="start" x="402.5" y="-88" font-family="Helvetica,sans-Serif" font-size="10.00">QskMetaFunctionCall</text>
<text text-anchor="start" x="402.5" y="-77" font-family="Helvetica,sans-Serif" font-size="10.00">::MemberFunctionCall</text>
<text text-anchor="middle" x="456" y="-66" font-family="Helvetica,sans-Serif" font-size="10.00">&lt; Function, Args, R &gt;</text>
</a>
</g>
</g>
<!-- Node1&#45;&gt;Node3 -->
<g id="edge163_Node000001_Node000003" class="edge">
<title>Node1&#45;&gt;Node3</title>
<g id="a_edge163_Node000001_Node000003"><a xlink:title=" ">
<path fill="none" stroke="#63b8ff" d="M363.18,-79.5C373.77,-79.5 384.36,-79.5 394.38,-79.5"/>
<polygon fill="#63b8ff" stroke="#63b8ff" points="363.04,-76 353.04,-79.5 363.04,-83 363.04,-76"/>
</a>
</g>
</g>
<!-- Node4 -->
<g id="Node000004" class="node">
<title>Node4</title>
<g id="a_Node000004"><a xlink:href="classQskMetaFunctionCall_1_1StaticFunctionCall.html" target="_top" xlink:title=" ">
<polygon fill="white" stroke="#666666" points="516.5,-41 395.5,-41 395.5,0 516.5,0 516.5,-41"/>
<text text-anchor="start" x="403.5" y="-29" font-family="Helvetica,sans-Serif" font-size="10.00">QskMetaFunctionCall</text>
<text text-anchor="start" x="403.5" y="-18" font-family="Helvetica,sans-Serif" font-size="10.00">::StaticFunctionCall</text>
<text text-anchor="middle" x="456" y="-7" font-family="Helvetica,sans-Serif" font-size="10.00">&lt; Function, Args, R &gt;</text>
</a>
</g>
</g>
<!-- Node1&#45;&gt;Node4 -->
<g id="edge164_Node000001_Node000004" class="edge">
<title>Node1&#45;&gt;Node4</title>
<g id="a_edge164_Node000001_Node000004"><a xlink:title=" ">
<path fill="none" stroke="#63b8ff" d="M310.36,-66.75C335.21,-58.81 367.64,-48.44 395.5,-39.53"/>
<polygon fill="#63b8ff" stroke="#63b8ff" points="309.01,-63.51 300.55,-69.89 311.14,-70.18 309.01,-63.51"/>
</a>
</g>
</g>
</g>
</svg>
