<?xml version="1.0" encoding="UTF-8" standalone="no"?>
<!DOCTYPE svg PUBLIC "-//W3C//DTD SVG 1.1//EN"
 "http://www.w3.org/Graphics/SVG/1.1/DTD/svg11.dtd">
<!-- Generated by graphviz version 2.43.0 (0)
 -->
<!-- Title: Graphical Class Hierarchy Pages: 1 -->
<svg width="439pt" height="489pt"
 viewBox="0.00 0.00 439.00 489.00" xmlns="http://www.w3.org/2000/svg" xmlns:xlink="http://www.w3.org/1999/xlink">
<g id="graph0" class="graph" transform="scale(1 1) rotate(0) translate(4 485)">
<title>Graphical Class Hierarchy</title>
<!-- Node0 -->
<g id="Node000000" class="node">
<title>Node0</title>
<g id="a_Node000000"><a xlink:title=" ">
<polygon fill="#e0e0e0" stroke="#999999" points="68,-296 12,-296 12,-277 68,-277 68,-296"/>
<text text-anchor="middle" x="40" y="-284" font-family="Helvetica,sans-Serif" font-size="10.00">QObject</text>
</a>
</g>
</g>
<!-- Node1 -->
<g id="Node000001" class="node">
<title>Node1</title>
<g id="a_Node000001"><a xlink:href="classQskDialog.html" target="_top" xlink:title=" ">
<polygon fill="white" stroke="#666666" points="216.5,-370 149.5,-370 149.5,-351 216.5,-351 216.5,-370"/>
<text text-anchor="middle" x="183" y="-358" font-family="Helvetica,sans-Serif" font-size="10.00">QskDialog</text>
</a>
</g>
</g>
<!-- Node0&#45;&gt;Node1 -->
<g id="edge10_Node000000_Node000001" class="edge">
<title>Node0&#45;&gt;Node1</title>
<g id="a_edge10_Node000000_Node000001"><a xlink:title=" ">
<path fill="none" stroke="#63b8ff" d="M58.99,-303.01C73.44,-315.47 94.76,-332.14 116,-342.5 126.35,-347.55 138.34,-351.36 149.23,-354.14"/>
<polygon fill="#63b8ff" stroke="#63b8ff" points="61.14,-300.24 51.33,-296.24 56.51,-305.49 61.14,-300.24"/>
</a>
</g>
</g>
<!-- Node2 -->
<g id="Node000002" class="node">
<title>Node2</title>
<g id="a_Node000002"><a xlink:href="classQskDirtyItemFilter.html" target="_top" xlink:title=" ">
<polygon fill="white" stroke="#666666" points="236.5,-333 129.5,-333 129.5,-314 236.5,-314 236.5,-333"/>
<text text-anchor="middle" x="183" y="-321" font-family="Helvetica,sans-Serif" font-size="10.00">QskDirtyItemFilter</text>
</a>
</g>
</g>
<!-- Node0&#45;&gt;Node2 -->
<g id="edge11_Node000000_Node000002" class="edge">
<title>Node0&#45;&gt;Node2</title>
<g id="a_edge11_Node000000_Node000002"><a xlink:title=" ">
<path fill="none" stroke="#63b8ff" d="M77.97,-296.2C98.83,-301.68 124.79,-308.49 145.56,-313.94"/>
<polygon fill="#63b8ff" stroke="#63b8ff" points="78.75,-292.79 68.19,-293.63 76.97,-299.56 78.75,-292.79"/>
</a>
</g>
</g>
<!-- Node3 -->
<g id="Node000003" class="node">
<title>Node3</title>
<g id="a_Node000003"><a xlink:href="classQskGestureRecognizer.html" target="_top" xlink:title=" ">
<polygon fill="white" stroke="#666666" points="247,-296 119,-296 119,-277 247,-277 247,-296"/>
<text text-anchor="middle" x="183" y="-284" font-family="Helvetica,sans-Serif" font-size="10.00">QskGestureRecognizer</text>
</a>
</g>
</g>
<!-- Node0&#45;&gt;Node3 -->
<g id="edge12_Node000000_Node000003" class="edge">
<title>Node0&#45;&gt;Node3</title>
<g id="a_edge12_Node000000_Node000003"><a xlink:title=" ">
<path fill="none" stroke="#63b8ff" d="M78.22,-286.5C90.72,-286.5 105.04,-286.5 118.96,-286.5"/>
<polygon fill="#63b8ff" stroke="#63b8ff" points="78.19,-283 68.19,-286.5 78.19,-290 78.19,-283"/>
</a>
</g>
</g>
<!-- Node5 -->
<g id="Node000005" class="node">
<title>Node5</title>
<g id="a_Node000005"><a xlink:href="classQskGraphicProvider.html" target="_top" xlink:title=" ">
<polygon fill="white" stroke="#666666" points="239.5,-259 126.5,-259 126.5,-240 239.5,-240 239.5,-259"/>
<text text-anchor="middle" x="183" y="-247" font-family="Helvetica,sans-Serif" font-size="10.00">QskGraphicProvider</text>
</a>
</g>
</g>
<!-- Node0&#45;&gt;Node5 -->
<g id="edge14_Node000000_Node000005" class="edge">
<title>Node0&#45;&gt;Node5</title>
<g id="a_edge14_Node000000_Node000005"><a xlink:title=" ">
<path fill="none" stroke="#63b8ff" d="M77.97,-276.8C98.83,-271.32 124.79,-264.51 145.56,-259.06"/>
<polygon fill="#63b8ff" stroke="#63b8ff" points="76.97,-273.44 68.19,-279.37 78.75,-280.21 76.97,-273.44"/>
</a>
</g>
</g>
<!-- Node7 -->
<g id="Node000007" class="node">
<title>Node7</title>
<g id="a_Node000007"><a xlink:href="classQskInputContext.html" target="_top" xlink:title=" ">
<polygon fill="white" stroke="#666666" points="232,-222 134,-222 134,-203 232,-203 232,-222"/>
<text text-anchor="middle" x="183" y="-210" font-family="Helvetica,sans-Serif" font-size="10.00">QskInputContext</text>
</a>
</g>
</g>
<!-- Node0&#45;&gt;Node7 -->
<g id="edge16_Node000000_Node000007" class="edge">
<title>Node0&#45;&gt;Node7</title>
<g id="a_edge16_Node000000_Node000007"><a xlink:title=" ">
<path fill="none" stroke="#63b8ff" d="M59.08,-270.38C73.58,-258.2 94.92,-241.85 116,-231.5 123.6,-227.77 132.06,-224.64 140.32,-222.08"/>
<polygon fill="#63b8ff" stroke="#63b8ff" points="56.69,-267.82 51.39,-277 61.26,-273.13 56.69,-267.82"/>
</a>
</g>
</g>
<!-- Node8 -->
<g id="Node000008" class="node">
<title>Node8</title>
<g id="a_Node000008"><a xlink:href="classQskInputContextFactory.html" target="_top" xlink:title=" ">
<polygon fill="white" stroke="#666666" points="250,-185 116,-185 116,-166 250,-166 250,-185"/>
<text text-anchor="middle" x="183" y="-173" font-family="Helvetica,sans-Serif" font-size="10.00">QskInputContextFactory</text>
</a>
</g>
</g>
<!-- Node0&#45;&gt;Node8 -->
<g id="edge17_Node000000_Node000008" class="edge">
<title>Node0&#45;&gt;Node8</title>
<g id="a_edge17_Node000000_Node000008"><a xlink:title=" ">
<path fill="none" stroke="#63b8ff" d="M51.37,-267.93C63.98,-247.03 87.2,-213.52 116,-194.5 121.87,-190.62 128.54,-187.52 135.33,-185.05"/>
<polygon fill="#63b8ff" stroke="#63b8ff" points="48.21,-266.4 46.2,-276.8 54.26,-269.93 48.21,-266.4"/>
</a>
</g>
</g>
<!-- Node9 -->
<g id="Node000009" class="node">
<title>Node9</title>
<g id="a_Node000009"><a xlink:href="classQskSkin.html" target="_top" xlink:title=" ">
<polygon fill="white" stroke="#666666" points="211,-148 155,-148 155,-129 211,-129 211,-148"/>
<text text-anchor="middle" x="183" y="-136" font-family="Helvetica,sans-Serif" font-size="10.00">QskSkin</text>
</a>
</g>
</g>
<!-- Node0&#45;&gt;Node9 -->
<g id="edge18_Node000000_Node000009" class="edge">
<title>Node0&#45;&gt;Node9</title>
<g id="a_edge18_Node000000_Node000009"><a xlink:title=" ">
<path fill="none" stroke="#63b8ff" d="M47.04,-267.14C56.87,-238.82 79.04,-186.31 116,-157.5 127.1,-148.85 141.99,-144.14 154.81,-141.57"/>
<polygon fill="#63b8ff" stroke="#63b8ff" points="43.69,-266.12 43.87,-276.72 50.33,-268.32 43.69,-266.12"/>
</a>
</g>
</g>
<!-- Node10 -->
<g id="Node000010" class="node">
<title>Node10</title>
<g id="a_Node000010"><a xlink:href="classQskSkinFactory.html" target="_top" xlink:title=" ">
<polygon fill="white" stroke="#666666" points="229,-481 137,-481 137,-462 229,-462 229,-481"/>
<text text-anchor="middle" x="183" y="-469" font-family="Helvetica,sans-Serif" font-size="10.00">QskSkinFactory</text>
</a>
</g>
</g>
<!-- Node0&#45;&gt;Node10 -->
<g id="edge19_Node000000_Node000010" class="edge">
<title>Node0&#45;&gt;Node10</title>
<g id="a_edge19_Node000000_Node000010"><a xlink:title=" ">
<path fill="none" stroke="#63b8ff" d="M44.19,-306.03C50.94,-340.97 70.01,-414.17 116,-453.5 121.96,-458.59 129.23,-462.26 136.74,-464.89"/>
<polygon fill="#63b8ff" stroke="#63b8ff" points="47.62,-305.35 42.41,-296.13 40.73,-306.59 47.62,-305.35"/>
</a>
</g>
</g>
<!-- Node11 -->
<g id="Node000011" class="node">
<title>Node11</title>
<g id="a_Node000011"><a xlink:href="classQskSkinManager.html" target="_top" xlink:title=" ">
<polygon fill="white" stroke="#666666" points="232.5,-444 133.5,-444 133.5,-425 232.5,-425 232.5,-444"/>
<text text-anchor="middle" x="183" y="-432" font-family="Helvetica,sans-Serif" font-size="10.00">QskSkinManager</text>
</a>
</g>
</g>
<!-- Node0&#45;&gt;Node11 -->
<g id="edge20_Node000000_Node000011" class="edge">
<title>Node0&#45;&gt;Node11</title>
<g id="a_edge20_Node000000_Node000011"><a xlink:title=" ">
<path fill="none" stroke="#63b8ff" d="M46.8,-305.65C56.44,-334.18 78.49,-387.58 116,-416.5 121.17,-420.49 127.17,-423.59 133.4,-426.01"/>
<polygon fill="#63b8ff" stroke="#63b8ff" points="50.1,-304.49 43.71,-296.04 43.44,-306.63 50.1,-304.49"/>
</a>
</g>
</g>
<!-- Node12 -->
<g id="Node000012" class="node">
<title>Node12</title>
<g id="a_Node000012"><a xlink:href="classQskStackBoxAnimator.html" target="_top" xlink:title=" ">
<polygon fill="white" stroke="#666666" points="246,-111 120,-111 120,-92 246,-92 246,-111"/>
<text text-anchor="middle" x="183" y="-99" font-family="Helvetica,sans-Serif" font-size="10.00">QskStackBoxAnimator</text>
</a>
</g>
</g>
<!-- Node0&#45;&gt;Node12 -->
<g id="edge21_Node000000_Node000012" class="edge">
<title>Node0&#45;&gt;Node12</title>
<g id="a_edge21_Node000000_Node000012"><a xlink:title=" ">
<path fill="none" stroke="#63b8ff" d="M44.37,-266.69C51.35,-231.89 70.67,-159.73 116,-120.5 120.51,-116.6 125.77,-113.5 131.33,-111.03"/>
<polygon fill="#63b8ff" stroke="#63b8ff" points="40.85,-266.49 42.46,-276.96 47.73,-267.77 40.85,-266.49"/>
</a>
</g>
</g>
<!-- Node21 -->
<g id="Node000021" class="node">
<title>Node21</title>
<g id="a_Node000021"><a xlink:href="classQskTextPredictor.html" target="_top" xlink:title=" ">
<polygon fill="white" stroke="#666666" points="232.5,-407 133.5,-407 133.5,-388 232.5,-388 232.5,-407"/>
<text text-anchor="middle" x="183" y="-395" font-family="Helvetica,sans-Serif" font-size="10.00">QskTextPredictor</text>
</a>
</g>
</g>
<!-- Node0&#45;&gt;Node21 -->
<g id="edge26_Node000000_Node000021" class="edge">
<title>Node0&#45;&gt;Node21</title>
<g id="a_edge26_Node000000_Node000021"><a xlink:title=" ">
<path fill="none" stroke="#63b8ff" d="M51.08,-305.02C63.56,-326.2 86.78,-360.39 116,-379.5 121.27,-382.95 127.18,-385.74 133.25,-387.99"/>
<polygon fill="#63b8ff" stroke="#63b8ff" points="53.97,-303.02 45.98,-296.05 47.88,-306.48 53.97,-303.02"/>
</a>
</g>
</g>
<!-- Node4 -->
<g id="Node000004" class="node">
<title>Node4</title>
<g id="a_Node000004"><a xlink:href="classQskPanGestureRecognizer.html" target="_top" xlink:title=" ">
<polygon fill="white" stroke="#666666" points="431,-296 286,-296 286,-277 431,-277 431,-296"/>
<text text-anchor="middle" x="358.5" y="-284" font-family="Helvetica,sans-Serif" font-size="10.00">QskPanGestureRecognizer</text>
</a>
</g>
</g>
<!-- Node3&#45;&gt;Node4 -->
<g id="edge13_Node000003_Node000004" class="edge">
<title>Node3&#45;&gt;Node4</title>
<g id="a_edge13_Node000003_Node000004"><a xlink:title=" ">
<path fill="none" stroke="#63b8ff" d="M257.3,-286.5C266.77,-286.5 276.45,-286.5 285.9,-286.5"/>
<polygon fill="#63b8ff" stroke="#63b8ff" points="257.13,-283 247.13,-286.5 257.13,-290 257.13,-283"/>
</a>
</g>
</g>
<!-- Node6 -->
<g id="Node000006" class="node">
<title>Node6</title>
<g id="a_Node000006"><a xlink:href="classQskGlyphGraphicProvider.html" target="_top" xlink:title=" ">
<polygon fill="white" stroke="#666666" points="429.5,-259 287.5,-259 287.5,-240 429.5,-240 429.5,-259"/>
<text text-anchor="middle" x="358.5" y="-247" font-family="Helvetica,sans-Serif" font-size="10.00">QskGlyphGraphicProvider</text>
</a>
</g>
</g>
<!-- Node5&#45;&gt;Node6 -->
<g id="edge15_Node000005_Node000006" class="edge">
<title>Node5&#45;&gt;Node6</title>
<g id="a_edge15_Node000005_Node000006"><a xlink:title=" ">
<path fill="none" stroke="#63b8ff" d="M249.98,-249.5C262.24,-249.5 275.08,-249.5 287.44,-249.5"/>
<polygon fill="#63b8ff" stroke="#63b8ff" points="249.85,-246 239.85,-249.5 249.85,-253 249.85,-246"/>
</a>
</g>
</g>
<!-- Node13 -->
<g id="Node000013" class="node">
<title>Node13</title>
<g id="a_Node000013"><a xlink:href="classQskStackBoxAnimator1.html" target="_top" xlink:title=" ">
<polygon fill="white" stroke="#666666" points="424.5,-74 292.5,-74 292.5,-55 424.5,-55 424.5,-74"/>
<text text-anchor="middle" x="358.5" y="-62" font-family="Helvetica,sans-Serif" font-size="10.00">QskStackBoxAnimator1</text>
</a>
</g>
</g>
<!-- Node12&#45;&gt;Node13 -->
<g id="edge22_Node000012_Node000013" class="edge">
<title>Node12&#45;&gt;Node13</title>
<g id="a_edge22_Node000012_Node000013"><a xlink:title=" ">
<path fill="none" stroke="#63b8ff" d="M238.64,-89.85C262.47,-84.77 290.07,-78.88 312.67,-74.06"/>
<polygon fill="#63b8ff" stroke="#63b8ff" points="237.73,-86.46 228.68,-91.97 239.19,-93.31 237.73,-86.46"/>
</a>
</g>
</g>
<!-- Node14 -->
<g id="Node000014" class="node">
<title>Node14</title>
<g id="a_Node000014"><a xlink:href="classQskStackBoxAnimator2.html" target="_top" xlink:title=" ">
<polygon fill="white" stroke="#666666" points="424.5,-185 292.5,-185 292.5,-166 424.5,-166 424.5,-185"/>
<text text-anchor="middle" x="358.5" y="-173" font-family="Helvetica,sans-Serif" font-size="10.00">QskStackBoxAnimator2</text>
</a>
</g>
</g>
<!-- Node12&#45;&gt;Node14 -->
<g id="edge23_Node000012_Node000014" class="edge">
<title>Node12&#45;&gt;Node14</title>
<g id="a_edge23_Node000012_Node000014"><a xlink:title=" ">
<path fill="none" stroke="#63b8ff" d="M238.48,-114.67C242.49,-116.39 246.38,-118.33 250,-120.5 269.68,-132.29 266.12,-146.04 286,-157.5 291.88,-160.89 298.39,-163.64 305.01,-165.89"/>
<polygon fill="#63b8ff" stroke="#63b8ff" points="239.58,-111.34 228.99,-111.03 237.07,-117.88 239.58,-111.34"/>
</a>
</g>
</g>
<!-- Node15 -->
<g id="Node000015" class="node">
<title>Node15</title>
<g id="a_Node000015"><a xlink:href="classQskStackBoxAnimator3.html" target="_top" xlink:title=" ">
<polygon fill="white" stroke="#666666" points="424.5,-148 292.5,-148 292.5,-129 424.5,-129 424.5,-148"/>
<text text-anchor="middle" x="358.5" y="-136" font-family="Helvetica,sans-Serif" font-size="10.00">QskStackBoxAnimator3</text>
</a>
</g>
</g>
<!-- Node12&#45;&gt;Node15 -->
<g id="edge24_Node000012_Node000015" class="edge">
<title>Node12&#45;&gt;Node15</title>
<g id="a_edge24_Node000012_Node000015"><a xlink:title=" ">
<path fill="none" stroke="#63b8ff" d="M238.64,-113.15C262.47,-118.23 290.07,-124.12 312.67,-128.94"/>
<polygon fill="#63b8ff" stroke="#63b8ff" points="239.19,-109.69 228.68,-111.03 237.73,-116.54 239.19,-109.69"/>
</a>
</g>
</g>
<!-- Node16 -->
<g id="Node000016" class="node">
<title>Node16</title>
<g id="a_Node000016"><a xlink:href="classQskStackBoxAnimator4.html" target="_top" xlink:title=" ">
<polygon fill="white" stroke="#666666" points="424.5,-111 292.5,-111 292.5,-92 424.5,-92 424.5,-111"/>
<text text-anchor="middle" x="358.5" y="-99" font-family="Helvetica,sans-Serif" font-size="10.00">QskStackBoxAnimator4</text>
</a>
</g>
</g>
<!-- Node12&#45;&gt;Node16 -->
<g id="edge25_Node000012_Node000016" class="edge">
<title>Node12&#45;&gt;Node16</title>
<g id="a_edge25_Node000012_Node000016"><a xlink:title=" ">
<path fill="none" stroke="#63b8ff" d="M256.47,-101.5C268.34,-101.5 280.59,-101.5 292.27,-101.5"/>
<polygon fill="#63b8ff" stroke="#63b8ff" points="256.15,-98 246.15,-101.5 256.15,-105 256.15,-98"/>
</a>
</g>
</g>
<!-- Node22 -->
<g id="Node000022" class="node">
<title>Node22</title>
<g id="a_Node000022"><a xlink:href="classQskHunspellTextPredictor.html" target="_top" xlink:title=" ">
<polygon fill="white" stroke="#666666" points="429.5,-388 287.5,-388 287.5,-369 429.5,-369 429.5,-388"/>
<text text-anchor="middle" x="358.5" y="-376" font-family="Helvetica,sans-Serif" font-size="10.00">QskHunspellTextPredictor</text>
</a>
</g>
</g>
<!-- Node21&#45;&gt;Node22 -->
<g id="edge27_Node000021_Node000022" class="edge">
<title>Node21&#45;&gt;Node22</title>
<g id="a_edge27_Node000021_Node000022"><a xlink:title=" ">
<path fill="none" stroke="#63b8ff" d="M242.97,-391.04C257.25,-389.48 272.65,-387.79 287.39,-386.18"/>
<polygon fill="#63b8ff" stroke="#63b8ff" points="242.35,-387.59 232.79,-392.16 243.11,-394.55 242.35,-387.59"/>
</a>
</g>
</g>
<!-- Node23 -->
<g id="Node000023" class="node">
<title>Node23</title>
<g id="a_Node000023"><a xlink:href="classQskPinyinTextPredictor.html" target="_top" xlink:title=" ">
<polygon fill="white" stroke="#666666" points="423,-425 294,-425 294,-406 423,-406 423,-425"/>
<text text-anchor="middle" x="358.5" y="-413" font-family="Helvetica,sans-Serif" font-size="10.00">QskPinyinTextPredictor</text>
</a>
</g>
</g>
<!-- Node21&#45;&gt;Node23 -->
<g id="edge28_Node000021_Node000023" class="edge">
<title>Node21&#45;&gt;Node23</title>
<g id="a_edge28_Node000021_Node000023"><a xlink:title=" ">
<path fill="none" stroke="#63b8ff" d="M242.8,-403.6C259.23,-405.3 277.15,-407.16 293.84,-408.9"/>
<polygon fill="#63b8ff" stroke="#63b8ff" points="243.1,-400.11 232.79,-402.56 242.38,-407.08 243.1,-400.11"/>
</a>
</g>
</g>
<!-- Node17 -->
<g id="Node000017" class="node">
<title>Node17</title>
<g id="a_Node000017"><a xlink:href="classQskAnimator.html" target="_top" xlink:title=" ">
<polygon fill="white" stroke="#666666" points="80,-56 0,-56 0,-37 80,-37 80,-56"/>
<text text-anchor="middle" x="40" y="-44" font-family="Helvetica,sans-Serif" font-size="10.00">QskAnimator</text>
</a>
</g>
</g>
<!-- Node17&#45;&gt;Node12 -->
<g id="edge30_Node000017_Node000012" class="edge">
<title>Node17&#45;&gt;Node12</title>
<g id="a_edge30_Node000017_Node000012"><a xlink:title=" ">
<path fill="none" stroke="#63b8ff" d="M75.15,-59.82C100.5,-69.71 134.48,-82.96 157.25,-91.84"/>
<polygon fill="#63b8ff" stroke="#63b8ff" points="76.15,-56.45 65.56,-56.08 73.6,-62.98 76.15,-56.45"/>
</a>
</g>
</g>
<!-- Node18 -->
<g id="Node000018" class="node">
<title>Node18</title>
<g id="a_Node000018"><a xlink:href="classQskFlickAnimator.html" target="_top" xlink:title=" ">
<polygon fill="white" stroke="#666666" points="235,-19 131,-19 131,0 235,0 235,-19"/>
<text text-anchor="middle" x="183" y="-7" font-family="Helvetica,sans-Serif" font-size="10.00">QskFlickAnimator</text>
</a>
</g>
</g>
<!-- Node17&#45;&gt;Node18 -->
<g id="edge29_Node000017_Node000018" class="edge">
<title>Node17&#45;&gt;Node18</title>
<g id="a_edge29_Node000017_Node000018"><a xlink:title=" ">
<path fill="none" stroke="#63b8ff" d="M87.19,-34.38C106.05,-29.43 127.56,-23.78 145.32,-19.12"/>
<polygon fill="#63b8ff" stroke="#63b8ff" points="86.1,-31.05 77.31,-36.97 87.87,-37.82 86.1,-31.05"/>
</a>
</g>
</g>
<!-- Node19 -->
<g id="Node000019" class="node">
<title>Node19</title>
<g id="a_Node000019"><a xlink:href="classQskVariantAnimator.html" target="_top" xlink:title=" ">
<polygon fill="white" stroke="#666666" points="240.5,-56 125.5,-56 125.5,-37 240.5,-37 240.5,-56"/>
<text text-anchor="middle" x="183" y="-44" font-family="Helvetica,sans-Serif" font-size="10.00">QskVariantAnimator</text>
</a>
</g>
</g>
<!-- Node17&#45;&gt;Node19 -->
<g id="edge31_Node000017_Node000019" class="edge">
<title>Node17&#45;&gt;Node19</title>
<g id="a_edge31_Node000017_Node000019"><a xlink:title=" ">
<path fill="none" stroke="#63b8ff" d="M90.37,-46.5C101.65,-46.5 113.72,-46.5 125.28,-46.5"/>
<polygon fill="#63b8ff" stroke="#63b8ff" points="90.28,-43 80.28,-46.5 90.28,-50 90.28,-43"/>
</a>
</g>
</g>
<!-- Node20 -->
<g id="Node000020" class="node">
<title>Node20</title>
<g id="a_Node000020"><a xlink:href="classQskHintAnimator.html" target="_top" xlink:title=" ">
<polygon fill="white" stroke="#666666" points="409,-37 308,-37 308,-18 409,-18 409,-37"/>
<text text-anchor="middle" x="358.5" y="-25" font-family="Helvetica,sans-Serif" font-size="10.00">QskHintAnimator</text>
</a>
</g>
</g>
<!-- Node19&#45;&gt;Node20 -->
<g id="edge32_Node000019_Node000020" class="edge">
<title>Node19&#45;&gt;Node20</title>
<g id="a_edge32_Node000019_Node000020"><a xlink:title=" ">
<path fill="none" stroke="#63b8ff" d="M250.88,-39.18C269.83,-37.1 290.12,-34.88 307.86,-32.94"/>
<polygon fill="#63b8ff" stroke="#63b8ff" points="250.37,-35.71 240.81,-40.28 251.13,-42.67 250.37,-35.71"/>
</a>
</g>
</g>
</g>
</svg>
