<?xml version="1.0" encoding="UTF-8" standalone="no"?>
<!DOCTYPE svg PUBLIC "-//W3C//DTD SVG 1.1//EN"
 "http://www.w3.org/Graphics/SVG/1.1/DTD/svg11.dtd">
<!-- Generated by graphviz version 2.43.0 (0)
 -->
<!-- Title: Graphical Class Hierarchy Pages: 1 -->
<svg width="506pt" height="64pt"
 viewBox="0.00 0.00 506.00 64.00" xmlns="http://www.w3.org/2000/svg" xmlns:xlink="http://www.w3.org/1999/xlink">
<g id="graph0" class="graph" transform="scale(1 1) rotate(0) translate(4 60)">
<title>Graphical Class Hierarchy</title>
<!-- Node0 -->
<g id="Node000000" class="node">
<title>Node0</title>
<g id="a_Node000000"><a xlink:title=" ">
<polygon fill="#e0e0e0" stroke="#999999" points="91,-37 0,-37 0,-18 91,-18 91,-37"/>
<text text-anchor="middle" x="45.5" y="-25" font-family="Helvetica,sans-Serif" font-size="10.00">QQuickWindow</text>
</a>
</g>
</g>
<!-- Node1 -->
<g id="Node000001" class="node">
<title>Node1</title>
<g id="a_Node000001"><a xlink:href="classQskWindow.html" target="_top" xlink:title=" ">
<polygon fill="white" stroke="#666666" points="201,-37 127,-37 127,-18 201,-18 201,-37"/>
<text text-anchor="middle" x="164" y="-25" font-family="Helvetica,sans-Serif" font-size="10.00">QskWindow</text>
</a>
</g>
</g>
<!-- Node0&#45;&gt;Node1 -->
<g id="edge97_Node000000_Node000001" class="edge">
<title>Node0&#45;&gt;Node1</title>
<g id="a_edge97_Node000000_Node000001"><a xlink:title=" ">
<path fill="none" stroke="#63b8ff" d="M101.31,-27.5C110,-27.5 118.78,-27.5 126.9,-27.5"/>
<polygon fill="#63b8ff" stroke="#63b8ff" points="101.21,-24 91.21,-27.5 101.21,-31 101.21,-24"/>
</a>
</g>
</g>
<!-- Node2 -->
<g id="Node000002" class="node">
<title>Node2</title>
<g id="a_Node000002"><a xlink:href="classQskDialogWindow.html" target="_top" xlink:title=" ">
<polygon fill="white" stroke="#666666" points="343,-37 237,-37 237,-18 343,-18 343,-37"/>
<text text-anchor="middle" x="290" y="-25" font-family="Helvetica,sans-Serif" font-size="10.00">QskDialogWindow</text>
</a>
</g>
</g>
<!-- Node1&#45;&gt;Node2 -->
<g id="edge98_Node000001_Node000002" class="edge">
<title>Node1&#45;&gt;Node2</title>
<g id="a_edge98_Node000001_Node000002"><a xlink:title=" ">
<path fill="none" stroke="#63b8ff" d="M211.44,-27.5C219.73,-27.5 228.42,-27.5 236.86,-27.5"/>
<polygon fill="#63b8ff" stroke="#63b8ff" points="211.2,-24 201.2,-27.5 211.2,-31 211.2,-24"/>
</a>
</g>
</g>
<!-- Node3 -->
<g id="Node000003" class="node">
<title>Node3</title>
<g id="a_Node000003"><a xlink:href="classQskMessageWindow.html" target="_top" xlink:title=" ">
<polygon fill="white" stroke="#666666" points="497.5,-56 379.5,-56 379.5,-37 497.5,-37 497.5,-56"/>
<text text-anchor="middle" x="438.5" y="-44" font-family="Helvetica,sans-Serif" font-size="10.00">QskMessageWindow</text>
</a>
</g>
</g>
<!-- Node2&#45;&gt;Node3 -->
<g id="edge99_Node000002_Node000003" class="edge">
<title>Node2&#45;&gt;Node3</title>
<g id="a_edge99_Node000002_Node000003"><a xlink:title=" ">
<path fill="none" stroke="#63b8ff" d="M353.14,-35.56C361.84,-36.69 370.75,-37.84 379.37,-38.96"/>
<polygon fill="#63b8ff" stroke="#63b8ff" points="353.43,-32.07 343.06,-34.25 352.53,-39.01 353.43,-32.07"/>
</a>
</g>
</g>
<!-- Node4 -->
<g id="Node000004" class="node">
<title>Node4</title>
<g id="a_Node000004"><a xlink:href="classQskSelectionWindow.html" target="_top" xlink:title=" ">
<polygon fill="white" stroke="#666666" points="498,-19 379,-19 379,0 498,0 498,-19"/>
<text text-anchor="middle" x="438.5" y="-7" font-family="Helvetica,sans-Serif" font-size="10.00">QskSelectionWindow</text>
</a>
</g>
</g>
<!-- Node2&#45;&gt;Node4 -->
<g id="edge100_Node000002_Node000004" class="edge">
<title>Node2&#45;&gt;Node4</title>
<g id="a_edge100_Node000002_Node000004"><a xlink:title=" ">
<path fill="none" stroke="#63b8ff" d="M353,-19.88C361.58,-18.83 370.36,-17.75 378.87,-16.7"/>
<polygon fill="#63b8ff" stroke="#63b8ff" points="352.56,-16.41 343.06,-21.1 353.42,-23.36 352.56,-16.41"/>
</a>
</g>
</g>
</g>
</svg>
