<?xml version="1.0" encoding="UTF-8" standalone="no"?>
<!DOCTYPE svg PUBLIC "-//W3C//DTD SVG 1.1//EN"
 "http://www.w3.org/Graphics/SVG/1.1/DTD/svg11.dtd">
<!-- Generated by graphviz version 2.43.0 (0)
 -->
<!-- Title: QskBoundedInput Pages: 1 -->
<svg width="307pt" height="357pt"
 viewBox="0.00 0.00 306.50 357.00" xmlns="http://www.w3.org/2000/svg" xmlns:xlink="http://www.w3.org/1999/xlink">

<svg id="main" version="1.1" xmlns="http://www.w3.org/2000/svg" xmlns:xlink="http://www.w3.org/1999/xlink" xml:space="preserve" onload="init(evt)">
<style type="text/css"><![CDATA[
.node, .edge {opacity: 0.7;}
.node.selected, .edge.selected {opacity: 1;}
.edge:hover path { stroke: red; }
.edge:hover polygon { stroke: red; fill: red; }
]]></style>
<script type="application/ecmascript" xlink:href="svg.min.js"/>
<svg id="graph" class="graph">
<g id="graph0" class="graph" transform="scale(1 1) rotate(0) translate(4 353)">
<title>QskBoundedInput</title>
<!-- Node1 -->
<g id="Node000001" class="node">
<title>Node1</title>
<g id="a_Node000001"><a xlink:title=" ">
<polygon fill="#999999" stroke="#666666" points="193.5,-129 90.5,-129 90.5,-110 193.5,-110 193.5,-129"/>
<text text-anchor="middle" x="142" y="-117" font-family="Helvetica,sans-Serif" font-size="10.00">QskBoundedInput</text>
</a>
</g>
</g>
<!-- Node7 -->
<g id="Node000007" class="node">
<title>Node7</title>
<g id="a_Node000007"><a xlink:href="classQskBoundedRangeInput.html" target="_top" xlink:title=" ">
<polygon fill="white" stroke="#bfbfbf" points="134,-74 0,-74 0,-55 134,-55 134,-74"/>
<text text-anchor="middle" x="67" y="-62" font-family="Helvetica,sans-Serif" font-size="10.00">QskBoundedRangeInput</text>
</a>
</g>
</g>
<!-- Node1&#45;&gt;Node7 -->
<g id="edge6_Node000001_Node000007" class="edge">
<title>Node1&#45;&gt;Node7</title>
<g id="a_edge6_Node000001_Node000007"><a xlink:title=" ">
<path fill="none" stroke="#63b8ff" d="M121.69,-104.15C108.14,-94.57 90.76,-82.29 79.27,-74.17"/>
<polygon fill="#63b8ff" stroke="#63b8ff" points="119.76,-107.07 129.95,-109.98 123.8,-101.36 119.76,-107.07"/>
</a>
</g>
</g>
<!-- Node8 -->
<g id="Node000008" class="node">
<title>Node8</title>
<g id="a_Node000008"><a xlink:href="classQskBoundedValueInput.html" target="_top" xlink:title=" ">
<polygon fill="white" stroke="#bfbfbf" points="282,-74 152,-74 152,-55 282,-55 282,-74"/>
<text text-anchor="middle" x="217" y="-62" font-family="Helvetica,sans-Serif" font-size="10.00">QskBoundedValueInput</text>
</a>
</g>
</g>
<!-- Node1&#45;&gt;Node8 -->
<g id="edge7_Node000001_Node000008" class="edge">
<title>Node1&#45;&gt;Node8</title>
<g id="a_edge7_Node000001_Node000008"><a xlink:title=" ">
<path fill="none" stroke="#63b8ff" d="M162.31,-104.15C175.86,-94.57 193.24,-82.29 204.73,-74.17"/>
<polygon fill="#63b8ff" stroke="#63b8ff" points="160.2,-101.36 154.05,-109.98 164.24,-107.07 160.2,-101.36"/>
</a>
</g>
</g>
<!-- Node2 -->
<g id="Node000002" class="node">
<title>Node2</title>
<g id="a_Node000002"><a xlink:href="classQskBoundedControl.html" target="_top" xlink:title=" ">
<polygon fill="white" stroke="#bfbfbf" points="198.5,-184 85.5,-184 85.5,-165 198.5,-165 198.5,-184"/>
<text text-anchor="middle" x="142" y="-172" font-family="Helvetica,sans-Serif" font-size="10.00">QskBoundedControl</text>
</a>
</g>
</g>
<!-- Node2&#45;&gt;Node1 -->
<g id="edge1_Node000001_Node000002" class="edge">
<title>Node2&#45;&gt;Node1</title>
<g id="a_edge1_Node000001_Node000002"><a xlink:title=" ">
<path fill="none" stroke="#63b8ff" d="M142,-154.66C142,-145.93 142,-135.99 142,-129.09"/>
<polygon fill="#63b8ff" stroke="#63b8ff" points="138.5,-154.75 142,-164.75 145.5,-154.75 138.5,-154.75"/>
</a>
</g>
</g>
<!-- Node3 -->
<g id="Node000003" class="node">
<title>Node3</title>
<g id="a_Node000003"><a xlink:href="classQskControl.html" target="_top" xlink:title="Base class of all controls.">
<polygon fill="white" stroke="#666666" points="177.5,-239 106.5,-239 106.5,-220 177.5,-220 177.5,-239"/>
<text text-anchor="middle" x="142" y="-227" font-family="Helvetica,sans-Serif" font-size="10.00">QskControl</text>
</a>
</g>
</g>
<!-- Node3&#45;&gt;Node2 -->
<g id="edge2_Node000002_Node000003" class="edge">
<title>Node3&#45;&gt;Node2</title>
<g id="a_edge2_Node000002_Node000003"><a xlink:title=" ">
<path fill="none" stroke="#63b8ff" d="M142,-209.66C142,-200.93 142,-190.99 142,-184.09"/>
<polygon fill="#63b8ff" stroke="#63b8ff" points="138.5,-209.75 142,-219.75 145.5,-209.75 138.5,-209.75"/>
</a>
</g>
</g>
<!-- Node4 -->
<g id="Node000004" class="node">
<title>Node4</title>
<g id="a_Node000004"><a xlink:href="classQskItem.html" target="_top" xlink:title=" ">
<polygon fill="white" stroke="#666666" points="127,-294 69,-294 69,-275 127,-275 127,-294"/>
<text text-anchor="middle" x="98" y="-282" font-family="Helvetica,sans-Serif" font-size="10.00">QskItem</text>
</a>
</g>
</g>
<!-- Node4&#45;&gt;Node3 -->
<g id="edge3_Node000003_Node000004" class="edge">
<title>Node4&#45;&gt;Node3</title>
<g id="a_edge3_Node000003_Node000004"><a xlink:title=" ">
<path fill="none" stroke="#63b8ff" d="M111.73,-266.96C119.4,-257.72 128.63,-246.6 134.87,-239.09"/>
<polygon fill="#63b8ff" stroke="#63b8ff" points="108.96,-264.82 105.27,-274.75 114.35,-269.29 108.96,-264.82"/>
</a>
</g>
</g>
<!-- Node5 -->
<g id="Node000005" class="node">
<title>Node5</title>
<g id="a_Node000005"><a xlink:title=" ">
<polygon fill="white" stroke="#bfbfbf" points="135,-349 61,-349 61,-330 135,-330 135,-349"/>
<text text-anchor="middle" x="98" y="-337" font-family="Helvetica,sans-Serif" font-size="10.00">QQuickItem</text>
</a>
</g>
</g>
<!-- Node5&#45;&gt;Node4 -->
<g id="edge4_Node000004_Node000005" class="edge">
<title>Node5&#45;&gt;Node4</title>
<g id="a_edge4_Node000004_Node000005"><a xlink:title=" ">
<path fill="none" stroke="#63b8ff" d="M98,-319.66C98,-310.93 98,-300.99 98,-294.09"/>
<polygon fill="#63b8ff" stroke="#63b8ff" points="94.5,-319.75 98,-329.75 101.5,-319.75 94.5,-319.75"/>
</a>
</g>
</g>
<!-- Node6 -->
<g id="Node000006" class="node">
<title>Node6</title>
<g id="a_Node000006"><a xlink:href="classQskSkinnable.html" target="_top" xlink:title=" ">
<polygon fill="white" stroke="#666666" points="228.5,-294 145.5,-294 145.5,-275 228.5,-275 228.5,-294"/>
<text text-anchor="middle" x="187" y="-282" font-family="Helvetica,sans-Serif" font-size="10.00">QskSkinnable</text>
</a>
</g>
</g>
<!-- Node6&#45;&gt;Node3 -->
<g id="edge5_Node000003_Node000006" class="edge">
<title>Node6&#45;&gt;Node3</title>
<g id="a_edge5_Node000003_Node000006"><a xlink:title=" ">
<path fill="none" stroke="#63b8ff" d="M172.95,-266.96C165.11,-257.72 155.67,-246.6 149.29,-239.09"/>
<polygon fill="#63b8ff" stroke="#63b8ff" points="170.43,-269.39 179.57,-274.75 175.76,-264.86 170.43,-269.39"/>
</a>
</g>
</g>
<!-- Node9 -->
<g id="Node000009" class="node">
<title>Node9</title>
<g id="a_Node000009"><a xlink:href="classQskSlider.html" target="_top" xlink:title=" ">
<polygon fill="white" stroke="#bfbfbf" points="205.5,-19 142.5,-19 142.5,0 205.5,0 205.5,-19"/>
<text text-anchor="middle" x="174" y="-7" font-family="Helvetica,sans-Serif" font-size="10.00">QskSlider</text>
</a>
</g>
</g>
<!-- Node8&#45;&gt;Node9 -->
<g id="edge8_Node000008_Node000009" class="edge">
<title>Node8&#45;&gt;Node9</title>
<g id="a_edge8_Node000008_Node000009"><a xlink:title=" ">
<path fill="none" stroke="#63b8ff" d="M203.58,-46.96C196.09,-37.72 187.06,-26.6 180.97,-19.09"/>
<polygon fill="#63b8ff" stroke="#63b8ff" points="200.88,-49.19 209.9,-54.75 206.32,-44.78 200.88,-49.19"/>
</a>
</g>
</g>
<!-- Node10 -->
<g id="Node000010" class="node">
<title>Node10</title>
<g id="a_Node000010"><a xlink:href="classQskSpinBox.html" target="_top" xlink:title="A control to edit, increment and decrement number values.">
<polygon fill="white" stroke="#666666" points="298.5,-19 223.5,-19 223.5,0 298.5,0 298.5,-19"/>
<text text-anchor="middle" x="261" y="-7" font-family="Helvetica,sans-Serif" font-size="10.00">QskSpinBox</text>
</a>
</g>
</g>
<!-- Node8&#45;&gt;Node10 -->
<g id="edge9_Node000008_Node000010" class="edge">
<title>Node8&#45;&gt;Node10</title>
<g id="a_edge9_Node000008_Node000010"><a xlink:title=" ">
<path fill="none" stroke="#63b8ff" d="M230.73,-46.96C238.4,-37.72 247.63,-26.6 253.87,-19.09"/>
<polygon fill="#63b8ff" stroke="#63b8ff" points="227.96,-44.82 224.27,-54.75 233.35,-49.29 227.96,-44.82"/>
</a>
</g>
</g>
</g>
</svg>
</svg>

<style type='text/css'>
<![CDATA[
[data-mouse-over-selected='false'] { opacity: 0.7; }
[data-mouse-over-selected='true']  { opacity: 1.0; }
]]>
</style>
<script type="application/ecmascript"><![CDATA[
document.addEventListener('DOMContentLoaded', (event) => {
  highlightEdges();
  highlightAdjacentNodes();
});
]]></script>
</svg>
