<?xml version="1.0" encoding="UTF-8" standalone="no"?>
<!DOCTYPE svg PUBLIC "-//W3C//DTD SVG 1.1//EN"
 "http://www.w3.org/Graphics/SVG/1.1/DTD/svg11.dtd">
<!-- Generated by graphviz version 2.43.0 (0)
 -->
<!-- Title: QskBox Pages: 1 -->
<svg width="804pt" height="249pt"
 viewBox="0.00 0.00 804.00 249.00" xmlns="http://www.w3.org/2000/svg" xmlns:xlink="http://www.w3.org/1999/xlink">
<g id="graph0" class="graph" transform="scale(1 1) rotate(0) translate(4 245)">
<title>QskBox</title>
<!-- Node1 -->
<g id="Node000001" class="node">
<title>Node1</title>
<g id="a_Node000001"><a xlink:title=" ">
<polygon fill="#999999" stroke="#666666" points="390,-130 336,-130 336,-111 390,-111 390,-130"/>
<text text-anchor="middle" x="363" y="-118" font-family="Helvetica,sans-Serif" font-size="10.00">QskBox</text>
</a>
</g>
</g>
<!-- Node6 -->
<g id="Node000006" class="node">
<title>Node6</title>
<g id="a_Node000006"><a xlink:href="classQskDialogButtonBox.html" target="_top" xlink:title=" ">
<polygon fill="white" stroke="#bfbfbf" points="547.5,-241 429.5,-241 429.5,-222 547.5,-222 547.5,-241"/>
<text text-anchor="middle" x="488.5" y="-229" font-family="Helvetica,sans-Serif" font-size="10.00">QskDialogButtonBox</text>
</a>
</g>
</g>
<!-- Node1&#45;&gt;Node6 -->
<g id="edge5_Node000001_Node000006" class="edge">
<title>Node1&#45;&gt;Node6</title>
<g id="a_edge5_Node000001_Node000006"><a xlink:title=" ">
<path fill="none" stroke="#63b8ff" d="M371.7,-139.23C381.33,-160.35 399.8,-194.24 426,-213.5 430.66,-216.93 435.97,-219.7 441.46,-221.95"/>
<polygon fill="#63b8ff" stroke="#63b8ff" points="374.89,-137.78 367.69,-130.01 368.47,-140.57 374.89,-137.78"/>
</a>
</g>
</g>
<!-- Node7 -->
<g id="Node000007" class="node">
<title>Node7</title>
<g id="a_Node000007"><a xlink:href="classQskGridBox.html" target="_top" xlink:title=" ">
<polygon fill="white" stroke="#bfbfbf" points="525.5,-204 451.5,-204 451.5,-185 525.5,-185 525.5,-204"/>
<text text-anchor="middle" x="488.5" y="-192" font-family="Helvetica,sans-Serif" font-size="10.00">QskGridBox</text>
</a>
</g>
</g>
<!-- Node1&#45;&gt;Node7 -->
<g id="edge6_Node000001_Node000007" class="edge">
<title>Node1&#45;&gt;Node7</title>
<g id="a_edge6_Node000001_Node000007"><a xlink:title=" ">
<path fill="none" stroke="#63b8ff" d="M379.06,-137.75C390.73,-150.15 407.93,-166.4 426,-176.5 433.77,-180.84 442.69,-184.23 451.28,-186.83"/>
<polygon fill="#63b8ff" stroke="#63b8ff" points="381.55,-135.3 372.23,-130.27 376.38,-140.01 381.55,-135.3"/>
</a>
</g>
</g>
<!-- Node8 -->
<g id="Node000008" class="node">
<title>Node8</title>
<g id="a_Node000008"><a xlink:href="classQskIndexedLayoutBox.html" target="_top" xlink:title="Base class of layouts with index ordered elements.">
<polygon fill="white" stroke="#666666" points="551,-167 426,-167 426,-148 551,-148 551,-167"/>
<text text-anchor="middle" x="488.5" y="-155" font-family="Helvetica,sans-Serif" font-size="10.00">QskIndexedLayoutBox</text>
</a>
</g>
</g>
<!-- Node1&#45;&gt;Node8 -->
<g id="edge7_Node000001_Node000008" class="edge">
<title>Node1&#45;&gt;Node8</title>
<g id="a_edge7_Node000001_Node000008"><a xlink:title=" ">
<path fill="none" stroke="#63b8ff" d="M400.1,-131.32C417.69,-136.59 438.66,-142.87 455.65,-147.96"/>
<polygon fill="#63b8ff" stroke="#63b8ff" points="400.78,-127.86 390.19,-128.35 398.77,-134.57 400.78,-127.86"/>
</a>
</g>
</g>
<!-- Node13 -->
<g id="Node000013" class="node">
<title>Node13</title>
<g id="a_Node000013"><a xlink:href="classQskInputPanelBox.html" target="_top" xlink:title=" ">
<polygon fill="white" stroke="#bfbfbf" points="541,-130 436,-130 436,-111 541,-111 541,-130"/>
<text text-anchor="middle" x="488.5" y="-118" font-family="Helvetica,sans-Serif" font-size="10.00">QskInputPanelBox</text>
</a>
</g>
</g>
<!-- Node1&#45;&gt;Node13 -->
<g id="edge12_Node000001_Node000013" class="edge">
<title>Node1&#45;&gt;Node13</title>
<g id="a_edge12_Node000001_Node000013"><a xlink:title=" ">
<path fill="none" stroke="#63b8ff" d="M400.39,-120.5C411.52,-120.5 423.97,-120.5 435.91,-120.5"/>
<polygon fill="#63b8ff" stroke="#63b8ff" points="400.19,-117 390.19,-120.5 400.19,-124 400.19,-117"/>
</a>
</g>
</g>
<!-- Node14 -->
<g id="Node000014" class="node">
<title>Node14</title>
<g id="a_Node000014"><a xlink:href="classQskInputPredictionBar.html" target="_top" xlink:title=" ">
<polygon fill="white" stroke="#bfbfbf" points="551,-93 426,-93 426,-74 551,-74 551,-93"/>
<text text-anchor="middle" x="488.5" y="-81" font-family="Helvetica,sans-Serif" font-size="10.00">QskInputPredictionBar</text>
</a>
</g>
</g>
<!-- Node1&#45;&gt;Node14 -->
<g id="edge13_Node000001_Node000014" class="edge">
<title>Node1&#45;&gt;Node14</title>
<g id="a_edge13_Node000001_Node000014"><a xlink:title=" ">
<path fill="none" stroke="#63b8ff" d="M399.93,-109.41C408.47,-106.79 417.55,-104.03 426,-101.5 435.27,-98.72 445.34,-95.75 454.6,-93.05"/>
<polygon fill="#63b8ff" stroke="#63b8ff" points="398.76,-106.1 390.22,-112.38 400.81,-112.8 398.76,-106.1"/>
</a>
</g>
</g>
<!-- Node15 -->
<g id="Node000015" class="node">
<title>Node15</title>
<g id="a_Node000015"><a xlink:href="classQskTabBar.html" target="_top" xlink:title=" ">
<polygon fill="white" stroke="#bfbfbf" points="522.5,-56 454.5,-56 454.5,-37 522.5,-37 522.5,-56"/>
<text text-anchor="middle" x="488.5" y="-44" font-family="Helvetica,sans-Serif" font-size="10.00">QskTabBar</text>
</a>
</g>
</g>
<!-- Node1&#45;&gt;Node15 -->
<g id="edge14_Node000001_Node000015" class="edge">
<title>Node1&#45;&gt;Node15</title>
<g id="a_edge14_Node000001_Node000015"><a xlink:title=" ">
<path fill="none" stroke="#63b8ff" d="M379.06,-103.25C390.73,-90.85 407.93,-74.6 426,-64.5 434.74,-59.62 444.94,-55.94 454.48,-53.23"/>
<polygon fill="#63b8ff" stroke="#63b8ff" points="376.38,-100.99 372.23,-110.73 381.55,-105.7 376.38,-100.99"/>
</a>
</g>
</g>
<!-- Node16 -->
<g id="Node000016" class="node">
<title>Node16</title>
<g id="a_Node000016"><a xlink:href="classQskVirtualKeyboard.html" target="_top" xlink:title=" ">
<polygon fill="white" stroke="#bfbfbf" points="545,-19 432,-19 432,0 545,0 545,-19"/>
<text text-anchor="middle" x="488.5" y="-7" font-family="Helvetica,sans-Serif" font-size="10.00">QskVirtualKeyboard</text>
</a>
</g>
</g>
<!-- Node1&#45;&gt;Node16 -->
<g id="edge15_Node000001_Node000016" class="edge">
<title>Node1&#45;&gt;Node16</title>
<g id="a_edge15_Node000001_Node000016"><a xlink:title=" ">
<path fill="none" stroke="#63b8ff" d="M371.7,-101.77C381.33,-80.65 399.8,-46.76 426,-27.5 430.66,-24.07 435.97,-21.3 441.46,-19.05"/>
<polygon fill="#63b8ff" stroke="#63b8ff" points="368.47,-100.43 367.69,-110.99 374.89,-103.22 368.47,-100.43"/>
</a>
</g>
</g>
<!-- Node2 -->
<g id="Node000002" class="node">
<title>Node2</title>
<g id="a_Node000002"><a xlink:href="classQskControl.html" target="_top" xlink:title="Base class of all controls.">
<polygon fill="white" stroke="#666666" points="300,-130 229,-130 229,-111 300,-111 300,-130"/>
<text text-anchor="middle" x="264.5" y="-118" font-family="Helvetica,sans-Serif" font-size="10.00">QskControl</text>
</a>
</g>
</g>
<!-- Node2&#45;&gt;Node1 -->
<g id="edge1_Node000001_Node000002" class="edge">
<title>Node2&#45;&gt;Node1</title>
<g id="a_edge1_Node000001_Node000002"><a xlink:title=" ">
<path fill="none" stroke="#63b8ff" d="M310.23,-120.5C319,-120.5 327.93,-120.5 335.85,-120.5"/>
<polygon fill="#63b8ff" stroke="#63b8ff" points="310.07,-117 300.07,-120.5 310.07,-124 310.07,-117"/>
</a>
</g>
</g>
<!-- Node3 -->
<g id="Node000003" class="node">
<title>Node3</title>
<g id="a_Node000003"><a xlink:href="classQskItem.html" target="_top" xlink:title=" ">
<polygon fill="white" stroke="#666666" points="180.5,-149 122.5,-149 122.5,-130 180.5,-130 180.5,-149"/>
<text text-anchor="middle" x="151.5" y="-137" font-family="Helvetica,sans-Serif" font-size="10.00">QskItem</text>
</a>
</g>
</g>
<!-- Node3&#45;&gt;Node2 -->
<g id="edge2_Node000002_Node000003" class="edge">
<title>Node3&#45;&gt;Node2</title>
<g id="a_edge2_Node000002_Node000003"><a xlink:title=" ">
<path fill="none" stroke="#63b8ff" d="M190.55,-132.99C202.93,-130.87 216.61,-128.53 228.74,-126.45"/>
<polygon fill="#63b8ff" stroke="#63b8ff" points="189.78,-129.57 180.51,-134.71 190.96,-136.47 189.78,-129.57"/>
</a>
</g>
</g>
<!-- Node4 -->
<g id="Node000004" class="node">
<title>Node4</title>
<g id="a_Node000004"><a xlink:title=" ">
<polygon fill="white" stroke="#bfbfbf" points="74,-149 0,-149 0,-130 74,-130 74,-149"/>
<text text-anchor="middle" x="37" y="-137" font-family="Helvetica,sans-Serif" font-size="10.00">QQuickItem</text>
</a>
</g>
</g>
<!-- Node4&#45;&gt;Node3 -->
<g id="edge3_Node000003_Node000004" class="edge">
<title>Node4&#45;&gt;Node3</title>
<g id="a_edge3_Node000003_Node000004"><a xlink:title=" ">
<path fill="none" stroke="#63b8ff" d="M84.31,-139.5C97.16,-139.5 110.72,-139.5 122.2,-139.5"/>
<polygon fill="#63b8ff" stroke="#63b8ff" points="84.21,-136 74.21,-139.5 84.21,-143 84.21,-136"/>
</a>
</g>
</g>
<!-- Node5 -->
<g id="Node000005" class="node">
<title>Node5</title>
<g id="a_Node000005"><a xlink:href="classQskSkinnable.html" target="_top" xlink:title=" ">
<polygon fill="white" stroke="#666666" points="193,-112 110,-112 110,-93 193,-93 193,-112"/>
<text text-anchor="middle" x="151.5" y="-100" font-family="Helvetica,sans-Serif" font-size="10.00">QskSkinnable</text>
</a>
</g>
</g>
<!-- Node5&#45;&gt;Node2 -->
<g id="edge4_Node000002_Node000005" class="edge">
<title>Node5&#45;&gt;Node2</title>
<g id="a_edge4_Node000002_Node000005"><a xlink:title=" ">
<path fill="none" stroke="#63b8ff" d="M203.19,-110.72C211.8,-112.12 220.57,-113.54 228.65,-114.85"/>
<polygon fill="#63b8ff" stroke="#63b8ff" points="203.63,-107.25 193.2,-109.1 202.51,-114.16 203.63,-107.25"/>
</a>
</g>
</g>
<!-- Node9 -->
<g id="Node000009" class="node">
<title>Node9</title>
<g id="a_Node000009"><a xlink:href="classQskLinearBox.html" target="_top" xlink:title="Layout stringing items in rows and columns.">
<polygon fill="white" stroke="#666666" points="671,-185 587,-185 587,-166 671,-166 671,-185"/>
<text text-anchor="middle" x="629" y="-173" font-family="Helvetica,sans-Serif" font-size="10.00">QskLinearBox</text>
</a>
</g>
</g>
<!-- Node8&#45;&gt;Node9 -->
<g id="edge8_Node000008_Node000009" class="edge">
<title>Node8&#45;&gt;Node9</title>
<g id="a_edge8_Node000008_Node000009"><a xlink:title=" ">
<path fill="none" stroke="#63b8ff" d="M561.05,-166.8C569.91,-167.95 578.73,-169.1 586.91,-170.16"/>
<polygon fill="#63b8ff" stroke="#63b8ff" points="561.42,-163.32 551.05,-165.5 560.52,-170.26 561.42,-163.32"/>
</a>
</g>
</g>
<!-- Node11 -->
<g id="Node000011" class="node">
<title>Node11</title>
<g id="a_Node000011"><a xlink:href="classQskStackBox.html" target="_top" xlink:title=" ">
<polygon fill="white" stroke="#bfbfbf" points="669.5,-148 588.5,-148 588.5,-129 669.5,-129 669.5,-148"/>
<text text-anchor="middle" x="629" y="-136" font-family="Helvetica,sans-Serif" font-size="10.00">QskStackBox</text>
</a>
</g>
</g>
<!-- Node8&#45;&gt;Node11 -->
<g id="edge10_Node000008_Node000011" class="edge">
<title>Node8&#45;&gt;Node11</title>
<g id="a_edge10_Node000008_Node000011"><a xlink:title=" ">
<path fill="none" stroke="#63b8ff" d="M561.11,-147.68C570.39,-146.4 579.61,-145.14 588.11,-143.97"/>
<polygon fill="#63b8ff" stroke="#63b8ff" points="560.49,-144.23 551.05,-149.06 561.44,-151.16 560.49,-144.23"/>
</a>
</g>
</g>
<!-- Node10 -->
<g id="Node000010" class="node">
<title>Node10</title>
<g id="a_Node000010"><a xlink:href="classQskMainView.html" target="_top" xlink:title=" ">
<polygon fill="white" stroke="#bfbfbf" points="793,-185 710,-185 710,-166 793,-166 793,-185"/>
<text text-anchor="middle" x="751.5" y="-173" font-family="Helvetica,sans-Serif" font-size="10.00">QskMainView</text>
</a>
</g>
</g>
<!-- Node9&#45;&gt;Node10 -->
<g id="edge9_Node000009_Node000010" class="edge">
<title>Node9&#45;&gt;Node10</title>
<g id="a_edge9_Node000009_Node000010"><a xlink:title=" ">
<path fill="none" stroke="#63b8ff" d="M681.34,-175.5C690.91,-175.5 700.78,-175.5 709.96,-175.5"/>
<polygon fill="#63b8ff" stroke="#63b8ff" points="681.13,-172 671.13,-175.5 681.13,-179 681.13,-172"/>
</a>
</g>
</g>
<!-- Node12 -->
<g id="Node000012" class="node">
<title>Node12</title>
<g id="a_Node000012"><a xlink:href="classQskSwipeView.html" target="_top" xlink:title=" ">
<polygon fill="white" stroke="#bfbfbf" points="796,-148 707,-148 707,-129 796,-129 796,-148"/>
<text text-anchor="middle" x="751.5" y="-136" font-family="Helvetica,sans-Serif" font-size="10.00">QskSwipeView</text>
</a>
</g>
</g>
<!-- Node11&#45;&gt;Node12 -->
<g id="edge11_Node000011_Node000012" class="edge">
<title>Node11&#45;&gt;Node12</title>
<g id="a_edge11_Node000011_Node000012"><a xlink:title=" ">
<path fill="none" stroke="#63b8ff" d="M679.97,-138.5C688.81,-138.5 697.94,-138.5 706.59,-138.5"/>
<polygon fill="#63b8ff" stroke="#63b8ff" points="679.79,-135 669.79,-138.5 679.79,-142 679.79,-135"/>
</a>
</g>
</g>
</g>
</svg>
