<?xml version="1.0" encoding="UTF-8" standalone="no"?>
<!DOCTYPE svg PUBLIC "-//W3C//DTD SVG 1.1//EN"
 "http://www.w3.org/Graphics/SVG/1.1/DTD/svg11.dtd">
<!-- Generated by graphviz version 2.43.0 (0)
 -->
<!-- Title: QskPopupSkinlet Pages: 1 -->
<svg width="370pt" height="137pt"
 viewBox="0.00 0.00 370.00 137.00" xmlns="http://www.w3.org/2000/svg" xmlns:xlink="http://www.w3.org/1999/xlink">
<g id="graph0" class="graph" transform="scale(1 1) rotate(0) translate(4 133)">
<title>QskPopupSkinlet</title>
<!-- Node1 -->
<g id="Node000001" class="node">
<title>Node1</title>
<g id="a_Node000001"><a xlink:title=" ">
<polygon fill="#999999" stroke="#666666" points="219.5,-74 120.5,-74 120.5,-55 219.5,-55 219.5,-74"/>
<text text-anchor="middle" x="170" y="-62" font-family="Helvetica,sans-Serif" font-size="10.00">QskPopupSkinlet</text>
</a>
</g>
</g>
<!-- Node3 -->
<g id="Node000003" class="node">
<title>Node3</title>
<g id="a_Node000003"><a xlink:href="classQskDrawerSkinlet.html" target="_top" xlink:title=" ">
<polygon fill="white" stroke="#bfbfbf" points="104,-19 0,-19 0,0 104,0 104,-19"/>
<text text-anchor="middle" x="52" y="-7" font-family="Helvetica,sans-Serif" font-size="10.00">QskDrawerSkinlet</text>
</a>
</g>
</g>
<!-- Node1&#45;&gt;Node3 -->
<g id="edge2_Node000001_Node000003" class="edge">
<title>Node1&#45;&gt;Node3</title>
<g id="a_edge2_Node000001_Node000003"><a xlink:title=" ">
<path fill="none" stroke="#63b8ff" d="M141.65,-50.77C119.88,-40.99 90.41,-27.75 71.3,-19.17"/>
<polygon fill="#63b8ff" stroke="#63b8ff" points="140.49,-54.08 151.04,-54.98 143.35,-47.69 140.49,-54.08"/>
</a>
</g>
</g>
<!-- Node4 -->
<g id="Node000004" class="node">
<title>Node4</title>
<g id="a_Node000004"><a xlink:href="classQskMenuSkinlet.html" target="_top" xlink:title=" ">
<polygon fill="white" stroke="#bfbfbf" points="218,-19 122,-19 122,0 218,0 218,-19"/>
<text text-anchor="middle" x="170" y="-7" font-family="Helvetica,sans-Serif" font-size="10.00">QskMenuSkinlet</text>
</a>
</g>
</g>
<!-- Node1&#45;&gt;Node4 -->
<g id="edge3_Node000001_Node000004" class="edge">
<title>Node1&#45;&gt;Node4</title>
<g id="a_edge3_Node000001_Node000004"><a xlink:title=" ">
<path fill="none" stroke="#63b8ff" d="M170,-44.66C170,-35.93 170,-25.99 170,-19.09"/>
<polygon fill="#63b8ff" stroke="#63b8ff" points="166.5,-44.75 170,-54.75 173.5,-44.75 166.5,-44.75"/>
</a>
</g>
</g>
<!-- Node5 -->
<g id="Node000005" class="node">
<title>Node5</title>
<g id="a_Node000005"><a xlink:href="classQskSubWindowSkinlet.html" target="_top" xlink:title=" ">
<polygon fill="white" stroke="#bfbfbf" points="362,-19 236,-19 236,0 362,0 362,-19"/>
<text text-anchor="middle" x="299" y="-7" font-family="Helvetica,sans-Serif" font-size="10.00">QskSubWindowSkinlet</text>
</a>
</g>
</g>
<!-- Node1&#45;&gt;Node5 -->
<g id="edge4_Node000001_Node000005" class="edge">
<title>Node1&#45;&gt;Node5</title>
<g id="a_edge4_Node000001_Node000005"><a xlink:title=" ">
<path fill="none" stroke="#63b8ff" d="M200.04,-51.16C223.92,-41.35 256.72,-27.87 277.9,-19.17"/>
<polygon fill="#63b8ff" stroke="#63b8ff" points="198.65,-47.95 190.73,-54.98 201.31,-54.42 198.65,-47.95"/>
</a>
</g>
</g>
<!-- Node2 -->
<g id="Node000002" class="node">
<title>Node2</title>
<g id="a_Node000002"><a xlink:href="classQskSkinlet.html" target="_top" xlink:title="Describes the rendering interface of a QskControl. Change the skinlet to change the appearance of the...">
<polygon fill="white" stroke="#666666" points="204.5,-129 135.5,-129 135.5,-110 204.5,-110 204.5,-129"/>
<text text-anchor="middle" x="170" y="-117" font-family="Helvetica,sans-Serif" font-size="10.00">QskSkinlet</text>
</a>
</g>
</g>
<!-- Node2&#45;&gt;Node1 -->
<g id="edge1_Node000001_Node000002" class="edge">
<title>Node2&#45;&gt;Node1</title>
<g id="a_edge1_Node000001_Node000002"><a xlink:title=" ">
<path fill="none" stroke="#63b8ff" d="M170,-99.66C170,-90.93 170,-80.99 170,-74.09"/>
<polygon fill="#63b8ff" stroke="#63b8ff" points="166.5,-99.75 170,-109.75 173.5,-99.75 166.5,-99.75"/>
</a>
</g>
</g>
</g>
</svg>
