<?xml version="1.0" encoding="UTF-8" standalone="no"?>
<!DOCTYPE svg PUBLIC "-//W3C//DTD SVG 1.1//EN"
 "http://www.w3.org/Graphics/SVG/1.1/DTD/svg11.dtd">
<!-- Generated by graphviz version 2.43.0 (0)
 -->
<!-- Title: QskLayoutElement Pages: 1 -->
<svg width="395pt" height="159pt"
 viewBox="0.00 0.00 395.00 159.00" xmlns="http://www.w3.org/2000/svg" xmlns:xlink="http://www.w3.org/1999/xlink">

<svg id="main" version="1.1" xmlns="http://www.w3.org/2000/svg" xmlns:xlink="http://www.w3.org/1999/xlink" xml:space="preserve" onload="init(evt)">
<style type="text/css"><![CDATA[
.node, .edge {opacity: 0.7;}
.node.selected, .edge.selected {opacity: 1;}
.edge:hover path { stroke: red; }
.edge:hover polygon { stroke: red; fill: red; }
]]></style>
<script type="application/ecmascript" xlink:href="svg.min.js"/>
<svg id="graph" class="graph">
<g id="graph0" class="graph" transform="scale(1 1) rotate(0) translate(4 155)">
<title>QskLayoutElement</title>
<!-- Node1 -->
<g id="Node000001" class="node">
<title>Node1</title>
<g id="a_Node000001"><a xlink:title=" ">
<polygon fill="#999999" stroke="#666666" points="200,-151 91,-151 91,-132 200,-132 200,-151"/>
<text text-anchor="middle" x="145.5" y="-139" font-family="Helvetica,sans-Serif" font-size="10.00">QskLayoutElement</text>
</a>
</g>
</g>
<!-- Node2 -->
<g id="Node000002" class="node">
<title>Node2</title>
<g id="a_Node000002"><a xlink:href="classQskItemLayoutElement.html" target="_top" xlink:title=" ">
<polygon fill="white" stroke="#bfbfbf" points="131,-90.5 0,-90.5 0,-71.5 131,-71.5 131,-90.5"/>
<text text-anchor="middle" x="65.5" y="-78.5" font-family="Helvetica,sans-Serif" font-size="10.00">QskItemLayoutElement</text>
</a>
</g>
</g>
<!-- Node1&#45;&gt;Node2 -->
<g id="edge1_Node000001_Node000002" class="edge">
<title>Node1&#45;&gt;Node2</title>
<g id="a_edge1_Node000001_Node000002"><a xlink:title=" ">
<path fill="none" stroke="#63b8ff" d="M125.46,-125.85C110.31,-114.77 90.02,-99.93 77.35,-90.67"/>
<polygon fill="#63b8ff" stroke="#63b8ff" points="123.56,-128.79 133.7,-131.87 127.69,-123.14 123.56,-128.79"/>
</a>
</g>
</g>
<!-- Node3 -->
<g id="Node000003" class="node">
<title>Node3</title>
<g id="a_Node000003"><a xlink:href="classQskSubcontrolLayoutEngine_1_1LayoutElement.html" target="_top" xlink:title=" ">
<polygon fill="white" stroke="#bfbfbf" points="302,-96 149,-96 149,-66 302,-66 302,-96"/>
<text text-anchor="start" x="157" y="-84" font-family="Helvetica,sans-Serif" font-size="10.00">QskSubcontrolLayoutEngine</text>
<text text-anchor="middle" x="225.5" y="-73" font-family="Helvetica,sans-Serif" font-size="10.00">::LayoutElement</text>
</a>
</g>
</g>
<!-- Node1&#45;&gt;Node3 -->
<g id="edge2_Node000001_Node000003" class="edge">
<title>Node1&#45;&gt;Node3</title>
<g id="a_edge2_Node000001_Node000003"><a xlink:title=" ">
<path fill="none" stroke="#63b8ff" d="M165.65,-125.77C178.08,-116.68 193.93,-105.09 206.2,-96.11"/>
<polygon fill="#63b8ff" stroke="#63b8ff" points="163.31,-123.14 157.3,-131.87 167.44,-128.79 163.31,-123.14"/>
</a>
</g>
</g>
<!-- Node4 -->
<g id="Node000004" class="node">
<title>Node4</title>
<g id="a_Node000004"><a xlink:href="classQskSubcontrolLayoutEngine_1_1GraphicElement.html" target="_top" xlink:title=" ">
<polygon fill="white" stroke="#bfbfbf" points="216,-30 63,-30 63,0 216,0 216,-30"/>
<text text-anchor="start" x="71" y="-18" font-family="Helvetica,sans-Serif" font-size="10.00">QskSubcontrolLayoutEngine</text>
<text text-anchor="middle" x="139.5" y="-7" font-family="Helvetica,sans-Serif" font-size="10.00">::GraphicElement</text>
</a>
</g>
</g>
<!-- Node3&#45;&gt;Node4 -->
<g id="edge3_Node000003_Node000004" class="edge">
<title>Node3&#45;&gt;Node4</title>
<g id="a_edge3_Node000003_Node000004"><a xlink:title=" ">
<path fill="none" stroke="#63b8ff" d="M198.29,-59.75C185.36,-50.13 170.21,-38.86 158.53,-30.16"/>
<polygon fill="#63b8ff" stroke="#63b8ff" points="196.3,-62.63 206.41,-65.8 200.48,-57.02 196.3,-62.63"/>
</a>
</g>
</g>
<!-- Node5 -->
<g id="Node000005" class="node">
<title>Node5</title>
<g id="a_Node000005"><a xlink:href="classQskSubcontrolLayoutEngine_1_1TextElement.html" target="_top" xlink:title=" ">
<polygon fill="white" stroke="#bfbfbf" points="387,-30 234,-30 234,0 387,0 387,-30"/>
<text text-anchor="start" x="242" y="-18" font-family="Helvetica,sans-Serif" font-size="10.00">QskSubcontrolLayoutEngine</text>
<text text-anchor="middle" x="310.5" y="-7" font-family="Helvetica,sans-Serif" font-size="10.00">::TextElement</text>
</a>
</g>
</g>
<!-- Node3&#45;&gt;Node5 -->
<g id="edge4_Node000003_Node000005" class="edge">
<title>Node3&#45;&gt;Node5</title>
<g id="a_edge4_Node000003_Node000005"><a xlink:title=" ">
<path fill="none" stroke="#63b8ff" d="M252.39,-59.75C265.17,-50.13 280.14,-38.86 291.69,-30.16"/>
<polygon fill="#63b8ff" stroke="#63b8ff" points="250.25,-56.99 244.36,-65.8 254.46,-62.58 250.25,-56.99"/>
</a>
</g>
</g>
</g>
</svg>
</svg>

<style type='text/css'>
<![CDATA[
[data-mouse-over-selected='false'] { opacity: 0.7; }
[data-mouse-over-selected='true']  { opacity: 1.0; }
]]>
</style>
<script type="application/ecmascript"><![CDATA[
document.addEventListener('DOMContentLoaded', (event) => {
  highlightEdges();
  highlightAdjacentNodes();
});
]]></script>
</svg>
