<?xml version="1.0" encoding="UTF-8" standalone="no"?>
<!DOCTYPE svg PUBLIC "-//W3C//DTD SVG 1.1//EN"
 "http://www.w3.org/Graphics/SVG/1.1/DTD/svg11.dtd">
<!-- Generated by graphviz version 2.43.0 (0)
 -->
<!-- Title: Graphical Class Hierarchy Pages: 1 -->
<svg width="344pt" height="212pt"
 viewBox="0.00 0.00 344.00 212.00" xmlns="http://www.w3.org/2000/svg" xmlns:xlink="http://www.w3.org/1999/xlink">
<g id="graph0" class="graph" transform="scale(1 1) rotate(0) translate(4 208)">
<title>Graphical Class Hierarchy</title>
<!-- Node0 -->
<g id="Node000000" class="node">
<title>Node0</title>
<g id="a_Node000000"><a xlink:title=" ">
<polygon fill="#e0e0e0" stroke="#999999" points="52,-111 0,-111 0,-92 52,-92 52,-111"/>
<text text-anchor="middle" x="26" y="-99" font-family="Helvetica,sans-Serif" font-size="10.00">QEvent</text>
</a>
</g>
</g>
<!-- Node1 -->
<g id="Node000001" class="node">
<title>Node1</title>
<g id="a_Node000001"><a xlink:href="classQskEvent.html" target="_top" xlink:title=" ">
<polygon fill="white" stroke="#666666" points="151,-111 88,-111 88,-92 151,-92 151,-111"/>
<text text-anchor="middle" x="119.5" y="-99" font-family="Helvetica,sans-Serif" font-size="10.00">QskEvent</text>
</a>
</g>
</g>
<!-- Node0&#45;&gt;Node1 -->
<g id="edge1_Node000000_Node000001" class="edge">
<title>Node0&#45;&gt;Node1</title>
<g id="a_edge1_Node000000_Node000001"><a xlink:title=" ">
<path fill="none" stroke="#63b8ff" d="M62.07,-101.5C70.61,-101.5 79.68,-101.5 87.98,-101.5"/>
<polygon fill="#63b8ff" stroke="#63b8ff" points="62,-98 52,-101.5 62,-105 62,-98"/>
</a>
</g>
</g>
<!-- Node2 -->
<g id="Node000002" class="node">
<title>Node2</title>
<g id="a_Node000002"><a xlink:href="classQskAnimatorEvent.html" target="_top" xlink:title=" ">
<polygon fill="white" stroke="#666666" points="315.5,-204 207.5,-204 207.5,-185 315.5,-185 315.5,-204"/>
<text text-anchor="middle" x="261.5" y="-192" font-family="Helvetica,sans-Serif" font-size="10.00">QskAnimatorEvent</text>
</a>
</g>
</g>
<!-- Node1&#45;&gt;Node2 -->
<g id="edge2_Node000001_Node000002" class="edge">
<title>Node1&#45;&gt;Node2</title>
<g id="a_edge2_Node000001_Node000002"><a xlink:title=" ">
<path fill="none" stroke="#63b8ff" d="M131.97,-119.89C143.7,-137.13 163.49,-162.32 187,-176.5 193.19,-180.23 200.11,-183.19 207.16,-185.54"/>
<polygon fill="#63b8ff" stroke="#63b8ff" points="134.72,-117.69 126.32,-111.25 128.87,-121.53 134.72,-117.69"/>
</a>
</g>
</g>
<!-- Node3 -->
<g id="Node000003" class="node">
<title>Node3</title>
<g id="a_Node000003"><a xlink:href="classQskGeometryChangeEvent.html" target="_top" xlink:title=" ">
<polygon fill="white" stroke="#666666" points="336,-167 187,-167 187,-148 336,-148 336,-167"/>
<text text-anchor="middle" x="261.5" y="-155" font-family="Helvetica,sans-Serif" font-size="10.00">QskGeometryChangeEvent</text>
</a>
</g>
</g>
<!-- Node1&#45;&gt;Node3 -->
<g id="edge3_Node000001_Node000003" class="edge">
<title>Node1&#45;&gt;Node3</title>
<g id="a_edge3_Node000001_Node000003"><a xlink:title=" ">
<path fill="none" stroke="#63b8ff" d="M143.24,-116.61C155.73,-124.35 171.75,-133.41 187,-139.5 195.3,-142.81 204.37,-145.63 213.23,-147.99"/>
<polygon fill="#63b8ff" stroke="#63b8ff" points="144.76,-113.43 134.45,-111.01 141,-119.33 144.76,-113.43"/>
</a>
</g>
</g>
<!-- Node4 -->
<g id="Node000004" class="node">
<title>Node4</title>
<g id="a_Node000004"><a xlink:href="classQskGestureEvent.html" target="_top" xlink:title=" ">
<polygon fill="white" stroke="#666666" points="312,-130 211,-130 211,-111 312,-111 312,-130"/>
<text text-anchor="middle" x="261.5" y="-118" font-family="Helvetica,sans-Serif" font-size="10.00">QskGestureEvent</text>
</a>
</g>
</g>
<!-- Node1&#45;&gt;Node4 -->
<g id="edge4_Node000001_Node000004" class="edge">
<title>Node1&#45;&gt;Node4</title>
<g id="a_edge4_Node000001_Node000004"><a xlink:title=" ">
<path fill="none" stroke="#63b8ff" d="M161.51,-107.07C176.96,-109.16 194.71,-111.57 210.87,-113.76"/>
<polygon fill="#63b8ff" stroke="#63b8ff" points="161.6,-103.55 151.22,-105.67 160.66,-110.48 161.6,-103.55"/>
</a>
</g>
</g>
<!-- Node5 -->
<g id="Node000005" class="node">
<title>Node5</title>
<g id="a_Node000005"><a xlink:href="classQskGestureFilterEvent.html" target="_top" xlink:title=" ">
<polygon fill="white" stroke="#666666" points="324.5,-93 198.5,-93 198.5,-74 324.5,-74 324.5,-93"/>
<text text-anchor="middle" x="261.5" y="-81" font-family="Helvetica,sans-Serif" font-size="10.00">QskGestureFilterEvent</text>
</a>
</g>
</g>
<!-- Node1&#45;&gt;Node5 -->
<g id="edge5_Node000001_Node000005" class="edge">
<title>Node1&#45;&gt;Node5</title>
<g id="a_edge5_Node000001_Node000005"><a xlink:title=" ">
<path fill="none" stroke="#63b8ff" d="M161.41,-96.24C172.95,-94.76 185.76,-93.11 198.25,-91.5"/>
<polygon fill="#63b8ff" stroke="#63b8ff" points="160.7,-92.8 151.22,-97.55 161.59,-99.75 160.7,-92.8"/>
</a>
</g>
</g>
<!-- Node6 -->
<g id="Node000006" class="node">
<title>Node6</title>
<g id="a_Node000006"><a xlink:href="classQskPopupEvent.html" target="_top" xlink:title=" ">
<polygon fill="white" stroke="#666666" points="308,-56 215,-56 215,-37 308,-37 308,-56"/>
<text text-anchor="middle" x="261.5" y="-44" font-family="Helvetica,sans-Serif" font-size="10.00">QskPopupEvent</text>
</a>
</g>
</g>
<!-- Node1&#45;&gt;Node6 -->
<g id="edge6_Node000001_Node000006" class="edge">
<title>Node1&#45;&gt;Node6</title>
<g id="a_edge6_Node000001_Node000006"><a xlink:title=" ">
<path fill="none" stroke="#63b8ff" d="M144.35,-86.75C156.73,-79.58 172.3,-71.28 187,-65.5 196.32,-61.84 206.59,-58.67 216.41,-56.04"/>
<polygon fill="#63b8ff" stroke="#63b8ff" points="142.39,-83.85 135.57,-91.96 145.96,-89.87 142.39,-83.85"/>
</a>
</g>
</g>
<!-- Node7 -->
<g id="Node000007" class="node">
<title>Node7</title>
<g id="a_Node000007"><a xlink:href="classQskWindowChangeEvent.html" target="_top" xlink:title=" ">
<polygon fill="white" stroke="#666666" points="331,-19 192,-19 192,0 331,0 331,-19"/>
<text text-anchor="middle" x="261.5" y="-7" font-family="Helvetica,sans-Serif" font-size="10.00">QskWindowChangeEvent</text>
</a>
</g>
</g>
<!-- Node1&#45;&gt;Node7 -->
<g id="edge7_Node000001_Node000007" class="edge">
<title>Node1&#45;&gt;Node7</title>
<g id="a_edge7_Node000001_Node000007"><a xlink:title=" ">
<path fill="none" stroke="#63b8ff" d="M132.32,-83.41C144.18,-66.68 163.96,-42.39 187,-28.5 193.43,-24.62 200.65,-21.53 207.97,-19.06"/>
<polygon fill="#63b8ff" stroke="#63b8ff" points="129.33,-81.57 126.57,-91.8 135.11,-85.53 129.33,-81.57"/>
</a>
</g>
</g>
</g>
</svg>
