<?xml version="1.0" encoding="UTF-8" standalone="no"?>
<!DOCTYPE svg PUBLIC "-//W3C//DTD SVG 1.1//EN"
 "http://www.w3.org/Graphics/SVG/1.1/DTD/svg11.dtd">
<!-- Generated by graphviz version 2.43.0 (0)
 -->
<!-- Title: QskGesture Pages: 1 -->
<svg width="479pt" height="84pt"
 viewBox="0.00 0.00 479.00 84.00" xmlns="http://www.w3.org/2000/svg" xmlns:xlink="http://www.w3.org/1999/xlink">
<g id="graph0" class="graph" transform="scale(1 1) rotate(0) translate(4 80)">
<title>QskGesture</title>
<!-- Node1 -->
<g id="node1" class="node">
<title>Node1</title>
<g id="a_node1"><a xlink:title=" ">
<polygon fill="#bfbfbf" stroke="black" points="192,-56.5 192,-75.5 266,-75.5 266,-56.5 192,-56.5"/>
<text text-anchor="middle" x="229" y="-63.5" font-family="Helvetica,sans-Serif" font-size="10.00">QskGesture</text>
</a>
</g>
</g>
<!-- Node2 -->
<g id="node2" class="node">
<title>Node2</title>
<g id="a_node2"><a xlink:href="../classQskPanGesture" target="_top" xlink:title=" ">
<polygon fill="none" stroke="black" points="0,-0.5 0,-19.5 92,-19.5 92,-0.5 0,-0.5"/>
<text text-anchor="middle" x="46" y="-7.5" font-family="Helvetica,sans-Serif" font-size="10.00">QskPanGesture</text>
</a>
</g>
</g>
<!-- Node1&#45;&gt;Node2 -->
<g id="edge1" class="edge">
<title>Node1&#45;&gt;Node2</title>
<path fill="none" stroke="midnightblue" d="M190.26,-53.57C155.74,-43.38 105.99,-28.7 74.86,-19.52"/>
<polygon fill="midnightblue" stroke="midnightblue" points="189.42,-56.97 200,-56.44 191.4,-50.26 189.42,-56.97"/>
</g>
<!-- Node3 -->
<g id="node3" class="node">
<title>Node3</title>
<g id="a_node3"><a xlink:href="../classQskSwipeGesture" target="_top" xlink:title=" ">
<polygon fill="none" stroke="black" points="110.5,-0.5 110.5,-19.5 213.5,-19.5 213.5,-0.5 110.5,-0.5"/>
<text text-anchor="middle" x="162" y="-7.5" font-family="Helvetica,sans-Serif" font-size="10.00">QskSwipeGesture</text>
</a>
</g>
</g>
<!-- Node1&#45;&gt;Node3 -->
<g id="edge2" class="edge">
<title>Node1&#45;&gt;Node3</title>
<path fill="none" stroke="midnightblue" d="M210.17,-49.82C198.16,-40.15 183.03,-27.95 172.96,-19.83"/>
<polygon fill="midnightblue" stroke="midnightblue" points="208.25,-52.77 218.24,-56.32 212.65,-47.32 208.25,-52.77"/>
</g>
<!-- Node4 -->
<g id="node4" class="node">
<title>Node4</title>
<g id="a_node4"><a xlink:href="../classQskTapAndHoldGesture" target="_top" xlink:title=" ">
<polygon fill="none" stroke="black" points="231.5,-0.5 231.5,-19.5 362.5,-19.5 362.5,-0.5 231.5,-0.5"/>
<text text-anchor="middle" x="297" y="-7.5" font-family="Helvetica,sans-Serif" font-size="10.00">QskTapAndHoldGesture</text>
</a>
</g>
</g>
<!-- Node1&#45;&gt;Node4 -->
<g id="edge3" class="edge">
<title>Node1&#45;&gt;Node4</title>
<path fill="none" stroke="midnightblue" d="M247.76,-50.1C260,-40.38 275.56,-28.03 285.88,-19.83"/>
<polygon fill="midnightblue" stroke="midnightblue" points="245.58,-47.36 239.93,-56.32 249.93,-52.85 245.58,-47.36"/>
</g>
<!-- Node5 -->
<g id="node5" class="node">
<title>Node5</title>
<g id="a_node5"><a xlink:href="../classQskTapGesture" target="_top" xlink:title=" ">
<polygon fill="none" stroke="black" points="381,-0.5 381,-19.5 471,-19.5 471,-0.5 381,-0.5"/>
<text text-anchor="middle" x="426" y="-7.5" font-family="Helvetica,sans-Serif" font-size="10.00">QskTapGesture</text>
</a>
</g>
</g>
<!-- Node1&#45;&gt;Node5 -->
<g id="edge4" class="edge">
<title>Node1&#45;&gt;Node5</title>
<path fill="none" stroke="midnightblue" d="M270.23,-53.7C307.41,-43.51 361.27,-28.74 394.93,-19.52"/>
<polygon fill="midnightblue" stroke="midnightblue" points="268.93,-50.42 260.22,-56.44 270.78,-57.18 268.93,-50.42"/>
</g>
</g>
</svg>
