<?xml version="1.0" encoding="UTF-8" standalone="no"?>
<!DOCTYPE svg PUBLIC "-//W3C//DTD SVG 1.1//EN"
 "http://www.w3.org/Graphics/SVG/1.1/DTD/svg11.dtd">
<!-- Generated by graphviz version 2.43.0 (0)
 -->
<!-- Title: QskEvent Pages: 1 -->
<svg width="344pt" height="180pt"
 viewBox="0.00 0.00 344.00 180.00" xmlns="http://www.w3.org/2000/svg" xmlns:xlink="http://www.w3.org/1999/xlink">
<g id="graph0" class="graph" transform="scale(1 1) rotate(0) translate(4 176)">
<title>QskEvent</title>
<!-- Node1 -->
<g id="node1" class="node">
<title>Node1</title>
<g id="a_node1"><a xlink:title=" ">
<polygon fill="#bfbfbf" stroke="black" points="88,-76.5 88,-95.5 151,-95.5 151,-76.5 88,-76.5"/>
<text text-anchor="middle" x="119.5" y="-83.5" font-family="Helvetica,sans-Serif" font-size="10.00">QskEvent</text>
</a>
</g>
</g>
<!-- Node3 -->
<g id="node3" class="node">
<title>Node3</title>
<g id="a_node3"><a xlink:href="../classQskAnimatorEvent" target="_top" xlink:title=" ">
<polygon fill="none" stroke="black" points="207.5,-152.5 207.5,-171.5 315.5,-171.5 315.5,-152.5 207.5,-152.5"/>
<text text-anchor="middle" x="261.5" y="-159.5" font-family="Helvetica,sans-Serif" font-size="10.00">QskAnimatorEvent</text>
</a>
</g>
</g>
<!-- Node1&#45;&gt;Node3 -->
<g id="edge2" class="edge">
<title>Node1&#45;&gt;Node3</title>
<path fill="none" stroke="midnightblue" d="M135.94,-102.91C148.52,-115.7 167.35,-132.75 187,-143 194.36,-146.84 202.55,-149.94 210.72,-152.43"/>
<polygon fill="midnightblue" stroke="midnightblue" points="138.41,-100.42 128.97,-95.59 133.34,-105.25 138.41,-100.42"/>
</g>
<!-- Node4 -->
<g id="node4" class="node">
<title>Node4</title>
<g id="a_node4"><a xlink:href="../classQskGeometryChangeEvent" target="_top" xlink:title=" ">
<polygon fill="none" stroke="black" points="187,-114.5 187,-133.5 336,-133.5 336,-114.5 187,-114.5"/>
<text text-anchor="middle" x="261.5" y="-121.5" font-family="Helvetica,sans-Serif" font-size="10.00">QskGeometryChangeEvent</text>
</a>
</g>
</g>
<!-- Node1&#45;&gt;Node4 -->
<g id="edge3" class="edge">
<title>Node1&#45;&gt;Node4</title>
<path fill="none" stroke="midnightblue" d="M161.04,-97.76C169.6,-100.19 178.59,-102.71 187,-105 198.57,-108.15 211.21,-111.46 222.68,-114.42"/>
<polygon fill="midnightblue" stroke="midnightblue" points="161.82,-94.34 151.25,-94.96 159.9,-101.07 161.82,-94.34"/>
</g>
<!-- Node5 -->
<g id="node5" class="node">
<title>Node5</title>
<g id="a_node5"><a xlink:href="../classQskGestureEvent" target="_top" xlink:title=" ">
<polygon fill="none" stroke="black" points="211,-76.5 211,-95.5 312,-95.5 312,-76.5 211,-76.5"/>
<text text-anchor="middle" x="261.5" y="-83.5" font-family="Helvetica,sans-Serif" font-size="10.00">QskGestureEvent</text>
</a>
</g>
</g>
<!-- Node1&#45;&gt;Node5 -->
<g id="edge4" class="edge">
<title>Node1&#45;&gt;Node5</title>
<path fill="none" stroke="midnightblue" d="M161.51,-86C176.96,-86 194.71,-86 210.87,-86"/>
<polygon fill="midnightblue" stroke="midnightblue" points="161.22,-82.5 151.22,-86 161.22,-89.5 161.22,-82.5"/>
</g>
<!-- Node6 -->
<g id="node6" class="node">
<title>Node6</title>
<g id="a_node6"><a xlink:href="../classQskPopupEvent" target="_top" xlink:title=" ">
<polygon fill="none" stroke="black" points="215,-38.5 215,-57.5 308,-57.5 308,-38.5 215,-38.5"/>
<text text-anchor="middle" x="261.5" y="-45.5" font-family="Helvetica,sans-Serif" font-size="10.00">QskPopupEvent</text>
</a>
</g>
</g>
<!-- Node1&#45;&gt;Node6 -->
<g id="edge5" class="edge">
<title>Node1&#45;&gt;Node6</title>
<path fill="none" stroke="midnightblue" d="M161.04,-74.24C169.6,-71.81 178.59,-69.29 187,-67 198.57,-63.85 211.21,-60.54 222.68,-57.58"/>
<polygon fill="midnightblue" stroke="midnightblue" points="159.9,-70.93 151.25,-77.04 161.82,-77.66 159.9,-70.93"/>
</g>
<!-- Node7 -->
<g id="node7" class="node">
<title>Node7</title>
<g id="a_node7"><a xlink:href="../classQskWindowChangeEvent" target="_top" xlink:title=" ">
<polygon fill="none" stroke="black" points="192,-0.5 192,-19.5 331,-19.5 331,-0.5 192,-0.5"/>
<text text-anchor="middle" x="261.5" y="-7.5" font-family="Helvetica,sans-Serif" font-size="10.00">QskWindowChangeEvent</text>
</a>
</g>
</g>
<!-- Node1&#45;&gt;Node7 -->
<g id="edge6" class="edge">
<title>Node1&#45;&gt;Node7</title>
<path fill="none" stroke="midnightblue" d="M135.94,-69.09C148.52,-56.3 167.35,-39.25 187,-29 194.36,-25.16 202.55,-22.06 210.72,-19.57"/>
<polygon fill="midnightblue" stroke="midnightblue" points="133.34,-66.75 128.97,-76.41 138.41,-71.58 133.34,-66.75"/>
</g>
<!-- Node2 -->
<g id="node2" class="node">
<title>Node2</title>
<g id="a_node2"><a xlink:title=" ">
<polygon fill="none" stroke="#bfbfbf" points="0,-76.5 0,-95.5 52,-95.5 52,-76.5 0,-76.5"/>
<text text-anchor="middle" x="26" y="-83.5" font-family="Helvetica,sans-Serif" font-size="10.00">QEvent</text>
</a>
</g>
</g>
<!-- Node2&#45;&gt;Node1 -->
<g id="edge1" class="edge">
<title>Node2&#45;&gt;Node1</title>
<path fill="none" stroke="midnightblue" d="M62.07,-86C70.61,-86 79.68,-86 87.98,-86"/>
<polygon fill="midnightblue" stroke="midnightblue" points="62,-82.5 52,-86 62,-89.5 62,-82.5"/>
</g>
</g>
</svg>
