<?xml version="1.0" encoding="UTF-8" standalone="no"?>
<!DOCTYPE svg PUBLIC "-//W3C//DTD SVG 1.1//EN"
 "http://www.w3.org/Graphics/SVG/1.1/DTD/svg11.dtd">
<!-- Generated by graphviz version 2.43.0 (0)
 -->
<!-- Title: QskAnimator Pages: 1 -->
<svg width="420pt" height="182pt"
 viewBox="0.00 0.00 420.00 181.50" xmlns="http://www.w3.org/2000/svg" xmlns:xlink="http://www.w3.org/1999/xlink">
<g id="graph0" class="graph" transform="scale(1 1) rotate(0) translate(4 177.5)">
<title>QskAnimator</title>
<!-- Node1 -->
<g id="node1" class="node">
<title>Node1</title>
<g id="a_node1"><a xlink:title=" ">
<polygon fill="#bfbfbf" stroke="black" points="0,-85.5 0,-104.5 80,-104.5 80,-85.5 0,-85.5"/>
<text text-anchor="middle" x="40" y="-92.5" font-family="Helvetica,sans-Serif" font-size="10.00">QskAnimator</text>
</a>
</g>
</g>
<!-- Node2 -->
<g id="node2" class="node">
<title>Node2</title>
<g id="a_node2"><a xlink:title=" ">
<polygon fill="none" stroke="#bfbfbf" points="116,-143 116,-173 244,-173 244,-143 116,-143"/>
<text text-anchor="start" x="124" y="-161" font-family="Helvetica,sans-Serif" font-size="10.00">QSK_QT_PRIVATE_END</text>
<text text-anchor="middle" x="180" y="-150" font-family="Helvetica,sans-Serif" font-size="10.00">::ScrollAnimator</text>
</a>
</g>
</g>
<!-- Node1&#45;&gt;Node2 -->
<g id="edge1" class="edge">
<title>Node1&#45;&gt;Node2</title>
<path fill="none" stroke="midnightblue" d="M67.83,-109.34C82.01,-116.73 99.78,-125.69 116,-133 123.51,-136.38 131.62,-139.79 139.45,-142.94"/>
<polygon fill="midnightblue" stroke="midnightblue" points="69.14,-106.08 58.66,-104.52 65.88,-112.27 69.14,-106.08"/>
</g>
<!-- Node3 -->
<g id="node3" class="node">
<title>Node3</title>
<g id="a_node3"><a xlink:href="classQskFlickAnimator.html" target="_top" xlink:title=" ">
<polygon fill="none" stroke="black" points="128,-104.5 128,-123.5 232,-123.5 232,-104.5 128,-104.5"/>
<text text-anchor="middle" x="180" y="-111.5" font-family="Helvetica,sans-Serif" font-size="10.00">QskFlickAnimator</text>
</a>
</g>
</g>
<!-- Node1&#45;&gt;Node3 -->
<g id="edge2" class="edge">
<title>Node1&#45;&gt;Node3</title>
<path fill="none" stroke="midnightblue" d="M90.19,-101.77C102.41,-103.46 115.54,-105.26 127.85,-106.96"/>
<polygon fill="midnightblue" stroke="midnightblue" points="90.56,-98.29 80.18,-100.39 89.61,-105.23 90.56,-98.29"/>
</g>
<!-- Node5 -->
<g id="node5" class="node">
<title>Node5</title>
<g id="a_node5"><a xlink:href="classQskStackBoxAnimator.html" target="_top" xlink:title=" ">
<polygon fill="none" stroke="black" points="117,-66.5 117,-85.5 243,-85.5 243,-66.5 117,-66.5"/>
<text text-anchor="middle" x="180" y="-73.5" font-family="Helvetica,sans-Serif" font-size="10.00">QskStackBoxAnimator</text>
</a>
</g>
</g>
<!-- Node1&#45;&gt;Node5 -->
<g id="edge4" class="edge">
<title>Node1&#45;&gt;Node5</title>
<path fill="none" stroke="midnightblue" d="M90.35,-88.2C98.91,-87.03 107.91,-85.79 116.75,-84.57"/>
<polygon fill="midnightblue" stroke="midnightblue" points="89.61,-84.77 80.18,-89.61 90.56,-91.71 89.61,-84.77"/>
</g>
<!-- Node8 -->
<g id="node8" class="node">
<title>Node8</title>
<g id="a_node8"><a xlink:href="classQskVariantAnimator.html" target="_top" xlink:title=" ">
<polygon fill="none" stroke="black" points="122,-19.5 122,-38.5 238,-38.5 238,-19.5 122,-19.5"/>
<text text-anchor="middle" x="180" y="-26.5" font-family="Helvetica,sans-Serif" font-size="10.00">QskVariantAnimator</text>
</a>
</g>
</g>
<!-- Node1&#45;&gt;Node8 -->
<g id="edge7" class="edge">
<title>Node1&#45;&gt;Node8</title>
<path fill="none" stroke="midnightblue" d="M68.53,-80.63C82.64,-73.37 100.15,-64.53 116,-57 129.41,-50.63 144.61,-43.86 156.72,-38.58"/>
<polygon fill="midnightblue" stroke="midnightblue" points="66.64,-77.67 59.36,-85.37 69.85,-83.89 66.64,-77.67"/>
</g>
<!-- Node4 -->
<g id="node4" class="node">
<title>Node4</title>
<g id="a_node4"><a xlink:title=" ">
<polygon fill="none" stroke="#bfbfbf" points="282,-115 282,-145 410,-145 410,-115 282,-115"/>
<text text-anchor="start" x="290" y="-133" font-family="Helvetica,sans-Serif" font-size="10.00">QSK_QT_PRIVATE_END</text>
<text text-anchor="middle" x="346" y="-122" font-family="Helvetica,sans-Serif" font-size="10.00">::FlickAnimator</text>
</a>
</g>
</g>
<!-- Node3&#45;&gt;Node4 -->
<g id="edge3" class="edge">
<title>Node3&#45;&gt;Node4</title>
<path fill="none" stroke="midnightblue" d="M242.57,-120.01C255.43,-121.26 269.01,-122.59 281.92,-123.85"/>
<polygon fill="midnightblue" stroke="midnightblue" points="242.73,-116.51 232.44,-119.02 242.05,-123.47 242.73,-116.51"/>
</g>
<!-- Node6 -->
<g id="node6" class="node">
<title>Node6</title>
<g id="a_node6"><a xlink:href="classQskStackBoxAnimator1.html" target="_top" xlink:title=" ">
<polygon fill="none" stroke="black" points="280,-76.5 280,-95.5 412,-95.5 412,-76.5 280,-76.5"/>
<text text-anchor="middle" x="346" y="-83.5" font-family="Helvetica,sans-Serif" font-size="10.00">QskStackBoxAnimator1</text>
</a>
</g>
</g>
<!-- Node5&#45;&gt;Node6 -->
<g id="edge5" class="edge">
<title>Node5&#45;&gt;Node6</title>
<path fill="none" stroke="midnightblue" d="M253.01,-80.39C261.96,-80.94 271.07,-81.49 279.9,-82.03"/>
<polygon fill="midnightblue" stroke="midnightblue" points="253.2,-76.9 243,-79.78 252.77,-83.88 253.2,-76.9"/>
</g>
<!-- Node7 -->
<g id="node7" class="node">
<title>Node7</title>
<g id="a_node7"><a xlink:href="classQskStackBoxAnimator3.html" target="_top" xlink:title=" ">
<polygon fill="none" stroke="black" points="280,-38.5 280,-57.5 412,-57.5 412,-38.5 280,-38.5"/>
<text text-anchor="middle" x="346" y="-45.5" font-family="Helvetica,sans-Serif" font-size="10.00">QskStackBoxAnimator3</text>
</a>
</g>
</g>
<!-- Node5&#45;&gt;Node7 -->
<g id="edge6" class="edge">
<title>Node5&#45;&gt;Node7</title>
<path fill="none" stroke="midnightblue" d="M247.04,-64.72C261.04,-62.33 275.7,-59.83 289.27,-57.51"/>
<polygon fill="midnightblue" stroke="midnightblue" points="246.25,-61.31 236.98,-66.44 247.43,-68.21 246.25,-61.31"/>
</g>
<!-- Node9 -->
<g id="node9" class="node">
<title>Node9</title>
<g id="a_node9"><a xlink:href="classQskHintAnimator.html" target="_top" xlink:title=" ">
<polygon fill="none" stroke="black" points="295.5,-0.5 295.5,-19.5 396.5,-19.5 396.5,-0.5 295.5,-0.5"/>
<text text-anchor="middle" x="346" y="-7.5" font-family="Helvetica,sans-Serif" font-size="10.00">QskHintAnimator</text>
</a>
</g>
</g>
<!-- Node8&#45;&gt;Node9 -->
<g id="edge8" class="edge">
<title>Node8&#45;&gt;Node9</title>
<path fill="none" stroke="midnightblue" d="M248.52,-21.18C264.19,-19.36 280.58,-17.46 295.31,-15.76"/>
<polygon fill="midnightblue" stroke="midnightblue" points="247.89,-17.73 238.36,-22.35 248.7,-24.68 247.89,-17.73"/>
</g>
</g>
</svg>
