<?xml version="1.0" encoding="UTF-8" standalone="no"?>
<!DOCTYPE svg PUBLIC "-//W3C//DTD SVG 1.1//EN"
 "http://www.w3.org/Graphics/SVG/1.1/DTD/svg11.dtd">
<!-- Generated by graphviz version 2.43.0 (0)
 -->
<!-- Title: QskStackBoxAnimator Pages: 1 -->
<svg width="290pt" height="140pt"
 viewBox="0.00 0.00 290.00 140.00" xmlns="http://www.w3.org/2000/svg" xmlns:xlink="http://www.w3.org/1999/xlink">
<g id="graph0" class="graph" transform="scale(1 1) rotate(0) translate(4 136)">
<title>QskStackBoxAnimator</title>
<!-- Node1 -->
<g id="node1" class="node">
<title>Node1</title>
<g id="a_node1"><a xlink:title=" ">
<polygon fill="#bfbfbf" stroke="black" points="78,-56.5 78,-75.5 204,-75.5 204,-56.5 78,-56.5"/>
<text text-anchor="middle" x="141" y="-63.5" font-family="Helvetica,sans-Serif" font-size="10.00">QskStackBoxAnimator</text>
</a>
</g>
</g>
<!-- Node4 -->
<g id="node4" class="node">
<title>Node4</title>
<g id="a_node4"><a xlink:href="../classQskStackBoxAnimator1" target="_top" xlink:title=" ">
<polygon fill="none" stroke="black" points="0,-0.5 0,-19.5 132,-19.5 132,-0.5 0,-0.5"/>
<text text-anchor="middle" x="66" y="-7.5" font-family="Helvetica,sans-Serif" font-size="10.00">QskStackBoxAnimator1</text>
</a>
</g>
</g>
<!-- Node1&#45;&gt;Node4 -->
<g id="edge3" class="edge">
<title>Node1&#45;&gt;Node4</title>
<path fill="none" stroke="midnightblue" d="M120.69,-50.38C107.14,-40.62 89.76,-28.11 78.27,-19.83"/>
<polygon fill="midnightblue" stroke="midnightblue" points="118.79,-53.32 128.95,-56.32 122.88,-47.64 118.79,-53.32"/>
</g>
<!-- Node5 -->
<g id="node5" class="node">
<title>Node5</title>
<g id="a_node5"><a xlink:href="../classQskStackBoxAnimator3" target="_top" xlink:title=" ">
<polygon fill="none" stroke="black" points="150,-0.5 150,-19.5 282,-19.5 282,-0.5 150,-0.5"/>
<text text-anchor="middle" x="216" y="-7.5" font-family="Helvetica,sans-Serif" font-size="10.00">QskStackBoxAnimator3</text>
</a>
</g>
</g>
<!-- Node1&#45;&gt;Node5 -->
<g id="edge4" class="edge">
<title>Node1&#45;&gt;Node5</title>
<path fill="none" stroke="midnightblue" d="M161.31,-50.38C174.86,-40.62 192.24,-28.11 203.73,-19.83"/>
<polygon fill="midnightblue" stroke="midnightblue" points="159.12,-47.64 153.05,-56.32 163.21,-53.32 159.12,-47.64"/>
</g>
<!-- Node2 -->
<g id="node2" class="node">
<title>Node2</title>
<g id="a_node2"><a xlink:title=" ">
<polygon fill="none" stroke="#bfbfbf" points="70,-112.5 70,-131.5 126,-131.5 126,-112.5 70,-112.5"/>
<text text-anchor="middle" x="98" y="-119.5" font-family="Helvetica,sans-Serif" font-size="10.00">QObject</text>
</a>
</g>
</g>
<!-- Node2&#45;&gt;Node1 -->
<g id="edge1" class="edge">
<title>Node2&#45;&gt;Node1</title>
<path fill="none" stroke="midnightblue" d="M111.42,-104.14C118.91,-94.74 127.94,-83.4 134.03,-75.75"/>
<polygon fill="midnightblue" stroke="midnightblue" points="108.59,-102.08 105.1,-112.08 114.07,-106.44 108.59,-102.08"/>
</g>
<!-- Node3 -->
<g id="node3" class="node">
<title>Node3</title>
<g id="a_node3"><a xlink:href="../classQskAnimator" target="_top" xlink:title=" ">
<polygon fill="none" stroke="black" points="144,-112.5 144,-131.5 224,-131.5 224,-112.5 144,-112.5"/>
<text text-anchor="middle" x="184" y="-119.5" font-family="Helvetica,sans-Serif" font-size="10.00">QskAnimator</text>
</a>
</g>
</g>
<!-- Node3&#45;&gt;Node1 -->
<g id="edge2" class="edge">
<title>Node3&#45;&gt;Node1</title>
<path fill="none" stroke="midnightblue" d="M170.58,-104.14C163.09,-94.74 154.06,-83.4 147.97,-75.75"/>
<polygon fill="midnightblue" stroke="midnightblue" points="167.93,-106.44 176.9,-112.08 173.41,-102.08 167.93,-106.44"/>
</g>
</g>
</svg>
