<?xml version="1.0" encoding="UTF-8" standalone="no"?>
<!DOCTYPE svg PUBLIC "-//W3C//DTD SVG 1.1//EN"
 "http://www.w3.org/Graphics/SVG/1.1/DTD/svg11.dtd">
<!-- Generated by graphviz version 2.43.0 (0)
 -->
<!-- Title: QskBoundedControl Pages: 1 -->
<svg width="314pt" height="364pt"
 viewBox="0.00 0.00 314.00 364.00" xmlns="http://www.w3.org/2000/svg" xmlns:xlink="http://www.w3.org/1999/xlink">
<g id="graph0" class="graph" transform="scale(1 1) rotate(0) translate(4 360)">
<title>QskBoundedControl</title>
<!-- Node1 -->
<g id="node1" class="node">
<title>Node1</title>
<g id="a_node1"><a xlink:title=" ">
<polygon fill="#bfbfbf" stroke="black" points="143.5,-168.5 143.5,-187.5 256.5,-187.5 256.5,-168.5 143.5,-168.5"/>
<text text-anchor="middle" x="200" y="-175.5" font-family="Helvetica,sans-Serif" font-size="10.00">QskBoundedControl</text>
</a>
</g>
</g>
<!-- Node6 -->
<g id="node6" class="node">
<title>Node6</title>
<g id="a_node6"><a xlink:href="classQskBoundedInput.html" target="_top" xlink:title=" ">
<polygon fill="none" stroke="black" points="90.5,-112.5 90.5,-131.5 193.5,-131.5 193.5,-112.5 90.5,-112.5"/>
<text text-anchor="middle" x="142" y="-119.5" font-family="Helvetica,sans-Serif" font-size="10.00">QskBoundedInput</text>
</a>
</g>
</g>
<!-- Node1&#45;&gt;Node6 -->
<g id="edge5" class="edge">
<title>Node1&#45;&gt;Node6</title>
<path fill="none" stroke="midnightblue" d="M183.09,-161.25C172.8,-151.67 160.03,-139.79 151.49,-131.83"/>
<polygon fill="midnightblue" stroke="midnightblue" points="180.98,-164.07 190.68,-168.32 185.75,-158.95 180.98,-164.07"/>
</g>
<!-- Node10 -->
<g id="node10" class="node">
<title>Node10</title>
<g id="a_node10"><a xlink:href="classQskProgressBar.html" target="_top" xlink:title=" ">
<polygon fill="none" stroke="black" points="212,-112.5 212,-131.5 306,-131.5 306,-112.5 212,-112.5"/>
<text text-anchor="middle" x="259" y="-119.5" font-family="Helvetica,sans-Serif" font-size="10.00">QskProgressBar</text>
</a>
</g>
</g>
<!-- Node1&#45;&gt;Node10 -->
<g id="edge9" class="edge">
<title>Node1&#45;&gt;Node10</title>
<path fill="none" stroke="midnightblue" d="M216.89,-161.54C227.41,-151.91 240.57,-139.87 249.35,-131.83"/>
<polygon fill="midnightblue" stroke="midnightblue" points="214.49,-158.99 209.48,-168.32 219.22,-164.15 214.49,-158.99"/>
</g>
<!-- Node2 -->
<g id="node2" class="node">
<title>Node2</title>
<g id="a_node2"><a xlink:href="classQskControl.html" target="_top" xlink:title="Base class of all controls.">
<polygon fill="none" stroke="black" points="164.5,-224.5 164.5,-243.5 235.5,-243.5 235.5,-224.5 164.5,-224.5"/>
<text text-anchor="middle" x="200" y="-231.5" font-family="Helvetica,sans-Serif" font-size="10.00">QskControl</text>
</a>
</g>
</g>
<!-- Node2&#45;&gt;Node1 -->
<g id="edge1" class="edge">
<title>Node2&#45;&gt;Node1</title>
<path fill="none" stroke="midnightblue" d="M200,-213.8C200,-204.91 200,-194.78 200,-187.75"/>
<polygon fill="midnightblue" stroke="midnightblue" points="196.5,-214.08 200,-224.08 203.5,-214.08 196.5,-214.08"/>
</g>
<!-- Node3 -->
<g id="node3" class="node">
<title>Node3</title>
<g id="a_node3"><a xlink:href="classQskQuickItem.html" target="_top" xlink:title=" ">
<polygon fill="none" stroke="black" points="106,-280.5 106,-299.5 192,-299.5 192,-280.5 106,-280.5"/>
<text text-anchor="middle" x="149" y="-287.5" font-family="Helvetica,sans-Serif" font-size="10.00">QskQuickItem</text>
</a>
</g>
</g>
<!-- Node3&#45;&gt;Node2 -->
<g id="edge2" class="edge">
<title>Node3&#45;&gt;Node2</title>
<path fill="none" stroke="midnightblue" d="M164.38,-272.72C173.37,-263.2 184.36,-251.56 191.74,-243.75"/>
<polygon fill="midnightblue" stroke="midnightblue" points="161.74,-270.41 157.42,-280.08 166.83,-275.22 161.74,-270.41"/>
</g>
<!-- Node4 -->
<g id="node4" class="node">
<title>Node4</title>
<g id="a_node4"><a xlink:title=" ">
<polygon fill="none" stroke="#bfbfbf" points="112,-336.5 112,-355.5 186,-355.5 186,-336.5 112,-336.5"/>
<text text-anchor="middle" x="149" y="-343.5" font-family="Helvetica,sans-Serif" font-size="10.00">QQuickItem</text>
</a>
</g>
</g>
<!-- Node4&#45;&gt;Node3 -->
<g id="edge3" class="edge">
<title>Node4&#45;&gt;Node3</title>
<path fill="none" stroke="midnightblue" d="M149,-325.8C149,-316.91 149,-306.78 149,-299.75"/>
<polygon fill="midnightblue" stroke="midnightblue" points="145.5,-326.08 149,-336.08 152.5,-326.08 145.5,-326.08"/>
</g>
<!-- Node5 -->
<g id="node5" class="node">
<title>Node5</title>
<g id="a_node5"><a xlink:href="classQskSkinnable.html" target="_top" xlink:title=" ">
<polygon fill="none" stroke="black" points="210.5,-280.5 210.5,-299.5 293.5,-299.5 293.5,-280.5 210.5,-280.5"/>
<text text-anchor="middle" x="252" y="-287.5" font-family="Helvetica,sans-Serif" font-size="10.00">QskSkinnable</text>
</a>
</g>
</g>
<!-- Node5&#45;&gt;Node2 -->
<g id="edge4" class="edge">
<title>Node5&#45;&gt;Node2</title>
<path fill="none" stroke="midnightblue" d="M236.32,-272.72C227.16,-263.2 215.95,-251.56 208.43,-243.75"/>
<polygon fill="midnightblue" stroke="midnightblue" points="233.96,-275.31 243.41,-280.08 239,-270.45 233.96,-275.31"/>
</g>
<!-- Node7 -->
<g id="node7" class="node">
<title>Node7</title>
<g id="a_node7"><a xlink:href="classQskBoundedRangeInput.html" target="_top" xlink:title=" ">
<polygon fill="none" stroke="black" points="0,-56.5 0,-75.5 134,-75.5 134,-56.5 0,-56.5"/>
<text text-anchor="middle" x="67" y="-63.5" font-family="Helvetica,sans-Serif" font-size="10.00">QskBoundedRangeInput</text>
</a>
</g>
</g>
<!-- Node6&#45;&gt;Node7 -->
<g id="edge6" class="edge">
<title>Node6&#45;&gt;Node7</title>
<path fill="none" stroke="midnightblue" d="M121.69,-106.38C108.14,-96.62 90.76,-84.11 79.27,-75.83"/>
<polygon fill="midnightblue" stroke="midnightblue" points="119.79,-109.32 129.95,-112.32 123.88,-103.64 119.79,-109.32"/>
</g>
<!-- Node8 -->
<g id="node8" class="node">
<title>Node8</title>
<g id="a_node8"><a xlink:href="classQskBoundedValueInput.html" target="_top" xlink:title=" ">
<polygon fill="none" stroke="black" points="152.5,-56.5 152.5,-75.5 283.5,-75.5 283.5,-56.5 152.5,-56.5"/>
<text text-anchor="middle" x="218" y="-63.5" font-family="Helvetica,sans-Serif" font-size="10.00">QskBoundedValueInput</text>
</a>
</g>
</g>
<!-- Node6&#45;&gt;Node8 -->
<g id="edge7" class="edge">
<title>Node6&#45;&gt;Node8</title>
<path fill="none" stroke="midnightblue" d="M162.58,-106.38C176.31,-96.62 193.93,-84.11 205.57,-75.83"/>
<polygon fill="midnightblue" stroke="midnightblue" points="160.34,-103.68 154.21,-112.32 164.39,-109.38 160.34,-103.68"/>
</g>
<!-- Node9 -->
<g id="node9" class="node">
<title>Node9</title>
<g id="a_node9"><a xlink:href="classQskSlider.html" target="_top" xlink:title=" ">
<polygon fill="none" stroke="black" points="186.5,-0.5 186.5,-19.5 249.5,-19.5 249.5,-0.5 186.5,-0.5"/>
<text text-anchor="middle" x="218" y="-7.5" font-family="Helvetica,sans-Serif" font-size="10.00">QskSlider</text>
</a>
</g>
</g>
<!-- Node8&#45;&gt;Node9 -->
<g id="edge8" class="edge">
<title>Node8&#45;&gt;Node9</title>
<path fill="none" stroke="midnightblue" d="M218,-45.8C218,-36.91 218,-26.78 218,-19.75"/>
<polygon fill="midnightblue" stroke="midnightblue" points="214.5,-46.08 218,-56.08 221.5,-46.08 214.5,-46.08"/>
</g>
</g>
</svg>
