<?xml version="1.0" encoding="UTF-8" standalone="no"?>
<!DOCTYPE svg PUBLIC "-//W3C//DTD SVG 1.1//EN"
 "http://www.w3.org/Graphics/SVG/1.1/DTD/svg11.dtd">
<!-- Generated by graphviz version 2.43.0 (0)
 -->
<!-- Title: QskLinearBox Pages: 1 -->
<svg width="196pt" height="308pt"
 viewBox="0.00 0.00 195.50 308.00" xmlns="http://www.w3.org/2000/svg" xmlns:xlink="http://www.w3.org/1999/xlink">
<g id="graph0" class="graph" transform="scale(1 1) rotate(0) translate(4 304)">
<title>QskLinearBox</title>
<!-- Node1 -->
<g id="node1" class="node">
<title>Node1</title>
<g id="a_node1"><a xlink:title="Layout stringing items in rows and columns.">
<polygon fill="#bfbfbf" stroke="black" points="52,-0.5 52,-19.5 136,-19.5 136,-0.5 52,-0.5"/>
<text text-anchor="middle" x="94" y="-7.5" font-family="Helvetica,sans-Serif" font-size="10.00">QskLinearBox</text>
</a>
</g>
</g>
<!-- Node2 -->
<g id="node2" class="node">
<title>Node2</title>
<g id="a_node2"><a xlink:href="../classQskIndexedLayoutBox" target="_top" xlink:title="Base class of layouts with index ordered elements.">
<polygon fill="none" stroke="black" points="31,-56.5 31,-75.5 157,-75.5 157,-56.5 31,-56.5"/>
<text text-anchor="middle" x="94" y="-63.5" font-family="Helvetica,sans-Serif" font-size="10.00">QskIndexedLayoutBox</text>
</a>
</g>
</g>
<!-- Node2&#45;&gt;Node1 -->
<g id="edge1" class="edge">
<title>Node2&#45;&gt;Node1</title>
<path fill="none" stroke="midnightblue" d="M94,-45.8C94,-36.91 94,-26.78 94,-19.75"/>
<polygon fill="midnightblue" stroke="midnightblue" points="90.5,-46.08 94,-56.08 97.5,-46.08 90.5,-46.08"/>
</g>
<!-- Node3 -->
<g id="node3" class="node">
<title>Node3</title>
<g id="a_node3"><a xlink:href="../classQskBox" target="_top" xlink:title=" ">
<polygon fill="none" stroke="black" points="67,-112.5 67,-131.5 121,-131.5 121,-112.5 67,-112.5"/>
<text text-anchor="middle" x="94" y="-119.5" font-family="Helvetica,sans-Serif" font-size="10.00">QskBox</text>
</a>
</g>
</g>
<!-- Node3&#45;&gt;Node2 -->
<g id="edge2" class="edge">
<title>Node3&#45;&gt;Node2</title>
<path fill="none" stroke="midnightblue" d="M94,-101.8C94,-92.91 94,-82.78 94,-75.75"/>
<polygon fill="midnightblue" stroke="midnightblue" points="90.5,-102.08 94,-112.08 97.5,-102.08 90.5,-102.08"/>
</g>
<!-- Node4 -->
<g id="node4" class="node">
<title>Node4</title>
<g id="a_node4"><a xlink:href="../classQskControl" target="_top" xlink:title="Base class of all controls.">
<polygon fill="none" stroke="black" points="58.5,-168.5 58.5,-187.5 129.5,-187.5 129.5,-168.5 58.5,-168.5"/>
<text text-anchor="middle" x="94" y="-175.5" font-family="Helvetica,sans-Serif" font-size="10.00">QskControl</text>
</a>
</g>
</g>
<!-- Node4&#45;&gt;Node3 -->
<g id="edge3" class="edge">
<title>Node4&#45;&gt;Node3</title>
<path fill="none" stroke="midnightblue" d="M94,-157.8C94,-148.91 94,-138.78 94,-131.75"/>
<polygon fill="midnightblue" stroke="midnightblue" points="90.5,-158.08 94,-168.08 97.5,-158.08 90.5,-158.08"/>
</g>
<!-- Node5 -->
<g id="node5" class="node">
<title>Node5</title>
<g id="a_node5"><a xlink:href="../classQskQuickItem" target="_top" xlink:title=" ">
<polygon fill="none" stroke="black" points="0,-224.5 0,-243.5 86,-243.5 86,-224.5 0,-224.5"/>
<text text-anchor="middle" x="43" y="-231.5" font-family="Helvetica,sans-Serif" font-size="10.00">QskQuickItem</text>
</a>
</g>
</g>
<!-- Node5&#45;&gt;Node4 -->
<g id="edge4" class="edge">
<title>Node5&#45;&gt;Node4</title>
<path fill="none" stroke="midnightblue" d="M58.38,-216.72C67.37,-207.2 78.36,-195.56 85.74,-187.75"/>
<polygon fill="midnightblue" stroke="midnightblue" points="55.74,-214.41 51.42,-224.08 60.83,-219.22 55.74,-214.41"/>
</g>
<!-- Node6 -->
<g id="node6" class="node">
<title>Node6</title>
<g id="a_node6"><a xlink:title=" ">
<polygon fill="none" stroke="#bfbfbf" points="6,-280.5 6,-299.5 80,-299.5 80,-280.5 6,-280.5"/>
<text text-anchor="middle" x="43" y="-287.5" font-family="Helvetica,sans-Serif" font-size="10.00">QQuickItem</text>
</a>
</g>
</g>
<!-- Node6&#45;&gt;Node5 -->
<g id="edge5" class="edge">
<title>Node6&#45;&gt;Node5</title>
<path fill="none" stroke="midnightblue" d="M43,-269.8C43,-260.91 43,-250.78 43,-243.75"/>
<polygon fill="midnightblue" stroke="midnightblue" points="39.5,-270.08 43,-280.08 46.5,-270.08 39.5,-270.08"/>
</g>
<!-- Node7 -->
<g id="node7" class="node">
<title>Node7</title>
<g id="a_node7"><a xlink:href="../classQskSkinnable" target="_top" xlink:title=" ">
<polygon fill="none" stroke="black" points="104.5,-224.5 104.5,-243.5 187.5,-243.5 187.5,-224.5 104.5,-224.5"/>
<text text-anchor="middle" x="146" y="-231.5" font-family="Helvetica,sans-Serif" font-size="10.00">QskSkinnable</text>
</a>
</g>
</g>
<!-- Node7&#45;&gt;Node4 -->
<g id="edge6" class="edge">
<title>Node7&#45;&gt;Node4</title>
<path fill="none" stroke="midnightblue" d="M130.32,-216.72C121.16,-207.2 109.95,-195.56 102.43,-187.75"/>
<polygon fill="midnightblue" stroke="midnightblue" points="127.96,-219.31 137.41,-224.08 133,-214.45 127.96,-219.31"/>
</g>
</g>
</svg>
