<?xml version="1.0" encoding="UTF-8" standalone="no"?>
<!DOCTYPE svg PUBLIC "-//W3C//DTD SVG 1.1//EN"
 "http://www.w3.org/Graphics/SVG/1.1/DTD/svg11.dtd">
<!-- Generated by graphviz version 2.43.0 (0)
 -->
<!-- Title: QskQuickItem Pages: 1 -->
<!--zoomable 598 -->
<svg id="main" version="1.1" xmlns="http://www.w3.org/2000/svg" xmlns:xlink="http://www.w3.org/1999/xlink" xml:space="preserve" onload="init(evt)">
<style type="text/css"><![CDATA[
.edge:hover path { stroke: red; }
.edge:hover polygon { stroke: red; fill: red; }
]]></style>
<script type="text/javascript"><![CDATA[
var edges = document.getElementsByTagName('g');
if (edges && edges.length) {
  for (var i=0;i<edges.length;i++) {
    if (edges[i].id.substr(0,4)=='edge') {
      edges[i].setAttribute('class','edge');
    }
  }
}
]]></script>
        <defs>
                <circle id="rim" cx="0" cy="0" r="7"/>
                <circle id="rim2" cx="0" cy="0" r="3.5"/>
                <g id="zoomPlus">
                        <use xlink:href="#rim" fill="#404040">
                                <set attributeName="fill" to="#808080" begin="zoomplus.mouseover" end="zoomplus.mouseout"/>
                        </use>
                        <path d="M-4,0h8M0,-4v8" fill="none" stroke="white" stroke-width="1.5" pointer-events="none"/>
                </g>
                <g id="zoomMin">
                        <use xlink:href="#rim" fill="#404040">
                                <set attributeName="fill" to="#808080" begin="zoomminus.mouseover" end="zoomminus.mouseout"/>
                        </use>
                        <path d="M-4,0h8" fill="none" stroke="white" stroke-width="1.5" pointer-events="none"/>
                </g>
                <g id="dirArrow">
                        <path fill="none" stroke="white" stroke-width="1.5" d="M0,-3.0v7 M-2.5,-0.5L0,-3.0L2.5,-0.5"/>
                </g>
               <g id="resetDef">
                       <use xlink:href="#rim2" fill="#404040">
                               <set attributeName="fill" to="#808080" begin="reset.mouseover" end="reset.mouseout"/>
                       </use>
               </g>
        </defs>

<script type="text/javascript">
var viewWidth = 462;
var viewHeight = 598;
var sectionId = 'dynsection-0';
</script>
<script xlink:href="svgpan.js"/>
<svg id="graph" class="graph">
<g id="viewport">
<title>QskQuickItem</title>
<!-- Node1 -->
<g id="node1" class="node">
<title>Node1</title>
<g id="a_node1"><a xlink:title=" ">
<polygon fill="#bfbfbf" stroke="black" points="110,-285.5 110,-304.5 196,-304.5 196,-285.5 110,-285.5"/>
<text text-anchor="middle" x="153" y="-292.5" font-family="Helvetica,sans-Serif" font-size="10.00">QskQuickItem</text>
</a>
</g>
</g>
<!-- Node3 -->
<g id="node3" class="node">
<title>Node3</title>
<g id="a_node3"><a xlink:href="classQskControl.html" target="_top" xlink:title="Base class of all controls.">
<polygon fill="none" stroke="black" points="232,-285.5 232,-304.5 303,-304.5 303,-285.5 232,-285.5"/>
<text text-anchor="middle" x="267.5" y="-292.5" font-family="Helvetica,sans-Serif" font-size="10.00">QskControl</text>
</a>
</g>
</g>
<!-- Node1&#45;&gt;Node3 -->
<g id="edge2" class="edge">
<title>Node1&#45;&gt;Node3</title>
<path fill="none" stroke="midnightblue" d="M206.26,-295C214.91,-295 223.68,-295 231.76,-295"/>
<polygon fill="midnightblue" stroke="midnightblue" points="206.21,-291.5 196.21,-295 206.21,-298.5 206.21,-291.5"/>
</g>
<!-- Node2 -->
<g id="node2" class="node">
<title>Node2</title>
<g id="a_node2"><a xlink:title=" ">
<polygon fill="none" stroke="#bfbfbf" points="0,-285.5 0,-304.5 74,-304.5 74,-285.5 0,-285.5"/>
<text text-anchor="middle" x="37" y="-292.5" font-family="Helvetica,sans-Serif" font-size="10.00">QQuickItem</text>
</a>
</g>
</g>
<!-- Node2&#45;&gt;Node1 -->
<g id="edge1" class="edge">
<title>Node2&#45;&gt;Node1</title>
<path fill="none" stroke="midnightblue" d="M84.18,-295C92.65,-295 101.45,-295 109.79,-295"/>
<polygon fill="midnightblue" stroke="midnightblue" points="84.07,-291.5 74.07,-295 84.07,-298.5 84.07,-291.5"/>
</g>
<!-- Node4 -->
<g id="node4" class="node">
<title>Node4</title>
<g id="a_node4"><a xlink:href="classQskAbstractButton.html" target="_top" xlink:title=" ">
<polygon fill="none" stroke="red" points="342.5,-570.5 342.5,-589.5 450.5,-589.5 450.5,-570.5 342.5,-570.5"/>
<text text-anchor="middle" x="396.5" y="-577.5" font-family="Helvetica,sans-Serif" font-size="10.00">QskAbstractButton</text>
</a>
</g>
</g>
<!-- Node3&#45;&gt;Node4 -->
<g id="edge3" class="edge">
<title>Node3&#45;&gt;Node4</title>
<path fill="none" stroke="midnightblue" d="M267.79,-314.9C267.18,-363.6 272.48,-489.99 339,-561 342.61,-564.85 347.02,-567.92 351.77,-570.37"/>
<polygon fill="midnightblue" stroke="midnightblue" points="271.3,-314.83 268.03,-304.75 264.3,-314.67 271.3,-314.83"/>
</g>
<!-- Node8 -->
<g id="node5" class="node">
<title>Node8</title>
<g id="a_node5"><a xlink:href="classQskBoundedControl.html" target="_top" xlink:title=" ">
<polygon fill="none" stroke="red" points="340,-532.5 340,-551.5 453,-551.5 453,-532.5 340,-532.5"/>
<text text-anchor="middle" x="396.5" y="-539.5" font-family="Helvetica,sans-Serif" font-size="10.00">QskBoundedControl</text>
</a>
</g>
</g>
<!-- Node3&#45;&gt;Node8 -->
<g id="edge4" class="edge">
<title>Node3&#45;&gt;Node8</title>
<path fill="none" stroke="midnightblue" d="M268.86,-314.97C270.74,-358.74 281.36,-463.93 339,-523 342.76,-526.85 347.32,-529.92 352.21,-532.37"/>
<polygon fill="midnightblue" stroke="midnightblue" points="272.35,-314.67 268.54,-304.78 265.35,-314.89 272.35,-314.67"/>
</g>
<!-- Node14 -->
<g id="node6" class="node">
<title>Node14</title>
<g id="a_node6"><a xlink:href="classQskBox.html" target="_top" xlink:title=" ">
<polygon fill="none" stroke="red" points="369.5,-494.5 369.5,-513.5 423.5,-513.5 423.5,-494.5 369.5,-494.5"/>
<text text-anchor="middle" x="396.5" y="-501.5" font-family="Helvetica,sans-Serif" font-size="10.00">QskBox</text>
</a>
</g>
</g>
<!-- Node3&#45;&gt;Node14 -->
<g id="edge5" class="edge">
<title>Node3&#45;&gt;Node14</title>
<path fill="none" stroke="midnightblue" d="M270.35,-315.25C274.93,-353.72 290.24,-437.72 339,-485 347.17,-492.92 358.75,-497.55 369.31,-500.24"/>
<polygon fill="midnightblue" stroke="midnightblue" points="273.78,-314.44 269.24,-304.87 266.82,-315.18 273.78,-314.44"/>
</g>
<!-- Node24 -->
<g id="node7" class="node">
<title>Node24</title>
<g id="a_node7"><a xlink:href="classQskFocusIndicator.html" target="_top" xlink:title=" ">
<polygon fill="none" stroke="black" points="343.5,-456.5 343.5,-475.5 449.5,-475.5 449.5,-456.5 343.5,-456.5"/>
<text text-anchor="middle" x="396.5" y="-463.5" font-family="Helvetica,sans-Serif" font-size="10.00">QskFocusIndicator</text>
</a>
</g>
</g>
<!-- Node3&#45;&gt;Node24 -->
<g id="edge6" class="edge">
<title>Node3&#45;&gt;Node24</title>
<path fill="none" stroke="midnightblue" d="M272.38,-314.75C279.73,-346.98 298.68,-410.89 339,-447 343.32,-450.87 348.45,-453.95 353.83,-456.41"/>
<polygon fill="midnightblue" stroke="midnightblue" points="275.76,-313.82 270.25,-304.77 268.92,-315.28 275.76,-313.82"/>
</g>
<!-- Node25 -->
<g id="node8" class="node">
<title>Node25</title>
<g id="a_node8"><a xlink:href="classQskGraphicLabel.html" target="_top" xlink:title=" ">
<polygon fill="none" stroke="black" points="347,-418.5 347,-437.5 446,-437.5 446,-418.5 347,-418.5"/>
<text text-anchor="middle" x="396.5" y="-425.5" font-family="Helvetica,sans-Serif" font-size="10.00">QskGraphicLabel</text>
</a>
</g>
</g>
<!-- Node3&#45;&gt;Node25 -->
<g id="edge7" class="edge">
<title>Node3&#45;&gt;Node25</title>
<path fill="none" stroke="midnightblue" d="M275.63,-314.41C285.87,-339.71 307.1,-383.69 339,-409 343.86,-412.86 349.55,-415.95 355.41,-418.43"/>
<polygon fill="midnightblue" stroke="midnightblue" points="278.79,-312.89 271.91,-304.83 272.26,-315.42 278.79,-312.89"/>
</g>
<!-- Node26 -->
<g id="node9" class="node">
<title>Node26</title>
<g id="a_node9"><a xlink:href="classQskInputGrabber.html" target="_top" xlink:title=" ">
<polygon fill="none" stroke="black" points="347,-380.5 347,-399.5 446,-399.5 446,-380.5 347,-380.5"/>
<text text-anchor="middle" x="396.5" y="-387.5" font-family="Helvetica,sans-Serif" font-size="10.00">QskInputGrabber</text>
</a>
</g>
</g>
<!-- Node3&#45;&gt;Node26 -->
<g id="edge8" class="edge">
<title>Node3&#45;&gt;Node26</title>
<path fill="none" stroke="midnightblue" d="M281.14,-313.17C293.92,-330.3 315.15,-355.59 339,-371 344.91,-374.82 351.67,-377.95 358.4,-380.49"/>
<polygon fill="midnightblue" stroke="midnightblue" points="283.64,-310.66 274.94,-304.61 277.97,-314.76 283.64,-310.66"/>
</g>
<!-- Node27 -->
<g id="node10" class="node">
<title>Node27</title>
<g id="a_node10"><a xlink:href="classQskInputPanel.html" target="_top" xlink:title=" ">
<polygon fill="none" stroke="red" points="353,-342.5 353,-361.5 440,-361.5 440,-342.5 353,-342.5"/>
<text text-anchor="middle" x="396.5" y="-349.5" font-family="Helvetica,sans-Serif" font-size="10.00">QskInputPanel</text>
</a>
</g>
</g>
<!-- Node3&#45;&gt;Node27 -->
<g id="edge9" class="edge">
<title>Node3&#45;&gt;Node27</title>
<path fill="none" stroke="midnightblue" d="M293.33,-309.73C306.61,-317.26 323.4,-326.23 339,-333 346.97,-336.46 355.8,-339.7 364.06,-342.48"/>
<polygon fill="midnightblue" stroke="midnightblue" points="294.76,-306.51 284.35,-304.55 291.27,-312.58 294.76,-306.51"/>
</g>
<!-- Node29 -->
<g id="node11" class="node">
<title>Node29</title>
<g id="a_node11"><a xlink:href="classQskPageIndicator.html" target="_top" xlink:title=" ">
<polygon fill="none" stroke="black" points="345.5,-304.5 345.5,-323.5 447.5,-323.5 447.5,-304.5 345.5,-304.5"/>
<text text-anchor="middle" x="396.5" y="-311.5" font-family="Helvetica,sans-Serif" font-size="10.00">QskPageIndicator</text>
</a>
</g>
</g>
<!-- Node3&#45;&gt;Node29 -->
<g id="edge10" class="edge">
<title>Node3&#45;&gt;Node29</title>
<path fill="none" stroke="midnightblue" d="M313.23,-301.69C323.55,-303.24 334.59,-304.89 345.12,-306.46"/>
<polygon fill="midnightblue" stroke="midnightblue" points="313.61,-298.21 303.2,-300.19 312.58,-305.13 313.61,-298.21"/>
</g>
<!-- Node30 -->
<g id="node12" class="node">
<title>Node30</title>
<g id="a_node12"><a xlink:href="classQskPopup.html" target="_top" xlink:title=" ">
<polygon fill="none" stroke="red" points="364,-266.5 364,-285.5 429,-285.5 429,-266.5 364,-266.5"/>
<text text-anchor="middle" x="396.5" y="-273.5" font-family="Helvetica,sans-Serif" font-size="10.00">QskPopup</text>
</a>
</g>
</g>
<!-- Node3&#45;&gt;Node30 -->
<g id="edge11" class="edge">
<title>Node3&#45;&gt;Node30</title>
<path fill="none" stroke="midnightblue" d="M313.31,-288.3C330.01,-285.8 348.61,-283.02 363.88,-280.73"/>
<polygon fill="midnightblue" stroke="midnightblue" points="312.58,-284.87 303.2,-289.81 313.61,-291.79 312.58,-284.87"/>
</g>
<!-- Node35 -->
<g id="node13" class="node">
<title>Node35</title>
<g id="a_node13"><a xlink:href="classQskScrollBox.html" target="_top" xlink:title=" ">
<polygon fill="none" stroke="red" points="356,-228.5 356,-247.5 437,-247.5 437,-228.5 356,-228.5"/>
<text text-anchor="middle" x="396.5" y="-235.5" font-family="Helvetica,sans-Serif" font-size="10.00">QskScrollBox</text>
</a>
</g>
</g>
<!-- Node3&#45;&gt;Node35 -->
<g id="edge12" class="edge">
<title>Node3&#45;&gt;Node35</title>
<path fill="none" stroke="midnightblue" d="M293.33,-280.27C306.61,-272.74 323.4,-263.77 339,-257 346.97,-253.54 355.8,-250.3 364.06,-247.52"/>
<polygon fill="midnightblue" stroke="midnightblue" points="291.27,-277.42 284.35,-285.45 294.76,-283.49 291.27,-277.42"/>
</g>
<!-- Node40 -->
<g id="node14" class="node">
<title>Node40</title>
<g id="a_node14"><a xlink:href="classQskSeparator.html" target="_top" xlink:title="Separates a group of items from adjacent items.">
<polygon fill="none" stroke="black" points="355,-190.5 355,-209.5 438,-209.5 438,-190.5 355,-190.5"/>
<text text-anchor="middle" x="396.5" y="-197.5" font-family="Helvetica,sans-Serif" font-size="10.00">QskSeparator</text>
</a>
</g>
</g>
<!-- Node3&#45;&gt;Node40 -->
<g id="edge13" class="edge">
<title>Node3&#45;&gt;Node40</title>
<path fill="none" stroke="midnightblue" d="M281.14,-276.83C293.92,-259.7 315.15,-234.41 339,-219 344.91,-215.18 351.67,-212.05 358.4,-209.51"/>
<polygon fill="midnightblue" stroke="midnightblue" points="277.97,-275.24 274.94,-285.39 283.64,-279.34 277.97,-275.24"/>
</g>
<!-- Node41 -->
<g id="node15" class="node">
<title>Node41</title>
<g id="a_node15"><a xlink:href="classQskStatusIndicator.html" target="_top" xlink:title=" ">
<polygon fill="none" stroke="black" points="342,-152.5 342,-171.5 451,-171.5 451,-152.5 342,-152.5"/>
<text text-anchor="middle" x="396.5" y="-159.5" font-family="Helvetica,sans-Serif" font-size="10.00">QskStatusIndicator</text>
</a>
</g>
</g>
<!-- Node3&#45;&gt;Node41 -->
<g id="edge14" class="edge">
<title>Node3&#45;&gt;Node41</title>
<path fill="none" stroke="midnightblue" d="M275.63,-275.59C285.87,-250.29 307.1,-206.31 339,-181 343.86,-177.14 349.55,-174.05 355.41,-171.57"/>
<polygon fill="midnightblue" stroke="midnightblue" points="272.26,-274.58 271.91,-285.17 278.79,-277.11 272.26,-274.58"/>
</g>
<!-- Node42 -->
<g id="node16" class="node">
<title>Node42</title>
<g id="a_node16"><a xlink:href="classQskSubWindowArea.html" target="_top" xlink:title=" ">
<polygon fill="none" stroke="black" points="339,-114.5 339,-133.5 454,-133.5 454,-114.5 339,-114.5"/>
<text text-anchor="middle" x="396.5" y="-121.5" font-family="Helvetica,sans-Serif" font-size="10.00">QskSubWindowArea</text>
</a>
</g>
</g>
<!-- Node3&#45;&gt;Node42 -->
<g id="edge15" class="edge">
<title>Node3&#45;&gt;Node42</title>
<path fill="none" stroke="midnightblue" d="M272.38,-275.25C279.73,-243.02 298.68,-179.11 339,-143 343.32,-139.13 348.45,-136.05 353.83,-133.59"/>
<polygon fill="midnightblue" stroke="midnightblue" points="268.92,-274.72 270.25,-285.23 275.76,-276.18 268.92,-274.72"/>
</g>
<!-- Node43 -->
<g id="node17" class="node">
<title>Node43</title>
<g id="a_node17"><a xlink:href="classQskTabView.html" target="_top" xlink:title=" ">
<polygon fill="none" stroke="black" points="358.5,-76.5 358.5,-95.5 434.5,-95.5 434.5,-76.5 358.5,-76.5"/>
<text text-anchor="middle" x="396.5" y="-83.5" font-family="Helvetica,sans-Serif" font-size="10.00">QskTabView</text>
</a>
</g>
</g>
<!-- Node3&#45;&gt;Node43 -->
<g id="edge16" class="edge">
<title>Node3&#45;&gt;Node43</title>
<path fill="none" stroke="midnightblue" d="M270.35,-274.75C274.93,-236.28 290.24,-152.28 339,-105 344.42,-99.74 351.35,-95.94 358.48,-93.18"/>
<polygon fill="midnightblue" stroke="midnightblue" points="266.82,-274.82 269.24,-285.13 273.78,-275.56 266.82,-274.82"/>
</g>
<!-- Node44 -->
<g id="node18" class="node">
<title>Node44</title>
<g id="a_node18"><a xlink:href="classQskTextInput.html" target="_top" xlink:title=" ">
<polygon fill="none" stroke="black" points="356.5,-38.5 356.5,-57.5 436.5,-57.5 436.5,-38.5 356.5,-38.5"/>
<text text-anchor="middle" x="396.5" y="-45.5" font-family="Helvetica,sans-Serif" font-size="10.00">QskTextInput</text>
</a>
</g>
</g>
<!-- Node3&#45;&gt;Node44 -->
<g id="edge17" class="edge">
<title>Node3&#45;&gt;Node44</title>
<path fill="none" stroke="midnightblue" d="M268.86,-275.03C270.74,-231.26 281.36,-126.07 339,-67 343.77,-62.11 349.84,-58.48 356.21,-55.78"/>
<polygon fill="midnightblue" stroke="midnightblue" points="265.35,-275.11 268.54,-285.22 272.35,-275.33 265.35,-275.11"/>
</g>
<!-- Node45 -->
<g id="node19" class="node">
<title>Node45</title>
<g id="a_node19"><a xlink:href="classQskTextLabel.html" target="_top" xlink:title=" ">
<polygon fill="none" stroke="black" points="355.5,-0.5 355.5,-19.5 437.5,-19.5 437.5,-0.5 355.5,-0.5"/>
<text text-anchor="middle" x="396.5" y="-7.5" font-family="Helvetica,sans-Serif" font-size="10.00">QskTextLabel</text>
</a>
</g>
</g>
<!-- Node3&#45;&gt;Node45 -->
<g id="edge18" class="edge">
<title>Node3&#45;&gt;Node45</title>
<path fill="none" stroke="midnightblue" d="M267.79,-275.1C267.18,-226.4 272.48,-100.01 339,-29 343.53,-24.17 349.32,-20.56 355.47,-17.87"/>
<polygon fill="midnightblue" stroke="midnightblue" points="264.3,-275.33 268.03,-285.25 271.3,-275.17 264.3,-275.33"/>
</g>
</g>
</svg>
        <g id="navigator" transform="translate(0 0)" fill="#404254">
                <rect fill="#f2f5e9" fill-opacity="0.5" stroke="#606060" stroke-width=".5" x="0" y="0" width="60" height="60"/>
                <use id="zoomplus" xlink:href="#zoomPlus" x="17" y="9" onmousedown="handleZoom(evt,'in')"/>
                <use id="zoomminus" xlink:href="#zoomMin" x="42" y="9" onmousedown="handleZoom(evt,'out')"/>
                <use id="reset" xlink:href="#resetDef" x="30" y="36" onmousedown="handleReset()"/>
                <g id="arrowUp" xlink:href="#dirArrow" transform="translate(30 24)" onmousedown="handlePan(0,-1)">
                  <use xlink:href="#rim" fill="#404040">
                        <set attributeName="fill" to="#808080" begin="arrowUp.mouseover" end="arrowUp.mouseout"/>
                  </use>
                  <path fill="none" stroke="white" stroke-width="1.5" d="M0,-3.0v7 M-2.5,-0.5L0,-3.0L2.5,-0.5"/>
                </g>
                <g id="arrowRight" xlink:href="#dirArrow" transform="rotate(90) translate(36 -43)" onmousedown="handlePan(1,0)">
                  <use xlink:href="#rim" fill="#404040">
                        <set attributeName="fill" to="#808080" begin="arrowRight.mouseover" end="arrowRight.mouseout"/>
                  </use>
                  <path fill="none" stroke="white" stroke-width="1.5" d="M0,-3.0v7 M-2.5,-0.5L0,-3.0L2.5,-0.5"/>
                </g>
                <g id="arrowDown" xlink:href="#dirArrow" transform="rotate(180) translate(-30 -48)" onmousedown="handlePan(0,1)">
                  <use xlink:href="#rim" fill="#404040">
                        <set attributeName="fill" to="#808080" begin="arrowDown.mouseover" end="arrowDown.mouseout"/>
                  </use>
                  <path fill="none" stroke="white" stroke-width="1.5" d="M0,-3.0v7 M-2.5,-0.5L0,-3.0L2.5,-0.5"/>
                </g>
                <g id="arrowLeft" xlink:href="#dirArrow" transform="rotate(270) translate(-36 17)" onmousedown="handlePan(-1,0)">
                  <use xlink:href="#rim" fill="#404040">
                        <set attributeName="fill" to="#808080" begin="arrowLeft.mouseover" end="arrowLeft.mouseout"/>
                  </use>
                  <path fill="none" stroke="white" stroke-width="1.5" d="M0,-3.0v7 M-2.5,-0.5L0,-3.0L2.5,-0.5"/>
                </g>
        </g>
        <svg viewBox="0 0 15 15" width="100%" height="30px" preserveAspectRatio="xMaxYMin meet">
         <g id="arrow_out" transform="scale(0.3 0.3)">
          <a xlink:href="classQskQuickItem__inherit__graph_org.svg" target="_base">
           <rect id="button" ry="5" rx="5" y="6" x="6" height="38" width="38"
                fill="#f2f5e9" fill-opacity="0.5" stroke="#606060" stroke-width="1.0"/>
           <path id="arrow"
             d="M 11.500037,31.436501 C 11.940474,20.09759 22.043105,11.32322 32.158766,21.979434 L 37.068811,17.246167 C 37.068811,17.246167 37.088388,32 37.088388,32 L 22.160133,31.978069 C 22.160133,31.978069 26.997745,27.140456 26.997745,27.140456 C 18.528582,18.264221 13.291696,25.230495 11.500037,31.436501 z"
             style="fill:#404040;"/>
          </a>
         </g>
        </svg>
</svg>
