<?xml version="1.0" encoding="UTF-8" standalone="no"?>
<!DOCTYPE svg PUBLIC "-//W3C//DTD SVG 1.1//EN"
 "http://www.w3.org/Graphics/SVG/1.1/DTD/svg11.dtd">
<!-- Generated by graphviz version 2.43.0 (0)
 -->
<!-- Title: QskSkinlet Pages: 1 -->
<svg width="424pt" height="598pt"
 viewBox="0.00 0.00 424.00 598.00" xmlns="http://www.w3.org/2000/svg" xmlns:xlink="http://www.w3.org/1999/xlink">
<g id="graph0" class="graph" transform="scale(1 1) rotate(0) translate(4 594)">
<title>QskSkinlet</title>
<!-- Node1 -->
<g id="node1" class="node">
<title>Node1</title>
<g id="a_node1"><a xlink:title="Describes the rendering interface of a QskControl. Change the skinlet to change the appearance of the...">
<polygon fill="#bfbfbf" stroke="black" points="0,-285.5 0,-304.5 69,-304.5 69,-285.5 0,-285.5"/>
<text text-anchor="middle" x="34.5" y="-292.5" font-family="Helvetica,sans-Serif" font-size="10.00">QskSkinlet</text>
</a>
</g>
</g>
<!-- Node2 -->
<g id="node2" class="node">
<title>Node2</title>
<g id="a_node2"><a xlink:href="../classQskBoxSkinlet" target="_top" xlink:title=" ">
<polygon fill="none" stroke="black" points="135.5,-570.5 135.5,-589.5 223.5,-589.5 223.5,-570.5 135.5,-570.5"/>
<text text-anchor="middle" x="179.5" y="-577.5" font-family="Helvetica,sans-Serif" font-size="10.00">QskBoxSkinlet</text>
</a>
</g>
</g>
<!-- Node1&#45;&gt;Node2 -->
<g id="edge1" class="edge">
<title>Node1&#45;&gt;Node2</title>
<path fill="none" stroke="midnightblue" d="M38.04,-314.6C45.58,-369.94 69.59,-525.68 105,-561 113.12,-569.1 124.21,-573.89 135.31,-576.68"/>
<polygon fill="midnightblue" stroke="midnightblue" points="41.5,-314.11 36.71,-304.66 34.56,-315.03 41.5,-314.11"/>
</g>
<!-- Node3 -->
<g id="node3" class="node">
<title>Node3</title>
<g id="a_node3"><a xlink:href="../classQskFocusIndicatorSkinlet" target="_top" xlink:title=" ">
<polygon fill="none" stroke="black" points="109.5,-532.5 109.5,-551.5 249.5,-551.5 249.5,-532.5 109.5,-532.5"/>
<text text-anchor="middle" x="179.5" y="-539.5" font-family="Helvetica,sans-Serif" font-size="10.00">QskFocusIndicatorSkinlet</text>
</a>
</g>
</g>
<!-- Node1&#45;&gt;Node3 -->
<g id="edge2" class="edge">
<title>Node1&#45;&gt;Node3</title>
<path fill="none" stroke="midnightblue" d="M35.45,-314.99C36.47,-359.19 45.35,-465.85 105,-523 109,-526.83 113.66,-529.91 118.67,-532.39"/>
<polygon fill="midnightblue" stroke="midnightblue" points="38.95,-314.9 35.33,-304.94 31.95,-314.98 38.95,-314.9"/>
</g>
<!-- Node4 -->
<g id="node4" class="node">
<title>Node4</title>
<g id="a_node4"><a xlink:href="../classQskGraphicLabelSkinlet" target="_top" xlink:title=" ">
<polygon fill="none" stroke="black" points="113,-494.5 113,-513.5 246,-513.5 246,-494.5 113,-494.5"/>
<text text-anchor="middle" x="179.5" y="-501.5" font-family="Helvetica,sans-Serif" font-size="10.00">QskGraphicLabelSkinlet</text>
</a>
</g>
</g>
<!-- Node1&#45;&gt;Node4 -->
<g id="edge3" class="edge">
<title>Node1&#45;&gt;Node4</title>
<path fill="none" stroke="midnightblue" d="M36.88,-315.02C40.65,-353.77 54.54,-439.24 105,-485 109.2,-488.81 114.06,-491.87 119.24,-494.33"/>
<polygon fill="midnightblue" stroke="midnightblue" points="40.33,-314.26 36,-304.59 33.35,-314.84 40.33,-314.26"/>
</g>
<!-- Node5 -->
<g id="node5" class="node">
<title>Node5</title>
<g id="a_node5"><a xlink:href="../classQskPageIndicatorSkinlet" target="_top" xlink:title=" ">
<polygon fill="none" stroke="black" points="111.5,-456.5 111.5,-475.5 247.5,-475.5 247.5,-456.5 111.5,-456.5"/>
<text text-anchor="middle" x="179.5" y="-463.5" font-family="Helvetica,sans-Serif" font-size="10.00">QskPageIndicatorSkinlet</text>
</a>
</g>
</g>
<!-- Node1&#45;&gt;Node5 -->
<g id="edge4" class="edge">
<title>Node1&#45;&gt;Node5</title>
<path fill="none" stroke="midnightblue" d="M38.87,-314.6C45.5,-347.14 63.42,-412.16 105,-447 109.65,-450.89 115,-454 120.65,-456.48"/>
<polygon fill="midnightblue" stroke="midnightblue" points="42.26,-313.73 36.97,-304.55 35.38,-315.03 42.26,-313.73"/>
</g>
<!-- Node6 -->
<g id="node6" class="node">
<title>Node6</title>
<g id="a_node6"><a xlink:href="../classQskPopupSkinlet" target="_top" xlink:title=" ">
<polygon fill="none" stroke="black" points="130,-418.5 130,-437.5 229,-437.5 229,-418.5 130,-418.5"/>
<text text-anchor="middle" x="179.5" y="-425.5" font-family="Helvetica,sans-Serif" font-size="10.00">QskPopupSkinlet</text>
</a>
</g>
</g>
<!-- Node1&#45;&gt;Node6 -->
<g id="edge5" class="edge">
<title>Node1&#45;&gt;Node6</title>
<path fill="none" stroke="midnightblue" d="M42.04,-314.38C51.7,-339.99 72.26,-384.71 105,-409 112.3,-414.42 121.01,-418.29 129.83,-421.07"/>
<polygon fill="midnightblue" stroke="midnightblue" points="45.23,-312.91 38.56,-304.68 38.64,-315.28 45.23,-312.91"/>
</g>
<!-- Node8 -->
<g id="node8" class="node">
<title>Node8</title>
<g id="a_node8"><a xlink:href="../classQskProgressBarSkinlet" target="_top" xlink:title=" ">
<polygon fill="none" stroke="black" points="115.5,-380.5 115.5,-399.5 243.5,-399.5 243.5,-380.5 115.5,-380.5"/>
<text text-anchor="middle" x="179.5" y="-387.5" font-family="Helvetica,sans-Serif" font-size="10.00">QskProgressBarSkinlet</text>
</a>
</g>
</g>
<!-- Node1&#45;&gt;Node8 -->
<g id="edge7" class="edge">
<title>Node1&#45;&gt;Node8</title>
<path fill="none" stroke="midnightblue" d="M47.47,-313.28C59.83,-330.7 80.7,-356.38 105,-371 111.44,-374.87 118.65,-377.96 125.98,-380.43"/>
<polygon fill="midnightblue" stroke="midnightblue" points="50.05,-310.85 41.51,-304.57 44.27,-314.8 50.05,-310.85"/>
</g>
<!-- Node9 -->
<g id="node9" class="node">
<title>Node9</title>
<g id="a_node9"><a xlink:href="../classQskPushButtonSkinlet" target="_top" xlink:title=" ">
<polygon fill="none" stroke="black" points="117,-342.5 117,-361.5 242,-361.5 242,-342.5 117,-342.5"/>
<text text-anchor="middle" x="179.5" y="-349.5" font-family="Helvetica,sans-Serif" font-size="10.00">QskPushButtonSkinlet</text>
</a>
</g>
</g>
<!-- Node1&#45;&gt;Node9 -->
<g id="edge8" class="edge">
<title>Node1&#45;&gt;Node9</title>
<path fill="none" stroke="midnightblue" d="M59.26,-309.9C72.36,-317.63 89.15,-326.73 105,-333 114.31,-336.68 124.58,-339.86 134.4,-342.49"/>
<polygon fill="midnightblue" stroke="midnightblue" points="60.8,-306.75 50.43,-304.58 57.19,-312.74 60.8,-306.75"/>
</g>
<!-- Node10 -->
<g id="node10" class="node">
<title>Node10</title>
<g id="a_node10"><a xlink:href="../classQskScrollViewSkinlet" target="_top" xlink:title=" ">
<polygon fill="none" stroke="black" points="119.5,-304.5 119.5,-323.5 239.5,-323.5 239.5,-304.5 119.5,-304.5"/>
<text text-anchor="middle" x="179.5" y="-311.5" font-family="Helvetica,sans-Serif" font-size="10.00">QskScrollViewSkinlet</text>
</a>
</g>
</g>
<!-- Node1&#45;&gt;Node10 -->
<g id="edge9" class="edge">
<title>Node1&#45;&gt;Node10</title>
<path fill="none" stroke="midnightblue" d="M79.3,-300.82C91.96,-302.5 105.99,-304.37 119.42,-306.15"/>
<polygon fill="midnightblue" stroke="midnightblue" points="79.4,-297.3 69.03,-299.45 78.48,-304.24 79.4,-297.3"/>
</g>
<!-- Node12 -->
<g id="node12" class="node">
<title>Node12</title>
<g id="a_node12"><a xlink:href="../classQskSeparatorSkinlet" target="_top" xlink:title=" ">
<polygon fill="none" stroke="black" points="121.5,-266.5 121.5,-285.5 237.5,-285.5 237.5,-266.5 121.5,-266.5"/>
<text text-anchor="middle" x="179.5" y="-273.5" font-family="Helvetica,sans-Serif" font-size="10.00">QskSeparatorSkinlet</text>
</a>
</g>
</g>
<!-- Node1&#45;&gt;Node12 -->
<g id="edge11" class="edge">
<title>Node1&#45;&gt;Node12</title>
<path fill="none" stroke="midnightblue" d="M79.31,-289.18C92.59,-287.41 107.38,-285.45 121.39,-283.59"/>
<polygon fill="midnightblue" stroke="midnightblue" points="78.48,-285.76 69.03,-290.55 79.4,-292.7 78.48,-285.76"/>
</g>
<!-- Node13 -->
<g id="node13" class="node">
<title>Node13</title>
<g id="a_node13"><a xlink:href="../classQskSliderSkinlet" target="_top" xlink:title=" ">
<polygon fill="none" stroke="black" points="131,-228.5 131,-247.5 228,-247.5 228,-228.5 131,-228.5"/>
<text text-anchor="middle" x="179.5" y="-235.5" font-family="Helvetica,sans-Serif" font-size="10.00">QskSliderSkinlet</text>
</a>
</g>
</g>
<!-- Node1&#45;&gt;Node13 -->
<g id="edge12" class="edge">
<title>Node1&#45;&gt;Node13</title>
<path fill="none" stroke="midnightblue" d="M59.26,-280.1C72.36,-272.37 89.15,-263.27 105,-257 114.31,-253.32 124.58,-250.14 134.4,-247.51"/>
<polygon fill="midnightblue" stroke="midnightblue" points="57.19,-277.26 50.43,-285.42 60.8,-283.25 57.19,-277.26"/>
</g>
<!-- Node14 -->
<g id="node14" class="node">
<title>Node14</title>
<g id="a_node14"><a xlink:href="../classQskStatusIndicatorSkinlet" target="_top" xlink:title=" ">
<polygon fill="none" stroke="black" points="108,-190.5 108,-209.5 251,-209.5 251,-190.5 108,-190.5"/>
<text text-anchor="middle" x="179.5" y="-197.5" font-family="Helvetica,sans-Serif" font-size="10.00">QskStatusIndicatorSkinlet</text>
</a>
</g>
</g>
<!-- Node1&#45;&gt;Node14 -->
<g id="edge13" class="edge">
<title>Node1&#45;&gt;Node14</title>
<path fill="none" stroke="midnightblue" d="M47.47,-276.72C59.83,-259.3 80.7,-233.62 105,-219 111.44,-215.13 118.65,-212.04 125.98,-209.57"/>
<polygon fill="midnightblue" stroke="midnightblue" points="44.27,-275.2 41.51,-285.43 50.05,-279.15 44.27,-275.2"/>
</g>
<!-- Node15 -->
<g id="node15" class="node">
<title>Node15</title>
<g id="a_node15"><a xlink:href="../classQskSubWindowAreaSkinlet" target="_top" xlink:title=" ">
<polygon fill="none" stroke="black" points="105,-152.5 105,-171.5 254,-171.5 254,-152.5 105,-152.5"/>
<text text-anchor="middle" x="179.5" y="-159.5" font-family="Helvetica,sans-Serif" font-size="10.00">QskSubWindowAreaSkinlet</text>
</a>
</g>
</g>
<!-- Node1&#45;&gt;Node15 -->
<g id="edge14" class="edge">
<title>Node1&#45;&gt;Node15</title>
<path fill="none" stroke="midnightblue" d="M42.04,-275.62C51.7,-250.01 72.26,-205.29 105,-181 110.19,-177.15 116.08,-174.08 122.22,-171.63"/>
<polygon fill="midnightblue" stroke="midnightblue" points="38.64,-274.72 38.56,-285.32 45.23,-277.09 38.64,-274.72"/>
</g>
<!-- Node16 -->
<g id="node16" class="node">
<title>Node16</title>
<g id="a_node16"><a xlink:href="../classQskTabButtonSkinlet" target="_top" xlink:title=" ">
<polygon fill="none" stroke="black" points="120.5,-114.5 120.5,-133.5 238.5,-133.5 238.5,-114.5 120.5,-114.5"/>
<text text-anchor="middle" x="179.5" y="-121.5" font-family="Helvetica,sans-Serif" font-size="10.00">QskTabButtonSkinlet</text>
</a>
</g>
</g>
<!-- Node1&#45;&gt;Node16 -->
<g id="edge15" class="edge">
<title>Node1&#45;&gt;Node16</title>
<path fill="none" stroke="midnightblue" d="M38.87,-275.4C45.5,-242.86 63.42,-177.84 105,-143 109.65,-139.11 115,-136 120.65,-133.52"/>
<polygon fill="midnightblue" stroke="midnightblue" points="35.38,-274.97 36.97,-285.45 42.26,-276.27 35.38,-274.97"/>
</g>
<!-- Node17 -->
<g id="node17" class="node">
<title>Node17</title>
<g id="a_node17"><a xlink:href="../classQskTabViewSkinlet" target="_top" xlink:title=" ">
<polygon fill="none" stroke="black" points="124.5,-76.5 124.5,-95.5 234.5,-95.5 234.5,-76.5 124.5,-76.5"/>
<text text-anchor="middle" x="179.5" y="-83.5" font-family="Helvetica,sans-Serif" font-size="10.00">QskTabViewSkinlet</text>
</a>
</g>
</g>
<!-- Node1&#45;&gt;Node17 -->
<g id="edge16" class="edge">
<title>Node1&#45;&gt;Node17</title>
<path fill="none" stroke="midnightblue" d="M36.88,-274.98C40.65,-236.23 54.54,-150.76 105,-105 110.57,-99.95 117.3,-96.21 124.4,-93.45"/>
<polygon fill="midnightblue" stroke="midnightblue" points="33.35,-275.16 36,-285.41 40.33,-275.74 33.35,-275.16"/>
</g>
<!-- Node18 -->
<g id="node18" class="node">
<title>Node18</title>
<g id="a_node18"><a xlink:href="../classQskTextInputSkinlet" target="_top" xlink:title=" ">
<polygon fill="none" stroke="black" points="122.5,-38.5 122.5,-57.5 236.5,-57.5 236.5,-38.5 122.5,-38.5"/>
<text text-anchor="middle" x="179.5" y="-45.5" font-family="Helvetica,sans-Serif" font-size="10.00">QskTextInputSkinlet</text>
</a>
</g>
</g>
<!-- Node1&#45;&gt;Node18 -->
<g id="edge17" class="edge">
<title>Node1&#45;&gt;Node18</title>
<path fill="none" stroke="midnightblue" d="M35.45,-275.01C36.47,-230.81 45.35,-124.15 105,-67 109.95,-62.26 115.92,-58.66 122.29,-55.93"/>
<polygon fill="midnightblue" stroke="midnightblue" points="31.95,-275.02 35.33,-285.06 38.95,-275.1 31.95,-275.02"/>
</g>
<!-- Node19 -->
<g id="node19" class="node">
<title>Node19</title>
<g id="a_node19"><a xlink:href="../classQskTextLabelSkinlet" target="_top" xlink:title=" ">
<polygon fill="none" stroke="black" points="121.5,-0.5 121.5,-19.5 237.5,-19.5 237.5,-0.5 121.5,-0.5"/>
<text text-anchor="middle" x="179.5" y="-7.5" font-family="Helvetica,sans-Serif" font-size="10.00">QskTextLabelSkinlet</text>
</a>
</g>
</g>
<!-- Node1&#45;&gt;Node19 -->
<g id="edge18" class="edge">
<title>Node1&#45;&gt;Node19</title>
<path fill="none" stroke="midnightblue" d="M38.04,-275.4C45.58,-220.06 69.59,-64.32 105,-29 109.67,-24.35 115.31,-20.79 121.38,-18.07"/>
<polygon fill="midnightblue" stroke="midnightblue" points="34.56,-274.97 36.71,-285.34 41.5,-275.89 34.56,-274.97"/>
</g>
<!-- Node7 -->
<g id="node7" class="node">
<title>Node7</title>
<g id="a_node7"><a xlink:href="../classQskSubWindowSkinlet" target="_top" xlink:title=" ">
<polygon fill="none" stroke="black" points="290,-418.5 290,-437.5 416,-437.5 416,-418.5 290,-418.5"/>
<text text-anchor="middle" x="353" y="-425.5" font-family="Helvetica,sans-Serif" font-size="10.00">QskSubWindowSkinlet</text>
</a>
</g>
</g>
<!-- Node6&#45;&gt;Node7 -->
<g id="edge6" class="edge">
<title>Node6&#45;&gt;Node7</title>
<path fill="none" stroke="midnightblue" d="M239.59,-428C255.76,-428 273.35,-428 289.7,-428"/>
<polygon fill="midnightblue" stroke="midnightblue" points="239.19,-424.5 229.19,-428 239.19,-431.5 239.19,-424.5"/>
</g>
<!-- Node11 -->
<g id="node11" class="node">
<title>Node11</title>
<g id="a_node11"><a xlink:href="../classQskListViewSkinlet" target="_top" xlink:title=" ">
<polygon fill="none" stroke="black" points="298,-304.5 298,-323.5 408,-323.5 408,-304.5 298,-304.5"/>
<text text-anchor="middle" x="353" y="-311.5" font-family="Helvetica,sans-Serif" font-size="10.00">QskListViewSkinlet</text>
</a>
</g>
</g>
<!-- Node10&#45;&gt;Node11 -->
<g id="edge10" class="edge">
<title>Node10&#45;&gt;Node11</title>
<path fill="none" stroke="midnightblue" d="M249.87,-314C265.82,-314 282.56,-314 297.77,-314"/>
<polygon fill="midnightblue" stroke="midnightblue" points="249.52,-310.5 239.52,-314 249.52,-317.5 249.52,-310.5"/>
</g>
</g>
</svg>
