<?xml version="1.0" encoding="UTF-8" standalone="no"?>
<!DOCTYPE svg PUBLIC "-//W3C//DTD SVG 1.1//EN"
 "http://www.w3.org/Graphics/SVG/1.1/DTD/svg11.dtd">
<!-- Generated by graphviz version 2.43.0 (0)
 -->
<!-- Title: QskScrollBox Pages: 1 -->
<svg width="203pt" height="364pt"
 viewBox="0.00 0.00 203.00 364.00" xmlns="http://www.w3.org/2000/svg" xmlns:xlink="http://www.w3.org/1999/xlink">
<g id="graph0" class="graph" transform="scale(1 1) rotate(0) translate(4 360)">
<title>QskScrollBox</title>
<!-- Node1 -->
<g id="node1" class="node">
<title>Node1</title>
<g id="a_node1"><a xlink:title=" ">
<polygon fill="#bfbfbf" stroke="black" points="61,-168.5 61,-187.5 142,-187.5 142,-168.5 61,-168.5"/>
<text text-anchor="middle" x="101.5" y="-175.5" font-family="Helvetica,sans-Serif" font-size="10.00">QskScrollBox</text>
</a>
</g>
</g>
<!-- Node6 -->
<g id="node6" class="node">
<title>Node6</title>
<g id="a_node6"><a xlink:href="../classQskScrollView" target="_top" xlink:title=" ">
<polygon fill="none" stroke="black" points="58.5,-112.5 58.5,-131.5 144.5,-131.5 144.5,-112.5 58.5,-112.5"/>
<text text-anchor="middle" x="101.5" y="-119.5" font-family="Helvetica,sans-Serif" font-size="10.00">QskScrollView</text>
</a>
</g>
</g>
<!-- Node1&#45;&gt;Node6 -->
<g id="edge5" class="edge">
<title>Node1&#45;&gt;Node6</title>
<path fill="none" stroke="midnightblue" d="M101.5,-157.8C101.5,-148.91 101.5,-138.78 101.5,-131.75"/>
<polygon fill="midnightblue" stroke="midnightblue" points="98,-158.08 101.5,-168.08 105,-158.08 98,-158.08"/>
</g>
<!-- Node2 -->
<g id="node2" class="node">
<title>Node2</title>
<g id="a_node2"><a xlink:href="../classQskControl" target="_top" xlink:title="Base class of all Qsk controls.">
<polygon fill="none" stroke="black" points="66,-224.5 66,-243.5 137,-243.5 137,-224.5 66,-224.5"/>
<text text-anchor="middle" x="101.5" y="-231.5" font-family="Helvetica,sans-Serif" font-size="10.00">QskControl</text>
</a>
</g>
</g>
<!-- Node2&#45;&gt;Node1 -->
<g id="edge1" class="edge">
<title>Node2&#45;&gt;Node1</title>
<path fill="none" stroke="midnightblue" d="M101.5,-213.8C101.5,-204.91 101.5,-194.78 101.5,-187.75"/>
<polygon fill="midnightblue" stroke="midnightblue" points="98,-214.08 101.5,-224.08 105,-214.08 98,-214.08"/>
</g>
<!-- Node3 -->
<g id="node3" class="node">
<title>Node3</title>
<g id="a_node3"><a xlink:href="../classQskQuickItem" target="_top" xlink:title=" ">
<polygon fill="none" stroke="black" points="7.5,-280.5 7.5,-299.5 93.5,-299.5 93.5,-280.5 7.5,-280.5"/>
<text text-anchor="middle" x="50.5" y="-287.5" font-family="Helvetica,sans-Serif" font-size="10.00">QskQuickItem</text>
</a>
</g>
</g>
<!-- Node3&#45;&gt;Node2 -->
<g id="edge2" class="edge">
<title>Node3&#45;&gt;Node2</title>
<path fill="none" stroke="midnightblue" d="M65.88,-272.72C74.87,-263.2 85.86,-251.56 93.24,-243.75"/>
<polygon fill="midnightblue" stroke="midnightblue" points="63.24,-270.41 58.92,-280.08 68.33,-275.22 63.24,-270.41"/>
</g>
<!-- Node4 -->
<g id="node4" class="node">
<title>Node4</title>
<g id="a_node4"><a xlink:title=" ">
<polygon fill="none" stroke="#bfbfbf" points="13.5,-336.5 13.5,-355.5 87.5,-355.5 87.5,-336.5 13.5,-336.5"/>
<text text-anchor="middle" x="50.5" y="-343.5" font-family="Helvetica,sans-Serif" font-size="10.00">QQuickItem</text>
</a>
</g>
</g>
<!-- Node4&#45;&gt;Node3 -->
<g id="edge3" class="edge">
<title>Node4&#45;&gt;Node3</title>
<path fill="none" stroke="midnightblue" d="M50.5,-325.8C50.5,-316.91 50.5,-306.78 50.5,-299.75"/>
<polygon fill="midnightblue" stroke="midnightblue" points="47,-326.08 50.5,-336.08 54,-326.08 47,-326.08"/>
</g>
<!-- Node5 -->
<g id="node5" class="node">
<title>Node5</title>
<g id="a_node5"><a xlink:href="../classQskSkinnable" target="_top" xlink:title=" ">
<polygon fill="none" stroke="black" points="112,-280.5 112,-299.5 195,-299.5 195,-280.5 112,-280.5"/>
<text text-anchor="middle" x="153.5" y="-287.5" font-family="Helvetica,sans-Serif" font-size="10.00">QskSkinnable</text>
</a>
</g>
</g>
<!-- Node5&#45;&gt;Node2 -->
<g id="edge4" class="edge">
<title>Node5&#45;&gt;Node2</title>
<path fill="none" stroke="midnightblue" d="M137.82,-272.72C128.66,-263.2 117.45,-251.56 109.93,-243.75"/>
<polygon fill="midnightblue" stroke="midnightblue" points="135.46,-275.31 144.91,-280.08 140.5,-270.45 135.46,-275.31"/>
</g>
<!-- Node7 -->
<g id="node7" class="node">
<title>Node7</title>
<g id="a_node7"><a xlink:href="../classQskListView" target="_top" xlink:title=" ">
<polygon fill="none" stroke="black" points="14,-56.5 14,-75.5 91,-75.5 91,-56.5 14,-56.5"/>
<text text-anchor="middle" x="52.5" y="-63.5" font-family="Helvetica,sans-Serif" font-size="10.00">QskListView</text>
</a>
</g>
</g>
<!-- Node6&#45;&gt;Node7 -->
<g id="edge6" class="edge">
<title>Node6&#45;&gt;Node7</title>
<path fill="none" stroke="midnightblue" d="M86.47,-104.43C77.88,-94.97 67.46,-83.48 60.44,-75.75"/>
<polygon fill="midnightblue" stroke="midnightblue" points="84.1,-107.03 93.41,-112.08 89.28,-102.33 84.1,-107.03"/>
</g>
<!-- Node9 -->
<g id="node9" class="node">
<title>Node9</title>
<g id="a_node9"><a xlink:href="../classQskScrollArea" target="_top" xlink:title=" ">
<polygon fill="none" stroke="black" points="109,-56.5 109,-75.5 194,-75.5 194,-56.5 109,-56.5"/>
<text text-anchor="middle" x="151.5" y="-63.5" font-family="Helvetica,sans-Serif" font-size="10.00">QskScrollArea</text>
</a>
</g>
</g>
<!-- Node6&#45;&gt;Node9 -->
<g id="edge8" class="edge">
<title>Node6&#45;&gt;Node9</title>
<path fill="none" stroke="midnightblue" d="M116.58,-104.72C125.39,-95.2 136.17,-83.56 143.4,-75.75"/>
<polygon fill="midnightblue" stroke="midnightblue" points="113.98,-102.37 109.76,-112.08 119.12,-107.12 113.98,-102.37"/>
</g>
<!-- Node8 -->
<g id="node8" class="node">
<title>Node8</title>
<g id="a_node8"><a xlink:href="../classQskSimpleListBox" target="_top" xlink:title=" ">
<polygon fill="none" stroke="black" points="0,-0.5 0,-19.5 105,-19.5 105,-0.5 0,-0.5"/>
<text text-anchor="middle" x="52.5" y="-7.5" font-family="Helvetica,sans-Serif" font-size="10.00">QskSimpleListBox</text>
</a>
</g>
</g>
<!-- Node7&#45;&gt;Node8 -->
<g id="edge7" class="edge">
<title>Node7&#45;&gt;Node8</title>
<path fill="none" stroke="midnightblue" d="M52.5,-45.8C52.5,-36.91 52.5,-26.78 52.5,-19.75"/>
<polygon fill="midnightblue" stroke="midnightblue" points="49,-46.08 52.5,-56.08 56,-46.08 49,-46.08"/>
</g>
</g>
</svg>
