<?xml version="1.0" encoding="UTF-8" standalone="no"?>
<!DOCTYPE svg PUBLIC "-//W3C//DTD SVG 1.1//EN"
 "http://www.w3.org/Graphics/SVG/1.1/DTD/svg11.dtd">
<!-- Generated by graphviz version 2.43.0 (0)
 -->
<!-- Title: QskSubWindow Pages: 1 -->
<svg width="300pt" height="364pt"
 viewBox="0.00 0.00 299.50 364.00" xmlns="http://www.w3.org/2000/svg" xmlns:xlink="http://www.w3.org/1999/xlink">
<g id="graph0" class="graph" transform="scale(1 1) rotate(0) translate(4 360)">
<title>QskSubWindow</title>
<!-- Node1 -->
<g id="node1" class="node">
<title>Node1</title>
<g id="a_node1"><a xlink:title=" ">
<polygon fill="#bfbfbf" stroke="black" points="99,-112.5 99,-131.5 191,-131.5 191,-112.5 99,-112.5"/>
<text text-anchor="middle" x="145" y="-119.5" font-family="Helvetica,sans-Serif" font-size="10.00">QskSubWindow</text>
</a>
</g>
</g>
<!-- Node7 -->
<g id="node7" class="node">
<title>Node7</title>
<g id="a_node7"><a xlink:href="classQskDialogSubWindow.html" target="_top" xlink:title=" ">
<polygon fill="none" stroke="black" points="83,-56.5 83,-75.5 207,-75.5 207,-56.5 83,-56.5"/>
<text text-anchor="middle" x="145" y="-63.5" font-family="Helvetica,sans-Serif" font-size="10.00">QskDialogSubWindow</text>
</a>
</g>
</g>
<!-- Node1&#45;&gt;Node7 -->
<g id="edge6" class="edge">
<title>Node1&#45;&gt;Node7</title>
<path fill="none" stroke="midnightblue" d="M145,-101.8C145,-92.91 145,-82.78 145,-75.75"/>
<polygon fill="midnightblue" stroke="midnightblue" points="141.5,-102.08 145,-112.08 148.5,-102.08 141.5,-102.08"/>
</g>
<!-- Node2 -->
<g id="node2" class="node">
<title>Node2</title>
<g id="a_node2"><a xlink:href="classQskPopup.html" target="_top" xlink:title=" ">
<polygon fill="none" stroke="black" points="112.5,-168.5 112.5,-187.5 177.5,-187.5 177.5,-168.5 112.5,-168.5"/>
<text text-anchor="middle" x="145" y="-175.5" font-family="Helvetica,sans-Serif" font-size="10.00">QskPopup</text>
</a>
</g>
</g>
<!-- Node2&#45;&gt;Node1 -->
<g id="edge1" class="edge">
<title>Node2&#45;&gt;Node1</title>
<path fill="none" stroke="midnightblue" d="M145,-157.8C145,-148.91 145,-138.78 145,-131.75"/>
<polygon fill="midnightblue" stroke="midnightblue" points="141.5,-158.08 145,-168.08 148.5,-158.08 141.5,-158.08"/>
</g>
<!-- Node3 -->
<g id="node3" class="node">
<title>Node3</title>
<g id="a_node3"><a xlink:href="classQskControl.html" target="_top" xlink:title="Base class of all controls.">
<polygon fill="none" stroke="black" points="109.5,-224.5 109.5,-243.5 180.5,-243.5 180.5,-224.5 109.5,-224.5"/>
<text text-anchor="middle" x="145" y="-231.5" font-family="Helvetica,sans-Serif" font-size="10.00">QskControl</text>
</a>
</g>
</g>
<!-- Node3&#45;&gt;Node2 -->
<g id="edge2" class="edge">
<title>Node3&#45;&gt;Node2</title>
<path fill="none" stroke="midnightblue" d="M145,-213.8C145,-204.91 145,-194.78 145,-187.75"/>
<polygon fill="midnightblue" stroke="midnightblue" points="141.5,-214.08 145,-224.08 148.5,-214.08 141.5,-214.08"/>
</g>
<!-- Node4 -->
<g id="node4" class="node">
<title>Node4</title>
<g id="a_node4"><a xlink:href="classQskQuickItem.html" target="_top" xlink:title=" ">
<polygon fill="none" stroke="black" points="51,-280.5 51,-299.5 137,-299.5 137,-280.5 51,-280.5"/>
<text text-anchor="middle" x="94" y="-287.5" font-family="Helvetica,sans-Serif" font-size="10.00">QskQuickItem</text>
</a>
</g>
</g>
<!-- Node4&#45;&gt;Node3 -->
<g id="edge3" class="edge">
<title>Node4&#45;&gt;Node3</title>
<path fill="none" stroke="midnightblue" d="M109.38,-272.72C118.37,-263.2 129.36,-251.56 136.74,-243.75"/>
<polygon fill="midnightblue" stroke="midnightblue" points="106.74,-270.41 102.42,-280.08 111.83,-275.22 106.74,-270.41"/>
</g>
<!-- Node5 -->
<g id="node5" class="node">
<title>Node5</title>
<g id="a_node5"><a xlink:title=" ">
<polygon fill="none" stroke="#bfbfbf" points="57,-336.5 57,-355.5 131,-355.5 131,-336.5 57,-336.5"/>
<text text-anchor="middle" x="94" y="-343.5" font-family="Helvetica,sans-Serif" font-size="10.00">QQuickItem</text>
</a>
</g>
</g>
<!-- Node5&#45;&gt;Node4 -->
<g id="edge4" class="edge">
<title>Node5&#45;&gt;Node4</title>
<path fill="none" stroke="midnightblue" d="M94,-325.8C94,-316.91 94,-306.78 94,-299.75"/>
<polygon fill="midnightblue" stroke="midnightblue" points="90.5,-326.08 94,-336.08 97.5,-326.08 90.5,-326.08"/>
</g>
<!-- Node6 -->
<g id="node6" class="node">
<title>Node6</title>
<g id="a_node6"><a xlink:href="classQskSkinnable.html" target="_top" xlink:title=" ">
<polygon fill="none" stroke="black" points="155.5,-280.5 155.5,-299.5 238.5,-299.5 238.5,-280.5 155.5,-280.5"/>
<text text-anchor="middle" x="197" y="-287.5" font-family="Helvetica,sans-Serif" font-size="10.00">QskSkinnable</text>
</a>
</g>
</g>
<!-- Node6&#45;&gt;Node3 -->
<g id="edge5" class="edge">
<title>Node6&#45;&gt;Node3</title>
<path fill="none" stroke="midnightblue" d="M181.32,-272.72C172.16,-263.2 160.95,-251.56 153.43,-243.75"/>
<polygon fill="midnightblue" stroke="midnightblue" points="178.96,-275.31 188.41,-280.08 184,-270.45 178.96,-275.31"/>
</g>
<!-- Node8 -->
<g id="node8" class="node">
<title>Node8</title>
<g id="a_node8"><a xlink:href="classQskMessageSubWindow.html" target="_top" xlink:title=" ">
<polygon fill="none" stroke="black" points="0,-0.5 0,-19.5 136,-19.5 136,-0.5 0,-0.5"/>
<text text-anchor="middle" x="68" y="-7.5" font-family="Helvetica,sans-Serif" font-size="10.00">QskMessageSubWindow</text>
</a>
</g>
</g>
<!-- Node7&#45;&gt;Node8 -->
<g id="edge7" class="edge">
<title>Node7&#45;&gt;Node8</title>
<path fill="none" stroke="midnightblue" d="M124.1,-50.34C110.09,-40.52 92.12,-27.91 80.34,-19.65"/>
<polygon fill="midnightblue" stroke="midnightblue" points="122.43,-53.45 132.63,-56.32 126.45,-47.72 122.43,-53.45"/>
</g>
<!-- Node9 -->
<g id="node9" class="node">
<title>Node9</title>
<g id="a_node9"><a xlink:href="classQskSelectionSubWindow.html" target="_top" xlink:title=" ">
<polygon fill="none" stroke="black" points="154.5,-0.5 154.5,-19.5 291.5,-19.5 291.5,-0.5 154.5,-0.5"/>
<text text-anchor="middle" x="223" y="-7.5" font-family="Helvetica,sans-Serif" font-size="10.00">QskSelectionSubWindow</text>
</a>
</g>
</g>
<!-- Node7&#45;&gt;Node9 -->
<g id="edge8" class="edge">
<title>Node7&#45;&gt;Node9</title>
<path fill="none" stroke="midnightblue" d="M165.77,-50.62C180.02,-40.76 198.46,-27.99 210.5,-19.65"/>
<polygon fill="midnightblue" stroke="midnightblue" points="163.76,-47.75 157.53,-56.32 167.75,-53.51 163.76,-47.75"/>
</g>
</g>
</svg>
