<?xml version="1.0" encoding="UTF-8" standalone="no"?>
<!DOCTYPE svg PUBLIC "-//W3C//DTD SVG 1.1//EN"
 "http://www.w3.org/Graphics/SVG/1.1/DTD/svg11.dtd">
<!-- Generated by graphviz version 2.43.0 (0)
 -->
<!-- Title: QskAbstractButton Pages: 1 -->
<svg width="206pt" height="308pt"
 viewBox="0.00 0.00 205.50 308.00" xmlns="http://www.w3.org/2000/svg" xmlns:xlink="http://www.w3.org/1999/xlink">
<g id="graph0" class="graph" transform="scale(1 1) rotate(0) translate(4 304)">
<title>QskAbstractButton</title>
<!-- Node1 -->
<g id="node1" class="node">
<title>Node1</title>
<g id="a_node1"><a xlink:title=" ">
<polygon fill="#bfbfbf" stroke="black" points="48.5,-112.5 48.5,-131.5 156.5,-131.5 156.5,-112.5 48.5,-112.5"/>
<text text-anchor="middle" x="102.5" y="-119.5" font-family="Helvetica,sans-Serif" font-size="10.00">QskAbstractButton</text>
</a>
</g>
</g>
<!-- Node6 -->
<g id="node6" class="node">
<title>Node6</title>
<g id="a_node6"><a xlink:href="../classQskPushButton" target="_top" xlink:title=" ">
<polygon fill="none" stroke="black" points="4,-56.5 4,-75.5 95,-75.5 95,-56.5 4,-56.5"/>
<text text-anchor="middle" x="49.5" y="-63.5" font-family="Helvetica,sans-Serif" font-size="10.00">QskPushButton</text>
</a>
</g>
</g>
<!-- Node1&#45;&gt;Node6 -->
<g id="edge5" class="edge">
<title>Node1&#45;&gt;Node6</title>
<path fill="none" stroke="midnightblue" d="M86.52,-104.72C77.18,-95.2 65.75,-83.56 58.09,-75.75"/>
<polygon fill="midnightblue" stroke="midnightblue" points="84.25,-107.4 93.75,-112.08 89.24,-102.49 84.25,-107.4"/>
</g>
<!-- Node8 -->
<g id="node8" class="node">
<title>Node8</title>
<g id="a_node8"><a xlink:href="../classQskTabButton" target="_top" xlink:title=" ">
<polygon fill="none" stroke="black" points="113.5,-56.5 113.5,-75.5 197.5,-75.5 197.5,-56.5 113.5,-56.5"/>
<text text-anchor="middle" x="155.5" y="-63.5" font-family="Helvetica,sans-Serif" font-size="10.00">QskTabButton</text>
</a>
</g>
</g>
<!-- Node1&#45;&gt;Node8 -->
<g id="edge7" class="edge">
<title>Node1&#45;&gt;Node8</title>
<path fill="none" stroke="midnightblue" d="M118.48,-104.72C127.82,-95.2 139.25,-83.56 146.91,-75.75"/>
<polygon fill="midnightblue" stroke="midnightblue" points="115.76,-102.49 111.25,-112.08 120.75,-107.4 115.76,-102.49"/>
</g>
<!-- Node2 -->
<g id="node2" class="node">
<title>Node2</title>
<g id="a_node2"><a xlink:href="../classQskControl" target="_top" xlink:title="Base class of all controls.">
<polygon fill="none" stroke="black" points="67,-168.5 67,-187.5 138,-187.5 138,-168.5 67,-168.5"/>
<text text-anchor="middle" x="102.5" y="-175.5" font-family="Helvetica,sans-Serif" font-size="10.00">QskControl</text>
</a>
</g>
</g>
<!-- Node2&#45;&gt;Node1 -->
<g id="edge1" class="edge">
<title>Node2&#45;&gt;Node1</title>
<path fill="none" stroke="midnightblue" d="M102.5,-157.8C102.5,-148.91 102.5,-138.78 102.5,-131.75"/>
<polygon fill="midnightblue" stroke="midnightblue" points="99,-158.08 102.5,-168.08 106,-158.08 99,-158.08"/>
</g>
<!-- Node3 -->
<g id="node3" class="node">
<title>Node3</title>
<g id="a_node3"><a xlink:href="../classQskQuickItem" target="_top" xlink:title=" ">
<polygon fill="none" stroke="black" points="8.5,-224.5 8.5,-243.5 94.5,-243.5 94.5,-224.5 8.5,-224.5"/>
<text text-anchor="middle" x="51.5" y="-231.5" font-family="Helvetica,sans-Serif" font-size="10.00">QskQuickItem</text>
</a>
</g>
</g>
<!-- Node3&#45;&gt;Node2 -->
<g id="edge2" class="edge">
<title>Node3&#45;&gt;Node2</title>
<path fill="none" stroke="midnightblue" d="M66.88,-216.72C75.87,-207.2 86.86,-195.56 94.24,-187.75"/>
<polygon fill="midnightblue" stroke="midnightblue" points="64.24,-214.41 59.92,-224.08 69.33,-219.22 64.24,-214.41"/>
</g>
<!-- Node4 -->
<g id="node4" class="node">
<title>Node4</title>
<g id="a_node4"><a xlink:title=" ">
<polygon fill="none" stroke="#bfbfbf" points="14.5,-280.5 14.5,-299.5 88.5,-299.5 88.5,-280.5 14.5,-280.5"/>
<text text-anchor="middle" x="51.5" y="-287.5" font-family="Helvetica,sans-Serif" font-size="10.00">QQuickItem</text>
</a>
</g>
</g>
<!-- Node4&#45;&gt;Node3 -->
<g id="edge3" class="edge">
<title>Node4&#45;&gt;Node3</title>
<path fill="none" stroke="midnightblue" d="M51.5,-269.8C51.5,-260.91 51.5,-250.78 51.5,-243.75"/>
<polygon fill="midnightblue" stroke="midnightblue" points="48,-270.08 51.5,-280.08 55,-270.08 48,-270.08"/>
</g>
<!-- Node5 -->
<g id="node5" class="node">
<title>Node5</title>
<g id="a_node5"><a xlink:href="../classQskSkinnable" target="_top" xlink:title=" ">
<polygon fill="none" stroke="black" points="113,-224.5 113,-243.5 196,-243.5 196,-224.5 113,-224.5"/>
<text text-anchor="middle" x="154.5" y="-231.5" font-family="Helvetica,sans-Serif" font-size="10.00">QskSkinnable</text>
</a>
</g>
</g>
<!-- Node5&#45;&gt;Node2 -->
<g id="edge4" class="edge">
<title>Node5&#45;&gt;Node2</title>
<path fill="none" stroke="midnightblue" d="M138.82,-216.72C129.66,-207.2 118.45,-195.56 110.93,-187.75"/>
<polygon fill="midnightblue" stroke="midnightblue" points="136.46,-219.31 145.91,-224.08 141.5,-214.45 136.46,-219.31"/>
</g>
<!-- Node7 -->
<g id="node7" class="node">
<title>Node7</title>
<g id="a_node7"><a xlink:href="../classQskDialogButton" target="_top" xlink:title=" ">
<polygon fill="none" stroke="black" points="0,-0.5 0,-19.5 99,-19.5 99,-0.5 0,-0.5"/>
<text text-anchor="middle" x="49.5" y="-7.5" font-family="Helvetica,sans-Serif" font-size="10.00">QskDialogButton</text>
</a>
</g>
</g>
<!-- Node6&#45;&gt;Node7 -->
<g id="edge6" class="edge">
<title>Node6&#45;&gt;Node7</title>
<path fill="none" stroke="midnightblue" d="M49.5,-45.8C49.5,-36.91 49.5,-26.78 49.5,-19.75"/>
<polygon fill="midnightblue" stroke="midnightblue" points="46,-46.08 49.5,-56.08 53,-46.08 46,-46.08"/>
</g>
</g>
</svg>
