<?xml version="1.0" encoding="UTF-8" standalone="no"?>
<!DOCTYPE svg PUBLIC "-//W3C//DTD SVG 1.1//EN"
 "http://www.w3.org/Graphics/SVG/1.1/DTD/svg11.dtd">
<!-- Generated by graphviz version 2.43.0 (0)
 -->
<!-- Title: QskSkinnable Pages: 1 -->
<svg width="476pt" height="598pt"
 viewBox="0.00 0.00 476.00 598.00" xmlns="http://www.w3.org/2000/svg" xmlns:xlink="http://www.w3.org/1999/xlink">
<g id="graph0" class="graph" transform="scale(1 1) rotate(0) translate(4 594)">
<title>QskSkinnable</title>
<!-- Node1 -->
<g id="node1" class="node">
<title>Node1</title>
<g id="a_node1"><a xlink:title=" ">
<polygon fill="#bfbfbf" stroke="black" points="0,-285.5 0,-304.5 83,-304.5 83,-285.5 0,-285.5"/>
<text text-anchor="middle" x="41.5" y="-292.5" font-family="Helvetica,sans-Serif" font-size="10.00">QskSkinnable</text>
</a>
</g>
</g>
<!-- Node2 -->
<g id="node2" class="node">
<title>Node2</title>
<g id="a_node2"><a xlink:href="../classQskControl" target="_top" xlink:title="Base class of all Qsk controls.">
<polygon fill="none" stroke="black" points="119,-285.5 119,-304.5 190,-304.5 190,-285.5 119,-285.5"/>
<text text-anchor="middle" x="154.5" y="-292.5" font-family="Helvetica,sans-Serif" font-size="10.00">QskControl</text>
</a>
</g>
</g>
<!-- Node1&#45;&gt;Node2 -->
<g id="edge1" class="edge">
<title>Node1&#45;&gt;Node2</title>
<path fill="none" stroke="midnightblue" d="M93.47,-295C101.99,-295 110.65,-295 118.65,-295"/>
<polygon fill="midnightblue" stroke="midnightblue" points="93.2,-291.5 83.2,-295 93.2,-298.5 93.2,-291.5"/>
</g>
<!-- Node3 -->
<g id="node3" class="node">
<title>Node3</title>
<g id="a_node3"><a xlink:href="../classQskAbstractButton" target="_top" xlink:title=" ">
<polygon fill="none" stroke="red" points="229.5,-570.5 229.5,-589.5 337.5,-589.5 337.5,-570.5 229.5,-570.5"/>
<text text-anchor="middle" x="283.5" y="-577.5" font-family="Helvetica,sans-Serif" font-size="10.00">QskAbstractButton</text>
</a>
</g>
</g>
<!-- Node2&#45;&gt;Node3 -->
<g id="edge2" class="edge">
<title>Node2&#45;&gt;Node3</title>
<path fill="none" stroke="midnightblue" d="M154.79,-314.9C154.18,-363.6 159.48,-489.99 226,-561 229.61,-564.85 234.02,-567.92 238.77,-570.37"/>
<polygon fill="midnightblue" stroke="midnightblue" points="158.3,-314.83 155.03,-304.75 151.3,-314.67 158.3,-314.83"/>
</g>
<!-- Node7 -->
<g id="node5" class="node">
<title>Node7</title>
<g id="a_node5"><a xlink:href="../classQskBoundedControl" target="_top" xlink:title=" ">
<polygon fill="none" stroke="red" points="227,-532.5 227,-551.5 340,-551.5 340,-532.5 227,-532.5"/>
<text text-anchor="middle" x="283.5" y="-539.5" font-family="Helvetica,sans-Serif" font-size="10.00">QskBoundedControl</text>
</a>
</g>
</g>
<!-- Node2&#45;&gt;Node7 -->
<g id="edge4" class="edge">
<title>Node2&#45;&gt;Node7</title>
<path fill="none" stroke="midnightblue" d="M155.86,-314.97C157.74,-358.74 168.36,-463.93 226,-523 229.76,-526.85 234.32,-529.92 239.21,-532.37"/>
<polygon fill="midnightblue" stroke="midnightblue" points="159.35,-314.67 155.54,-304.78 152.35,-314.89 159.35,-314.67"/>
</g>
<!-- Node13 -->
<g id="node6" class="node">
<title>Node13</title>
<g id="a_node6"><a xlink:href="../classQskBox" target="_top" xlink:title=" ">
<polygon fill="none" stroke="red" points="256.5,-494.5 256.5,-513.5 310.5,-513.5 310.5,-494.5 256.5,-494.5"/>
<text text-anchor="middle" x="283.5" y="-501.5" font-family="Helvetica,sans-Serif" font-size="10.00">QskBox</text>
</a>
</g>
</g>
<!-- Node2&#45;&gt;Node13 -->
<g id="edge5" class="edge">
<title>Node2&#45;&gt;Node13</title>
<path fill="none" stroke="midnightblue" d="M157.35,-315.25C161.93,-353.72 177.24,-437.72 226,-485 234.17,-492.92 245.75,-497.55 256.31,-500.24"/>
<polygon fill="midnightblue" stroke="midnightblue" points="160.78,-314.44 156.24,-304.87 153.82,-315.18 160.78,-314.44"/>
</g>
<!-- Node23 -->
<g id="node7" class="node">
<title>Node23</title>
<g id="a_node7"><a xlink:href="../classQskFocusIndicator" target="_top" xlink:title=" ">
<polygon fill="none" stroke="black" points="230.5,-456.5 230.5,-475.5 336.5,-475.5 336.5,-456.5 230.5,-456.5"/>
<text text-anchor="middle" x="283.5" y="-463.5" font-family="Helvetica,sans-Serif" font-size="10.00">QskFocusIndicator</text>
</a>
</g>
</g>
<!-- Node2&#45;&gt;Node23 -->
<g id="edge6" class="edge">
<title>Node2&#45;&gt;Node23</title>
<path fill="none" stroke="midnightblue" d="M159.38,-314.75C166.73,-346.98 185.68,-410.89 226,-447 230.32,-450.87 235.45,-453.95 240.83,-456.41"/>
<polygon fill="midnightblue" stroke="midnightblue" points="162.76,-313.82 157.25,-304.77 155.92,-315.28 162.76,-313.82"/>
</g>
<!-- Node24 -->
<g id="node8" class="node">
<title>Node24</title>
<g id="a_node8"><a xlink:href="../classQskGraphicLabel" target="_top" xlink:title=" ">
<polygon fill="none" stroke="black" points="234,-418.5 234,-437.5 333,-437.5 333,-418.5 234,-418.5"/>
<text text-anchor="middle" x="283.5" y="-425.5" font-family="Helvetica,sans-Serif" font-size="10.00">QskGraphicLabel</text>
</a>
</g>
</g>
<!-- Node2&#45;&gt;Node24 -->
<g id="edge7" class="edge">
<title>Node2&#45;&gt;Node24</title>
<path fill="none" stroke="midnightblue" d="M162.63,-314.41C172.87,-339.71 194.1,-383.69 226,-409 230.86,-412.86 236.55,-415.95 242.41,-418.43"/>
<polygon fill="midnightblue" stroke="midnightblue" points="165.79,-312.89 158.91,-304.83 159.26,-315.42 165.79,-312.89"/>
</g>
<!-- Node25 -->
<g id="node9" class="node">
<title>Node25</title>
<g id="a_node9"><a xlink:href="../classQskInputGrabber" target="_top" xlink:title=" ">
<polygon fill="none" stroke="black" points="234,-380.5 234,-399.5 333,-399.5 333,-380.5 234,-380.5"/>
<text text-anchor="middle" x="283.5" y="-387.5" font-family="Helvetica,sans-Serif" font-size="10.00">QskInputGrabber</text>
</a>
</g>
</g>
<!-- Node2&#45;&gt;Node25 -->
<g id="edge8" class="edge">
<title>Node2&#45;&gt;Node25</title>
<path fill="none" stroke="midnightblue" d="M168.14,-313.17C180.92,-330.3 202.15,-355.59 226,-371 231.91,-374.82 238.67,-377.95 245.4,-380.49"/>
<polygon fill="midnightblue" stroke="midnightblue" points="170.64,-310.66 161.94,-304.61 164.97,-314.76 170.64,-310.66"/>
</g>
<!-- Node26 -->
<g id="node10" class="node">
<title>Node26</title>
<g id="a_node10"><a xlink:href="../classQskInputPanel" target="_top" xlink:title=" ">
<polygon fill="none" stroke="black" points="240,-342.5 240,-361.5 327,-361.5 327,-342.5 240,-342.5"/>
<text text-anchor="middle" x="283.5" y="-349.5" font-family="Helvetica,sans-Serif" font-size="10.00">QskInputPanel</text>
</a>
</g>
</g>
<!-- Node2&#45;&gt;Node26 -->
<g id="edge9" class="edge">
<title>Node2&#45;&gt;Node26</title>
<path fill="none" stroke="midnightblue" d="M180.33,-309.73C193.61,-317.26 210.4,-326.23 226,-333 233.97,-336.46 242.8,-339.7 251.06,-342.48"/>
<polygon fill="midnightblue" stroke="midnightblue" points="181.76,-306.51 171.35,-304.55 178.27,-312.58 181.76,-306.51"/>
</g>
<!-- Node27 -->
<g id="node11" class="node">
<title>Node27</title>
<g id="a_node11"><a xlink:href="../classQskPageIndicator" target="_top" xlink:title=" ">
<polygon fill="none" stroke="black" points="232.5,-304.5 232.5,-323.5 334.5,-323.5 334.5,-304.5 232.5,-304.5"/>
<text text-anchor="middle" x="283.5" y="-311.5" font-family="Helvetica,sans-Serif" font-size="10.00">QskPageIndicator</text>
</a>
</g>
</g>
<!-- Node2&#45;&gt;Node27 -->
<g id="edge10" class="edge">
<title>Node2&#45;&gt;Node27</title>
<path fill="none" stroke="midnightblue" d="M200.23,-301.69C210.55,-303.24 221.59,-304.89 232.12,-306.46"/>
<polygon fill="midnightblue" stroke="midnightblue" points="200.61,-298.21 190.2,-300.19 199.58,-305.13 200.61,-298.21"/>
</g>
<!-- Node28 -->
<g id="node12" class="node">
<title>Node28</title>
<g id="a_node12"><a xlink:href="../classQskPopup" target="_top" xlink:title=" ">
<polygon fill="none" stroke="red" points="251,-266.5 251,-285.5 316,-285.5 316,-266.5 251,-266.5"/>
<text text-anchor="middle" x="283.5" y="-273.5" font-family="Helvetica,sans-Serif" font-size="10.00">QskPopup</text>
</a>
</g>
</g>
<!-- Node2&#45;&gt;Node28 -->
<g id="edge11" class="edge">
<title>Node2&#45;&gt;Node28</title>
<path fill="none" stroke="midnightblue" d="M200.31,-288.3C217.01,-285.8 235.61,-283.02 250.88,-280.73"/>
<polygon fill="midnightblue" stroke="midnightblue" points="199.58,-284.87 190.2,-289.81 200.61,-291.79 199.58,-284.87"/>
</g>
<!-- Node33 -->
<g id="node13" class="node">
<title>Node33</title>
<g id="a_node13"><a xlink:href="../classQskScrollBox" target="_top" xlink:title=" ">
<polygon fill="none" stroke="red" points="243,-228.5 243,-247.5 324,-247.5 324,-228.5 243,-228.5"/>
<text text-anchor="middle" x="283.5" y="-235.5" font-family="Helvetica,sans-Serif" font-size="10.00">QskScrollBox</text>
</a>
</g>
</g>
<!-- Node2&#45;&gt;Node33 -->
<g id="edge12" class="edge">
<title>Node2&#45;&gt;Node33</title>
<path fill="none" stroke="midnightblue" d="M180.33,-280.27C193.61,-272.74 210.4,-263.77 226,-257 233.97,-253.54 242.8,-250.3 251.06,-247.52"/>
<polygon fill="midnightblue" stroke="midnightblue" points="178.27,-277.42 171.35,-285.45 181.76,-283.49 178.27,-277.42"/>
</g>
<!-- Node38 -->
<g id="node14" class="node">
<title>Node38</title>
<g id="a_node14"><a xlink:href="../classQskSeparator" target="_top" xlink:title="Separates a group of items from adjacent items.">
<polygon fill="none" stroke="black" points="242,-190.5 242,-209.5 325,-209.5 325,-190.5 242,-190.5"/>
<text text-anchor="middle" x="283.5" y="-197.5" font-family="Helvetica,sans-Serif" font-size="10.00">QskSeparator</text>
</a>
</g>
</g>
<!-- Node2&#45;&gt;Node38 -->
<g id="edge13" class="edge">
<title>Node2&#45;&gt;Node38</title>
<path fill="none" stroke="midnightblue" d="M168.14,-276.83C180.92,-259.7 202.15,-234.41 226,-219 231.91,-215.18 238.67,-212.05 245.4,-209.51"/>
<polygon fill="midnightblue" stroke="midnightblue" points="164.97,-275.24 161.94,-285.39 170.64,-279.34 164.97,-275.24"/>
</g>
<!-- Node39 -->
<g id="node15" class="node">
<title>Node39</title>
<g id="a_node15"><a xlink:href="../classQskStatusIndicator" target="_top" xlink:title=" ">
<polygon fill="none" stroke="black" points="229,-152.5 229,-171.5 338,-171.5 338,-152.5 229,-152.5"/>
<text text-anchor="middle" x="283.5" y="-159.5" font-family="Helvetica,sans-Serif" font-size="10.00">QskStatusIndicator</text>
</a>
</g>
</g>
<!-- Node2&#45;&gt;Node39 -->
<g id="edge14" class="edge">
<title>Node2&#45;&gt;Node39</title>
<path fill="none" stroke="midnightblue" d="M162.63,-275.59C172.87,-250.29 194.1,-206.31 226,-181 230.86,-177.14 236.55,-174.05 242.41,-171.57"/>
<polygon fill="midnightblue" stroke="midnightblue" points="159.26,-274.58 158.91,-285.17 165.79,-277.11 159.26,-274.58"/>
</g>
<!-- Node40 -->
<g id="node16" class="node">
<title>Node40</title>
<g id="a_node16"><a xlink:href="../classQskSubWindowArea" target="_top" xlink:title=" ">
<polygon fill="none" stroke="black" points="226,-114.5 226,-133.5 341,-133.5 341,-114.5 226,-114.5"/>
<text text-anchor="middle" x="283.5" y="-121.5" font-family="Helvetica,sans-Serif" font-size="10.00">QskSubWindowArea</text>
</a>
</g>
</g>
<!-- Node2&#45;&gt;Node40 -->
<g id="edge15" class="edge">
<title>Node2&#45;&gt;Node40</title>
<path fill="none" stroke="midnightblue" d="M159.38,-275.25C166.73,-243.02 185.68,-179.11 226,-143 230.32,-139.13 235.45,-136.05 240.83,-133.59"/>
<polygon fill="midnightblue" stroke="midnightblue" points="155.92,-274.72 157.25,-285.23 162.76,-276.18 155.92,-274.72"/>
</g>
<!-- Node41 -->
<g id="node17" class="node">
<title>Node41</title>
<g id="a_node17"><a xlink:href="../classQskTabView" target="_top" xlink:title=" ">
<polygon fill="none" stroke="black" points="245.5,-76.5 245.5,-95.5 321.5,-95.5 321.5,-76.5 245.5,-76.5"/>
<text text-anchor="middle" x="283.5" y="-83.5" font-family="Helvetica,sans-Serif" font-size="10.00">QskTabView</text>
</a>
</g>
</g>
<!-- Node2&#45;&gt;Node41 -->
<g id="edge16" class="edge">
<title>Node2&#45;&gt;Node41</title>
<path fill="none" stroke="midnightblue" d="M157.35,-274.75C161.93,-236.28 177.24,-152.28 226,-105 231.42,-99.74 238.35,-95.94 245.48,-93.18"/>
<polygon fill="midnightblue" stroke="midnightblue" points="153.82,-274.82 156.24,-285.13 160.78,-275.56 153.82,-274.82"/>
</g>
<!-- Node42 -->
<g id="node18" class="node">
<title>Node42</title>
<g id="a_node18"><a xlink:href="../classQskTextInput" target="_top" xlink:title=" ">
<polygon fill="none" stroke="black" points="243.5,-38.5 243.5,-57.5 323.5,-57.5 323.5,-38.5 243.5,-38.5"/>
<text text-anchor="middle" x="283.5" y="-45.5" font-family="Helvetica,sans-Serif" font-size="10.00">QskTextInput</text>
</a>
</g>
</g>
<!-- Node2&#45;&gt;Node42 -->
<g id="edge17" class="edge">
<title>Node2&#45;&gt;Node42</title>
<path fill="none" stroke="midnightblue" d="M155.86,-275.03C157.74,-231.26 168.36,-126.07 226,-67 230.77,-62.11 236.84,-58.48 243.21,-55.78"/>
<polygon fill="midnightblue" stroke="midnightblue" points="152.35,-275.11 155.54,-285.22 159.35,-275.33 152.35,-275.11"/>
</g>
<!-- Node43 -->
<g id="node19" class="node">
<title>Node43</title>
<g id="a_node19"><a xlink:href="../classQskTextLabel" target="_top" xlink:title=" ">
<polygon fill="none" stroke="black" points="242.5,-0.5 242.5,-19.5 324.5,-19.5 324.5,-0.5 242.5,-0.5"/>
<text text-anchor="middle" x="283.5" y="-7.5" font-family="Helvetica,sans-Serif" font-size="10.00">QskTextLabel</text>
</a>
</g>
</g>
<!-- Node2&#45;&gt;Node43 -->
<g id="edge18" class="edge">
<title>Node2&#45;&gt;Node43</title>
<path fill="none" stroke="midnightblue" d="M154.79,-275.1C154.18,-226.4 159.48,-100.01 226,-29 230.53,-24.17 236.32,-20.56 242.47,-17.87"/>
<polygon fill="midnightblue" stroke="midnightblue" points="151.3,-275.33 155.03,-285.25 158.3,-275.17 151.3,-275.33"/>
</g>
<!-- Node4 -->
<g id="node4" class="node">
<title>Node4</title>
<g id="a_node4"><a xlink:href="../classQskPushButton" target="_top" xlink:title=" ">
<polygon fill="none" stroke="red" points="377,-570.5 377,-589.5 468,-589.5 468,-570.5 377,-570.5"/>
<text text-anchor="middle" x="422.5" y="-577.5" font-family="Helvetica,sans-Serif" font-size="10.00">QskPushButton</text>
</a>
</g>
</g>
<!-- Node3&#45;&gt;Node4 -->
<g id="edge3" class="edge">
<title>Node3&#45;&gt;Node4</title>
<path fill="none" stroke="midnightblue" d="M347.97,-580C357.76,-580 367.68,-580 376.93,-580"/>
<polygon fill="midnightblue" stroke="midnightblue" points="347.86,-576.5 337.86,-580 347.86,-583.5 347.86,-576.5"/>
</g>
</g>
</svg>
