<?xml version="1.0" encoding="UTF-8" standalone="no"?>
<!DOCTYPE svg PUBLIC "-//W3C//DTD SVG 1.1//EN"
 "http://www.w3.org/Graphics/SVG/1.1/DTD/svg11.dtd">
<!-- Generated by graphviz version 2.43.0 (0)
 -->
<!-- Title: QskVertex::ColorIterator Pages: 1 -->
<svg width="345pt" height="154pt"
 viewBox="0.00 0.00 345.00 153.50" xmlns="http://www.w3.org/2000/svg" xmlns:xlink="http://www.w3.org/1999/xlink">
<g id="graph0" class="graph" transform="scale(1 1) rotate(0) translate(4 149.5)">
<title>QskVertex::ColorIterator</title>
<!-- Node1 -->
<g id="node1" class="node">
<title>Node1</title>
<g id="a_node1"><a xlink:title=" ">
<polygon fill="#bfbfbf" stroke="black" points="0,-57.5 0,-76.5 135,-76.5 135,-57.5 0,-57.5"/>
<text text-anchor="middle" x="67.5" y="-64.5" font-family="Helvetica,sans-Serif" font-size="10.00">QskVertex::ColorIterator</text>
</a>
</g>
</g>
<!-- Node2 -->
<g id="node2" class="node">
<title>Node2</title>
<g id="a_node2"><a xlink:href="../classQskVertex_1_1GradientColorIterator" target="_top" xlink:title=" ">
<polygon fill="none" stroke="black" points="183.5,-115 183.5,-145 324.5,-145 324.5,-115 183.5,-115"/>
<text text-anchor="start" x="191.5" y="-133" font-family="Helvetica,sans-Serif" font-size="10.00">QskVertex::GradientColor</text>
<text text-anchor="middle" x="254" y="-122" font-family="Helvetica,sans-Serif" font-size="10.00">Iterator</text>
</a>
</g>
</g>
<!-- Node1&#45;&gt;Node2 -->
<g id="edge1" class="edge">
<title>Node1&#45;&gt;Node2</title>
<path fill="none" stroke="midnightblue" d="M102.74,-80.27C122.57,-87.81 148.08,-97.26 171,-105 181.01,-108.38 191.78,-111.81 202.11,-115"/>
<polygon fill="midnightblue" stroke="midnightblue" points="103.8,-76.93 93.21,-76.63 101.3,-83.47 103.8,-76.93"/>
</g>
<!-- Node3 -->
<g id="node3" class="node">
<title>Node3</title>
<g id="a_node3"><a xlink:href="../classQskVertex_1_1SolidColorIterator" target="_top" xlink:title=" ">
<polygon fill="none" stroke="black" points="174.5,-76.5 174.5,-95.5 333.5,-95.5 333.5,-76.5 174.5,-76.5"/>
<text text-anchor="middle" x="254" y="-83.5" font-family="Helvetica,sans-Serif" font-size="10.00">QskVertex::SolidColorIterator</text>
</a>
</g>
</g>
<!-- Node1&#45;&gt;Node3 -->
<g id="edge2" class="edge">
<title>Node1&#45;&gt;Node3</title>
<path fill="none" stroke="midnightblue" d="M145.35,-74.91C154.9,-75.9 164.67,-76.9 174.24,-77.89"/>
<polygon fill="midnightblue" stroke="midnightblue" points="145.41,-71.4 135.11,-73.86 144.7,-78.37 145.41,-71.4"/>
</g>
<!-- Node4 -->
<g id="node4" class="node">
<title>Node4</title>
<g id="a_node4"><a xlink:href="../classQskVertex_1_1TwoColorIterator" target="_top" xlink:title=" ">
<polygon fill="none" stroke="black" points="177,-38.5 177,-57.5 331,-57.5 331,-38.5 177,-38.5"/>
<text text-anchor="middle" x="254" y="-45.5" font-family="Helvetica,sans-Serif" font-size="10.00">QskVertex::TwoColorIterator</text>
</a>
</g>
</g>
<!-- Node1&#45;&gt;Node4 -->
<g id="edge3" class="edge">
<title>Node1&#45;&gt;Node4</title>
<path fill="none" stroke="midnightblue" d="M145.38,-59.08C155.76,-58.01 166.41,-56.92 176.77,-55.85"/>
<polygon fill="midnightblue" stroke="midnightblue" points="144.7,-55.63 135.11,-60.14 145.41,-62.6 144.7,-55.63"/>
</g>
<!-- Node5 -->
<g id="node5" class="node">
<title>Node5</title>
<g id="a_node5"><a xlink:href="../classQskVertex_1_1TwoColorIterator01" target="_top" xlink:title=" ">
<polygon fill="none" stroke="black" points="171,-0.5 171,-19.5 337,-19.5 337,-0.5 171,-0.5"/>
<text text-anchor="middle" x="254" y="-7.5" font-family="Helvetica,sans-Serif" font-size="10.00">QskVertex::TwoColorIterator01</text>
</a>
</g>
</g>
<!-- Node1&#45;&gt;Node5 -->
<g id="edge4" class="edge">
<title>Node1&#45;&gt;Node5</title>
<path fill="none" stroke="midnightblue" d="M101.36,-53.6C121.29,-45.78 147.36,-36.09 171,-29 182.62,-25.52 195.32,-22.29 207.19,-19.53"/>
<polygon fill="midnightblue" stroke="midnightblue" points="99.83,-50.44 91.82,-57.38 102.41,-56.95 99.83,-50.44"/>
</g>
</g>
</svg>
