<?xml version="1.0" encoding="UTF-8" standalone="no"?>
<!DOCTYPE svg PUBLIC "-//W3C//DTD SVG 1.1//EN"
 "http://www.w3.org/Graphics/SVG/1.1/DTD/svg11.dtd">
<!-- Generated by graphviz version 2.43.0 (0)
 -->
<!-- Title: QskControl Pages: 1 -->
<!--zoomable 560 -->
<svg id="main" version="1.1" xmlns="http://www.w3.org/2000/svg" xmlns:xlink="http://www.w3.org/1999/xlink" xml:space="preserve" onload="init(evt)">
<style type="text/css"><![CDATA[
.edge:hover path { stroke: red; }
.edge:hover polygon { stroke: red; fill: red; }
]]></style>
<script type="text/javascript"><![CDATA[
var edges = document.getElementsByTagName('g');
if (edges && edges.length) {
  for (var i=0;i<edges.length;i++) {
    if (edges[i].id.substr(0,4)=='edge') {
      edges[i].setAttribute('class','edge');
    }
  }
}
]]></script>
        <defs>
                <circle id="rim" cx="0" cy="0" r="7"/>
                <circle id="rim2" cx="0" cy="0" r="3.5"/>
                <g id="zoomPlus">
                        <use xlink:href="#rim" fill="#404040">
                                <set attributeName="fill" to="#808080" begin="zoomplus.mouseover" end="zoomplus.mouseout"/>
                        </use>
                        <path d="M-4,0h8M0,-4v8" fill="none" stroke="white" stroke-width="1.5" pointer-events="none"/>
                </g>
                <g id="zoomMin">
                        <use xlink:href="#rim" fill="#404040">
                                <set attributeName="fill" to="#808080" begin="zoomminus.mouseover" end="zoomminus.mouseout"/>
                        </use>
                        <path d="M-4,0h8" fill="none" stroke="white" stroke-width="1.5" pointer-events="none"/>
                </g>
                <g id="dirArrow">
                        <path fill="none" stroke="white" stroke-width="1.5" d="M0,-3.0v7 M-2.5,-0.5L0,-3.0L2.5,-0.5"/>
                </g>
               <g id="resetDef">
                       <use xlink:href="#rim2" fill="#404040">
                               <set attributeName="fill" to="#808080" begin="reset.mouseover" end="reset.mouseout"/>
                       </use>
               </g>
        </defs>

<script type="text/javascript">
var viewWidth = 462;
var viewHeight = 560;
var sectionId = 'dynsection-0';
</script>
<script xlink:href="svgpan.js"/>
<svg id="graph" class="graph">
<g id="viewport">
<title>QskControl</title>
<!-- Node1 -->
<g id="node1" class="node">
<title>Node1</title>
<g id="a_node1"><a xlink:title="Base class of all controls.">
<polygon fill="#bfbfbf" stroke="black" points="232,-266.5 232,-285.5 303,-285.5 303,-266.5 232,-266.5"/>
<text text-anchor="middle" x="267.5" y="-273.5" font-family="Helvetica,sans-Serif" font-size="10.00">QskControl</text>
</a>
</g>
</g>
<!-- Node5 -->
<g id="node5" class="node">
<title>Node5</title>
<g id="a_node5"><a xlink:href="classQskAbstractButton.html" target="_top" xlink:title=" ">
<polygon fill="none" stroke="red" points="342.5,-532.5 342.5,-551.5 450.5,-551.5 450.5,-532.5 342.5,-532.5"/>
<text text-anchor="middle" x="396.5" y="-539.5" font-family="Helvetica,sans-Serif" font-size="10.00">QskAbstractButton</text>
</a>
</g>
</g>
<!-- Node1&#45;&gt;Node5 -->
<g id="edge4" class="edge">
<title>Node1&#45;&gt;Node5</title>
<path fill="none" stroke="midnightblue" d="M268.29,-295.71C268.87,-341.85 276.83,-457.88 339,-523 342.72,-526.89 347.25,-529.99 352.13,-532.45"/>
<polygon fill="midnightblue" stroke="midnightblue" points="271.78,-295.55 268.27,-285.56 264.78,-295.57 271.78,-295.55"/>
</g>
<!-- Node9 -->
<g id="node6" class="node">
<title>Node9</title>
<g id="a_node6"><a xlink:href="classQskBoundedControl.html" target="_top" xlink:title=" ">
<polygon fill="none" stroke="red" points="340,-494.5 340,-513.5 453,-513.5 453,-494.5 340,-494.5"/>
<text text-anchor="middle" x="396.5" y="-501.5" font-family="Helvetica,sans-Serif" font-size="10.00">QskBoundedControl</text>
</a>
</g>
</g>
<!-- Node1&#45;&gt;Node9 -->
<g id="edge5" class="edge">
<title>Node1&#45;&gt;Node9</title>
<path fill="none" stroke="midnightblue" d="M269.53,-295.99C272.72,-337.12 285.76,-431.81 339,-485 342.88,-488.88 347.58,-491.96 352.58,-494.42"/>
<polygon fill="midnightblue" stroke="midnightblue" points="273.01,-295.64 268.86,-285.89 266.03,-296.1 273.01,-295.64"/>
</g>
<!-- Node15 -->
<g id="node7" class="node">
<title>Node15</title>
<g id="a_node7"><a xlink:href="classQskBox.html" target="_top" xlink:title=" ">
<polygon fill="none" stroke="red" points="369.5,-456.5 369.5,-475.5 423.5,-475.5 423.5,-456.5 369.5,-456.5"/>
<text text-anchor="middle" x="396.5" y="-463.5" font-family="Helvetica,sans-Serif" font-size="10.00">QskBox</text>
</a>
</g>
</g>
<!-- Node1&#45;&gt;Node15 -->
<g id="edge6" class="edge">
<title>Node1&#45;&gt;Node15</title>
<path fill="none" stroke="midnightblue" d="M271.22,-295.71C277.12,-331.01 294.35,-405.23 339,-447 347.31,-454.78 358.91,-459.38 369.44,-462.1"/>
<polygon fill="midnightblue" stroke="midnightblue" points="274.66,-295.05 269.68,-285.7 267.74,-296.12 274.66,-295.05"/>
</g>
<!-- Node25 -->
<g id="node8" class="node">
<title>Node25</title>
<g id="a_node8"><a xlink:href="classQskFocusIndicator.html" target="_top" xlink:title=" ">
<polygon fill="none" stroke="black" points="343.5,-418.5 343.5,-437.5 449.5,-437.5 449.5,-418.5 343.5,-418.5"/>
<text text-anchor="middle" x="396.5" y="-425.5" font-family="Helvetica,sans-Serif" font-size="10.00">QskFocusIndicator</text>
</a>
</g>
</g>
<!-- Node1&#45;&gt;Node25 -->
<g id="edge7" class="edge">
<title>Node1&#45;&gt;Node25</title>
<path fill="none" stroke="midnightblue" d="M273.71,-295.3C282.45,-324.11 302.79,-378.26 339,-409 343.58,-412.88 348.98,-415.98 354.6,-418.46"/>
<polygon fill="midnightblue" stroke="midnightblue" points="277.05,-294.25 270.92,-285.6 270.32,-296.18 277.05,-294.25"/>
</g>
<!-- Node26 -->
<g id="node9" class="node">
<title>Node26</title>
<g id="a_node9"><a xlink:href="classQskGraphicLabel.html" target="_top" xlink:title=" ">
<polygon fill="none" stroke="black" points="347,-380.5 347,-399.5 446,-399.5 446,-380.5 347,-380.5"/>
<text text-anchor="middle" x="396.5" y="-387.5" font-family="Helvetica,sans-Serif" font-size="10.00">QskGraphicLabel</text>
</a>
</g>
</g>
<!-- Node1&#45;&gt;Node26 -->
<g id="edge8" class="edge">
<title>Node1&#45;&gt;Node26</title>
<path fill="none" stroke="midnightblue" d="M277.8,-294.64C289.36,-316 311.03,-350.68 339,-371 344.27,-374.83 350.37,-377.93 356.57,-380.42"/>
<polygon fill="midnightblue" stroke="midnightblue" points="280.81,-292.85 273.08,-285.6 274.61,-296.09 280.81,-292.85"/>
</g>
<!-- Node27 -->
<g id="node10" class="node">
<title>Node27</title>
<g id="a_node10"><a xlink:href="classQskInputGrabber.html" target="_top" xlink:title=" ">
<polygon fill="none" stroke="black" points="347,-342.5 347,-361.5 446,-361.5 446,-342.5 347,-342.5"/>
<text text-anchor="middle" x="396.5" y="-349.5" font-family="Helvetica,sans-Serif" font-size="10.00">QskInputGrabber</text>
</a>
</g>
</g>
<!-- Node1&#45;&gt;Node27 -->
<g id="edge9" class="edge">
<title>Node1&#45;&gt;Node27</title>
<path fill="none" stroke="midnightblue" d="M285.74,-292.9C299.28,-305.4 319.12,-322.08 339,-333 345.71,-336.69 353.27,-339.83 360.61,-342.43"/>
<polygon fill="midnightblue" stroke="midnightblue" points="287.85,-290.07 278.18,-285.74 283.04,-295.16 287.85,-290.07"/>
</g>
<!-- Node28 -->
<g id="node11" class="node">
<title>Node28</title>
<g id="a_node11"><a xlink:href="classQskInputPanel.html" target="_top" xlink:title=" ">
<polygon fill="none" stroke="red" points="353,-304.5 353,-323.5 440,-323.5 440,-304.5 353,-304.5"/>
<text text-anchor="middle" x="396.5" y="-311.5" font-family="Helvetica,sans-Serif" font-size="10.00">QskInputPanel</text>
</a>
</g>
</g>
<!-- Node1&#45;&gt;Node28 -->
<g id="edge10" class="edge">
<title>Node1&#45;&gt;Node28</title>
<path fill="none" stroke="midnightblue" d="M310.39,-288.54C327.67,-293.7 347.37,-299.6 363.46,-304.41"/>
<polygon fill="midnightblue" stroke="midnightblue" points="311.13,-285.1 300.55,-285.59 309.12,-291.81 311.13,-285.1"/>
</g>
<!-- Node30 -->
<g id="node12" class="node">
<title>Node30</title>
<g id="a_node12"><a xlink:href="classQskPageIndicator.html" target="_top" xlink:title=" ">
<polygon fill="none" stroke="black" points="345.5,-266.5 345.5,-285.5 447.5,-285.5 447.5,-266.5 345.5,-266.5"/>
<text text-anchor="middle" x="396.5" y="-273.5" font-family="Helvetica,sans-Serif" font-size="10.00">QskPageIndicator</text>
</a>
</g>
</g>
<!-- Node1&#45;&gt;Node30 -->
<g id="edge11" class="edge">
<title>Node1&#45;&gt;Node30</title>
<path fill="none" stroke="midnightblue" d="M313.23,-276C323.55,-276 334.59,-276 345.12,-276"/>
<polygon fill="midnightblue" stroke="midnightblue" points="313.2,-272.5 303.2,-276 313.2,-279.5 313.2,-272.5"/>
</g>
<!-- Node31 -->
<g id="node13" class="node">
<title>Node31</title>
<g id="a_node13"><a xlink:href="classQskPopup.html" target="_top" xlink:title=" ">
<polygon fill="none" stroke="red" points="364,-228.5 364,-247.5 429,-247.5 429,-228.5 364,-228.5"/>
<text text-anchor="middle" x="396.5" y="-235.5" font-family="Helvetica,sans-Serif" font-size="10.00">QskPopup</text>
</a>
</g>
</g>
<!-- Node1&#45;&gt;Node31 -->
<g id="edge12" class="edge">
<title>Node1&#45;&gt;Node31</title>
<path fill="none" stroke="midnightblue" d="M310.47,-263.44C327.89,-258.23 347.75,-252.29 363.9,-247.45"/>
<polygon fill="midnightblue" stroke="midnightblue" points="309.12,-260.19 300.55,-266.41 311.13,-266.9 309.12,-260.19"/>
</g>
<!-- Node36 -->
<g id="node14" class="node">
<title>Node36</title>
<g id="a_node14"><a xlink:href="classQskScrollBox.html" target="_top" xlink:title=" ">
<polygon fill="none" stroke="red" points="356,-190.5 356,-209.5 437,-209.5 437,-190.5 356,-190.5"/>
<text text-anchor="middle" x="396.5" y="-197.5" font-family="Helvetica,sans-Serif" font-size="10.00">QskScrollBox</text>
</a>
</g>
</g>
<!-- Node1&#45;&gt;Node36 -->
<g id="edge13" class="edge">
<title>Node1&#45;&gt;Node36</title>
<path fill="none" stroke="midnightblue" d="M285.74,-259.1C299.28,-246.6 319.12,-229.92 339,-219 345.71,-215.31 353.27,-212.17 360.61,-209.57"/>
<polygon fill="midnightblue" stroke="midnightblue" points="283.04,-256.84 278.18,-266.26 287.85,-261.93 283.04,-256.84"/>
</g>
<!-- Node41 -->
<g id="node15" class="node">
<title>Node41</title>
<g id="a_node15"><a xlink:href="classQskSeparator.html" target="_top" xlink:title="Separates a group of items from adjacent items.">
<polygon fill="none" stroke="black" points="355,-152.5 355,-171.5 438,-171.5 438,-152.5 355,-152.5"/>
<text text-anchor="middle" x="396.5" y="-159.5" font-family="Helvetica,sans-Serif" font-size="10.00">QskSeparator</text>
</a>
</g>
</g>
<!-- Node1&#45;&gt;Node41 -->
<g id="edge14" class="edge">
<title>Node1&#45;&gt;Node41</title>
<path fill="none" stroke="midnightblue" d="M277.8,-257.36C289.36,-236 311.03,-201.32 339,-181 344.27,-177.17 350.37,-174.07 356.57,-171.58"/>
<polygon fill="midnightblue" stroke="midnightblue" points="274.61,-255.91 273.08,-266.4 280.81,-259.15 274.61,-255.91"/>
</g>
<!-- Node42 -->
<g id="node16" class="node">
<title>Node42</title>
<g id="a_node16"><a xlink:href="classQskStatusIndicator.html" target="_top" xlink:title=" ">
<polygon fill="none" stroke="black" points="342,-114.5 342,-133.5 451,-133.5 451,-114.5 342,-114.5"/>
<text text-anchor="middle" x="396.5" y="-121.5" font-family="Helvetica,sans-Serif" font-size="10.00">QskStatusIndicator</text>
</a>
</g>
</g>
<!-- Node1&#45;&gt;Node42 -->
<g id="edge15" class="edge">
<title>Node1&#45;&gt;Node42</title>
<path fill="none" stroke="midnightblue" d="M273.71,-256.7C282.45,-227.89 302.79,-173.74 339,-143 343.58,-139.12 348.98,-136.02 354.6,-133.54"/>
<polygon fill="midnightblue" stroke="midnightblue" points="270.32,-255.82 270.92,-266.4 277.05,-257.75 270.32,-255.82"/>
</g>
<!-- Node43 -->
<g id="node17" class="node">
<title>Node43</title>
<g id="a_node17"><a xlink:href="classQskSubWindowArea.html" target="_top" xlink:title=" ">
<polygon fill="none" stroke="black" points="339,-76.5 339,-95.5 454,-95.5 454,-76.5 339,-76.5"/>
<text text-anchor="middle" x="396.5" y="-83.5" font-family="Helvetica,sans-Serif" font-size="10.00">QskSubWindowArea</text>
</a>
</g>
</g>
<!-- Node1&#45;&gt;Node43 -->
<g id="edge16" class="edge">
<title>Node1&#45;&gt;Node43</title>
<path fill="none" stroke="midnightblue" d="M271.22,-256.29C277.12,-220.99 294.35,-146.77 339,-105 343.16,-101.11 348.14,-98.02 353.39,-95.55"/>
<polygon fill="midnightblue" stroke="midnightblue" points="267.74,-255.88 269.68,-266.3 274.66,-256.95 267.74,-255.88"/>
</g>
<!-- Node44 -->
<g id="node18" class="node">
<title>Node44</title>
<g id="a_node18"><a xlink:href="classQskTabView.html" target="_top" xlink:title=" ">
<polygon fill="none" stroke="black" points="358.5,-38.5 358.5,-57.5 434.5,-57.5 434.5,-38.5 358.5,-38.5"/>
<text text-anchor="middle" x="396.5" y="-45.5" font-family="Helvetica,sans-Serif" font-size="10.00">QskTabView</text>
</a>
</g>
</g>
<!-- Node1&#45;&gt;Node44 -->
<g id="edge17" class="edge">
<title>Node1&#45;&gt;Node44</title>
<path fill="none" stroke="midnightblue" d="M269.53,-256.01C272.72,-214.88 285.76,-120.19 339,-67 344.34,-61.66 351.24,-57.82 358.36,-55.06"/>
<polygon fill="midnightblue" stroke="midnightblue" points="266.03,-255.9 268.86,-266.11 273.01,-256.36 266.03,-255.9"/>
</g>
<!-- Node45 -->
<g id="node19" class="node">
<title>Node45</title>
<g id="a_node19"><a xlink:href="classQskTextInput.html" target="_top" xlink:title=" ">
<polygon fill="none" stroke="black" points="356.5,-0.5 356.5,-19.5 436.5,-19.5 436.5,-0.5 356.5,-0.5"/>
<text text-anchor="middle" x="396.5" y="-7.5" font-family="Helvetica,sans-Serif" font-size="10.00">QskTextInput</text>
</a>
</g>
</g>
<!-- Node1&#45;&gt;Node45 -->
<g id="edge18" class="edge">
<title>Node1&#45;&gt;Node45</title>
<path fill="none" stroke="midnightblue" d="M268.29,-256.29C268.87,-210.15 276.83,-94.12 339,-29 343.79,-23.98 349.94,-20.29 356.41,-17.58"/>
<polygon fill="midnightblue" stroke="midnightblue" points="264.78,-256.43 268.27,-266.44 271.78,-256.45 264.78,-256.43"/>
</g>
<!-- Node2 -->
<g id="node2" class="node">
<title>Node2</title>
<g id="a_node2"><a xlink:href="classQskQuickItem.html" target="_top" xlink:title=" ">
<polygon fill="none" stroke="black" points="110,-285.5 110,-304.5 196,-304.5 196,-285.5 110,-285.5"/>
<text text-anchor="middle" x="153" y="-292.5" font-family="Helvetica,sans-Serif" font-size="10.00">QskQuickItem</text>
</a>
</g>
</g>
<!-- Node2&#45;&gt;Node1 -->
<g id="edge1" class="edge">
<title>Node2&#45;&gt;Node1</title>
<path fill="none" stroke="midnightblue" d="M206.26,-286.17C214.91,-284.71 223.68,-283.23 231.76,-281.87"/>
<polygon fill="midnightblue" stroke="midnightblue" points="205.49,-282.75 196.21,-287.87 206.65,-289.66 205.49,-282.75"/>
</g>
<!-- Node3 -->
<g id="node3" class="node">
<title>Node3</title>
<g id="a_node3"><a xlink:title=" ">
<polygon fill="none" stroke="#bfbfbf" points="0,-285.5 0,-304.5 74,-304.5 74,-285.5 0,-285.5"/>
<text text-anchor="middle" x="37" y="-292.5" font-family="Helvetica,sans-Serif" font-size="10.00">QQuickItem</text>
</a>
</g>
</g>
<!-- Node3&#45;&gt;Node2 -->
<g id="edge2" class="edge">
<title>Node3&#45;&gt;Node2</title>
<path fill="none" stroke="midnightblue" d="M84.18,-295C92.65,-295 101.45,-295 109.79,-295"/>
<polygon fill="midnightblue" stroke="midnightblue" points="84.07,-291.5 74.07,-295 84.07,-298.5 84.07,-291.5"/>
</g>
<!-- Node4 -->
<g id="node4" class="node">
<title>Node4</title>
<g id="a_node4"><a xlink:href="classQskSkinnable.html" target="_top" xlink:title=" ">
<polygon fill="none" stroke="black" points="111.5,-247.5 111.5,-266.5 194.5,-266.5 194.5,-247.5 111.5,-247.5"/>
<text text-anchor="middle" x="153" y="-254.5" font-family="Helvetica,sans-Serif" font-size="10.00">QskSkinnable</text>
</a>
</g>
</g>
<!-- Node4&#45;&gt;Node1 -->
<g id="edge3" class="edge">
<title>Node4&#45;&gt;Node1</title>
<path fill="none" stroke="midnightblue" d="M204.52,-265.53C213.77,-267.1 223.23,-268.69 231.89,-270.15"/>
<polygon fill="midnightblue" stroke="midnightblue" points="205.06,-262.07 194.62,-263.86 203.89,-268.98 205.06,-262.07"/>
</g>
</g>
</svg>
        <g id="navigator" transform="translate(0 0)" fill="#404254">
                <rect fill="#f2f5e9" fill-opacity="0.5" stroke="#606060" stroke-width=".5" x="0" y="0" width="60" height="60"/>
                <use id="zoomplus" xlink:href="#zoomPlus" x="17" y="9" onmousedown="handleZoom(evt,'in')"/>
                <use id="zoomminus" xlink:href="#zoomMin" x="42" y="9" onmousedown="handleZoom(evt,'out')"/>
                <use id="reset" xlink:href="#resetDef" x="30" y="36" onmousedown="handleReset()"/>
                <g id="arrowUp" xlink:href="#dirArrow" transform="translate(30 24)" onmousedown="handlePan(0,-1)">
                  <use xlink:href="#rim" fill="#404040">
                        <set attributeName="fill" to="#808080" begin="arrowUp.mouseover" end="arrowUp.mouseout"/>
                  </use>
                  <path fill="none" stroke="white" stroke-width="1.5" d="M0,-3.0v7 M-2.5,-0.5L0,-3.0L2.5,-0.5"/>
                </g>
                <g id="arrowRight" xlink:href="#dirArrow" transform="rotate(90) translate(36 -43)" onmousedown="handlePan(1,0)">
                  <use xlink:href="#rim" fill="#404040">
                        <set attributeName="fill" to="#808080" begin="arrowRight.mouseover" end="arrowRight.mouseout"/>
                  </use>
                  <path fill="none" stroke="white" stroke-width="1.5" d="M0,-3.0v7 M-2.5,-0.5L0,-3.0L2.5,-0.5"/>
                </g>
                <g id="arrowDown" xlink:href="#dirArrow" transform="rotate(180) translate(-30 -48)" onmousedown="handlePan(0,1)">
                  <use xlink:href="#rim" fill="#404040">
                        <set attributeName="fill" to="#808080" begin="arrowDown.mouseover" end="arrowDown.mouseout"/>
                  </use>
                  <path fill="none" stroke="white" stroke-width="1.5" d="M0,-3.0v7 M-2.5,-0.5L0,-3.0L2.5,-0.5"/>
                </g>
                <g id="arrowLeft" xlink:href="#dirArrow" transform="rotate(270) translate(-36 17)" onmousedown="handlePan(-1,0)">
                  <use xlink:href="#rim" fill="#404040">
                        <set attributeName="fill" to="#808080" begin="arrowLeft.mouseover" end="arrowLeft.mouseout"/>
                  </use>
                  <path fill="none" stroke="white" stroke-width="1.5" d="M0,-3.0v7 M-2.5,-0.5L0,-3.0L2.5,-0.5"/>
                </g>
        </g>
        <svg viewBox="0 0 15 15" width="100%" height="30px" preserveAspectRatio="xMaxYMin meet">
         <g id="arrow_out" transform="scale(0.3 0.3)">
          <a xlink:href="classQskControl__inherit__graph_org.svg" target="_base">
           <rect id="button" ry="5" rx="5" y="6" x="6" height="38" width="38"
                fill="#f2f5e9" fill-opacity="0.5" stroke="#606060" stroke-width="1.0"/>
           <path id="arrow"
             d="M 11.500037,31.436501 C 11.940474,20.09759 22.043105,11.32322 32.158766,21.979434 L 37.068811,17.246167 C 37.068811,17.246167 37.088388,32 37.088388,32 L 22.160133,31.978069 C 22.160133,31.978069 26.997745,27.140456 26.997745,27.140456 C 18.528582,18.264221 13.291696,25.230495 11.500037,31.436501 z"
             style="fill:#404040;"/>
          </a>
         </g>
        </svg>
</svg>
