<?xml version="1.0" encoding="UTF-8" standalone="no"?>
<!DOCTYPE svg PUBLIC "-//W3C//DTD SVG 1.1//EN"
 "http://www.w3.org/Graphics/SVG/1.1/DTD/svg11.dtd">
<!-- Generated by graphviz version 2.43.0 (0)
 -->
<!-- Title: QskInputPanel Pages: 1 -->
<svg width="196pt" height="263pt"
 viewBox="0.00 0.00 195.50 263.00" xmlns="http://www.w3.org/2000/svg" xmlns:xlink="http://www.w3.org/1999/xlink">
<g id="graph0" class="graph" transform="scale(1 1) rotate(0) translate(4 259)">
<title>QskInputPanel</title>
<!-- Node1 -->
<g id="node1" class="node">
<title>Node1</title>
<g id="a_node1"><a xlink:title=" ">
<polygon fill="#bfbfbf" stroke="black" points="50.5,-67.5 50.5,-86.5 137.5,-86.5 137.5,-67.5 50.5,-67.5"/>
<text text-anchor="middle" x="94" y="-74.5" font-family="Helvetica,sans-Serif" font-size="10.00">QskInputPanel</text>
</a>
</g>
</g>
<!-- Node6 -->
<g id="node6" class="node">
<title>Node6</title>
<g id="a_node6"><a xlink:title=" ">
<polygon fill="none" stroke="#bfbfbf" points="30,-0.5 30,-30.5 158,-30.5 158,-0.5 30,-0.5"/>
<text text-anchor="start" x="38" y="-18.5" font-family="Helvetica,sans-Serif" font-size="10.00">QSK_QT_PRIVATE_END</text>
<text text-anchor="middle" x="94" y="-7.5" font-family="Helvetica,sans-Serif" font-size="10.00">::Panel</text>
</a>
</g>
</g>
<!-- Node1&#45;&gt;Node6 -->
<g id="edge5" class="edge">
<title>Node1&#45;&gt;Node6</title>
<path fill="none" stroke="midnightblue" d="M94,-57.23C94,-48.59 94,-38.5 94,-30.52"/>
<polygon fill="midnightblue" stroke="midnightblue" points="90.5,-57.48 94,-67.48 97.5,-57.48 90.5,-57.48"/>
</g>
<!-- Node2 -->
<g id="node2" class="node">
<title>Node2</title>
<g id="a_node2"><a xlink:href="classQskControl.html" target="_top" xlink:title="Base class of all controls.">
<polygon fill="none" stroke="black" points="58.5,-123.5 58.5,-142.5 129.5,-142.5 129.5,-123.5 58.5,-123.5"/>
<text text-anchor="middle" x="94" y="-130.5" font-family="Helvetica,sans-Serif" font-size="10.00">QskControl</text>
</a>
</g>
</g>
<!-- Node2&#45;&gt;Node1 -->
<g id="edge1" class="edge">
<title>Node2&#45;&gt;Node1</title>
<path fill="none" stroke="midnightblue" d="M94,-112.8C94,-103.91 94,-93.78 94,-86.75"/>
<polygon fill="midnightblue" stroke="midnightblue" points="90.5,-113.08 94,-123.08 97.5,-113.08 90.5,-113.08"/>
</g>
<!-- Node3 -->
<g id="node3" class="node">
<title>Node3</title>
<g id="a_node3"><a xlink:href="classQskQuickItem.html" target="_top" xlink:title=" ">
<polygon fill="none" stroke="black" points="0,-179.5 0,-198.5 86,-198.5 86,-179.5 0,-179.5"/>
<text text-anchor="middle" x="43" y="-186.5" font-family="Helvetica,sans-Serif" font-size="10.00">QskQuickItem</text>
</a>
</g>
</g>
<!-- Node3&#45;&gt;Node2 -->
<g id="edge2" class="edge">
<title>Node3&#45;&gt;Node2</title>
<path fill="none" stroke="midnightblue" d="M58.38,-171.72C67.37,-162.2 78.36,-150.56 85.74,-142.75"/>
<polygon fill="midnightblue" stroke="midnightblue" points="55.74,-169.41 51.42,-179.08 60.83,-174.22 55.74,-169.41"/>
</g>
<!-- Node4 -->
<g id="node4" class="node">
<title>Node4</title>
<g id="a_node4"><a xlink:title=" ">
<polygon fill="none" stroke="#bfbfbf" points="6,-235.5 6,-254.5 80,-254.5 80,-235.5 6,-235.5"/>
<text text-anchor="middle" x="43" y="-242.5" font-family="Helvetica,sans-Serif" font-size="10.00">QQuickItem</text>
</a>
</g>
</g>
<!-- Node4&#45;&gt;Node3 -->
<g id="edge3" class="edge">
<title>Node4&#45;&gt;Node3</title>
<path fill="none" stroke="midnightblue" d="M43,-224.8C43,-215.91 43,-205.78 43,-198.75"/>
<polygon fill="midnightblue" stroke="midnightblue" points="39.5,-225.08 43,-235.08 46.5,-225.08 39.5,-225.08"/>
</g>
<!-- Node5 -->
<g id="node5" class="node">
<title>Node5</title>
<g id="a_node5"><a xlink:href="classQskSkinnable.html" target="_top" xlink:title=" ">
<polygon fill="none" stroke="black" points="104.5,-179.5 104.5,-198.5 187.5,-198.5 187.5,-179.5 104.5,-179.5"/>
<text text-anchor="middle" x="146" y="-186.5" font-family="Helvetica,sans-Serif" font-size="10.00">QskSkinnable</text>
</a>
</g>
</g>
<!-- Node5&#45;&gt;Node2 -->
<g id="edge4" class="edge">
<title>Node5&#45;&gt;Node2</title>
<path fill="none" stroke="midnightblue" d="M130.32,-171.72C121.16,-162.2 109.95,-150.56 102.43,-142.75"/>
<polygon fill="midnightblue" stroke="midnightblue" points="127.96,-174.31 137.41,-179.08 133,-169.45 127.96,-174.31"/>
</g>
</g>
</svg>
