<?xml version="1.0" encoding="UTF-8" standalone="no"?>
<!DOCTYPE svg PUBLIC "-//W3C//DTD SVG 1.1//EN"
 "http://www.w3.org/Graphics/SVG/1.1/DTD/svg11.dtd">
<!-- Generated by graphviz version 2.43.0 (0)
 -->
<!-- Title: QskAnimator Pages: 1 -->
<svg width="419pt" height="140pt"
 viewBox="0.00 0.00 419.00 140.00" xmlns="http://www.w3.org/2000/svg" xmlns:xlink="http://www.w3.org/1999/xlink">
<g id="graph0" class="graph" transform="scale(1 1) rotate(0) translate(4 136)">
<title>QskAnimator</title>
<!-- Node1 -->
<g id="node1" class="node">
<title>Node1</title>
<g id="a_node1"><a xlink:title=" ">
<polygon fill="#bfbfbf" stroke="black" points="174,-112.5 174,-131.5 254,-131.5 254,-112.5 174,-112.5"/>
<text text-anchor="middle" x="214" y="-119.5" font-family="Helvetica,sans-Serif" font-size="10.00">QskAnimator</text>
</a>
</g>
</g>
<!-- Node2 -->
<g id="node2" class="node">
<title>Node2</title>
<g id="a_node2"><a xlink:href="../classQskFlickAnimator" target="_top" xlink:title=" ">
<polygon fill="none" stroke="black" points="29,-56.5 29,-75.5 133,-75.5 133,-56.5 29,-56.5"/>
<text text-anchor="middle" x="81" y="-63.5" font-family="Helvetica,sans-Serif" font-size="10.00">QskFlickAnimator</text>
</a>
</g>
</g>
<!-- Node1&#45;&gt;Node2 -->
<g id="edge1" class="edge">
<title>Node1&#45;&gt;Node2</title>
<path fill="none" stroke="midnightblue" d="M183.55,-108.64C158.59,-98.5 123.92,-84.43 101.98,-75.52"/>
<polygon fill="midnightblue" stroke="midnightblue" points="182.34,-111.92 192.93,-112.44 184.98,-105.44 182.34,-111.92"/>
</g>
<!-- Node3 -->
<g id="node3" class="node">
<title>Node3</title>
<g id="a_node3"><a xlink:href="../classQskStackBoxAnimator" target="_top" xlink:title=" ">
<polygon fill="none" stroke="black" points="151,-56.5 151,-75.5 277,-75.5 277,-56.5 151,-56.5"/>
<text text-anchor="middle" x="214" y="-63.5" font-family="Helvetica,sans-Serif" font-size="10.00">QskStackBoxAnimator</text>
</a>
</g>
</g>
<!-- Node1&#45;&gt;Node3 -->
<g id="edge2" class="edge">
<title>Node1&#45;&gt;Node3</title>
<path fill="none" stroke="midnightblue" d="M214,-101.8C214,-92.91 214,-82.78 214,-75.75"/>
<polygon fill="midnightblue" stroke="midnightblue" points="210.5,-102.08 214,-112.08 217.5,-102.08 210.5,-102.08"/>
</g>
<!-- Node6 -->
<g id="node6" class="node">
<title>Node6</title>
<g id="a_node6"><a xlink:href="../classQskVariantAnimator" target="_top" xlink:title=" ">
<polygon fill="none" stroke="black" points="295,-56.5 295,-75.5 411,-75.5 411,-56.5 295,-56.5"/>
<text text-anchor="middle" x="353" y="-63.5" font-family="Helvetica,sans-Serif" font-size="10.00">QskVariantAnimator</text>
</a>
</g>
</g>
<!-- Node1&#45;&gt;Node6 -->
<g id="edge5" class="edge">
<title>Node1&#45;&gt;Node6</title>
<path fill="none" stroke="midnightblue" d="M245.48,-108.77C271.59,-98.63 308.04,-84.47 331.08,-75.52"/>
<polygon fill="midnightblue" stroke="midnightblue" points="244.08,-105.56 236.02,-112.44 246.61,-112.08 244.08,-105.56"/>
</g>
<!-- Node4 -->
<g id="node4" class="node">
<title>Node4</title>
<g id="a_node4"><a xlink:href="../classQskStackBoxAnimator1" target="_top" xlink:title=" ">
<polygon fill="none" stroke="black" points="0,-0.5 0,-19.5 132,-19.5 132,-0.5 0,-0.5"/>
<text text-anchor="middle" x="66" y="-7.5" font-family="Helvetica,sans-Serif" font-size="10.00">QskStackBoxAnimator1</text>
</a>
</g>
</g>
<!-- Node3&#45;&gt;Node4 -->
<g id="edge3" class="edge">
<title>Node3&#45;&gt;Node4</title>
<path fill="none" stroke="midnightblue" d="M180.85,-52.91C153.03,-42.75 113.98,-28.51 89.34,-19.52"/>
<polygon fill="midnightblue" stroke="midnightblue" points="179.96,-56.3 190.55,-56.44 182.35,-49.73 179.96,-56.3"/>
</g>
<!-- Node5 -->
<g id="node5" class="node">
<title>Node5</title>
<g id="a_node5"><a xlink:href="../classQskStackBoxAnimator3" target="_top" xlink:title=" ">
<polygon fill="none" stroke="black" points="150,-0.5 150,-19.5 282,-19.5 282,-0.5 150,-0.5"/>
<text text-anchor="middle" x="216" y="-7.5" font-family="Helvetica,sans-Serif" font-size="10.00">QskStackBoxAnimator3</text>
</a>
</g>
</g>
<!-- Node3&#45;&gt;Node5 -->
<g id="edge4" class="edge">
<title>Node3&#45;&gt;Node5</title>
<path fill="none" stroke="midnightblue" d="M214.71,-45.8C215.04,-36.91 215.42,-26.78 215.68,-19.75"/>
<polygon fill="midnightblue" stroke="midnightblue" points="211.2,-45.96 214.33,-56.08 218.2,-46.22 211.2,-45.96"/>
</g>
<!-- Node7 -->
<g id="node7" class="node">
<title>Node7</title>
<g id="a_node7"><a xlink:href="../classQskHintAnimator" target="_top" xlink:title=" ">
<polygon fill="none" stroke="black" points="302.5,-0.5 302.5,-19.5 403.5,-19.5 403.5,-0.5 302.5,-0.5"/>
<text text-anchor="middle" x="353" y="-7.5" font-family="Helvetica,sans-Serif" font-size="10.00">QskHintAnimator</text>
</a>
</g>
</g>
<!-- Node6&#45;&gt;Node7 -->
<g id="edge6" class="edge">
<title>Node6&#45;&gt;Node7</title>
<path fill="none" stroke="midnightblue" d="M353,-45.8C353,-36.91 353,-26.78 353,-19.75"/>
<polygon fill="midnightblue" stroke="midnightblue" points="349.5,-46.08 353,-56.08 356.5,-46.08 349.5,-46.08"/>
</g>
</g>
</svg>
