<?xml version="1.0" encoding="UTF-8" standalone="no"?>
<!DOCTYPE svg PUBLIC "-//W3C//DTD SVG 1.1//EN"
 "http://www.w3.org/Graphics/SVG/1.1/DTD/svg11.dtd">
<!-- Generated by graphviz version 2.43.0 (0)
 -->
<!-- Title: QskIndexedLayoutBox Pages: 1 -->
<svg width="198pt" height="357pt"
 viewBox="0.00 0.00 198.00 357.00" xmlns="http://www.w3.org/2000/svg" xmlns:xlink="http://www.w3.org/1999/xlink">

<svg id="main" version="1.1" xmlns="http://www.w3.org/2000/svg" xmlns:xlink="http://www.w3.org/1999/xlink" xml:space="preserve" onload="init(evt)">
<style type="text/css"><![CDATA[
.node, .edge {opacity: 0.7;}
.node.selected, .edge.selected {opacity: 1;}
.edge:hover path { stroke: red; }
.edge:hover polygon { stroke: red; fill: red; }
]]></style>
<script type="application/ecmascript" xlink:href="svg.min.js"/>
<svg id="graph" class="graph">
<g id="graph0" class="graph" transform="scale(1 1) rotate(0) translate(4 353)">
<title>QskIndexedLayoutBox</title>
<!-- Node1 -->
<g id="Node000001" class="node">
<title>Node1</title>
<g id="a_Node000001"><a xlink:title="Base class of layouts with index ordered elements.">
<polygon fill="#999999" stroke="#666666" points="155,-129 30,-129 30,-110 155,-110 155,-129"/>
<text text-anchor="middle" x="92.5" y="-117" font-family="Helvetica,sans-Serif" font-size="10.00">QskIndexedLayoutBox</text>
</a>
</g>
</g>
<!-- Node7 -->
<g id="Node000007" class="node">
<title>Node7</title>
<g id="a_Node000007"><a xlink:href="classQskLinearBox.html" target="_top" xlink:title="Layout stringing items in rows and columns.">
<polygon fill="white" stroke="#666666" points="84.5,-74 0.5,-74 0.5,-55 84.5,-55 84.5,-74"/>
<text text-anchor="middle" x="42.5" y="-62" font-family="Helvetica,sans-Serif" font-size="10.00">QskLinearBox</text>
</a>
</g>
</g>
<!-- Node1&#45;&gt;Node7 -->
<g id="edge6_Node000001_Node000007" class="edge">
<title>Node1&#45;&gt;Node7</title>
<g id="a_edge6_Node000001_Node000007"><a xlink:title=" ">
<path fill="none" stroke="#63b8ff" d="M77.16,-102.24C68.4,-92.95 57.76,-81.68 50.6,-74.09"/>
<polygon fill="#63b8ff" stroke="#63b8ff" points="74.84,-104.88 84.24,-109.75 79.93,-100.07 74.84,-104.88"/>
</a>
</g>
</g>
<!-- Node9 -->
<g id="Node000009" class="node">
<title>Node9</title>
<g id="a_Node000009"><a xlink:href="classQskStackBox.html" target="_top" xlink:title=" ">
<polygon fill="white" stroke="#bfbfbf" points="185,-74 104,-74 104,-55 185,-55 185,-74"/>
<text text-anchor="middle" x="144.5" y="-62" font-family="Helvetica,sans-Serif" font-size="10.00">QskStackBox</text>
</a>
</g>
</g>
<!-- Node1&#45;&gt;Node9 -->
<g id="edge8_Node000001_Node000009" class="edge">
<title>Node1&#45;&gt;Node9</title>
<g id="a_edge8_Node000001_Node000009"><a xlink:title=" ">
<path fill="none" stroke="#63b8ff" d="M108.18,-102.52C117.34,-93.18 128.55,-81.75 136.07,-74.09"/>
<polygon fill="#63b8ff" stroke="#63b8ff" points="105.59,-100.16 101.09,-109.75 110.59,-105.06 105.59,-100.16"/>
</a>
</g>
</g>
<!-- Node2 -->
<g id="Node000002" class="node">
<title>Node2</title>
<g id="a_Node000002"><a xlink:href="classQskBox.html" target="_top" xlink:title=" ">
<polygon fill="white" stroke="#bfbfbf" points="119.5,-184 65.5,-184 65.5,-165 119.5,-165 119.5,-184"/>
<text text-anchor="middle" x="92.5" y="-172" font-family="Helvetica,sans-Serif" font-size="10.00">QskBox</text>
</a>
</g>
</g>
<!-- Node2&#45;&gt;Node1 -->
<g id="edge1_Node000001_Node000002" class="edge">
<title>Node2&#45;&gt;Node1</title>
<g id="a_edge1_Node000001_Node000002"><a xlink:title=" ">
<path fill="none" stroke="#63b8ff" d="M92.5,-154.66C92.5,-145.93 92.5,-135.99 92.5,-129.09"/>
<polygon fill="#63b8ff" stroke="#63b8ff" points="89,-154.75 92.5,-164.75 96,-154.75 89,-154.75"/>
</a>
</g>
</g>
<!-- Node3 -->
<g id="Node000003" class="node">
<title>Node3</title>
<g id="a_Node000003"><a xlink:href="classQskControl.html" target="_top" xlink:title="Base class of all controls.">
<polygon fill="white" stroke="#666666" points="128,-239 57,-239 57,-220 128,-220 128,-239"/>
<text text-anchor="middle" x="92.5" y="-227" font-family="Helvetica,sans-Serif" font-size="10.00">QskControl</text>
</a>
</g>
</g>
<!-- Node3&#45;&gt;Node2 -->
<g id="edge2_Node000002_Node000003" class="edge">
<title>Node3&#45;&gt;Node2</title>
<g id="a_edge2_Node000002_Node000003"><a xlink:title=" ">
<path fill="none" stroke="#63b8ff" d="M92.5,-209.66C92.5,-200.93 92.5,-190.99 92.5,-184.09"/>
<polygon fill="#63b8ff" stroke="#63b8ff" points="89,-209.75 92.5,-219.75 96,-209.75 89,-209.75"/>
</a>
</g>
</g>
<!-- Node4 -->
<g id="Node000004" class="node">
<title>Node4</title>
<g id="a_Node000004"><a xlink:href="classQskItem.html" target="_top" xlink:title=" ">
<polygon fill="white" stroke="#666666" points="77.5,-294 19.5,-294 19.5,-275 77.5,-275 77.5,-294"/>
<text text-anchor="middle" x="48.5" y="-282" font-family="Helvetica,sans-Serif" font-size="10.00">QskItem</text>
</a>
</g>
</g>
<!-- Node4&#45;&gt;Node3 -->
<g id="edge3_Node000003_Node000004" class="edge">
<title>Node4&#45;&gt;Node3</title>
<g id="a_edge3_Node000003_Node000004"><a xlink:title=" ">
<path fill="none" stroke="#63b8ff" d="M62.23,-266.96C69.9,-257.72 79.13,-246.6 85.37,-239.09"/>
<polygon fill="#63b8ff" stroke="#63b8ff" points="59.46,-264.82 55.77,-274.75 64.85,-269.29 59.46,-264.82"/>
</a>
</g>
</g>
<!-- Node5 -->
<g id="Node000005" class="node">
<title>Node5</title>
<g id="a_Node000005"><a xlink:title=" ">
<polygon fill="white" stroke="#bfbfbf" points="85.5,-349 11.5,-349 11.5,-330 85.5,-330 85.5,-349"/>
<text text-anchor="middle" x="48.5" y="-337" font-family="Helvetica,sans-Serif" font-size="10.00">QQuickItem</text>
</a>
</g>
</g>
<!-- Node5&#45;&gt;Node4 -->
<g id="edge4_Node000004_Node000005" class="edge">
<title>Node5&#45;&gt;Node4</title>
<g id="a_edge4_Node000004_Node000005"><a xlink:title=" ">
<path fill="none" stroke="#63b8ff" d="M48.5,-319.66C48.5,-310.93 48.5,-300.99 48.5,-294.09"/>
<polygon fill="#63b8ff" stroke="#63b8ff" points="45,-319.75 48.5,-329.75 52,-319.75 45,-319.75"/>
</a>
</g>
</g>
<!-- Node6 -->
<g id="Node000006" class="node">
<title>Node6</title>
<g id="a_Node000006"><a xlink:href="classQskSkinnable.html" target="_top" xlink:title=" ">
<polygon fill="white" stroke="#666666" points="179,-294 96,-294 96,-275 179,-275 179,-294"/>
<text text-anchor="middle" x="137.5" y="-282" font-family="Helvetica,sans-Serif" font-size="10.00">QskSkinnable</text>
</a>
</g>
</g>
<!-- Node6&#45;&gt;Node3 -->
<g id="edge5_Node000003_Node000006" class="edge">
<title>Node6&#45;&gt;Node3</title>
<g id="a_edge5_Node000003_Node000006"><a xlink:title=" ">
<path fill="none" stroke="#63b8ff" d="M123.45,-266.96C115.61,-257.72 106.17,-246.6 99.79,-239.09"/>
<polygon fill="#63b8ff" stroke="#63b8ff" points="120.93,-269.39 130.07,-274.75 126.26,-264.86 120.93,-269.39"/>
</a>
</g>
</g>
<!-- Node8 -->
<g id="Node000008" class="node">
<title>Node8</title>
<g id="a_Node000008"><a xlink:href="classQskMainView.html" target="_top" xlink:title=" ">
<polygon fill="white" stroke="#bfbfbf" points="83,-19 0,-19 0,0 83,0 83,-19"/>
<text text-anchor="middle" x="41.5" y="-7" font-family="Helvetica,sans-Serif" font-size="10.00">QskMainView</text>
</a>
</g>
</g>
<!-- Node7&#45;&gt;Node8 -->
<g id="edge7_Node000007_Node000008" class="edge">
<title>Node7&#45;&gt;Node8</title>
<g id="a_edge7_Node000007_Node000008"><a xlink:title=" ">
<path fill="none" stroke="#63b8ff" d="M42.14,-44.66C41.98,-35.93 41.79,-25.99 41.66,-19.09"/>
<polygon fill="#63b8ff" stroke="#63b8ff" points="38.65,-44.82 42.33,-54.75 45.65,-44.68 38.65,-44.82"/>
</a>
</g>
</g>
<!-- Node10 -->
<g id="Node000010" class="node">
<title>Node10</title>
<g id="a_Node000010"><a xlink:href="classQskSwipeView.html" target="_top" xlink:title=" ">
<polygon fill="white" stroke="#666666" points="190,-19 101,-19 101,0 190,0 190,-19"/>
<text text-anchor="middle" x="145.5" y="-7" font-family="Helvetica,sans-Serif" font-size="10.00">QskSwipeView</text>
</a>
</g>
</g>
<!-- Node9&#45;&gt;Node10 -->
<g id="edge9_Node000009_Node000010" class="edge">
<title>Node9&#45;&gt;Node10</title>
<g id="a_edge9_Node000009_Node000010"><a xlink:title=" ">
<path fill="none" stroke="#63b8ff" d="M144.86,-44.66C145.02,-35.93 145.21,-25.99 145.34,-19.09"/>
<polygon fill="#63b8ff" stroke="#63b8ff" points="141.35,-44.68 144.67,-54.75 148.35,-44.82 141.35,-44.68"/>
</a>
</g>
</g>
</g>
</svg>
</svg>

<style type='text/css'>
<![CDATA[
[data-mouse-over-selected='false'] { opacity: 0.7; }
[data-mouse-over-selected='true']  { opacity: 1.0; }
]]>
</style>
<script type="application/ecmascript"><![CDATA[
document.addEventListener('DOMContentLoaded', (event) => {
  highlightEdges();
  highlightAdjacentNodes();
});
]]></script>
</svg>
