<?xml version="1.0" encoding="UTF-8" standalone="no"?>
<!DOCTYPE svg PUBLIC "-//W3C//DTD SVG 1.1//EN"
 "http://www.w3.org/Graphics/SVG/1.1/DTD/svg11.dtd">
<!-- Generated by graphviz version 2.43.0 (0)
 -->
<!-- Title: QskBasicLinesNode Pages: 1 -->
<svg width="228pt" height="137pt"
 viewBox="0.00 0.00 227.50 137.00" xmlns="http://www.w3.org/2000/svg" xmlns:xlink="http://www.w3.org/1999/xlink">
<g id="graph0" class="graph" transform="scale(1 1) rotate(0) translate(4 133)">
<title>QskBasicLinesNode</title>
<!-- Node1 -->
<g id="Node000001" class="node">
<title>Node1</title>
<g id="a_Node000001"><a xlink:title=" ">
<polygon fill="#999999" stroke="#666666" points="173,-74 60,-74 60,-55 173,-55 173,-74"/>
<text text-anchor="middle" x="116.5" y="-62" font-family="Helvetica,sans-Serif" font-size="10.00">QskBasicLinesNode</text>
</a>
</g>
</g>
<!-- Node3 -->
<g id="Node000003" class="node">
<title>Node3</title>
<g id="a_Node000003"><a xlink:href="classQskGraduationNode.html" target="_top" xlink:title=" ">
<polygon fill="white" stroke="#bfbfbf" points="115,-19 0,-19 0,0 115,0 115,-19"/>
<text text-anchor="middle" x="57.5" y="-7" font-family="Helvetica,sans-Serif" font-size="10.00">QskGraduationNode</text>
</a>
</g>
</g>
<!-- Node1&#45;&gt;Node3 -->
<g id="edge2_Node000001_Node000003" class="edge">
<title>Node1&#45;&gt;Node3</title>
<g id="a_edge2_Node000001_Node000003"><a xlink:title=" ">
<path fill="none" stroke="#63b8ff" d="M99.3,-48.04C88.83,-38.64 75.85,-26.98 67.15,-19.17"/>
<polygon fill="#63b8ff" stroke="#63b8ff" points="97.24,-50.91 107.02,-54.98 101.92,-45.7 97.24,-50.91"/>
</a>
</g>
</g>
<!-- Node4 -->
<g id="Node000004" class="node">
<title>Node4</title>
<g id="a_Node000004"><a xlink:href="classQskLinesNode.html" target="_top" xlink:title=" ">
<polygon fill="white" stroke="#bfbfbf" points="219.5,-19 133.5,-19 133.5,0 219.5,0 219.5,-19"/>
<text text-anchor="middle" x="176.5" y="-7" font-family="Helvetica,sans-Serif" font-size="10.00">QskLinesNode</text>
</a>
</g>
</g>
<!-- Node1&#45;&gt;Node4 -->
<g id="edge3_Node000001_Node000004" class="edge">
<title>Node1&#45;&gt;Node4</title>
<g id="a_edge3_Node000001_Node000004"><a xlink:title=" ">
<path fill="none" stroke="#63b8ff" d="M133.68,-48.32C144.38,-38.87 157.76,-27.06 166.68,-19.17"/>
<polygon fill="#63b8ff" stroke="#63b8ff" points="131.32,-45.74 126.14,-54.98 135.95,-50.99 131.32,-45.74"/>
</a>
</g>
</g>
<!-- Node2 -->
<g id="Node000002" class="node">
<title>Node2</title>
<g id="a_Node000002"><a xlink:title=" ">
<polygon fill="white" stroke="#bfbfbf" points="172.5,-129 60.5,-129 60.5,-110 172.5,-110 172.5,-129"/>
<text text-anchor="middle" x="116.5" y="-117" font-family="Helvetica,sans-Serif" font-size="10.00">QSGGeometryNode</text>
</a>
</g>
</g>
<!-- Node2&#45;&gt;Node1 -->
<g id="edge1_Node000001_Node000002" class="edge">
<title>Node2&#45;&gt;Node1</title>
<g id="a_edge1_Node000001_Node000002"><a xlink:title=" ">
<path fill="none" stroke="#63b8ff" d="M116.5,-99.66C116.5,-90.93 116.5,-80.99 116.5,-74.09"/>
<polygon fill="#63b8ff" stroke="#63b8ff" points="113,-99.75 116.5,-109.75 120,-99.75 113,-99.75"/>
</a>
</g>
</g>
</g>
</svg>
