<?xml version="1.0" encoding="UTF-8" standalone="no"?>
<!DOCTYPE svg PUBLIC "-//W3C//DTD SVG 1.1//EN"
 "http://www.w3.org/Graphics/SVG/1.1/DTD/svg11.dtd">
<!-- Generated by graphviz version 2.43.0 (0)
 -->
<!-- Title: QskBoundedControl Pages: 1 -->
<svg width="520pt" height="357pt"
 viewBox="0.00 0.00 519.50 357.00" xmlns="http://www.w3.org/2000/svg" xmlns:xlink="http://www.w3.org/1999/xlink">
<g id="graph0" class="graph" transform="scale(1 1) rotate(0) translate(4 353)">
<title>QskBoundedControl</title>
<!-- Node1 -->
<g id="Node000001" class="node">
<title>Node1</title>
<g id="a_Node000001"><a xlink:title=" ">
<polygon fill="#999999" stroke="#666666" points="338.5,-184 225.5,-184 225.5,-165 338.5,-165 338.5,-184"/>
<text text-anchor="middle" x="282" y="-172" font-family="Helvetica,sans-Serif" font-size="10.00">QskBoundedControl</text>
</a>
</g>
</g>
<!-- Node6 -->
<g id="Node000006" class="node">
<title>Node6</title>
<g id="a_Node000006"><a xlink:href="classQskBoundedInput.html" target="_top" xlink:title=" ">
<polygon fill="white" stroke="#bfbfbf" points="268.5,-129 165.5,-129 165.5,-110 268.5,-110 268.5,-129"/>
<text text-anchor="middle" x="217" y="-117" font-family="Helvetica,sans-Serif" font-size="10.00">QskBoundedInput</text>
</a>
</g>
</g>
<!-- Node1&#45;&gt;Node6 -->
<g id="edge5_Node000001_Node000006" class="edge">
<title>Node1&#45;&gt;Node6</title>
<g id="a_edge5_Node000001_Node000006"><a xlink:title=" ">
<path fill="none" stroke="#63b8ff" d="M263.73,-158.6C252.08,-149.11 237.4,-137.13 227.63,-129.17"/>
<polygon fill="#63b8ff" stroke="#63b8ff" points="261.59,-161.38 271.56,-164.98 266.02,-155.95 261.59,-161.38"/>
</a>
</g>
</g>
<!-- Node11 -->
<g id="Node000011" class="node">
<title>Node11</title>
<g id="a_Node000011"><a xlink:href="classQskProgressIndicator.html" target="_top" xlink:title=" ">
<polygon fill="white" stroke="#bfbfbf" points="407,-129 287,-129 287,-110 407,-110 407,-129"/>
<text text-anchor="middle" x="347" y="-117" font-family="Helvetica,sans-Serif" font-size="10.00">QskProgressIndicator</text>
</a>
</g>
</g>
<!-- Node1&#45;&gt;Node11 -->
<g id="edge10_Node000001_Node000011" class="edge">
<title>Node1&#45;&gt;Node11</title>
<g id="a_edge10_Node000001_Node000011"><a xlink:title=" ">
<path fill="none" stroke="#63b8ff" d="M300.27,-158.6C311.92,-149.11 326.6,-137.13 336.37,-129.17"/>
<polygon fill="#63b8ff" stroke="#63b8ff" points="297.98,-155.95 292.44,-164.98 302.41,-161.38 297.98,-155.95"/>
</a>
</g>
</g>
<!-- Node2 -->
<g id="Node000002" class="node">
<title>Node2</title>
<g id="a_Node000002"><a xlink:href="classQskControl.html" target="_top" xlink:title="Base class of all controls.">
<polygon fill="white" stroke="#666666" points="317.5,-239 246.5,-239 246.5,-220 317.5,-220 317.5,-239"/>
<text text-anchor="middle" x="282" y="-227" font-family="Helvetica,sans-Serif" font-size="10.00">QskControl</text>
</a>
</g>
</g>
<!-- Node2&#45;&gt;Node1 -->
<g id="edge1_Node000001_Node000002" class="edge">
<title>Node2&#45;&gt;Node1</title>
<g id="a_edge1_Node000001_Node000002"><a xlink:title=" ">
<path fill="none" stroke="#63b8ff" d="M282,-209.66C282,-200.93 282,-190.99 282,-184.09"/>
<polygon fill="#63b8ff" stroke="#63b8ff" points="278.5,-209.75 282,-219.75 285.5,-209.75 278.5,-209.75"/>
</a>
</g>
</g>
<!-- Node3 -->
<g id="Node000003" class="node">
<title>Node3</title>
<g id="a_Node000003"><a xlink:href="classQskItem.html" target="_top" xlink:title=" ">
<polygon fill="white" stroke="#666666" points="267,-294 209,-294 209,-275 267,-275 267,-294"/>
<text text-anchor="middle" x="238" y="-282" font-family="Helvetica,sans-Serif" font-size="10.00">QskItem</text>
</a>
</g>
</g>
<!-- Node3&#45;&gt;Node2 -->
<g id="edge2_Node000002_Node000003" class="edge">
<title>Node3&#45;&gt;Node2</title>
<g id="a_edge2_Node000002_Node000003"><a xlink:title=" ">
<path fill="none" stroke="#63b8ff" d="M251.73,-266.96C259.4,-257.72 268.63,-246.6 274.87,-239.09"/>
<polygon fill="#63b8ff" stroke="#63b8ff" points="248.96,-264.82 245.27,-274.75 254.35,-269.29 248.96,-264.82"/>
</a>
</g>
</g>
<!-- Node4 -->
<g id="Node000004" class="node">
<title>Node4</title>
<g id="a_Node000004"><a xlink:title=" ">
<polygon fill="white" stroke="#bfbfbf" points="275,-349 201,-349 201,-330 275,-330 275,-349"/>
<text text-anchor="middle" x="238" y="-337" font-family="Helvetica,sans-Serif" font-size="10.00">QQuickItem</text>
</a>
</g>
</g>
<!-- Node4&#45;&gt;Node3 -->
<g id="edge3_Node000003_Node000004" class="edge">
<title>Node4&#45;&gt;Node3</title>
<g id="a_edge3_Node000003_Node000004"><a xlink:title=" ">
<path fill="none" stroke="#63b8ff" d="M238,-319.66C238,-310.93 238,-300.99 238,-294.09"/>
<polygon fill="#63b8ff" stroke="#63b8ff" points="234.5,-319.75 238,-329.75 241.5,-319.75 234.5,-319.75"/>
</a>
</g>
</g>
<!-- Node5 -->
<g id="Node000005" class="node">
<title>Node5</title>
<g id="a_Node000005"><a xlink:href="classQskSkinnable.html" target="_top" xlink:title=" ">
<polygon fill="white" stroke="#666666" points="368.5,-294 285.5,-294 285.5,-275 368.5,-275 368.5,-294"/>
<text text-anchor="middle" x="327" y="-282" font-family="Helvetica,sans-Serif" font-size="10.00">QskSkinnable</text>
</a>
</g>
</g>
<!-- Node5&#45;&gt;Node2 -->
<g id="edge4_Node000002_Node000005" class="edge">
<title>Node5&#45;&gt;Node2</title>
<g id="a_edge4_Node000002_Node000005"><a xlink:title=" ">
<path fill="none" stroke="#63b8ff" d="M312.95,-266.96C305.11,-257.72 295.67,-246.6 289.29,-239.09"/>
<polygon fill="#63b8ff" stroke="#63b8ff" points="310.43,-269.39 319.57,-274.75 315.76,-264.86 310.43,-269.39"/>
</a>
</g>
</g>
<!-- Node7 -->
<g id="Node000007" class="node">
<title>Node7</title>
<g id="a_Node000007"><a xlink:href="classQskBoundedRangeInput.html" target="_top" xlink:title=" ">
<polygon fill="white" stroke="#bfbfbf" points="134,-74 0,-74 0,-55 134,-55 134,-74"/>
<text text-anchor="middle" x="67" y="-62" font-family="Helvetica,sans-Serif" font-size="10.00">QskBoundedRangeInput</text>
</a>
</g>
</g>
<!-- Node6&#45;&gt;Node7 -->
<g id="edge6_Node000006_Node000007" class="edge">
<title>Node6&#45;&gt;Node7</title>
<g id="a_edge6_Node000006_Node000007"><a xlink:title=" ">
<path fill="none" stroke="#63b8ff" d="M183.18,-106.55C155.32,-96.71 116.49,-82.98 91.54,-74.17"/>
<polygon fill="#63b8ff" stroke="#63b8ff" points="182.31,-109.95 192.9,-109.98 184.64,-103.35 182.31,-109.95"/>
</a>
</g>
</g>
<!-- Node8 -->
<g id="Node000008" class="node">
<title>Node8</title>
<g id="a_Node000008"><a xlink:href="classQskBoundedValueInput.html" target="_top" xlink:title=" ">
<polygon fill="white" stroke="#bfbfbf" points="282,-74 152,-74 152,-55 282,-55 282,-74"/>
<text text-anchor="middle" x="217" y="-62" font-family="Helvetica,sans-Serif" font-size="10.00">QskBoundedValueInput</text>
</a>
</g>
</g>
<!-- Node6&#45;&gt;Node8 -->
<g id="edge7_Node000006_Node000008" class="edge">
<title>Node6&#45;&gt;Node8</title>
<g id="a_edge7_Node000006_Node000008"><a xlink:title=" ">
<path fill="none" stroke="#63b8ff" d="M217,-99.66C217,-90.93 217,-80.99 217,-74.09"/>
<polygon fill="#63b8ff" stroke="#63b8ff" points="213.5,-99.75 217,-109.75 220.5,-99.75 213.5,-99.75"/>
</a>
</g>
</g>
<!-- Node9 -->
<g id="Node000009" class="node">
<title>Node9</title>
<g id="a_Node000009"><a xlink:href="classQskSlider.html" target="_top" xlink:title=" ">
<polygon fill="white" stroke="#666666" points="205.5,-19 142.5,-19 142.5,0 205.5,0 205.5,-19"/>
<text text-anchor="middle" x="174" y="-7" font-family="Helvetica,sans-Serif" font-size="10.00">QskSlider</text>
</a>
</g>
</g>
<!-- Node8&#45;&gt;Node9 -->
<g id="edge8_Node000008_Node000009" class="edge">
<title>Node8&#45;&gt;Node9</title>
<g id="a_edge8_Node000008_Node000009"><a xlink:title=" ">
<path fill="none" stroke="#63b8ff" d="M203.58,-46.96C196.09,-37.72 187.06,-26.6 180.97,-19.09"/>
<polygon fill="#63b8ff" stroke="#63b8ff" points="200.88,-49.19 209.9,-54.75 206.32,-44.78 200.88,-49.19"/>
</a>
</g>
</g>
<!-- Node10 -->
<g id="Node000010" class="node">
<title>Node10</title>
<g id="a_Node000010"><a xlink:href="classQskSpinBox.html" target="_top" xlink:title="A control to edit, increment and decrement number values.">
<polygon fill="white" stroke="#666666" points="298.5,-19 223.5,-19 223.5,0 298.5,0 298.5,-19"/>
<text text-anchor="middle" x="261" y="-7" font-family="Helvetica,sans-Serif" font-size="10.00">QskSpinBox</text>
</a>
</g>
</g>
<!-- Node8&#45;&gt;Node10 -->
<g id="edge9_Node000008_Node000010" class="edge">
<title>Node8&#45;&gt;Node10</title>
<g id="a_edge9_Node000008_Node000010"><a xlink:title=" ">
<path fill="none" stroke="#63b8ff" d="M230.73,-46.96C238.4,-37.72 247.63,-26.6 253.87,-19.09"/>
<polygon fill="#63b8ff" stroke="#63b8ff" points="227.96,-44.82 224.27,-54.75 233.35,-49.29 227.96,-44.82"/>
</a>
</g>
</g>
<!-- Node12 -->
<g id="Node000012" class="node">
<title>Node12</title>
<g id="a_Node000012"><a xlink:href="classQskProgressBar.html" target="_top" xlink:title=" ">
<polygon fill="white" stroke="#666666" points="394,-74 300,-74 300,-55 394,-55 394,-74"/>
<text text-anchor="middle" x="347" y="-62" font-family="Helvetica,sans-Serif" font-size="10.00">QskProgressBar</text>
</a>
</g>
</g>
<!-- Node11&#45;&gt;Node12 -->
<g id="edge11_Node000011_Node000012" class="edge">
<title>Node11&#45;&gt;Node12</title>
<g id="a_edge11_Node000011_Node000012"><a xlink:title=" ">
<path fill="none" stroke="#63b8ff" d="M347,-99.66C347,-90.93 347,-80.99 347,-74.09"/>
<polygon fill="#63b8ff" stroke="#63b8ff" points="343.5,-99.75 347,-109.75 350.5,-99.75 343.5,-99.75"/>
</a>
</g>
</g>
<!-- Node13 -->
<g id="Node000013" class="node">
<title>Node13</title>
<g id="a_Node000013"><a xlink:href="classQskProgressRing.html" target="_top" xlink:title=" ">
<polygon fill="white" stroke="#666666" points="511.5,-74 412.5,-74 412.5,-55 511.5,-55 511.5,-74"/>
<text text-anchor="middle" x="462" y="-62" font-family="Helvetica,sans-Serif" font-size="10.00">QskProgressRing</text>
</a>
</g>
</g>
<!-- Node11&#45;&gt;Node13 -->
<g id="edge12_Node000011_Node000013" class="edge">
<title>Node11&#45;&gt;Node13</title>
<g id="a_edge12_Node000011_Node000013"><a xlink:title=" ">
<path fill="none" stroke="#63b8ff" d="M374.63,-105.77C395.84,-95.99 424.56,-82.75 443.19,-74.17"/>
<polygon fill="#63b8ff" stroke="#63b8ff" points="373.09,-102.62 365.48,-109.98 376.02,-108.98 373.09,-102.62"/>
</a>
</g>
</g>
</g>
</svg>
