<?xml version="1.0" encoding="UTF-8" standalone="no"?>
<!DOCTYPE svg PUBLIC "-//W3C//DTD SVG 1.1//EN"
 "http://www.w3.org/Graphics/SVG/1.1/DTD/svg11.dtd">
<!-- Generated by graphviz version 2.43.0 (0)
 -->
<!-- Title: QskBoundedControl Pages: 1 -->
<!--zoomable 357 -->

<svg id="main" version="1.1" xmlns="http://www.w3.org/2000/svg" xmlns:xlink="http://www.w3.org/1999/xlink" xml:space="preserve" onload="init(evt)">
<style type="text/css"><![CDATA[
.node, .edge {opacity: 0.7;}
.node.selected, .edge.selected {opacity: 1;}
.edge:hover path { stroke: red; }
.edge:hover polygon { stroke: red; fill: red; }
]]></style>

<defs>
  <circle id="rim" cx="0" cy="0" r="7"/>
  <circle id="rim2" cx="0" cy="0" r="3.5"/>
  <g id="zoomPlus">
    <use xlink:href="#rim" fill="#404040"><set attributeName="fill" to="#808080" begin="zoomplus.mouseover" end="zoomplus.mouseout"/></use>
    <path d="M-4,0h8M0,-4v8" fill="none" stroke="white" stroke-width="1.5" pointer-events="none"/>
  </g>
  <g id="zoomMin">
    <use xlink:href="#rim" fill="#404040"><set attributeName="fill" to="#808080" begin="zoomminus.mouseover" end="zoomminus.mouseout"/></use>
    <path d="M-4,0h8" fill="none" stroke="white" stroke-width="1.5" pointer-events="none"/>
  </g>
  <g id="arrowUp" transform="translate(30 24)">
    <use xlink:href="#rim"/>
    <path pointer-events="none" fill="none" stroke="white" stroke-width="1.5" d="M0,-3.0v7 M-2.5,-0.5L0,-3.0L2.5,-0.5"/>
  </g>
  <g id="arrowRight" transform="rotate(90) translate(36 -43)">
    <use xlink:href="#rim"/>
    <path pointer-events="none" fill="none" stroke="white" stroke-width="1.5" d="M0,-3.0v7 M-2.5,-0.5L0,-3.0L2.5,-0.5"/>
  </g>
  <g id="arrowDown" transform="rotate(180) translate(-30 -48)">
    <use xlink:href="#rim"/>
    <path pointer-events="none" fill="none" stroke="white" stroke-width="1.5" d="M0,-3.0v7 M-2.5,-0.5L0,-3.0L2.5,-0.5"/>
  </g>
  <g id="arrowLeft" transform="rotate(270) translate(-36 17)">
    <use xlink:href="#rim"/>
    <path pointer-events="none" fill="none" stroke="white" stroke-width="1.5" d="M0,-3.0v7 M-2.5,-0.5L0,-3.0L2.5,-0.5"/>
  </g>
  <g id="resetDef">
    <use xlink:href="#rim2" fill="#404040"><set attributeName="fill" to="#808080" begin="reset.mouseover" end="reset.mouseout"/></use>
  </g>
</defs>
<script type="application/ecmascript">
var viewWidth = 520;
var viewHeight = 357;
var sectionId = 'dynsection-0';
</script>
<script type="application/ecmascript" xlink:href="svg.min.js"/>
<svg id="graph" class="graph">
<g id="viewport">
<title>QskBoundedControl</title>
<!-- Node1 -->
<g id="Node000001" class="node">
<title>Node1</title>
<g id="a_Node000001"><a xlink:title=" ">
<polygon fill="#999999" stroke="#666666" points="338.5,-184 225.5,-184 225.5,-165 338.5,-165 338.5,-184"/>
<text text-anchor="middle" x="282" y="-172" font-family="Helvetica,sans-Serif" font-size="10.00">QskBoundedControl</text>
</a>
</g>
</g>
<!-- Node6 -->
<g id="Node000006" class="node">
<title>Node6</title>
<g id="a_Node000006"><a xlink:href="classQskBoundedInput.html" target="_top" xlink:title=" ">
<polygon fill="white" stroke="#bfbfbf" points="268.5,-129 165.5,-129 165.5,-110 268.5,-110 268.5,-129"/>
<text text-anchor="middle" x="217" y="-117" font-family="Helvetica,sans-Serif" font-size="10.00">QskBoundedInput</text>
</a>
</g>
</g>
<!-- Node1&#45;&gt;Node6 -->
<g id="edge5_Node000001_Node000006" class="edge">
<title>Node1&#45;&gt;Node6</title>
<g id="a_edge5_Node000001_Node000006"><a xlink:title=" ">
<path fill="none" stroke="#63b8ff" d="M263.73,-158.6C252.08,-149.11 237.4,-137.13 227.63,-129.17"/>
<polygon fill="#63b8ff" stroke="#63b8ff" points="261.59,-161.38 271.56,-164.98 266.02,-155.95 261.59,-161.38"/>
</a>
</g>
</g>
<!-- Node11 -->
<g id="Node000011" class="node">
<title>Node11</title>
<g id="a_Node000011"><a xlink:href="classQskProgressIndicator.html" target="_top" xlink:title=" ">
<polygon fill="white" stroke="#bfbfbf" points="407,-129 287,-129 287,-110 407,-110 407,-129"/>
<text text-anchor="middle" x="347" y="-117" font-family="Helvetica,sans-Serif" font-size="10.00">QskProgressIndicator</text>
</a>
</g>
</g>
<!-- Node1&#45;&gt;Node11 -->
<g id="edge10_Node000001_Node000011" class="edge">
<title>Node1&#45;&gt;Node11</title>
<g id="a_edge10_Node000001_Node000011"><a xlink:title=" ">
<path fill="none" stroke="#63b8ff" d="M300.27,-158.6C311.92,-149.11 326.6,-137.13 336.37,-129.17"/>
<polygon fill="#63b8ff" stroke="#63b8ff" points="297.98,-155.95 292.44,-164.98 302.41,-161.38 297.98,-155.95"/>
</a>
</g>
</g>
<!-- Node2 -->
<g id="Node000002" class="node">
<title>Node2</title>
<g id="a_Node000002"><a xlink:href="classQskControl.html" target="_top" xlink:title="Base class of all controls.">
<polygon fill="white" stroke="#666666" points="317.5,-239 246.5,-239 246.5,-220 317.5,-220 317.5,-239"/>
<text text-anchor="middle" x="282" y="-227" font-family="Helvetica,sans-Serif" font-size="10.00">QskControl</text>
</a>
</g>
</g>
<!-- Node2&#45;&gt;Node1 -->
<g id="edge1_Node000001_Node000002" class="edge">
<title>Node2&#45;&gt;Node1</title>
<g id="a_edge1_Node000001_Node000002"><a xlink:title=" ">
<path fill="none" stroke="#63b8ff" d="M282,-209.66C282,-200.93 282,-190.99 282,-184.09"/>
<polygon fill="#63b8ff" stroke="#63b8ff" points="278.5,-209.75 282,-219.75 285.5,-209.75 278.5,-209.75"/>
</a>
</g>
</g>
<!-- Node3 -->
<g id="Node000003" class="node">
<title>Node3</title>
<g id="a_Node000003"><a xlink:href="classQskItem.html" target="_top" xlink:title=" ">
<polygon fill="white" stroke="#666666" points="267,-294 209,-294 209,-275 267,-275 267,-294"/>
<text text-anchor="middle" x="238" y="-282" font-family="Helvetica,sans-Serif" font-size="10.00">QskItem</text>
</a>
</g>
</g>
<!-- Node3&#45;&gt;Node2 -->
<g id="edge2_Node000002_Node000003" class="edge">
<title>Node3&#45;&gt;Node2</title>
<g id="a_edge2_Node000002_Node000003"><a xlink:title=" ">
<path fill="none" stroke="#63b8ff" d="M251.73,-266.96C259.4,-257.72 268.63,-246.6 274.87,-239.09"/>
<polygon fill="#63b8ff" stroke="#63b8ff" points="248.96,-264.82 245.27,-274.75 254.35,-269.29 248.96,-264.82"/>
</a>
</g>
</g>
<!-- Node4 -->
<g id="Node000004" class="node">
<title>Node4</title>
<g id="a_Node000004"><a xlink:title=" ">
<polygon fill="white" stroke="#bfbfbf" points="275,-349 201,-349 201,-330 275,-330 275,-349"/>
<text text-anchor="middle" x="238" y="-337" font-family="Helvetica,sans-Serif" font-size="10.00">QQuickItem</text>
</a>
</g>
</g>
<!-- Node4&#45;&gt;Node3 -->
<g id="edge3_Node000003_Node000004" class="edge">
<title>Node4&#45;&gt;Node3</title>
<g id="a_edge3_Node000003_Node000004"><a xlink:title=" ">
<path fill="none" stroke="#63b8ff" d="M238,-319.66C238,-310.93 238,-300.99 238,-294.09"/>
<polygon fill="#63b8ff" stroke="#63b8ff" points="234.5,-319.75 238,-329.75 241.5,-319.75 234.5,-319.75"/>
</a>
</g>
</g>
<!-- Node5 -->
<g id="Node000005" class="node">
<title>Node5</title>
<g id="a_Node000005"><a xlink:href="classQskSkinnable.html" target="_top" xlink:title=" ">
<polygon fill="white" stroke="#666666" points="368.5,-294 285.5,-294 285.5,-275 368.5,-275 368.5,-294"/>
<text text-anchor="middle" x="327" y="-282" font-family="Helvetica,sans-Serif" font-size="10.00">QskSkinnable</text>
</a>
</g>
</g>
<!-- Node5&#45;&gt;Node2 -->
<g id="edge4_Node000002_Node000005" class="edge">
<title>Node5&#45;&gt;Node2</title>
<g id="a_edge4_Node000002_Node000005"><a xlink:title=" ">
<path fill="none" stroke="#63b8ff" d="M312.95,-266.96C305.11,-257.72 295.67,-246.6 289.29,-239.09"/>
<polygon fill="#63b8ff" stroke="#63b8ff" points="310.43,-269.39 319.57,-274.75 315.76,-264.86 310.43,-269.39"/>
</a>
</g>
</g>
<!-- Node7 -->
<g id="Node000007" class="node">
<title>Node7</title>
<g id="a_Node000007"><a xlink:href="classQskBoundedRangeInput.html" target="_top" xlink:title=" ">
<polygon fill="white" stroke="#bfbfbf" points="134,-74 0,-74 0,-55 134,-55 134,-74"/>
<text text-anchor="middle" x="67" y="-62" font-family="Helvetica,sans-Serif" font-size="10.00">QskBoundedRangeInput</text>
</a>
</g>
</g>
<!-- Node6&#45;&gt;Node7 -->
<g id="edge6_Node000006_Node000007" class="edge">
<title>Node6&#45;&gt;Node7</title>
<g id="a_edge6_Node000006_Node000007"><a xlink:title=" ">
<path fill="none" stroke="#63b8ff" d="M183.18,-106.55C155.32,-96.71 116.49,-82.98 91.54,-74.17"/>
<polygon fill="#63b8ff" stroke="#63b8ff" points="182.31,-109.95 192.9,-109.98 184.64,-103.35 182.31,-109.95"/>
</a>
</g>
</g>
<!-- Node8 -->
<g id="Node000008" class="node">
<title>Node8</title>
<g id="a_Node000008"><a xlink:href="classQskBoundedValueInput.html" target="_top" xlink:title=" ">
<polygon fill="white" stroke="#bfbfbf" points="282,-74 152,-74 152,-55 282,-55 282,-74"/>
<text text-anchor="middle" x="217" y="-62" font-family="Helvetica,sans-Serif" font-size="10.00">QskBoundedValueInput</text>
</a>
</g>
</g>
<!-- Node6&#45;&gt;Node8 -->
<g id="edge7_Node000006_Node000008" class="edge">
<title>Node6&#45;&gt;Node8</title>
<g id="a_edge7_Node000006_Node000008"><a xlink:title=" ">
<path fill="none" stroke="#63b8ff" d="M217,-99.66C217,-90.93 217,-80.99 217,-74.09"/>
<polygon fill="#63b8ff" stroke="#63b8ff" points="213.5,-99.75 217,-109.75 220.5,-99.75 213.5,-99.75"/>
</a>
</g>
</g>
<!-- Node9 -->
<g id="Node000009" class="node">
<title>Node9</title>
<g id="a_Node000009"><a xlink:href="classQskSlider.html" target="_top" xlink:title=" ">
<polygon fill="white" stroke="#666666" points="205.5,-19 142.5,-19 142.5,0 205.5,0 205.5,-19"/>
<text text-anchor="middle" x="174" y="-7" font-family="Helvetica,sans-Serif" font-size="10.00">QskSlider</text>
</a>
</g>
</g>
<!-- Node8&#45;&gt;Node9 -->
<g id="edge8_Node000008_Node000009" class="edge">
<title>Node8&#45;&gt;Node9</title>
<g id="a_edge8_Node000008_Node000009"><a xlink:title=" ">
<path fill="none" stroke="#63b8ff" d="M203.58,-46.96C196.09,-37.72 187.06,-26.6 180.97,-19.09"/>
<polygon fill="#63b8ff" stroke="#63b8ff" points="200.88,-49.19 209.9,-54.75 206.32,-44.78 200.88,-49.19"/>
</a>
</g>
</g>
<!-- Node10 -->
<g id="Node000010" class="node">
<title>Node10</title>
<g id="a_Node000010"><a xlink:href="classQskSpinBox.html" target="_top" xlink:title="A control to edit, increment and decrement number values.">
<polygon fill="white" stroke="#666666" points="298.5,-19 223.5,-19 223.5,0 298.5,0 298.5,-19"/>
<text text-anchor="middle" x="261" y="-7" font-family="Helvetica,sans-Serif" font-size="10.00">QskSpinBox</text>
</a>
</g>
</g>
<!-- Node8&#45;&gt;Node10 -->
<g id="edge9_Node000008_Node000010" class="edge">
<title>Node8&#45;&gt;Node10</title>
<g id="a_edge9_Node000008_Node000010"><a xlink:title=" ">
<path fill="none" stroke="#63b8ff" d="M230.73,-46.96C238.4,-37.72 247.63,-26.6 253.87,-19.09"/>
<polygon fill="#63b8ff" stroke="#63b8ff" points="227.96,-44.82 224.27,-54.75 233.35,-49.29 227.96,-44.82"/>
</a>
</g>
</g>
<!-- Node12 -->
<g id="Node000012" class="node">
<title>Node12</title>
<g id="a_Node000012"><a xlink:href="classQskProgressBar.html" target="_top" xlink:title=" ">
<polygon fill="white" stroke="#666666" points="394,-74 300,-74 300,-55 394,-55 394,-74"/>
<text text-anchor="middle" x="347" y="-62" font-family="Helvetica,sans-Serif" font-size="10.00">QskProgressBar</text>
</a>
</g>
</g>
<!-- Node11&#45;&gt;Node12 -->
<g id="edge11_Node000011_Node000012" class="edge">
<title>Node11&#45;&gt;Node12</title>
<g id="a_edge11_Node000011_Node000012"><a xlink:title=" ">
<path fill="none" stroke="#63b8ff" d="M347,-99.66C347,-90.93 347,-80.99 347,-74.09"/>
<polygon fill="#63b8ff" stroke="#63b8ff" points="343.5,-99.75 347,-109.75 350.5,-99.75 343.5,-99.75"/>
</a>
</g>
</g>
<!-- Node13 -->
<g id="Node000013" class="node">
<title>Node13</title>
<g id="a_Node000013"><a xlink:href="classQskProgressRing.html" target="_top" xlink:title=" ">
<polygon fill="white" stroke="#666666" points="511.5,-74 412.5,-74 412.5,-55 511.5,-55 511.5,-74"/>
<text text-anchor="middle" x="462" y="-62" font-family="Helvetica,sans-Serif" font-size="10.00">QskProgressRing</text>
</a>
</g>
</g>
<!-- Node11&#45;&gt;Node13 -->
<g id="edge12_Node000011_Node000013" class="edge">
<title>Node11&#45;&gt;Node13</title>
<g id="a_edge12_Node000011_Node000013"><a xlink:title=" ">
<path fill="none" stroke="#63b8ff" d="M374.63,-105.77C395.84,-95.99 424.56,-82.75 443.19,-74.17"/>
<polygon fill="#63b8ff" stroke="#63b8ff" points="373.09,-102.62 365.48,-109.98 376.02,-108.98 373.09,-102.62"/>
</a>
</g>
</g>
</g>
</svg>

<g id="navigator" transform="translate(0 0)" fill="#404254">
  <rect fill="#f2f5e9" fill-opacity="0.5" stroke="#606060" stroke-width=".5" x="0" y="0" width="60" height="60"/>
  <use id="zoomplus" xlink:href="#zoomPlus" x="17" y="9" onmousedown="handleZoom(evt,'in')"/>
  <use id="zoomminus" xlink:href="#zoomMin" x="42" y="9" onmousedown="handleZoom(evt,'out')"/>
  <use id="reset" xlink:href="#resetDef" x="30" y="36" onmousedown="handleReset()"/>
   <use id="arrowup" xlink:href="#arrowUp" x="0" y="0" onmousedown="handlePan(0,-1)"/>
  <use id="arrowright" xlink:href="#arrowRight" x="0" y="0" onmousedown="handlePan(1,0)"/>
  <use id="arrowdown" xlink:href="#arrowDown" x="0" y="0" onmousedown="handlePan(0,1)"/>
  <use id="arrowleft" xlink:href="#arrowLeft" x="0" y="0" onmousedown="handlePan(-1,0)"/>
</g>
<svg viewBox="0 0 15 15" width="100%" height="30px" preserveAspectRatio="xMaxYMin meet">
 <g id="arrow_out" transform="scale(0.3 0.3)">
  <a xlink:href="classQskBoundedControl__inherit__graph_org.svg" target="_base">
   <rect id="button" ry="5" rx="5" y="6" x="6" height="38" width="38"
        fill="#f2f5e9" fill-opacity="0.5" stroke="#606060" stroke-width="1.0"/>
   <path id="arrow"
     d="M 11.500037,31.436501 C 11.940474,20.09759 22.043105,11.32322 32.158766,21.979434 L 37.068811,17.246167 C 37.068811,17.246167 37.088388,32 37.088388,32 L 22.160133,31.978069 C 22.160133,31.978069 26.997745,27.140456 26.997745,27.140456 C 18.528582,18.264221 13.291696,25.230495 11.500037,31.436501 z"
     style="fill:#404040;"/>
  </a>
 </g>
</svg>

<style type='text/css'>
<![CDATA[
[data-mouse-over-selected='false'] { opacity: 0.7; }
[data-mouse-over-selected='true']  { opacity: 1.0; }
]]>
</style>
<script type="application/ecmascript"><![CDATA[
document.addEventListener('DOMContentLoaded', (event) => {
  highlightEdges();
  highlightAdjacentNodes();
});
]]></script>
</svg>
