<?xml version="1.0" encoding="UTF-8" standalone="no"?>
<!DOCTYPE svg PUBLIC "-//W3C//DTD SVG 1.1//EN"
 "http://www.w3.org/Graphics/SVG/1.1/DTD/svg11.dtd">
<!-- Generated by graphviz version 2.43.0 (0)
 -->
<!-- Title: QskItem Pages: 1 -->
<svg width="434pt" height="582pt"
 viewBox="0.00 0.00 434.00 582.00" xmlns="http://www.w3.org/2000/svg" xmlns:xlink="http://www.w3.org/1999/xlink">
<g id="graph0" class="graph" transform="scale(1 1) rotate(0) translate(4 578)">
<title>QskItem</title>
<!-- Node1 -->
<g id="Node000001" class="node">
<title>Node1</title>
<g id="a_Node000001"><a xlink:title=" ">
<polygon fill="#999999" stroke="#666666" points="168,-296 110,-296 110,-277 168,-277 168,-296"/>
<text text-anchor="middle" x="139" y="-284" font-family="Helvetica,sans-Serif" font-size="10.00">QskItem</text>
</a>
</g>
</g>
<!-- Node3 -->
<g id="Node000003" class="node">
<title>Node3</title>
<g id="a_Node000003"><a xlink:href="classQskControl.html" target="_top" xlink:title="Base class of all controls.">
<polygon fill="#fff0f0" stroke="red" points="275,-296 204,-296 204,-277 275,-277 275,-296"/>
<text text-anchor="middle" x="239.5" y="-284" font-family="Helvetica,sans-Serif" font-size="10.00">QskControl</text>
</a>
</g>
</g>
<!-- Node1&#45;&gt;Node3 -->
<g id="edge2_Node000001_Node000003" class="edge">
<title>Node1&#45;&gt;Node3</title>
<g id="a_edge2_Node000001_Node000003"><a xlink:title=" ">
<path fill="none" stroke="#63b8ff" d="M178.26,-286.5C186.73,-286.5 195.66,-286.5 203.97,-286.5"/>
<polygon fill="#63b8ff" stroke="#63b8ff" points="178.23,-283 168.23,-286.5 178.23,-290 178.23,-283"/>
</a>
</g>
</g>
<!-- Node2 -->
<g id="Node000002" class="node">
<title>Node2</title>
<g id="a_Node000002"><a xlink:title=" ">
<polygon fill="white" stroke="#bfbfbf" points="74,-296 0,-296 0,-277 74,-277 74,-296"/>
<text text-anchor="middle" x="37" y="-284" font-family="Helvetica,sans-Serif" font-size="10.00">QQuickItem</text>
</a>
</g>
</g>
<!-- Node2&#45;&gt;Node1 -->
<g id="edge1_Node000001_Node000002" class="edge">
<title>Node2&#45;&gt;Node1</title>
<g id="a_edge1_Node000001_Node000002"><a xlink:title=" ">
<path fill="none" stroke="#63b8ff" d="M84.21,-286.5C92.94,-286.5 101.83,-286.5 109.8,-286.5"/>
<polygon fill="#63b8ff" stroke="#63b8ff" points="84.1,-283 74.1,-286.5 84.1,-290 84.1,-283"/>
</a>
</g>
</g>
<!-- Node4 -->
<g id="Node000004" class="node">
<title>Node4</title>
<g id="a_Node000004"><a xlink:href="classQskAbstractButton.html" target="_top" xlink:title=" ">
<polygon fill="white" stroke="orangered" points="422.5,-574 314.5,-574 314.5,-555 422.5,-555 422.5,-574"/>
<text text-anchor="middle" x="368.5" y="-562" font-family="Helvetica,sans-Serif" font-size="10.00">QskAbstractButton</text>
</a>
</g>
</g>
<!-- Node3&#45;&gt;Node4 -->
<g id="edge3_Node000003_Node000004" class="edge">
<title>Node3&#45;&gt;Node4</title>
<g id="a_edge3_Node000003_Node000004"><a xlink:title=" ">
<path fill="none" stroke="#63b8ff" d="M239.87,-306.33C239.47,-354.32 245.27,-477.84 311,-546.5 314.27,-549.92 318.2,-552.69 322.43,-554.94"/>
<polygon fill="#63b8ff" stroke="#63b8ff" points="243.38,-306.13 240.07,-296.07 236.38,-306 243.38,-306.13"/>
</a>
</g>
</g>
<!-- Node10 -->
<g id="Node000010" class="node">
<title>Node10</title>
<g id="a_Node000010"><a xlink:href="classQskBoundedControl.html" target="_top" xlink:title=" ">
<polygon fill="white" stroke="orangered" points="425,-537 312,-537 312,-518 425,-518 425,-537"/>
<text text-anchor="middle" x="368.5" y="-525" font-family="Helvetica,sans-Serif" font-size="10.00">QskBoundedControl</text>
</a>
</g>
</g>
<!-- Node3&#45;&gt;Node10 -->
<g id="edge4_Node000003_Node000010" class="edge">
<title>Node3&#45;&gt;Node10</title>
<g id="a_edge4_Node000003_Node000010"><a xlink:title=" ">
<path fill="none" stroke="#63b8ff" d="M240.93,-306.11C242.96,-349.07 253.87,-452.24 311,-509.5 314.42,-512.93 318.48,-515.7 322.85,-517.95"/>
<polygon fill="#63b8ff" stroke="#63b8ff" points="244.43,-305.98 240.58,-296.11 237.44,-306.23 244.43,-305.98"/>
</a>
</g>
</g>
<!-- Node19 -->
<g id="Node000019" class="node">
<title>Node19</title>
<g id="a_Node000019"><a xlink:href="classQskBox.html" target="_top" xlink:title=" ">
<polygon fill="white" stroke="orangered" points="395.5,-500 341.5,-500 341.5,-481 395.5,-481 395.5,-500"/>
<text text-anchor="middle" x="368.5" y="-488" font-family="Helvetica,sans-Serif" font-size="10.00">QskBox</text>
</a>
</g>
</g>
<!-- Node3&#45;&gt;Node19 -->
<g id="edge5_Node000003_Node000019" class="edge">
<title>Node3&#45;&gt;Node19</title>
<g id="a_edge5_Node000003_Node000019"><a xlink:title=" ">
<path fill="none" stroke="#63b8ff" d="M242.42,-306.4C247.11,-344.19 262.61,-426.65 311,-472.5 319.22,-480.29 330.81,-484.71 341.35,-487.21"/>
<polygon fill="#63b8ff" stroke="#63b8ff" points="245.86,-305.75 241.28,-296.2 238.91,-306.52 245.86,-305.75"/>
</a>
</g>
</g>
<!-- Node31 -->
<g id="Node000031" class="node">
<title>Node31</title>
<g id="a_Node000031"><a xlink:href="classQskComboBox.html" target="_top" xlink:title=" ">
<polygon fill="white" stroke="#bfbfbf" points="413,-463 324,-463 324,-444 413,-444 413,-463"/>
<text text-anchor="middle" x="368.5" y="-451" font-family="Helvetica,sans-Serif" font-size="10.00">QskComboBox</text>
</a>
</g>
</g>
<!-- Node3&#45;&gt;Node31 -->
<g id="edge6_Node000003_Node000031" class="edge">
<title>Node3&#45;&gt;Node31</title>
<g id="a_edge6_Node000003_Node000031"><a xlink:title=" ">
<path fill="none" stroke="#63b8ff" d="M244.44,-305.94C251.86,-337.64 270.92,-400.44 311,-435.5 314.87,-438.89 319.39,-441.64 324.15,-443.87"/>
<polygon fill="#63b8ff" stroke="#63b8ff" points="247.84,-305.13 242.28,-296.12 241.01,-306.64 247.84,-305.13"/>
</a>
</g>
</g>
<!-- Node32 -->
<g id="Node000032" class="node">
<title>Node32</title>
<g id="a_Node000032"><a xlink:href="classQskFocusIndicator.html" target="_top" xlink:title=" ">
<polygon fill="white" stroke="#bfbfbf" points="421.5,-426 315.5,-426 315.5,-407 421.5,-407 421.5,-426"/>
<text text-anchor="middle" x="368.5" y="-414" font-family="Helvetica,sans-Serif" font-size="10.00">QskFocusIndicator</text>
</a>
</g>
</g>
<!-- Node3&#45;&gt;Node32 -->
<g id="edge7_Node000003_Node000032" class="edge">
<title>Node3&#45;&gt;Node32</title>
<g id="a_edge7_Node000003_Node000032"><a xlink:title=" ">
<path fill="none" stroke="#63b8ff" d="M247.66,-305.65C257.93,-330.59 279.2,-373.89 311,-398.5 315.4,-401.9 320.45,-404.67 325.69,-406.92"/>
<polygon fill="#63b8ff" stroke="#63b8ff" points="250.85,-304.21 243.93,-296.2 244.34,-306.78 250.85,-304.21"/>
</a>
</g>
</g>
<!-- Node33 -->
<g id="Node000033" class="node">
<title>Node33</title>
<g id="a_Node000033"><a xlink:href="classQskGraphicLabel.html" target="_top" xlink:title=" ">
<polygon fill="white" stroke="#bfbfbf" points="418,-389 319,-389 319,-370 418,-370 418,-389"/>
<text text-anchor="middle" x="368.5" y="-377" font-family="Helvetica,sans-Serif" font-size="10.00">QskGraphicLabel</text>
</a>
</g>
</g>
<!-- Node3&#45;&gt;Node33 -->
<g id="edge8_Node000003_Node000033" class="edge">
<title>Node3&#45;&gt;Node33</title>
<g id="a_edge8_Node000003_Node000033"><a xlink:title=" ">
<path fill="none" stroke="#63b8ff" d="M253.14,-304.51C265.92,-321.47 287.15,-346.47 311,-361.5 316.31,-364.85 322.3,-367.62 328.34,-369.91"/>
<polygon fill="#63b8ff" stroke="#63b8ff" points="255.67,-302.04 246.94,-296.03 250.01,-306.17 255.67,-302.04"/>
</a>
</g>
</g>
<!-- Node34 -->
<g id="Node000034" class="node">
<title>Node34</title>
<g id="a_Node000034"><a xlink:href="classQskInputGrabber.html" target="_top" xlink:title=" ">
<polygon fill="white" stroke="#bfbfbf" points="418,-352 319,-352 319,-333 418,-333 418,-352"/>
<text text-anchor="middle" x="368.5" y="-340" font-family="Helvetica,sans-Serif" font-size="10.00">QskInputGrabber</text>
</a>
</g>
</g>
<!-- Node3&#45;&gt;Node34 -->
<g id="edge9_Node000003_Node000034" class="edge">
<title>Node3&#45;&gt;Node34</title>
<g id="a_edge9_Node000003_Node000034"><a xlink:title=" ">
<path fill="none" stroke="#63b8ff" d="M265.29,-301.33C278.56,-308.89 295.34,-317.86 311,-324.5 318.3,-327.6 326.32,-330.46 333.96,-332.95"/>
<polygon fill="#63b8ff" stroke="#63b8ff" points="266.73,-298.12 256.32,-296.13 263.22,-304.17 266.73,-298.12"/>
</a>
</g>
</g>
<!-- Node35 -->
<g id="Node000035" class="node">
<title>Node35</title>
<g id="a_Node000035"><a xlink:href="classQskInputPanel.html" target="_top" xlink:title=" ">
<polygon fill="white" stroke="#bfbfbf" points="411.5,-315 325.5,-315 325.5,-296 411.5,-296 411.5,-315"/>
<text text-anchor="middle" x="368.5" y="-303" font-family="Helvetica,sans-Serif" font-size="10.00">QskInputPanel</text>
</a>
</g>
</g>
<!-- Node3&#45;&gt;Node35 -->
<g id="edge10_Node000003_Node000035" class="edge">
<title>Node3&#45;&gt;Node35</title>
<g id="a_edge10_Node000003_Node000035"><a xlink:title=" ">
<path fill="none" stroke="#63b8ff" d="M285.3,-293.2C298.25,-295.14 312.35,-297.25 325.14,-299.16"/>
<polygon fill="#63b8ff" stroke="#63b8ff" points="285.61,-289.71 275.2,-291.69 284.58,-296.63 285.61,-289.71"/>
</a>
</g>
</g>
<!-- Node36 -->
<g id="Node000036" class="node">
<title>Node36</title>
<g id="a_Node000036"><a xlink:href="classQskPageIndicator.html" target="_top" xlink:title=" ">
<polygon fill="white" stroke="#bfbfbf" points="419,-278 318,-278 318,-259 419,-259 419,-278"/>
<text text-anchor="middle" x="368.5" y="-266" font-family="Helvetica,sans-Serif" font-size="10.00">QskPageIndicator</text>
</a>
</g>
</g>
<!-- Node3&#45;&gt;Node36 -->
<g id="edge11_Node000003_Node000036" class="edge">
<title>Node3&#45;&gt;Node36</title>
<g id="a_edge11_Node000003_Node000036"><a xlink:title=" ">
<path fill="none" stroke="#63b8ff" d="M285.35,-280.14C295.79,-278.66 306.96,-277.08 317.6,-275.57"/>
<polygon fill="#63b8ff" stroke="#63b8ff" points="284.61,-276.71 275.2,-281.58 285.6,-283.64 284.61,-276.71"/>
</a>
</g>
</g>
<!-- Node37 -->
<g id="Node000037" class="node">
<title>Node37</title>
<g id="a_Node000037"><a xlink:href="classQskPopup.html" target="_top" xlink:title=" ">
<polygon fill="white" stroke="orangered" points="401,-241 336,-241 336,-222 401,-222 401,-241"/>
<text text-anchor="middle" x="368.5" y="-229" font-family="Helvetica,sans-Serif" font-size="10.00">QskPopup</text>
</a>
</g>
</g>
<!-- Node3&#45;&gt;Node37 -->
<g id="edge12_Node000003_Node000037" class="edge">
<title>Node3&#45;&gt;Node37</title>
<g id="a_edge12_Node000003_Node000037"><a xlink:title=" ">
<path fill="none" stroke="#63b8ff" d="M265.6,-271.96C278.83,-264.64 295.5,-255.98 311,-249.5 318.88,-246.21 327.59,-243.15 335.77,-240.54"/>
<polygon fill="#63b8ff" stroke="#63b8ff" points="263.64,-269.04 256.63,-276.99 267.06,-275.15 263.64,-269.04"/>
</a>
</g>
</g>
<!-- Node44 -->
<g id="Node000044" class="node">
<title>Node44</title>
<g id="a_Node000044"><a xlink:href="classQskRadioBox.html" target="_top" xlink:title=" ">
<polygon fill="white" stroke="#666666" points="409.5,-204 327.5,-204 327.5,-185 409.5,-185 409.5,-204"/>
<text text-anchor="middle" x="368.5" y="-192" font-family="Helvetica,sans-Serif" font-size="10.00">QskRadioBox</text>
</a>
</g>
</g>
<!-- Node3&#45;&gt;Node44 -->
<g id="edge13_Node000003_Node000044" class="edge">
<title>Node3&#45;&gt;Node44</title>
<g id="a_edge13_Node000003_Node000044"><a xlink:title=" ">
<path fill="none" stroke="#63b8ff" d="M253.39,-268.47C266.23,-251.74 287.39,-227.27 311,-212.5 316.41,-209.11 322.52,-206.31 328.66,-204.01"/>
<polygon fill="#63b8ff" stroke="#63b8ff" points="250.32,-266.74 247.15,-276.85 255.93,-270.92 250.32,-266.74"/>
</a>
</g>
</g>
<!-- Node45 -->
<g id="Node000045" class="node">
<title>Node45</title>
<g id="a_Node000045"><a xlink:href="classQskScrollBox.html" target="_top" xlink:title=" ">
<polygon fill="white" stroke="orangered" points="409,-167 328,-167 328,-148 409,-148 409,-167"/>
<text text-anchor="middle" x="368.5" y="-155" font-family="Helvetica,sans-Serif" font-size="10.00">QskScrollBox</text>
</a>
</g>
</g>
<!-- Node3&#45;&gt;Node45 -->
<g id="edge14_Node000003_Node000045" class="edge">
<title>Node3&#45;&gt;Node45</title>
<g id="a_edge14_Node000003_Node000045"><a xlink:title=" ">
<path fill="none" stroke="#63b8ff" d="M247.7,-267.52C258.03,-242.8 279.36,-199.89 311,-175.5 315.97,-171.67 321.79,-168.64 327.75,-166.25"/>
<polygon fill="#63b8ff" stroke="#63b8ff" points="244.42,-266.31 243.95,-276.89 250.92,-268.91 244.42,-266.31"/>
</a>
</g>
</g>
<!-- Node50 -->
<g id="Node000050" class="node">
<title>Node50</title>
<g id="a_Node000050"><a xlink:href="classQskSegmentedBar.html" target="_top" xlink:title=" ">
<polygon fill="white" stroke="#bfbfbf" points="422,-130 315,-130 315,-111 422,-111 422,-130"/>
<text text-anchor="middle" x="368.5" y="-118" font-family="Helvetica,sans-Serif" font-size="10.00">QskSegmentedBar</text>
</a>
</g>
</g>
<!-- Node3&#45;&gt;Node50 -->
<g id="edge15_Node000003_Node000050" class="edge">
<title>Node3&#45;&gt;Node50</title>
<g id="a_edge15_Node000003_Node000050"><a xlink:title=" ">
<path fill="none" stroke="#63b8ff" d="M244.57,-266.78C252.12,-235.16 271.27,-173.16 311,-138.5 314.96,-135.05 319.58,-132.26 324.44,-130"/>
<polygon fill="#63b8ff" stroke="#63b8ff" points="241.07,-266.42 242.3,-276.95 247.9,-267.95 241.07,-266.42"/>
</a>
</g>
</g>
<!-- Node51 -->
<g id="Node000051" class="node">
<title>Node51</title>
<g id="a_Node000051"><a xlink:href="classQskSeparator.html" target="_top" xlink:title="Separates a group of items from adjacent items.">
<polygon fill="white" stroke="#666666" points="410,-93 327,-93 327,-74 410,-74 410,-93"/>
<text text-anchor="middle" x="368.5" y="-81" font-family="Helvetica,sans-Serif" font-size="10.00">QskSeparator</text>
</a>
</g>
</g>
<!-- Node3&#45;&gt;Node51 -->
<g id="edge16_Node000003_Node000051" class="edge">
<title>Node3&#45;&gt;Node51</title>
<g id="a_edge16_Node000003_Node000051"><a xlink:title=" ">
<path fill="none" stroke="#63b8ff" d="M242.45,-266.7C247.2,-229.11 262.8,-147.09 311,-101.5 315.49,-97.26 320.98,-94.01 326.75,-91.53"/>
<polygon fill="#63b8ff" stroke="#63b8ff" points="238.95,-266.52 241.3,-276.85 245.9,-267.31 238.95,-266.52"/>
</a>
</g>
</g>
<!-- Node52 -->
<g id="Node000052" class="node">
<title>Node52</title>
<g id="a_Node000052"><a xlink:href="classQskStatusIndicator.html" target="_top" xlink:title=" ">
<polygon fill="white" stroke="#bfbfbf" points="423,-56 314,-56 314,-37 423,-37 423,-56"/>
<text text-anchor="middle" x="368.5" y="-44" font-family="Helvetica,sans-Serif" font-size="10.00">QskStatusIndicator</text>
</a>
</g>
</g>
<!-- Node3&#45;&gt;Node52 -->
<g id="edge17_Node000003_Node000052" class="edge">
<title>Node3&#45;&gt;Node52</title>
<g id="a_edge17_Node000003_Node000052"><a xlink:title=" ">
<path fill="none" stroke="#63b8ff" d="M240.98,-266.71C243.1,-223.77 254.19,-121.36 311,-64.5 314.42,-61.08 318.49,-58.3 322.85,-56.06"/>
<polygon fill="#63b8ff" stroke="#63b8ff" points="237.47,-266.81 240.59,-276.94 244.47,-267.07 237.47,-266.81"/>
</a>
</g>
</g>
<!-- Node53 -->
<g id="Node000053" class="node">
<title>Node53</title>
<g id="a_Node000053"><a xlink:href="classQskSubWindowArea.html" target="_top" xlink:title=" ">
<polygon fill="white" stroke="#bfbfbf" points="426,-19 311,-19 311,0 426,0 426,-19"/>
<text text-anchor="middle" x="368.5" y="-7" font-family="Helvetica,sans-Serif" font-size="10.00">QskSubWindowArea</text>
</a>
</g>
</g>
<!-- Node3&#45;&gt;Node53 -->
<g id="edge18_Node000003_Node000053" class="edge">
<title>Node3&#45;&gt;Node53</title>
<g id="a_edge18_Node000003_Node000053"><a xlink:title=" ">
<path fill="none" stroke="#63b8ff" d="M239.9,-266.75C239.55,-218.93 245.47,-95.89 311,-27.5 314.28,-24.08 318.2,-21.31 322.43,-19.06"/>
<polygon fill="#63b8ff" stroke="#63b8ff" points="236.4,-267.03 240.08,-276.97 243.4,-266.91 236.4,-267.03"/>
</a>
</g>
</g>
</g>
</svg>
