<?xml version="1.0" encoding="UTF-8" standalone="no"?>
<!DOCTYPE svg PUBLIC "-//W3C//DTD SVG 1.1//EN"
 "http://www.w3.org/Graphics/SVG/1.1/DTD/svg11.dtd">
<!-- Generated by graphviz version 2.43.0 (0)
 -->
<!-- Title: QskLayoutEngine2D Pages: 1 -->
<svg width="451pt" height="82pt"
 viewBox="0.00 0.00 450.50 82.00" xmlns="http://www.w3.org/2000/svg" xmlns:xlink="http://www.w3.org/1999/xlink">
<g id="graph0" class="graph" transform="scale(1 1) rotate(0) translate(4 78)">
<title>QskLayoutEngine2D</title>
<!-- Node1 -->
<g id="Node000001" class="node">
<title>Node1</title>
<g id="a_Node000001"><a xlink:title=" ">
<polygon fill="#999999" stroke="#666666" points="263.5,-74 148.5,-74 148.5,-55 263.5,-55 263.5,-74"/>
<text text-anchor="middle" x="206" y="-62" font-family="Helvetica,sans-Serif" font-size="10.00">QskLayoutEngine2D</text>
</a>
</g>
</g>
<!-- Node2 -->
<g id="Node000002" class="node">
<title>Node2</title>
<g id="a_Node000002"><a xlink:href="classQskGridLayoutEngine.html" target="_top" xlink:title=" ">
<polygon fill="white" stroke="#bfbfbf" points="122,-19 0,-19 0,0 122,0 122,-19"/>
<text text-anchor="middle" x="61" y="-7" font-family="Helvetica,sans-Serif" font-size="10.00">QskGridLayoutEngine</text>
</a>
</g>
</g>
<!-- Node1&#45;&gt;Node2 -->
<g id="edge1_Node000001_Node000002" class="edge">
<title>Node1&#45;&gt;Node2</title>
<g id="a_edge1_Node000001_Node000002"><a xlink:title=" ">
<path fill="none" stroke="#63b8ff" d="M173.31,-51.55C146.38,-41.71 108.84,-27.98 84.72,-19.17"/>
<polygon fill="#63b8ff" stroke="#63b8ff" points="172.11,-54.84 182.7,-54.98 174.51,-48.26 172.11,-54.84"/>
</a>
</g>
</g>
<!-- Node3 -->
<g id="Node000003" class="node">
<title>Node3</title>
<g id="a_Node000003"><a xlink:href="classQskLinearLayoutEngine.html" target="_top" xlink:title=" ">
<polygon fill="white" stroke="#bfbfbf" points="271.5,-19 140.5,-19 140.5,0 271.5,0 271.5,-19"/>
<text text-anchor="middle" x="206" y="-7" font-family="Helvetica,sans-Serif" font-size="10.00">QskLinearLayoutEngine</text>
</a>
</g>
</g>
<!-- Node1&#45;&gt;Node3 -->
<g id="edge2_Node000001_Node000003" class="edge">
<title>Node1&#45;&gt;Node3</title>
<g id="a_edge2_Node000001_Node000003"><a xlink:title=" ">
<path fill="none" stroke="#63b8ff" d="M206,-44.66C206,-35.93 206,-25.99 206,-19.09"/>
<polygon fill="#63b8ff" stroke="#63b8ff" points="202.5,-44.75 206,-54.75 209.5,-44.75 202.5,-44.75"/>
</a>
</g>
</g>
<!-- Node4 -->
<g id="Node000004" class="node">
<title>Node4</title>
<g id="a_Node000004"><a xlink:href="classQskSubcontrolLayoutEngine.html" target="_top" xlink:title=" ">
<polygon fill="white" stroke="#bfbfbf" points="442.5,-19 289.5,-19 289.5,0 442.5,0 442.5,-19"/>
<text text-anchor="middle" x="366" y="-7" font-family="Helvetica,sans-Serif" font-size="10.00">QskSubcontrolLayoutEngine</text>
</a>
</g>
</g>
<!-- Node1&#45;&gt;Node4 -->
<g id="edge3_Node000001_Node000004" class="edge">
<title>Node1&#45;&gt;Node4</title>
<g id="a_edge3_Node000001_Node000004"><a xlink:title=" ">
<path fill="none" stroke="#63b8ff" d="M241.33,-51.8C271.19,-41.91 313.27,-27.97 340.09,-19.08"/>
<polygon fill="#63b8ff" stroke="#63b8ff" points="240.1,-48.52 231.71,-54.98 242.3,-55.16 240.1,-48.52"/>
</a>
</g>
</g>
</g>
</svg>
