<?xml version="1.0" encoding="UTF-8" standalone="no"?>
<!DOCTYPE svg PUBLIC "-//W3C//DTD SVG 1.1//EN"
 "http://www.w3.org/Graphics/SVG/1.1/DTD/svg11.dtd">
<!-- Generated by graphviz version 2.43.0 (0)
 -->
<!-- Title: QskPopup Pages: 1 -->
<svg width="370pt" height="357pt"
 viewBox="0.00 0.00 370.00 357.00" xmlns="http://www.w3.org/2000/svg" xmlns:xlink="http://www.w3.org/1999/xlink">
<g id="graph0" class="graph" transform="scale(1 1) rotate(0) translate(4 353)">
<title>QskPopup</title>
<!-- Node1 -->
<g id="Node000001" class="node">
<title>Node1</title>
<g id="a_Node000001"><a xlink:title=" ">
<polygon fill="#999999" stroke="#666666" points="153,-184 88,-184 88,-165 153,-165 153,-184"/>
<text text-anchor="middle" x="120.5" y="-172" font-family="Helvetica,sans-Serif" font-size="10.00">QskPopup</text>
</a>
</g>
</g>
<!-- Node6 -->
<g id="Node000006" class="node">
<title>Node6</title>
<g id="a_Node000006"><a xlink:href="classQskDrawer.html" target="_top" xlink:title=" ">
<polygon fill="white" stroke="#666666" points="71,-129 0,-129 0,-110 71,-110 71,-129"/>
<text text-anchor="middle" x="35.5" y="-117" font-family="Helvetica,sans-Serif" font-size="10.00">QskDrawer</text>
</a>
</g>
</g>
<!-- Node1&#45;&gt;Node6 -->
<g id="edge5_Node000001_Node000006" class="edge">
<title>Node1&#45;&gt;Node6</title>
<g id="a_edge5_Node000001_Node000006"><a xlink:title=" ">
<path fill="none" stroke="#63b8ff" d="M97.93,-159.42C82.5,-149.81 62.55,-137.37 49.41,-129.17"/>
<polygon fill="#63b8ff" stroke="#63b8ff" points="96.51,-162.66 106.84,-164.98 100.21,-156.72 96.51,-162.66"/>
</a>
</g>
</g>
<!-- Node7 -->
<g id="Node000007" class="node">
<title>Node7</title>
<g id="a_Node000007"><a xlink:href="classQskMenu.html" target="_top" xlink:title=" ">
<polygon fill="white" stroke="#bfbfbf" points="151.5,-129 89.5,-129 89.5,-110 151.5,-110 151.5,-129"/>
<text text-anchor="middle" x="120.5" y="-117" font-family="Helvetica,sans-Serif" font-size="10.00">QskMenu</text>
</a>
</g>
</g>
<!-- Node1&#45;&gt;Node7 -->
<g id="edge6_Node000001_Node000007" class="edge">
<title>Node1&#45;&gt;Node7</title>
<g id="a_edge6_Node000001_Node000007"><a xlink:title=" ">
<path fill="none" stroke="#63b8ff" d="M120.5,-154.66C120.5,-145.93 120.5,-135.99 120.5,-129.09"/>
<polygon fill="#63b8ff" stroke="#63b8ff" points="117,-154.75 120.5,-164.75 124,-154.75 117,-154.75"/>
</a>
</g>
</g>
<!-- Node8 -->
<g id="Node000008" class="node">
<title>Node8</title>
<g id="a_Node000008"><a xlink:href="classQskSubWindow.html" target="_top" xlink:title=" ">
<polygon fill="white" stroke="#bfbfbf" points="261.5,-129 169.5,-129 169.5,-110 261.5,-110 261.5,-129"/>
<text text-anchor="middle" x="215.5" y="-117" font-family="Helvetica,sans-Serif" font-size="10.00">QskSubWindow</text>
</a>
</g>
</g>
<!-- Node1&#45;&gt;Node8 -->
<g id="edge7_Node000001_Node000008" class="edge">
<title>Node1&#45;&gt;Node8</title>
<g id="a_edge7_Node000001_Node000008"><a xlink:title=" ">
<path fill="none" stroke="#63b8ff" d="M144.76,-159.97C162.13,-150.28 184.99,-137.52 199.96,-129.17"/>
<polygon fill="#63b8ff" stroke="#63b8ff" points="142.79,-157.06 135.76,-164.98 146.2,-163.17 142.79,-157.06"/>
</a>
</g>
</g>
<!-- Node2 -->
<g id="Node000002" class="node">
<title>Node2</title>
<g id="a_Node000002"><a xlink:href="classQskControl.html" target="_top" xlink:title="Base class of all controls.">
<polygon fill="white" stroke="#666666" points="156,-239 85,-239 85,-220 156,-220 156,-239"/>
<text text-anchor="middle" x="120.5" y="-227" font-family="Helvetica,sans-Serif" font-size="10.00">QskControl</text>
</a>
</g>
</g>
<!-- Node2&#45;&gt;Node1 -->
<g id="edge1_Node000001_Node000002" class="edge">
<title>Node2&#45;&gt;Node1</title>
<g id="a_edge1_Node000001_Node000002"><a xlink:title=" ">
<path fill="none" stroke="#63b8ff" d="M120.5,-209.66C120.5,-200.93 120.5,-190.99 120.5,-184.09"/>
<polygon fill="#63b8ff" stroke="#63b8ff" points="117,-209.75 120.5,-219.75 124,-209.75 117,-209.75"/>
</a>
</g>
</g>
<!-- Node3 -->
<g id="Node000003" class="node">
<title>Node3</title>
<g id="a_Node000003"><a xlink:href="classQskItem.html" target="_top" xlink:title=" ">
<polygon fill="white" stroke="#666666" points="105.5,-294 47.5,-294 47.5,-275 105.5,-275 105.5,-294"/>
<text text-anchor="middle" x="76.5" y="-282" font-family="Helvetica,sans-Serif" font-size="10.00">QskItem</text>
</a>
</g>
</g>
<!-- Node3&#45;&gt;Node2 -->
<g id="edge2_Node000002_Node000003" class="edge">
<title>Node3&#45;&gt;Node2</title>
<g id="a_edge2_Node000002_Node000003"><a xlink:title=" ">
<path fill="none" stroke="#63b8ff" d="M90.23,-266.96C97.9,-257.72 107.13,-246.6 113.37,-239.09"/>
<polygon fill="#63b8ff" stroke="#63b8ff" points="87.46,-264.82 83.77,-274.75 92.85,-269.29 87.46,-264.82"/>
</a>
</g>
</g>
<!-- Node4 -->
<g id="Node000004" class="node">
<title>Node4</title>
<g id="a_Node000004"><a xlink:title=" ">
<polygon fill="white" stroke="#bfbfbf" points="113.5,-349 39.5,-349 39.5,-330 113.5,-330 113.5,-349"/>
<text text-anchor="middle" x="76.5" y="-337" font-family="Helvetica,sans-Serif" font-size="10.00">QQuickItem</text>
</a>
</g>
</g>
<!-- Node4&#45;&gt;Node3 -->
<g id="edge3_Node000003_Node000004" class="edge">
<title>Node4&#45;&gt;Node3</title>
<g id="a_edge3_Node000003_Node000004"><a xlink:title=" ">
<path fill="none" stroke="#63b8ff" d="M76.5,-319.66C76.5,-310.93 76.5,-300.99 76.5,-294.09"/>
<polygon fill="#63b8ff" stroke="#63b8ff" points="73,-319.75 76.5,-329.75 80,-319.75 73,-319.75"/>
</a>
</g>
</g>
<!-- Node5 -->
<g id="Node000005" class="node">
<title>Node5</title>
<g id="a_Node000005"><a xlink:href="classQskSkinnable.html" target="_top" xlink:title=" ">
<polygon fill="white" stroke="#666666" points="207,-294 124,-294 124,-275 207,-275 207,-294"/>
<text text-anchor="middle" x="165.5" y="-282" font-family="Helvetica,sans-Serif" font-size="10.00">QskSkinnable</text>
</a>
</g>
</g>
<!-- Node5&#45;&gt;Node2 -->
<g id="edge4_Node000002_Node000005" class="edge">
<title>Node5&#45;&gt;Node2</title>
<g id="a_edge4_Node000002_Node000005"><a xlink:title=" ">
<path fill="none" stroke="#63b8ff" d="M151.45,-266.96C143.61,-257.72 134.17,-246.6 127.79,-239.09"/>
<polygon fill="#63b8ff" stroke="#63b8ff" points="148.93,-269.39 158.07,-274.75 154.26,-264.86 148.93,-269.39"/>
</a>
</g>
</g>
<!-- Node9 -->
<g id="Node000009" class="node">
<title>Node9</title>
<g id="a_Node000009"><a xlink:href="classQskDialogSubWindow.html" target="_top" xlink:title=" ">
<polygon fill="white" stroke="#bfbfbf" points="277.5,-74 153.5,-74 153.5,-55 277.5,-55 277.5,-74"/>
<text text-anchor="middle" x="215.5" y="-62" font-family="Helvetica,sans-Serif" font-size="10.00">QskDialogSubWindow</text>
</a>
</g>
</g>
<!-- Node8&#45;&gt;Node9 -->
<g id="edge8_Node000008_Node000009" class="edge">
<title>Node8&#45;&gt;Node9</title>
<g id="a_edge8_Node000008_Node000009"><a xlink:title=" ">
<path fill="none" stroke="#63b8ff" d="M215.5,-99.66C215.5,-90.93 215.5,-80.99 215.5,-74.09"/>
<polygon fill="#63b8ff" stroke="#63b8ff" points="212,-99.75 215.5,-109.75 219,-99.75 212,-99.75"/>
</a>
</g>
</g>
<!-- Node10 -->
<g id="Node000010" class="node">
<title>Node10</title>
<g id="a_Node000010"><a xlink:href="classQskMessageSubWindow.html" target="_top" xlink:title=" ">
<polygon fill="white" stroke="#bfbfbf" points="206.5,-19 70.5,-19 70.5,0 206.5,0 206.5,-19"/>
<text text-anchor="middle" x="138.5" y="-7" font-family="Helvetica,sans-Serif" font-size="10.00">QskMessageSubWindow</text>
</a>
</g>
</g>
<!-- Node9&#45;&gt;Node10 -->
<g id="edge9_Node000009_Node000010" class="edge">
<title>Node9&#45;&gt;Node10</title>
<g id="a_edge9_Node000009_Node000010"><a xlink:title=" ">
<path fill="none" stroke="#63b8ff" d="M194.65,-49.15C180.74,-39.57 162.89,-27.29 151.1,-19.17"/>
<polygon fill="#63b8ff" stroke="#63b8ff" points="192.91,-52.2 203.13,-54.98 196.88,-46.43 192.91,-52.2"/>
</a>
</g>
</g>
<!-- Node11 -->
<g id="Node000011" class="node">
<title>Node11</title>
<g id="a_Node000011"><a xlink:href="classQskSelectionSubWindow.html" target="_top" xlink:title=" ">
<polygon fill="white" stroke="#bfbfbf" points="362,-19 225,-19 225,0 362,0 362,-19"/>
<text text-anchor="middle" x="293.5" y="-7" font-family="Helvetica,sans-Serif" font-size="10.00">QskSelectionSubWindow</text>
</a>
</g>
</g>
<!-- Node9&#45;&gt;Node11 -->
<g id="edge10_Node000009_Node000011" class="edge">
<title>Node9&#45;&gt;Node11</title>
<g id="a_edge10_Node000009_Node000011"><a xlink:title=" ">
<path fill="none" stroke="#63b8ff" d="M236.62,-49.15C250.71,-39.57 268.79,-27.29 280.74,-19.17"/>
<polygon fill="#63b8ff" stroke="#63b8ff" points="234.34,-46.47 228.03,-54.98 238.27,-52.26 234.34,-46.47"/>
</a>
</g>
</g>
</g>
</svg>
