<?xml version="1.0" encoding="UTF-8" standalone="no"?>
<!DOCTYPE svg PUBLIC "-//W3C//DTD SVG 1.1//EN"
 "http://www.w3.org/Graphics/SVG/1.1/DTD/svg11.dtd">
<!-- Generated by graphviz version 2.43.0 (0)
 -->
<!-- Title: QskItem Pages: 1 -->
<svg width="440pt" height="582pt"
 viewBox="0.00 0.00 440.00 582.00" xmlns="http://www.w3.org/2000/svg" xmlns:xlink="http://www.w3.org/1999/xlink">
<g id="graph0" class="graph" transform="scale(1 1) rotate(0) translate(4 578)">
<title>QskItem</title>
<!-- Node1 -->
<g id="Node000001" class="node">
<title>Node1</title>
<g id="a_Node000001"><a xlink:title=" ">
<polygon fill="#999999" stroke="#666666" points="168,-296 110,-296 110,-277 168,-277 168,-296"/>
<text text-anchor="middle" x="139" y="-284" font-family="Helvetica,sans-Serif" font-size="10.00">QskItem</text>
</a>
</g>
</g>
<!-- Node3 -->
<g id="Node000003" class="node">
<title>Node3</title>
<g id="a_Node000003"><a xlink:href="classQskControl.html" target="_top" xlink:title="Base class of all controls.">
<polygon fill="#fff0f0" stroke="red" points="275,-296 204,-296 204,-277 275,-277 275,-296"/>
<text text-anchor="middle" x="239.5" y="-284" font-family="Helvetica,sans-Serif" font-size="10.00">QskControl</text>
</a>
</g>
</g>
<!-- Node1&#45;&gt;Node3 -->
<g id="edge2_Node000001_Node000003" class="edge">
<title>Node1&#45;&gt;Node3</title>
<g id="a_edge2_Node000001_Node000003"><a xlink:title=" ">
<path fill="none" stroke="#63b8ff" d="M178.26,-286.5C186.73,-286.5 195.66,-286.5 203.97,-286.5"/>
<polygon fill="#63b8ff" stroke="#63b8ff" points="178.23,-283 168.23,-286.5 178.23,-290 178.23,-283"/>
</a>
</g>
</g>
<!-- Node2 -->
<g id="Node000002" class="node">
<title>Node2</title>
<g id="a_Node000002"><a xlink:title=" ">
<polygon fill="white" stroke="#bfbfbf" points="74,-296 0,-296 0,-277 74,-277 74,-296"/>
<text text-anchor="middle" x="37" y="-284" font-family="Helvetica,sans-Serif" font-size="10.00">QQuickItem</text>
</a>
</g>
</g>
<!-- Node2&#45;&gt;Node1 -->
<g id="edge1_Node000001_Node000002" class="edge">
<title>Node2&#45;&gt;Node1</title>
<g id="a_edge1_Node000001_Node000002"><a xlink:title=" ">
<path fill="none" stroke="#63b8ff" d="M84.21,-286.5C92.94,-286.5 101.83,-286.5 109.8,-286.5"/>
<polygon fill="#63b8ff" stroke="#63b8ff" points="84.1,-283 74.1,-286.5 84.1,-290 84.1,-283"/>
</a>
</g>
</g>
<!-- Node4 -->
<g id="Node000004" class="node">
<title>Node4</title>
<g id="a_Node000004"><a xlink:href="classQskAbstractButton.html" target="_top" xlink:title=" ">
<polygon fill="white" stroke="orangered" points="425.5,-574 317.5,-574 317.5,-555 425.5,-555 425.5,-574"/>
<text text-anchor="middle" x="371.5" y="-562" font-family="Helvetica,sans-Serif" font-size="10.00">QskAbstractButton</text>
</a>
</g>
</g>
<!-- Node3&#45;&gt;Node4 -->
<g id="edge3_Node000003_Node000004" class="edge">
<title>Node3&#45;&gt;Node4</title>
<g id="a_edge3_Node000003_Node000004"><a xlink:title=" ">
<path fill="none" stroke="#63b8ff" d="M239.81,-306.39C239.26,-354.52 244.77,-478.32 311,-546.5 314.31,-549.91 318.24,-552.67 322.48,-554.92"/>
<polygon fill="#63b8ff" stroke="#63b8ff" points="243.32,-306.18 240.04,-296.1 236.32,-306.02 243.32,-306.18"/>
</a>
</g>
</g>
<!-- Node10 -->
<g id="Node000010" class="node">
<title>Node10</title>
<g id="a_Node000010"><a xlink:href="classQskAbstractTextInput.html" target="_top" xlink:title=" ">
<polygon fill="white" stroke="orangered" points="432,-537 311,-537 311,-518 432,-518 432,-537"/>
<text text-anchor="middle" x="371.5" y="-525" font-family="Helvetica,sans-Serif" font-size="10.00">QskAbstractTextInput</text>
</a>
</g>
</g>
<!-- Node3&#45;&gt;Node10 -->
<g id="edge4_Node000003_Node000010" class="edge">
<title>Node3&#45;&gt;Node10</title>
<g id="a_edge4_Node000003_Node000010"><a xlink:title=" ">
<path fill="none" stroke="#63b8ff" d="M240.87,-306.17C242.78,-349.26 253.45,-452.66 311,-509.5 314.46,-512.91 318.53,-515.68 322.91,-517.93"/>
<polygon fill="#63b8ff" stroke="#63b8ff" points="244.37,-306.02 240.55,-296.14 237.37,-306.25 244.37,-306.02"/>
</a>
</g>
</g>
<!-- Node15 -->
<g id="Node000015" class="node">
<title>Node15</title>
<g id="a_Node000015"><a xlink:href="classQskBoundedControl.html" target="_top" xlink:title=" ">
<polygon fill="white" stroke="orangered" points="428,-500 315,-500 315,-481 428,-481 428,-500"/>
<text text-anchor="middle" x="371.5" y="-488" font-family="Helvetica,sans-Serif" font-size="10.00">QskBoundedControl</text>
</a>
</g>
</g>
<!-- Node3&#45;&gt;Node15 -->
<g id="edge5_Node000003_Node000015" class="edge">
<title>Node3&#45;&gt;Node15</title>
<g id="a_edge5_Node000003_Node000015"><a xlink:title=" ">
<path fill="none" stroke="#63b8ff" d="M242.35,-306.47C246.95,-344.37 262.28,-427.01 311,-472.5 314.63,-475.89 318.87,-478.64 323.4,-480.87"/>
<polygon fill="#63b8ff" stroke="#63b8ff" points="245.8,-305.8 241.25,-296.23 238.84,-306.55 245.8,-305.8"/>
</a>
</g>
</g>
<!-- Node24 -->
<g id="Node000024" class="node">
<title>Node24</title>
<g id="a_Node000024"><a xlink:href="classQskBox.html" target="_top" xlink:title=" ">
<polygon fill="white" stroke="orangered" points="398.5,-463 344.5,-463 344.5,-444 398.5,-444 398.5,-463"/>
<text text-anchor="middle" x="371.5" y="-451" font-family="Helvetica,sans-Serif" font-size="10.00">QskBox</text>
</a>
</g>
</g>
<!-- Node3&#45;&gt;Node24 -->
<g id="edge6_Node000003_Node000024" class="edge">
<title>Node3&#45;&gt;Node24</title>
<g id="a_edge6_Node000003_Node000024"><a xlink:title=" ">
<path fill="none" stroke="#63b8ff" d="M244.38,-306C251.72,-337.8 270.67,-400.74 311,-435.5 320.32,-443.53 333.14,-447.98 344.49,-450.44"/>
<polygon fill="#63b8ff" stroke="#63b8ff" points="247.78,-305.19 242.25,-296.15 240.94,-306.67 247.78,-305.19"/>
</a>
</g>
</g>
<!-- Node36 -->
<g id="Node000036" class="node">
<title>Node36</title>
<g id="a_Node000036"><a xlink:href="classQskComboBox.html" target="_top" xlink:title=" ">
<polygon fill="white" stroke="#666666" points="416,-426 327,-426 327,-407 416,-407 416,-426"/>
<text text-anchor="middle" x="371.5" y="-414" font-family="Helvetica,sans-Serif" font-size="10.00">QskComboBox</text>
</a>
</g>
</g>
<!-- Node3&#45;&gt;Node36 -->
<g id="edge7_Node000003_Node000036" class="edge">
<title>Node3&#45;&gt;Node36</title>
<g id="a_edge7_Node000003_Node000036"><a xlink:title=" ">
<path fill="none" stroke="#63b8ff" d="M247.6,-305.72C257.82,-330.74 279.02,-374.12 311,-398.5 315.72,-402.1 321.16,-404.98 326.79,-407.29"/>
<polygon fill="#63b8ff" stroke="#63b8ff" points="250.8,-304.28 243.9,-296.23 244.28,-306.82 250.8,-304.28"/>
</a>
</g>
</g>
<!-- Node37 -->
<g id="Node000037" class="node">
<title>Node37</title>
<g id="a_Node000037"><a xlink:href="classQskFocusIndicator.html" target="_top" xlink:title=" ">
<polygon fill="white" stroke="#bfbfbf" points="424.5,-389 318.5,-389 318.5,-370 424.5,-370 424.5,-389"/>
<text text-anchor="middle" x="371.5" y="-377" font-family="Helvetica,sans-Serif" font-size="10.00">QskFocusIndicator</text>
</a>
</g>
</g>
<!-- Node3&#45;&gt;Node37 -->
<g id="edge8_Node000003_Node000037" class="edge">
<title>Node3&#45;&gt;Node37</title>
<g id="a_edge8_Node000003_Node000037"><a xlink:title=" ">
<path fill="none" stroke="#63b8ff" d="M253.09,-304.59C265.83,-321.61 287.04,-346.64 311,-361.5 316.41,-364.86 322.49,-367.62 328.64,-369.89"/>
<polygon fill="#63b8ff" stroke="#63b8ff" points="255.62,-302.11 246.91,-296.07 249.95,-306.22 255.62,-302.11"/>
</a>
</g>
</g>
<!-- Node38 -->
<g id="Node000038" class="node">
<title>Node38</title>
<g id="a_Node000038"><a xlink:href="classQskGraphicLabel.html" target="_top" xlink:title=" ">
<polygon fill="white" stroke="#bfbfbf" points="421,-352 322,-352 322,-333 421,-333 421,-352"/>
<text text-anchor="middle" x="371.5" y="-340" font-family="Helvetica,sans-Serif" font-size="10.00">QskGraphicLabel</text>
</a>
</g>
</g>
<!-- Node3&#45;&gt;Node38 -->
<g id="edge9_Node000003_Node000038" class="edge">
<title>Node3&#45;&gt;Node38</title>
<g id="a_edge9_Node000003_Node000038"><a xlink:title=" ">
<path fill="none" stroke="#63b8ff" d="M264.99,-301.27C278.28,-308.89 295.19,-317.93 311,-324.5 318.57,-327.65 326.89,-330.51 334.85,-332.99"/>
<polygon fill="#63b8ff" stroke="#63b8ff" points="266.42,-298.05 256.01,-296.04 262.89,-304.1 266.42,-298.05"/>
</a>
</g>
</g>
<!-- Node39 -->
<g id="Node000039" class="node">
<title>Node39</title>
<g id="a_Node000039"><a xlink:href="classQskInputGrabber.html" target="_top" xlink:title=" ">
<polygon fill="white" stroke="#bfbfbf" points="421,-315 322,-315 322,-296 421,-296 421,-315"/>
<text text-anchor="middle" x="371.5" y="-303" font-family="Helvetica,sans-Serif" font-size="10.00">QskInputGrabber</text>
</a>
</g>
</g>
<!-- Node3&#45;&gt;Node39 -->
<g id="edge10_Node000003_Node000039" class="edge">
<title>Node3&#45;&gt;Node39</title>
<g id="a_edge10_Node000003_Node000039"><a xlink:title=" ">
<path fill="none" stroke="#63b8ff" d="M285.39,-293.06C297.17,-294.78 309.92,-296.65 321.88,-298.39"/>
<polygon fill="#63b8ff" stroke="#63b8ff" points="285.74,-289.57 275.34,-291.59 284.73,-296.5 285.74,-289.57"/>
</a>
</g>
</g>
<!-- Node40 -->
<g id="Node000040" class="node">
<title>Node40</title>
<g id="a_Node000040"><a xlink:href="classQskInputPanel.html" target="_top" xlink:title=" ">
<polygon fill="white" stroke="#bfbfbf" points="414.5,-278 328.5,-278 328.5,-259 414.5,-259 414.5,-278"/>
<text text-anchor="middle" x="371.5" y="-266" font-family="Helvetica,sans-Serif" font-size="10.00">QskInputPanel</text>
</a>
</g>
</g>
<!-- Node3&#45;&gt;Node40 -->
<g id="edge11_Node000003_Node000040" class="edge">
<title>Node3&#45;&gt;Node40</title>
<g id="a_edge11_Node000003_Node000040"><a xlink:title=" ">
<path fill="none" stroke="#63b8ff" d="M285.59,-280.26C299.4,-278.35 314.53,-276.25 328.15,-274.36"/>
<polygon fill="#63b8ff" stroke="#63b8ff" points="284.76,-276.84 275.34,-281.68 285.72,-283.77 284.76,-276.84"/>
</a>
</g>
</g>
<!-- Node41 -->
<g id="Node000041" class="node">
<title>Node41</title>
<g id="a_Node000041"><a xlink:href="classQskPageIndicator.html" target="_top" xlink:title=" ">
<polygon fill="white" stroke="#666666" points="422,-241 321,-241 321,-222 422,-222 422,-241"/>
<text text-anchor="middle" x="371.5" y="-229" font-family="Helvetica,sans-Serif" font-size="10.00">QskPageIndicator</text>
</a>
</g>
</g>
<!-- Node3&#45;&gt;Node41 -->
<g id="edge12_Node000003_Node000041" class="edge">
<title>Node3&#45;&gt;Node41</title>
<g id="a_edge12_Node000003_Node000041"><a xlink:title=" ">
<path fill="none" stroke="#63b8ff" d="M265.56,-271.86C278.79,-264.52 295.46,-255.86 311,-249.5 318.59,-246.39 326.92,-243.54 334.88,-241.07"/>
<polygon fill="#63b8ff" stroke="#63b8ff" points="263.59,-268.96 256.6,-276.92 267.03,-275.05 263.59,-268.96"/>
</a>
</g>
</g>
<!-- Node42 -->
<g id="Node000042" class="node">
<title>Node42</title>
<g id="a_Node000042"><a xlink:href="classQskPopup.html" target="_top" xlink:title=" ">
<polygon fill="white" stroke="orangered" points="404,-204 339,-204 339,-185 404,-185 404,-204"/>
<text text-anchor="middle" x="371.5" y="-192" font-family="Helvetica,sans-Serif" font-size="10.00">QskPopup</text>
</a>
</g>
</g>
<!-- Node3&#45;&gt;Node42 -->
<g id="edge13_Node000003_Node000042" class="edge">
<title>Node3&#45;&gt;Node42</title>
<g id="a_edge13_Node000003_Node000042"><a xlink:title=" ">
<path fill="none" stroke="#63b8ff" d="M253.35,-268.39C266.15,-251.61 287.28,-227.1 311,-212.5 319.46,-207.3 329.52,-203.51 338.94,-200.79"/>
<polygon fill="#63b8ff" stroke="#63b8ff" points="250.25,-266.68 247.13,-276.81 255.88,-270.85 250.25,-266.68"/>
</a>
</g>
</g>
<!-- Node49 -->
<g id="Node000049" class="node">
<title>Node49</title>
<g id="a_Node000049"><a xlink:href="classQskRadioBox.html" target="_top" xlink:title=" ">
<polygon fill="white" stroke="#666666" points="412.5,-167 330.5,-167 330.5,-148 412.5,-148 412.5,-167"/>
<text text-anchor="middle" x="371.5" y="-155" font-family="Helvetica,sans-Serif" font-size="10.00">QskRadioBox</text>
</a>
</g>
</g>
<!-- Node3&#45;&gt;Node49 -->
<g id="edge14_Node000003_Node000049" class="edge">
<title>Node3&#45;&gt;Node49</title>
<g id="a_edge14_Node000003_Node000049"><a xlink:title=" ">
<path fill="none" stroke="#63b8ff" d="M247.65,-267.45C257.92,-242.66 279.18,-199.66 311,-175.5 316.67,-171.19 323.38,-167.91 330.2,-165.41"/>
<polygon fill="#63b8ff" stroke="#63b8ff" points="244.35,-266.27 243.92,-276.85 250.86,-268.85 244.35,-266.27"/>
</a>
</g>
</g>
<!-- Node50 -->
<g id="Node000050" class="node">
<title>Node50</title>
<g id="a_Node000050"><a xlink:href="classQskScrollBox.html" target="_top" xlink:title=" ">
<polygon fill="white" stroke="orangered" points="412,-130 331,-130 331,-111 412,-111 412,-130"/>
<text text-anchor="middle" x="371.5" y="-118" font-family="Helvetica,sans-Serif" font-size="10.00">QskScrollBox</text>
</a>
</g>
</g>
<!-- Node3&#45;&gt;Node50 -->
<g id="edge15_Node000003_Node000050" class="edge">
<title>Node3&#45;&gt;Node50</title>
<g id="a_edge15_Node000003_Node000050"><a xlink:title=" ">
<path fill="none" stroke="#63b8ff" d="M244.42,-267.13C251.82,-235.54 270.84,-173.02 311,-138.5 316.73,-133.58 323.77,-130 330.99,-127.4"/>
<polygon fill="#63b8ff" stroke="#63b8ff" points="241,-266.39 242.27,-276.91 247.83,-267.89 241,-266.39"/>
</a>
</g>
</g>
<!-- Node55 -->
<g id="Node000055" class="node">
<title>Node55</title>
<g id="a_Node000055"><a xlink:href="classQskSegmentedBar.html" target="_top" xlink:title=" ">
<polygon fill="white" stroke="#666666" points="425,-93 318,-93 318,-74 425,-74 425,-93"/>
<text text-anchor="middle" x="371.5" y="-81" font-family="Helvetica,sans-Serif" font-size="10.00">QskSegmentedBar</text>
</a>
</g>
</g>
<!-- Node3&#45;&gt;Node55 -->
<g id="edge16_Node000003_Node000055" class="edge">
<title>Node3&#45;&gt;Node55</title>
<g id="a_edge16_Node000003_Node000055"><a xlink:title=" ">
<path fill="none" stroke="#63b8ff" d="M242.39,-266.64C247.04,-228.94 262.47,-146.74 311,-101.5 314.63,-98.12 318.88,-95.37 323.4,-93.13"/>
<polygon fill="#63b8ff" stroke="#63b8ff" points="238.88,-266.5 241.27,-276.82 245.84,-267.26 238.88,-266.5"/>
</a>
</g>
</g>
<!-- Node56 -->
<g id="Node000056" class="node">
<title>Node56</title>
<g id="a_Node000056"><a xlink:href="classQskSeparator.html" target="_top" xlink:title="Separates a group of items from adjacent items.">
<polygon fill="white" stroke="#666666" points="413,-56 330,-56 330,-37 413,-37 413,-56"/>
<text text-anchor="middle" x="371.5" y="-44" font-family="Helvetica,sans-Serif" font-size="10.00">QskSeparator</text>
</a>
</g>
</g>
<!-- Node3&#45;&gt;Node56 -->
<g id="edge17_Node000003_Node000056" class="edge">
<title>Node3&#45;&gt;Node56</title>
<g id="a_edge17_Node000003_Node000056"><a xlink:title=" ">
<path fill="none" stroke="#63b8ff" d="M240.91,-266.64C242.91,-223.58 253.77,-120.95 311,-64.5 316.22,-59.35 322.87,-55.66 329.82,-53.03"/>
<polygon fill="#63b8ff" stroke="#63b8ff" points="237.41,-266.79 240.56,-276.9 244.4,-267.03 237.41,-266.79"/>
</a>
</g>
</g>
<!-- Node57 -->
<g id="Node000057" class="node">
<title>Node57</title>
<g id="a_Node000057"><a xlink:href="classQskStatusIndicator.html" target="_top" xlink:title=" ">
<polygon fill="white" stroke="#bfbfbf" points="426,-19 317,-19 317,0 426,0 426,-19"/>
<text text-anchor="middle" x="371.5" y="-7" font-family="Helvetica,sans-Serif" font-size="10.00">QskStatusIndicator</text>
</a>
</g>
</g>
<!-- Node3&#45;&gt;Node57 -->
<g id="edge18_Node000003_Node000057" class="edge">
<title>Node3&#45;&gt;Node57</title>
<g id="a_edge18_Node000003_Node000057"><a xlink:title=" ">
<path fill="none" stroke="#63b8ff" d="M239.84,-266.69C239.35,-218.74 244.97,-95.4 311,-27.5 314.31,-24.1 318.24,-21.33 322.48,-19.08"/>
<polygon fill="#63b8ff" stroke="#63b8ff" points="236.34,-267.01 240.05,-276.94 243.34,-266.86 236.34,-267.01"/>
</a>
</g>
</g>
</g>
</svg>
