<?xml version="1.0" encoding="UTF-8" standalone="no"?>
<!DOCTYPE svg PUBLIC "-//W3C//DTD SVG 1.1//EN"
 "http://www.w3.org/Graphics/SVG/1.1/DTD/svg11.dtd">
<!-- Generated by graphviz version 2.43.0 (0)
 -->
<!-- Title: QskAbstractButton Pages: 1 -->
<svg width="422pt" height="302pt"
 viewBox="0.00 0.00 422.00 302.00" xmlns="http://www.w3.org/2000/svg" xmlns:xlink="http://www.w3.org/1999/xlink">
<g id="graph0" class="graph" transform="scale(1 1) rotate(0) translate(4 298)">
<title>QskAbstractButton</title>
<!-- Node1 -->
<g id="Node000001" class="node">
<title>Node1</title>
<g id="a_Node000001"><a xlink:title=" ">
<polygon fill="#999999" stroke="#666666" points="259,-129 151,-129 151,-110 259,-110 259,-129"/>
<text text-anchor="middle" x="205" y="-117" font-family="Helvetica,sans-Serif" font-size="10.00">QskAbstractButton</text>
</a>
</g>
</g>
<!-- Node6 -->
<g id="Node000006" class="node">
<title>Node6</title>
<g id="a_Node000006"><a xlink:href="classQskCheckBox.html" target="_top" xlink:title=" ">
<polygon fill="white" stroke="#bfbfbf" points="84,-74 0,-74 0,-55 84,-55 84,-74"/>
<text text-anchor="middle" x="42" y="-62" font-family="Helvetica,sans-Serif" font-size="10.00">QskCheckBox</text>
</a>
</g>
</g>
<!-- Node1&#45;&gt;Node6 -->
<g id="edge5_Node000001_Node000006" class="edge">
<title>Node1&#45;&gt;Node6</title>
<g id="a_edge5_Node000001_Node000006"><a xlink:title=" ">
<path fill="none" stroke="#63b8ff" d="M169.01,-106.8C138.59,-96.91 95.72,-82.97 68.39,-74.08"/>
<polygon fill="#63b8ff" stroke="#63b8ff" points="168.22,-110.22 178.81,-109.98 170.38,-103.56 168.22,-110.22"/>
</a>
</g>
</g>
<!-- Node7 -->
<g id="Node000007" class="node">
<title>Node7</title>
<g id="a_Node000007"><a xlink:href="classQskPushButton.html" target="_top" xlink:title=" ">
<polygon fill="white" stroke="#bfbfbf" points="193.5,-74 102.5,-74 102.5,-55 193.5,-55 193.5,-74"/>
<text text-anchor="middle" x="148" y="-62" font-family="Helvetica,sans-Serif" font-size="10.00">QskPushButton</text>
</a>
</g>
</g>
<!-- Node1&#45;&gt;Node7 -->
<g id="edge6_Node000001_Node000007" class="edge">
<title>Node1&#45;&gt;Node7</title>
<g id="a_edge6_Node000001_Node000007"><a xlink:title=" ">
<path fill="none" stroke="#63b8ff" d="M188.38,-103.04C178.27,-93.64 165.72,-81.98 157.32,-74.17"/>
<polygon fill="#63b8ff" stroke="#63b8ff" points="186.14,-105.74 195.84,-109.98 190.9,-100.61 186.14,-105.74"/>
</a>
</g>
</g>
<!-- Node9 -->
<g id="Node000009" class="node">
<title>Node9</title>
<g id="a_Node000009"><a xlink:href="classQskSwitchButton.html" target="_top" xlink:title=" ">
<polygon fill="white" stroke="#bfbfbf" points="312,-74 212,-74 212,-55 312,-55 312,-74"/>
<text text-anchor="middle" x="262" y="-62" font-family="Helvetica,sans-Serif" font-size="10.00">QskSwitchButton</text>
</a>
</g>
</g>
<!-- Node1&#45;&gt;Node9 -->
<g id="edge8_Node000001_Node000009" class="edge">
<title>Node1&#45;&gt;Node9</title>
<g id="a_edge8_Node000001_Node000009"><a xlink:title=" ">
<path fill="none" stroke="#63b8ff" d="M221.62,-103.04C231.73,-93.64 244.28,-81.98 252.68,-74.17"/>
<polygon fill="#63b8ff" stroke="#63b8ff" points="219.1,-100.61 214.16,-109.98 223.86,-105.74 219.1,-100.61"/>
</a>
</g>
</g>
<!-- Node10 -->
<g id="Node000010" class="node">
<title>Node10</title>
<g id="a_Node000010"><a xlink:href="classQskTabButton.html" target="_top" xlink:title=" ">
<polygon fill="white" stroke="#bfbfbf" points="414,-74 330,-74 330,-55 414,-55 414,-74"/>
<text text-anchor="middle" x="372" y="-62" font-family="Helvetica,sans-Serif" font-size="10.00">QskTabButton</text>
</a>
</g>
</g>
<!-- Node1&#45;&gt;Node10 -->
<g id="edge9_Node000001_Node000010" class="edge">
<title>Node1&#45;&gt;Node10</title>
<g id="a_edge9_Node000001_Node000010"><a xlink:title=" ">
<path fill="none" stroke="#63b8ff" d="M241.46,-106.93C272.66,-97.03 316.84,-83.01 344.96,-74.08"/>
<polygon fill="#63b8ff" stroke="#63b8ff" points="240.3,-103.62 231.83,-109.98 242.42,-110.3 240.3,-103.62"/>
</a>
</g>
</g>
<!-- Node2 -->
<g id="Node000002" class="node">
<title>Node2</title>
<g id="a_Node000002"><a xlink:href="classQskControl.html" target="_top" xlink:title="Base class of all controls.">
<polygon fill="white" stroke="#666666" points="240.5,-184 169.5,-184 169.5,-165 240.5,-165 240.5,-184"/>
<text text-anchor="middle" x="205" y="-172" font-family="Helvetica,sans-Serif" font-size="10.00">QskControl</text>
</a>
</g>
</g>
<!-- Node2&#45;&gt;Node1 -->
<g id="edge1_Node000001_Node000002" class="edge">
<title>Node2&#45;&gt;Node1</title>
<g id="a_edge1_Node000001_Node000002"><a xlink:title=" ">
<path fill="none" stroke="#63b8ff" d="M205,-154.66C205,-145.93 205,-135.99 205,-129.09"/>
<polygon fill="#63b8ff" stroke="#63b8ff" points="201.5,-154.75 205,-164.75 208.5,-154.75 201.5,-154.75"/>
</a>
</g>
</g>
<!-- Node3 -->
<g id="Node000003" class="node">
<title>Node3</title>
<g id="a_Node000003"><a xlink:href="classQskItem.html" target="_top" xlink:title=" ">
<polygon fill="white" stroke="#666666" points="190,-239 132,-239 132,-220 190,-220 190,-239"/>
<text text-anchor="middle" x="161" y="-227" font-family="Helvetica,sans-Serif" font-size="10.00">QskItem</text>
</a>
</g>
</g>
<!-- Node3&#45;&gt;Node2 -->
<g id="edge2_Node000002_Node000003" class="edge">
<title>Node3&#45;&gt;Node2</title>
<g id="a_edge2_Node000002_Node000003"><a xlink:title=" ">
<path fill="none" stroke="#63b8ff" d="M174.73,-211.96C182.4,-202.72 191.63,-191.6 197.87,-184.09"/>
<polygon fill="#63b8ff" stroke="#63b8ff" points="171.96,-209.82 168.27,-219.75 177.35,-214.29 171.96,-209.82"/>
</a>
</g>
</g>
<!-- Node4 -->
<g id="Node000004" class="node">
<title>Node4</title>
<g id="a_Node000004"><a xlink:title=" ">
<polygon fill="white" stroke="#bfbfbf" points="198,-294 124,-294 124,-275 198,-275 198,-294"/>
<text text-anchor="middle" x="161" y="-282" font-family="Helvetica,sans-Serif" font-size="10.00">QQuickItem</text>
</a>
</g>
</g>
<!-- Node4&#45;&gt;Node3 -->
<g id="edge3_Node000003_Node000004" class="edge">
<title>Node4&#45;&gt;Node3</title>
<g id="a_edge3_Node000003_Node000004"><a xlink:title=" ">
<path fill="none" stroke="#63b8ff" d="M161,-264.66C161,-255.93 161,-245.99 161,-239.09"/>
<polygon fill="#63b8ff" stroke="#63b8ff" points="157.5,-264.75 161,-274.75 164.5,-264.75 157.5,-264.75"/>
</a>
</g>
</g>
<!-- Node5 -->
<g id="Node000005" class="node">
<title>Node5</title>
<g id="a_Node000005"><a xlink:href="classQskSkinnable.html" target="_top" xlink:title=" ">
<polygon fill="white" stroke="#666666" points="291.5,-239 208.5,-239 208.5,-220 291.5,-220 291.5,-239"/>
<text text-anchor="middle" x="250" y="-227" font-family="Helvetica,sans-Serif" font-size="10.00">QskSkinnable</text>
</a>
</g>
</g>
<!-- Node5&#45;&gt;Node2 -->
<g id="edge4_Node000002_Node000005" class="edge">
<title>Node5&#45;&gt;Node2</title>
<g id="a_edge4_Node000002_Node000005"><a xlink:title=" ">
<path fill="none" stroke="#63b8ff" d="M235.95,-211.96C228.11,-202.72 218.67,-191.6 212.29,-184.09"/>
<polygon fill="#63b8ff" stroke="#63b8ff" points="233.43,-214.39 242.57,-219.75 238.76,-209.86 233.43,-214.39"/>
</a>
</g>
</g>
<!-- Node8 -->
<g id="Node000008" class="node">
<title>Node8</title>
<g id="a_Node000008"><a xlink:href="classQskDialogButton.html" target="_top" xlink:title=" ">
<polygon fill="white" stroke="#bfbfbf" points="197.5,-19 98.5,-19 98.5,0 197.5,0 197.5,-19"/>
<text text-anchor="middle" x="148" y="-7" font-family="Helvetica,sans-Serif" font-size="10.00">QskDialogButton</text>
</a>
</g>
</g>
<!-- Node7&#45;&gt;Node8 -->
<g id="edge7_Node000007_Node000008" class="edge">
<title>Node7&#45;&gt;Node8</title>
<g id="a_edge7_Node000007_Node000008"><a xlink:title=" ">
<path fill="none" stroke="#63b8ff" d="M148,-44.66C148,-35.93 148,-25.99 148,-19.09"/>
<polygon fill="#63b8ff" stroke="#63b8ff" points="144.5,-44.75 148,-54.75 151.5,-44.75 144.5,-44.75"/>
</a>
</g>
</g>
</g>
</svg>
