<?xml version="1.0" encoding="UTF-8" standalone="no"?>
<!DOCTYPE svg PUBLIC "-//W3C//DTD SVG 1.1//EN"
 "http://www.w3.org/Graphics/SVG/1.1/DTD/svg11.dtd">
<!-- Generated by graphviz version 2.43.0 (0)
 -->
<!-- Title: QskStackBoxAnimator Pages: 1 -->
<svg width="590pt" height="137pt"
 viewBox="0.00 0.00 590.00 137.00" xmlns="http://www.w3.org/2000/svg" xmlns:xlink="http://www.w3.org/1999/xlink">
<g id="graph0" class="graph" transform="scale(1 1) rotate(0) translate(4 133)">
<title>QskStackBoxAnimator</title>
<!-- Node1 -->
<g id="Node000001" class="node">
<title>Node1</title>
<g id="a_Node000001"><a xlink:title=" ">
<polygon fill="#999999" stroke="#666666" points="354,-74 228,-74 228,-55 354,-55 354,-74"/>
<text text-anchor="middle" x="291" y="-62" font-family="Helvetica,sans-Serif" font-size="10.00">QskStackBoxAnimator</text>
</a>
</g>
</g>
<!-- Node4 -->
<g id="Node000004" class="node">
<title>Node4</title>
<g id="a_Node000004"><a xlink:href="classQskStackBoxAnimator1.html" target="_top" xlink:title=" ">
<polygon fill="white" stroke="#bfbfbf" points="132,-19 0,-19 0,0 132,0 132,-19"/>
<text text-anchor="middle" x="66" y="-7" font-family="Helvetica,sans-Serif" font-size="10.00">QskStackBoxAnimator1</text>
</a>
</g>
</g>
<!-- Node1&#45;&gt;Node4 -->
<g id="edge3_Node000001_Node000004" class="edge">
<title>Node1&#45;&gt;Node4</title>
<g id="a_edge3_Node000001_Node000004"><a xlink:title=" ">
<path fill="none" stroke="#63b8ff" d="M245.11,-52.69C202.95,-42.76 141.3,-28.24 102.43,-19.08"/>
<polygon fill="#63b8ff" stroke="#63b8ff" points="244.31,-56.1 254.85,-54.98 245.92,-49.28 244.31,-56.1"/>
</a>
</g>
</g>
<!-- Node5 -->
<g id="Node000005" class="node">
<title>Node5</title>
<g id="a_Node000005"><a xlink:href="classQskStackBoxAnimator2.html" target="_top" xlink:title=" ">
<polygon fill="white" stroke="#bfbfbf" points="282,-19 150,-19 150,0 282,0 282,-19"/>
<text text-anchor="middle" x="216" y="-7" font-family="Helvetica,sans-Serif" font-size="10.00">QskStackBoxAnimator2</text>
</a>
</g>
</g>
<!-- Node1&#45;&gt;Node5 -->
<g id="edge4_Node000001_Node000005" class="edge">
<title>Node1&#45;&gt;Node5</title>
<g id="a_edge4_Node000001_Node000005"><a xlink:title=" ">
<path fill="none" stroke="#63b8ff" d="M270.69,-49.15C257.14,-39.57 239.76,-27.29 228.27,-19.17"/>
<polygon fill="#63b8ff" stroke="#63b8ff" points="268.76,-52.07 278.95,-54.98 272.8,-46.36 268.76,-52.07"/>
</a>
</g>
</g>
<!-- Node6 -->
<g id="Node000006" class="node">
<title>Node6</title>
<g id="a_Node000006"><a xlink:href="classQskStackBoxAnimator3.html" target="_top" xlink:title=" ">
<polygon fill="white" stroke="#bfbfbf" points="432,-19 300,-19 300,0 432,0 432,-19"/>
<text text-anchor="middle" x="366" y="-7" font-family="Helvetica,sans-Serif" font-size="10.00">QskStackBoxAnimator3</text>
</a>
</g>
</g>
<!-- Node1&#45;&gt;Node6 -->
<g id="edge5_Node000001_Node000006" class="edge">
<title>Node1&#45;&gt;Node6</title>
<g id="a_edge5_Node000001_Node000006"><a xlink:title=" ">
<path fill="none" stroke="#63b8ff" d="M311.31,-49.15C324.86,-39.57 342.24,-27.29 353.73,-19.17"/>
<polygon fill="#63b8ff" stroke="#63b8ff" points="309.2,-46.36 303.05,-54.98 313.24,-52.07 309.2,-46.36"/>
</a>
</g>
</g>
<!-- Node7 -->
<g id="Node000007" class="node">
<title>Node7</title>
<g id="a_Node000007"><a xlink:href="classQskStackBoxAnimator4.html" target="_top" xlink:title=" ">
<polygon fill="white" stroke="#bfbfbf" points="582,-19 450,-19 450,0 582,0 582,-19"/>
<text text-anchor="middle" x="516" y="-7" font-family="Helvetica,sans-Serif" font-size="10.00">QskStackBoxAnimator4</text>
</a>
</g>
</g>
<!-- Node1&#45;&gt;Node7 -->
<g id="edge6_Node000001_Node000007" class="edge">
<title>Node1&#45;&gt;Node7</title>
<g id="a_edge6_Node000001_Node000007"><a xlink:title=" ">
<path fill="none" stroke="#63b8ff" d="M336.89,-52.69C379.05,-42.76 440.7,-28.24 479.57,-19.08"/>
<polygon fill="#63b8ff" stroke="#63b8ff" points="336.08,-49.28 327.15,-54.98 337.69,-56.1 336.08,-49.28"/>
</a>
</g>
</g>
<!-- Node2 -->
<g id="Node000002" class="node">
<title>Node2</title>
<g id="a_Node000002"><a xlink:title=" ">
<polygon fill="white" stroke="#bfbfbf" points="276,-129 220,-129 220,-110 276,-110 276,-129"/>
<text text-anchor="middle" x="248" y="-117" font-family="Helvetica,sans-Serif" font-size="10.00">QObject</text>
</a>
</g>
</g>
<!-- Node2&#45;&gt;Node1 -->
<g id="edge1_Node000001_Node000002" class="edge">
<title>Node2&#45;&gt;Node1</title>
<g id="a_edge1_Node000001_Node000002"><a xlink:title=" ">
<path fill="none" stroke="#63b8ff" d="M261.42,-101.96C268.91,-92.72 277.94,-81.6 284.03,-74.09"/>
<polygon fill="#63b8ff" stroke="#63b8ff" points="258.68,-99.78 255.1,-109.75 264.12,-104.19 258.68,-99.78"/>
</a>
</g>
</g>
<!-- Node3 -->
<g id="Node000003" class="node">
<title>Node3</title>
<g id="a_Node000003"><a xlink:href="classQskAnimator.html" target="_top" xlink:title=" ">
<polygon fill="white" stroke="#bfbfbf" points="374,-129 294,-129 294,-110 374,-110 374,-129"/>
<text text-anchor="middle" x="334" y="-117" font-family="Helvetica,sans-Serif" font-size="10.00">QskAnimator</text>
</a>
</g>
</g>
<!-- Node3&#45;&gt;Node1 -->
<g id="edge2_Node000001_Node000003" class="edge">
<title>Node3&#45;&gt;Node1</title>
<g id="a_edge2_Node000001_Node000003"><a xlink:title=" ">
<path fill="none" stroke="#63b8ff" d="M320.58,-101.96C313.09,-92.72 304.06,-81.6 297.97,-74.09"/>
<polygon fill="#63b8ff" stroke="#63b8ff" points="317.88,-104.19 326.9,-109.75 323.32,-99.78 317.88,-104.19"/>
</a>
</g>
</g>
</g>
</svg>
