<?xml version="1.0" encoding="UTF-8" standalone="no"?>
<!DOCTYPE svg PUBLIC "-//W3C//DTD SVG 1.1//EN"
 "http://www.w3.org/Graphics/SVG/1.1/DTD/svg11.dtd">
<!-- Generated by graphviz version 2.43.0 (0)
 -->
<!-- Title: QskEvent Pages: 1 -->
<svg width="344pt" height="249pt"
 viewBox="0.00 0.00 344.00 249.00" xmlns="http://www.w3.org/2000/svg" xmlns:xlink="http://www.w3.org/1999/xlink">

<svg id="main" version="1.1" xmlns="http://www.w3.org/2000/svg" xmlns:xlink="http://www.w3.org/1999/xlink" xml:space="preserve" onload="init(evt)">
<style type="text/css"><![CDATA[
.node, .edge {opacity: 0.7;}
.node.selected, .edge.selected {opacity: 1;}
.edge:hover path { stroke: red; }
.edge:hover polygon { stroke: red; fill: red; }
]]></style>
<script type="application/ecmascript" xlink:href="svg.min.js"/>
<svg id="graph" class="graph">
<g id="graph0" class="graph" transform="scale(1 1) rotate(0) translate(4 245)">
<title>QskEvent</title>
<!-- Node1 -->
<g id="Node000001" class="node">
<title>Node1</title>
<g id="a_Node000001"><a xlink:title=" ">
<polygon fill="#999999" stroke="#666666" points="151,-130 88,-130 88,-111 151,-111 151,-130"/>
<text text-anchor="middle" x="119.5" y="-118" font-family="Helvetica,sans-Serif" font-size="10.00">QskEvent</text>
</a>
</g>
</g>
<!-- Node3 -->
<g id="Node000003" class="node">
<title>Node3</title>
<g id="a_Node000003"><a xlink:href="classQskAnimatorEvent.html" target="_top" xlink:title=" ">
<polygon fill="white" stroke="#bfbfbf" points="315.5,-241 207.5,-241 207.5,-222 315.5,-222 315.5,-241"/>
<text text-anchor="middle" x="261.5" y="-229" font-family="Helvetica,sans-Serif" font-size="10.00">QskAnimatorEvent</text>
</a>
</g>
</g>
<!-- Node1&#45;&gt;Node3 -->
<g id="edge2_Node000001_Node000003" class="edge">
<title>Node1&#45;&gt;Node3</title>
<g id="a_edge2_Node000001_Node000003"><a xlink:title=" ">
<path fill="none" stroke="#63b8ff" d="M128.96,-139.45C139.48,-160.77 159.46,-194.85 187,-213.5 193.09,-217.62 200.04,-220.81 207.17,-223.26"/>
<polygon fill="#63b8ff" stroke="#63b8ff" points="132,-137.68 124.57,-130.13 125.67,-140.67 132,-137.68"/>
</a>
</g>
</g>
<!-- Node4 -->
<g id="Node000004" class="node">
<title>Node4</title>
<g id="a_Node000004"><a xlink:href="classQskGeometryChangeEvent.html" target="_top" xlink:title=" ">
<polygon fill="white" stroke="#bfbfbf" points="336,-204 187,-204 187,-185 336,-185 336,-204"/>
<text text-anchor="middle" x="261.5" y="-192" font-family="Helvetica,sans-Serif" font-size="10.00">QskGeometryChangeEvent</text>
</a>
</g>
</g>
<!-- Node1&#45;&gt;Node4 -->
<g id="edge3_Node000001_Node000004" class="edge">
<title>Node1&#45;&gt;Node4</title>
<g id="a_edge3_Node000001_Node000004"><a xlink:title=" ">
<path fill="none" stroke="#63b8ff" d="M136.4,-137.6C148.98,-150.15 167.61,-166.65 187,-176.5 193.68,-179.89 201.02,-182.67 208.41,-184.93"/>
<polygon fill="#63b8ff" stroke="#63b8ff" points="138.87,-135.12 129.39,-130.39 133.85,-140 138.87,-135.12"/>
</a>
</g>
</g>
<!-- Node5 -->
<g id="Node000005" class="node">
<title>Node5</title>
<g id="a_Node000005"><a xlink:href="classQskGestureEvent.html" target="_top" xlink:title=" ">
<polygon fill="white" stroke="#bfbfbf" points="312,-167 211,-167 211,-148 312,-148 312,-167"/>
<text text-anchor="middle" x="261.5" y="-155" font-family="Helvetica,sans-Serif" font-size="10.00">QskGestureEvent</text>
</a>
</g>
</g>
<!-- Node1&#45;&gt;Node5 -->
<g id="edge4_Node000001_Node000005" class="edge">
<title>Node1&#45;&gt;Node5</title>
<g id="a_edge4_Node000001_Node000005"><a xlink:title=" ">
<path fill="none" stroke="#63b8ff" d="M161.02,-132.34C169.58,-134.77 178.57,-137.27 187,-139.5 197.79,-142.36 209.52,-145.31 220.38,-147.97"/>
<polygon fill="#63b8ff" stroke="#63b8ff" points="161.8,-128.93 151.22,-129.54 159.88,-135.66 161.8,-128.93"/>
</a>
</g>
</g>
<!-- Node6 -->
<g id="Node000006" class="node">
<title>Node6</title>
<g id="a_Node000006"><a xlink:href="classQskGestureFilterEvent.html" target="_top" xlink:title=" ">
<polygon fill="white" stroke="#bfbfbf" points="324.5,-130 198.5,-130 198.5,-111 324.5,-111 324.5,-130"/>
<text text-anchor="middle" x="261.5" y="-118" font-family="Helvetica,sans-Serif" font-size="10.00">QskGestureFilterEvent</text>
</a>
</g>
</g>
<!-- Node1&#45;&gt;Node6 -->
<g id="edge5_Node000001_Node000006" class="edge">
<title>Node1&#45;&gt;Node6</title>
<g id="a_edge5_Node000001_Node000006"><a xlink:title=" ">
<path fill="none" stroke="#63b8ff" d="M161.41,-120.5C172.95,-120.5 185.76,-120.5 198.25,-120.5"/>
<polygon fill="#63b8ff" stroke="#63b8ff" points="161.22,-117 151.22,-120.5 161.22,-124 161.22,-117"/>
</a>
</g>
</g>
<!-- Node7 -->
<g id="Node000007" class="node">
<title>Node7</title>
<g id="a_Node000007"><a xlink:href="classQskPopupEvent.html" target="_top" xlink:title=" ">
<polygon fill="white" stroke="#bfbfbf" points="308,-93 215,-93 215,-74 308,-74 308,-93"/>
<text text-anchor="middle" x="261.5" y="-81" font-family="Helvetica,sans-Serif" font-size="10.00">QskPopupEvent</text>
</a>
</g>
</g>
<!-- Node1&#45;&gt;Node7 -->
<g id="edge6_Node000001_Node000007" class="edge">
<title>Node1&#45;&gt;Node7</title>
<g id="a_edge6_Node000001_Node000007"><a xlink:title=" ">
<path fill="none" stroke="#63b8ff" d="M161.02,-108.66C169.58,-106.23 178.57,-103.73 187,-101.5 197.79,-98.64 209.52,-95.69 220.38,-93.03"/>
<polygon fill="#63b8ff" stroke="#63b8ff" points="159.88,-105.34 151.22,-111.46 161.8,-112.07 159.88,-105.34"/>
</a>
</g>
</g>
<!-- Node8 -->
<g id="Node000008" class="node">
<title>Node8</title>
<g id="a_Node000008"><a xlink:href="classQskViewportChangeEvent.html" target="_top" xlink:title=" ">
<polygon fill="white" stroke="#bfbfbf" points="333,-56 190,-56 190,-37 333,-37 333,-56"/>
<text text-anchor="middle" x="261.5" y="-44" font-family="Helvetica,sans-Serif" font-size="10.00">QskViewportChangeEvent</text>
</a>
</g>
</g>
<!-- Node1&#45;&gt;Node8 -->
<g id="edge7_Node000001_Node000008" class="edge">
<title>Node1&#45;&gt;Node8</title>
<g id="a_edge7_Node000001_Node000008"><a xlink:title=" ">
<path fill="none" stroke="#63b8ff" d="M136.4,-103.4C148.98,-90.85 167.61,-74.35 187,-64.5 193.68,-61.11 201.02,-58.33 208.41,-56.07"/>
<polygon fill="#63b8ff" stroke="#63b8ff" points="133.85,-101 129.39,-110.61 138.87,-105.88 133.85,-101"/>
</a>
</g>
</g>
<!-- Node9 -->
<g id="Node000009" class="node">
<title>Node9</title>
<g id="a_Node000009"><a xlink:href="classQskWindowChangeEvent.html" target="_top" xlink:title=" ">
<polygon fill="white" stroke="#bfbfbf" points="331,-19 192,-19 192,0 331,0 331,-19"/>
<text text-anchor="middle" x="261.5" y="-7" font-family="Helvetica,sans-Serif" font-size="10.00">QskWindowChangeEvent</text>
</a>
</g>
</g>
<!-- Node1&#45;&gt;Node9 -->
<g id="edge8_Node000001_Node000009" class="edge">
<title>Node1&#45;&gt;Node9</title>
<g id="a_edge8_Node000001_Node000009"><a xlink:title=" ">
<path fill="none" stroke="#63b8ff" d="M128.96,-101.55C139.48,-80.23 159.46,-46.15 187,-27.5 192,-24.11 197.58,-21.36 203.37,-19.13"/>
<polygon fill="#63b8ff" stroke="#63b8ff" points="125.67,-100.33 124.57,-110.87 132,-103.32 125.67,-100.33"/>
</a>
</g>
</g>
<!-- Node2 -->
<g id="Node000002" class="node">
<title>Node2</title>
<g id="a_Node000002"><a xlink:title=" ">
<polygon fill="white" stroke="#bfbfbf" points="52,-130 0,-130 0,-111 52,-111 52,-130"/>
<text text-anchor="middle" x="26" y="-118" font-family="Helvetica,sans-Serif" font-size="10.00">QEvent</text>
</a>
</g>
</g>
<!-- Node2&#45;&gt;Node1 -->
<g id="edge1_Node000001_Node000002" class="edge">
<title>Node2&#45;&gt;Node1</title>
<g id="a_edge1_Node000001_Node000002"><a xlink:title=" ">
<path fill="none" stroke="#63b8ff" d="M62.07,-120.5C70.61,-120.5 79.68,-120.5 87.98,-120.5"/>
<polygon fill="#63b8ff" stroke="#63b8ff" points="62,-117 52,-120.5 62,-124 62,-117"/>
</a>
</g>
</g>
</g>
</svg>
</svg>

<style type='text/css'>
<![CDATA[
[data-mouse-over-selected='false'] { opacity: 0.7; }
[data-mouse-over-selected='true']  { opacity: 1.0; }
]]>
</style>
<script type="application/ecmascript"><![CDATA[
document.addEventListener('DOMContentLoaded', (event) => {
  highlightEdges();
  highlightAdjacentNodes();
});
]]></script>
</svg>
