<?xml version="1.0" encoding="UTF-8" standalone="no"?>
<!DOCTYPE svg PUBLIC "-//W3C//DTD SVG 1.1//EN"
 "http://www.w3.org/Graphics/SVG/1.1/DTD/svg11.dtd">
<!-- Generated by graphviz version 2.43.0 (0)
 -->
<!-- Title: QskSkinnable Pages: 1 -->
<!--zoomable 619 -->

<svg id="main" version="1.1" xmlns="http://www.w3.org/2000/svg" xmlns:xlink="http://www.w3.org/1999/xlink" xml:space="preserve" onload="init(evt)">
<style type="text/css"><![CDATA[
.node, .edge {opacity: 0.7;}
.node.selected, .edge.selected {opacity: 1;}
.edge:hover path { stroke: red; }
.edge:hover polygon { stroke: red; fill: red; }
]]></style>

<defs>
  <circle id="rim" cx="0" cy="0" r="7"/>
  <circle id="rim2" cx="0" cy="0" r="3.5"/>
  <g id="zoomPlus">
    <use xlink:href="#rim" fill="#404040"><set attributeName="fill" to="#808080" begin="zoomplus.mouseover" end="zoomplus.mouseout"/></use>
    <path d="M-4,0h8M0,-4v8" fill="none" stroke="white" stroke-width="1.5" pointer-events="none"/>
  </g>
  <g id="zoomMin">
    <use xlink:href="#rim" fill="#404040"><set attributeName="fill" to="#808080" begin="zoomminus.mouseover" end="zoomminus.mouseout"/></use>
    <path d="M-4,0h8" fill="none" stroke="white" stroke-width="1.5" pointer-events="none"/>
  </g>
  <g id="arrowUp" transform="translate(30 24)">
    <use xlink:href="#rim"/>
    <path pointer-events="none" fill="none" stroke="white" stroke-width="1.5" d="M0,-3.0v7 M-2.5,-0.5L0,-3.0L2.5,-0.5"/>
  </g>
  <g id="arrowRight" transform="rotate(90) translate(36 -43)">
    <use xlink:href="#rim"/>
    <path pointer-events="none" fill="none" stroke="white" stroke-width="1.5" d="M0,-3.0v7 M-2.5,-0.5L0,-3.0L2.5,-0.5"/>
  </g>
  <g id="arrowDown" transform="rotate(180) translate(-30 -48)">
    <use xlink:href="#rim"/>
    <path pointer-events="none" fill="none" stroke="white" stroke-width="1.5" d="M0,-3.0v7 M-2.5,-0.5L0,-3.0L2.5,-0.5"/>
  </g>
  <g id="arrowLeft" transform="rotate(270) translate(-36 17)">
    <use xlink:href="#rim"/>
    <path pointer-events="none" fill="none" stroke="white" stroke-width="1.5" d="M0,-3.0v7 M-2.5,-0.5L0,-3.0L2.5,-0.5"/>
  </g>
  <g id="resetDef">
    <use xlink:href="#rim2" fill="#404040"><set attributeName="fill" to="#808080" begin="reset.mouseover" end="reset.mouseout"/></use>
  </g>
</defs>
<script type="application/ecmascript">
var viewWidth = 349;
var viewHeight = 619;
var sectionId = 'dynsection-0';
</script>
<script type="application/ecmascript" xlink:href="svg.min.js"/>
<svg id="graph" class="graph">
<g id="viewport">
<title>QskSkinnable</title>
<!-- Node1 -->
<g id="Node000001" class="node">
<title>Node1</title>
<g id="a_Node000001"><a xlink:title=" ">
<polygon fill="#999999" stroke="#666666" points="83,-315 0,-315 0,-296 83,-296 83,-315"/>
<text text-anchor="middle" x="41.5" y="-303" font-family="Helvetica,sans-Serif" font-size="10.00">QskSkinnable</text>
</a>
</g>
</g>
<!-- Node2 -->
<g id="Node000002" class="node">
<title>Node2</title>
<g id="a_Node000002"><a xlink:href="classQskControl.html" target="_top" xlink:title="Base class of all controls.">
<polygon fill="#fff0f0" stroke="red" points="190,-315 119,-315 119,-296 190,-296 190,-315"/>
<text text-anchor="middle" x="154.5" y="-303" font-family="Helvetica,sans-Serif" font-size="10.00">QskControl</text>
</a>
</g>
</g>
<!-- Node1&#45;&gt;Node2 -->
<g id="edge1_Node000001_Node000002" class="edge">
<title>Node1&#45;&gt;Node2</title>
<g id="a_edge1_Node000001_Node000002"><a xlink:title=" ">
<path fill="none" stroke="#63b8ff" d="M93.47,-305.5C101.99,-305.5 110.65,-305.5 118.65,-305.5"/>
<polygon fill="#63b8ff" stroke="#63b8ff" points="93.2,-302 83.2,-305.5 93.2,-309 93.2,-302"/>
</a>
</g>
</g>
<!-- Node3 -->
<g id="Node000003" class="node">
<title>Node3</title>
<g id="a_Node000003"><a xlink:href="classQskAbstractButton.html" target="_top" xlink:title=" ">
<polygon fill="white" stroke="orangered" points="337.5,-611 229.5,-611 229.5,-592 337.5,-592 337.5,-611"/>
<text text-anchor="middle" x="283.5" y="-599" font-family="Helvetica,sans-Serif" font-size="10.00">QskAbstractButton</text>
</a>
</g>
</g>
<!-- Node2&#45;&gt;Node3 -->
<g id="edge2_Node000002_Node000003" class="edge">
<title>Node2&#45;&gt;Node3</title>
<g id="a_edge2_Node000002_Node000003"><a xlink:title=" ">
<path fill="none" stroke="#63b8ff" d="M158.04,-325.49C165.67,-382.7 190.15,-545.43 226,-583.5 229.25,-586.95 233.15,-589.74 237.37,-591.99"/>
<polygon fill="#63b8ff" stroke="#63b8ff" points="161.46,-324.71 156.7,-315.24 154.52,-325.61 161.46,-324.71"/>
</a>
</g>
</g>
<!-- Node9 -->
<g id="Node000009" class="node">
<title>Node9</title>
<g id="a_Node000009"><a xlink:href="classQskBoundedControl.html" target="_top" xlink:title=" ">
<polygon fill="white" stroke="orangered" points="340,-574 227,-574 227,-555 340,-555 340,-574"/>
<text text-anchor="middle" x="283.5" y="-562" font-family="Helvetica,sans-Serif" font-size="10.00">QskBoundedControl</text>
</a>
</g>
</g>
<!-- Node2&#45;&gt;Node9 -->
<g id="edge3_Node000002_Node000009" class="edge">
<title>Node2&#45;&gt;Node9</title>
<g id="a_edge3_Node000002_Node000009"><a xlink:title=" ">
<path fill="none" stroke="#63b8ff" d="M155.39,-325.43C156.24,-371.03 164.79,-483.82 226,-546.5 229.31,-549.89 233.25,-552.64 237.5,-554.87"/>
<polygon fill="#63b8ff" stroke="#63b8ff" points="158.89,-325.33 155.31,-315.36 151.89,-325.39 158.89,-325.33"/>
</a>
</g>
</g>
<!-- Node18 -->
<g id="Node000018" class="node">
<title>Node18</title>
<g id="a_Node000018"><a xlink:href="classQskBox.html" target="_top" xlink:title=" ">
<polygon fill="white" stroke="orangered" points="310.5,-537 256.5,-537 256.5,-518 310.5,-518 310.5,-537"/>
<text text-anchor="middle" x="283.5" y="-525" font-family="Helvetica,sans-Serif" font-size="10.00">QskBox</text>
</a>
</g>
</g>
<!-- Node2&#45;&gt;Node18 -->
<g id="edge4_Node000002_Node000018" class="edge">
<title>Node2&#45;&gt;Node18</title>
<g id="a_edge4_Node000002_Node000018"><a xlink:title=" ">
<path fill="none" stroke="#63b8ff" d="M156.64,-325.35C160.02,-365.78 173.41,-458.17 226,-509.5 234.1,-517.41 245.68,-521.85 256.24,-524.33"/>
<polygon fill="#63b8ff" stroke="#63b8ff" points="160.11,-324.92 155.91,-315.19 153.13,-325.42 160.11,-324.92"/>
</a>
</g>
</g>
<!-- Node30 -->
<g id="Node000030" class="node">
<title>Node30</title>
<g id="a_Node000030"><a xlink:href="classQskComboBox.html" target="_top" xlink:title=" ">
<polygon fill="white" stroke="#bfbfbf" points="328,-500 239,-500 239,-481 328,-481 328,-500"/>
<text text-anchor="middle" x="283.5" y="-488" font-family="Helvetica,sans-Serif" font-size="10.00">QskComboBox</text>
</a>
</g>
</g>
<!-- Node2&#45;&gt;Node30 -->
<g id="edge5_Node000002_Node000030" class="edge">
<title>Node2&#45;&gt;Node30</title>
<g id="a_edge5_Node000002_Node000030"><a xlink:title=" ">
<path fill="none" stroke="#63b8ff" d="M158.38,-325.27C164.47,-360.05 181.94,-432.28 226,-472.5 229.73,-475.9 234.09,-478.66 238.73,-480.9"/>
<polygon fill="#63b8ff" stroke="#63b8ff" points="161.77,-324.33 156.72,-315.02 154.86,-325.45 161.77,-324.33"/>
</a>
</g>
</g>
<!-- Node31 -->
<g id="Node000031" class="node">
<title>Node31</title>
<g id="a_Node000031"><a xlink:href="classQskFocusIndicator.html" target="_top" xlink:title=" ">
<polygon fill="white" stroke="#bfbfbf" points="336.5,-463 230.5,-463 230.5,-444 336.5,-444 336.5,-463"/>
<text text-anchor="middle" x="283.5" y="-451" font-family="Helvetica,sans-Serif" font-size="10.00">QskFocusIndicator</text>
</a>
</g>
</g>
<!-- Node2&#45;&gt;Node31 -->
<g id="edge6_Node000002_Node000031" class="edge">
<title>Node2&#45;&gt;Node31</title>
<g id="a_edge6_Node000002_Node000031"><a xlink:title=" ">
<path fill="none" stroke="#63b8ff" d="M161.02,-325.24C169.98,-353.68 190.37,-406.03 226,-435.5 230.12,-438.91 234.91,-441.68 239.9,-443.93"/>
<polygon fill="#63b8ff" stroke="#63b8ff" points="164.26,-323.86 158.05,-315.28 157.56,-325.86 164.26,-323.86"/>
</a>
</g>
</g>
<!-- Node32 -->
<g id="Node000032" class="node">
<title>Node32</title>
<g id="a_Node000032"><a xlink:href="classQskGraphicLabel.html" target="_top" xlink:title=" ">
<polygon fill="white" stroke="#bfbfbf" points="333,-426 234,-426 234,-407 333,-407 333,-426"/>
<text text-anchor="middle" x="283.5" y="-414" font-family="Helvetica,sans-Serif" font-size="10.00">QskGraphicLabel</text>
</a>
</g>
</g>
<!-- Node2&#45;&gt;Node32 -->
<g id="edge7_Node000002_Node000032" class="edge">
<title>Node2&#45;&gt;Node32</title>
<g id="a_edge7_Node000002_Node000032"><a xlink:title=" ">
<path fill="none" stroke="#63b8ff" d="M165.02,-324.14C176.66,-345.15 198.29,-378.91 226,-398.5 230.79,-401.89 236.25,-404.66 241.84,-406.92"/>
<polygon fill="#63b8ff" stroke="#63b8ff" points="168.06,-322.4 160.25,-315.23 161.88,-325.7 168.06,-322.4"/>
</a>
</g>
</g>
<!-- Node33 -->
<g id="Node000033" class="node">
<title>Node33</title>
<g id="a_Node000033"><a xlink:href="classQskInputGrabber.html" target="_top" xlink:title=" ">
<polygon fill="white" stroke="#bfbfbf" points="333,-389 234,-389 234,-370 333,-370 333,-389"/>
<text text-anchor="middle" x="283.5" y="-377" font-family="Helvetica,sans-Serif" font-size="10.00">QskInputGrabber</text>
</a>
</g>
</g>
<!-- Node2&#45;&gt;Node33 -->
<g id="edge8_Node000002_Node000033" class="edge">
<title>Node2&#45;&gt;Node33</title>
<g id="a_edge8_Node000002_Node000033"><a xlink:title=" ">
<path fill="none" stroke="#63b8ff" d="M172.74,-322.17C186.29,-334.49 206.13,-350.9 226,-361.5 232.18,-364.79 239.06,-367.61 245.84,-369.96"/>
<polygon fill="#63b8ff" stroke="#63b8ff" points="174.88,-319.38 165.18,-315.12 170.1,-324.5 174.88,-319.38"/>
</a>
</g>
</g>
<!-- Node34 -->
<g id="Node000034" class="node">
<title>Node34</title>
<g id="a_Node000034"><a xlink:href="classQskInputPanel.html" target="_top" xlink:title=" ">
<polygon fill="white" stroke="#bfbfbf" points="326.5,-352 240.5,-352 240.5,-333 326.5,-333 326.5,-352"/>
<text text-anchor="middle" x="283.5" y="-340" font-family="Helvetica,sans-Serif" font-size="10.00">QskInputPanel</text>
</a>
</g>
</g>
<!-- Node2&#45;&gt;Node34 -->
<g id="edge9_Node000002_Node000034" class="edge">
<title>Node2&#45;&gt;Node34</title>
<g id="a_edge9_Node000002_Node000034"><a xlink:title=" ">
<path fill="none" stroke="#63b8ff" d="M197.81,-317.83C214.63,-322.73 233.69,-328.28 249.46,-332.88"/>
<polygon fill="#63b8ff" stroke="#63b8ff" points="198.79,-314.47 188.21,-315.03 196.83,-321.19 198.79,-314.47"/>
</a>
</g>
</g>
<!-- Node35 -->
<g id="Node000035" class="node">
<title>Node35</title>
<g id="a_Node000035"><a xlink:href="classQskPageIndicator.html" target="_top" xlink:title=" ">
<polygon fill="white" stroke="#bfbfbf" points="334,-315 233,-315 233,-296 334,-296 334,-315"/>
<text text-anchor="middle" x="283.5" y="-303" font-family="Helvetica,sans-Serif" font-size="10.00">QskPageIndicator</text>
</a>
</g>
</g>
<!-- Node2&#45;&gt;Node35 -->
<g id="edge10_Node000002_Node000035" class="edge">
<title>Node2&#45;&gt;Node35</title>
<g id="a_edge10_Node000002_Node000035"><a xlink:title=" ">
<path fill="none" stroke="#63b8ff" d="M200.35,-305.5C210.79,-305.5 221.96,-305.5 232.6,-305.5"/>
<polygon fill="#63b8ff" stroke="#63b8ff" points="200.2,-302 190.2,-305.5 200.2,-309 200.2,-302"/>
</a>
</g>
</g>
<!-- Node36 -->
<g id="Node000036" class="node">
<title>Node36</title>
<g id="a_Node000036"><a xlink:href="classQskPopup.html" target="_top" xlink:title=" ">
<polygon fill="white" stroke="orangered" points="316,-278 251,-278 251,-259 316,-259 316,-278"/>
<text text-anchor="middle" x="283.5" y="-266" font-family="Helvetica,sans-Serif" font-size="10.00">QskPopup</text>
</a>
</g>
</g>
<!-- Node2&#45;&gt;Node36 -->
<g id="edge11_Node000002_Node000036" class="edge">
<title>Node2&#45;&gt;Node36</title>
<g id="a_edge11_Node000002_Node000036"><a xlink:title=" ">
<path fill="none" stroke="#63b8ff" d="M198.04,-293.11C215.28,-288.08 234.83,-282.39 250.78,-277.74"/>
<polygon fill="#63b8ff" stroke="#63b8ff" points="196.83,-289.81 188.21,-295.97 198.79,-296.53 196.83,-289.81"/>
</a>
</g>
</g>
<!-- Node43 -->
<g id="Node000043" class="node">
<title>Node43</title>
<g id="a_Node000043"><a xlink:href="classQskRadioBox.html" target="_top" xlink:title=" ">
<polygon fill="white" stroke="#bfbfbf" points="324.5,-241 242.5,-241 242.5,-222 324.5,-222 324.5,-241"/>
<text text-anchor="middle" x="283.5" y="-229" font-family="Helvetica,sans-Serif" font-size="10.00">QskRadioBox</text>
</a>
</g>
</g>
<!-- Node2&#45;&gt;Node43 -->
<g id="edge12_Node000002_Node000043" class="edge">
<title>Node2&#45;&gt;Node43</title>
<g id="a_edge12_Node000002_Node000043"><a xlink:title=" ">
<path fill="none" stroke="#63b8ff" d="M173.32,-288.82C186.9,-276.82 206.53,-260.97 226,-250.5 232.84,-246.82 240.52,-243.67 247.96,-241.05"/>
<polygon fill="#63b8ff" stroke="#63b8ff" points="170.76,-286.4 165.69,-295.71 175.46,-291.6 170.76,-286.4"/>
</a>
</g>
</g>
<!-- Node44 -->
<g id="Node000044" class="node">
<title>Node44</title>
<g id="a_Node000044"><a xlink:href="classQskScrollBox.html" target="_top" xlink:title=" ">
<polygon fill="white" stroke="orangered" points="324,-204 243,-204 243,-185 324,-185 324,-204"/>
<text text-anchor="middle" x="283.5" y="-192" font-family="Helvetica,sans-Serif" font-size="10.00">QskScrollBox</text>
</a>
</g>
</g>
<!-- Node2&#45;&gt;Node44 -->
<g id="edge13_Node000002_Node000044" class="edge">
<title>Node2&#45;&gt;Node44</title>
<g id="a_edge13_Node000002_Node000044"><a xlink:title=" ">
<path fill="none" stroke="#63b8ff" d="M165.13,-287.14C176.87,-266.43 198.58,-233.1 226,-213.5 231.39,-209.65 237.61,-206.53 243.92,-204.03"/>
<polygon fill="#63b8ff" stroke="#63b8ff" points="162.05,-285.47 160.31,-295.92 168.19,-288.83 162.05,-285.47"/>
</a>
</g>
</g>
<!-- Node49 -->
<g id="Node000049" class="node">
<title>Node49</title>
<g id="a_Node000049"><a xlink:href="classQskSegmentedBar.html" target="_top" xlink:title=" ">
<polygon fill="white" stroke="#bfbfbf" points="337,-167 230,-167 230,-148 337,-148 337,-167"/>
<text text-anchor="middle" x="283.5" y="-155" font-family="Helvetica,sans-Serif" font-size="10.00">QskSegmentedBar</text>
</a>
</g>
</g>
<!-- Node2&#45;&gt;Node49 -->
<g id="edge14_Node000002_Node000049" class="edge">
<title>Node2&#45;&gt;Node49</title>
<g id="a_edge14_Node000002_Node000049"><a xlink:title=" ">
<path fill="none" stroke="#63b8ff" d="M161.13,-285.99C170.22,-257.85 190.77,-206.02 226,-176.5 230.6,-172.64 236.02,-169.56 241.64,-167.1"/>
<polygon fill="#63b8ff" stroke="#63b8ff" points="157.69,-285.25 158.11,-295.83 164.39,-287.3 157.69,-285.25"/>
</a>
</g>
</g>
<!-- Node50 -->
<g id="Node000050" class="node">
<title>Node50</title>
<g id="a_Node000050"><a xlink:href="classQskSeparator.html" target="_top" xlink:title="Separates a group of items from adjacent items.">
<polygon fill="white" stroke="#666666" points="325,-130 242,-130 242,-111 325,-111 325,-130"/>
<text text-anchor="middle" x="283.5" y="-118" font-family="Helvetica,sans-Serif" font-size="10.00">QskSeparator</text>
</a>
</g>
</g>
<!-- Node2&#45;&gt;Node50 -->
<g id="edge15_Node000002_Node000050" class="edge">
<title>Node2&#45;&gt;Node50</title>
<g id="a_edge15_Node000002_Node000050"><a xlink:title=" ">
<path fill="none" stroke="#63b8ff" d="M158.57,-285.42C164.9,-250.77 182.65,-179.63 226,-139.5 230.56,-135.28 236.08,-132 241.87,-129.44"/>
<polygon fill="#63b8ff" stroke="#63b8ff" points="155.05,-285.23 156.84,-295.67 161.95,-286.4 155.05,-285.23"/>
</a>
</g>
</g>
<!-- Node51 -->
<g id="Node000051" class="node">
<title>Node51</title>
<g id="a_Node000051"><a xlink:href="classQskStatusIndicator.html" target="_top" xlink:title=" ">
<polygon fill="white" stroke="#bfbfbf" points="338,-93 229,-93 229,-74 338,-74 338,-93"/>
<text text-anchor="middle" x="283.5" y="-81" font-family="Helvetica,sans-Serif" font-size="10.00">QskStatusIndicator</text>
</a>
</g>
</g>
<!-- Node2&#45;&gt;Node51 -->
<g id="edge16_Node000002_Node000051" class="edge">
<title>Node2&#45;&gt;Node51</title>
<g id="a_edge16_Node000002_Node000051"><a xlink:title=" ">
<path fill="none" stroke="#63b8ff" d="M156.73,-285.82C160.3,-245.71 174.01,-153.98 226,-102.5 229.9,-98.64 234.6,-95.57 239.61,-93.11"/>
<polygon fill="#63b8ff" stroke="#63b8ff" points="153.24,-285.65 155.96,-295.89 160.22,-286.19 153.24,-285.65"/>
</a>
</g>
</g>
<!-- Node52 -->
<g id="Node000052" class="node">
<title>Node52</title>
<g id="a_Node000052"><a xlink:href="classQskSubWindowArea.html" target="_top" xlink:title=" ">
<polygon fill="white" stroke="#bfbfbf" points="341,-56 226,-56 226,-37 341,-37 341,-56"/>
<text text-anchor="middle" x="283.5" y="-44" font-family="Helvetica,sans-Serif" font-size="10.00">QskSubWindowArea</text>
</a>
</g>
</g>
<!-- Node2&#45;&gt;Node52 -->
<g id="edge17_Node000002_Node000052" class="edge">
<title>Node2&#45;&gt;Node52</title>
<g id="a_edge17_Node000002_Node000052"><a xlink:title=" ">
<path fill="none" stroke="#63b8ff" d="M155.48,-285.72C156.54,-240.45 165.49,-128.39 226,-65.5 229.73,-61.62 234.28,-58.54 239.15,-56.08"/>
<polygon fill="#63b8ff" stroke="#63b8ff" points="151.98,-285.67 155.36,-295.72 158.98,-285.76 151.98,-285.67"/>
</a>
</g>
</g>
<!-- Node53 -->
<g id="Node000053" class="node">
<title>Node53</title>
<g id="a_Node000053"><a xlink:href="classQskTabView.html" target="_top" xlink:title=" ">
<polygon fill="white" stroke="#bfbfbf" points="321.5,-19 245.5,-19 245.5,0 321.5,0 321.5,-19"/>
<text text-anchor="middle" x="283.5" y="-7" font-family="Helvetica,sans-Serif" font-size="10.00">QskTabView</text>
</a>
</g>
</g>
<!-- Node2&#45;&gt;Node53 -->
<g id="edge18_Node000002_Node000053" class="edge">
<title>Node2&#45;&gt;Node53</title>
<g id="a_edge18_Node000002_Node000053"><a xlink:title=" ">
<path fill="none" stroke="#63b8ff" d="M158.08,-285.61C165.82,-228.67 190.56,-66.71 226,-28.5 231.21,-22.89 238.13,-18.93 245.33,-16.14"/>
<polygon fill="#63b8ff" stroke="#63b8ff" points="154.57,-285.43 156.72,-295.81 161.51,-286.35 154.57,-285.43"/>
</a>
</g>
</g>
</g>
</svg>

<g id="navigator" transform="translate(0 0)" fill="#404254">
  <rect fill="#f2f5e9" fill-opacity="0.5" stroke="#606060" stroke-width=".5" x="0" y="0" width="60" height="60"/>
  <use id="zoomplus" xlink:href="#zoomPlus" x="17" y="9" onmousedown="handleZoom(evt,'in')"/>
  <use id="zoomminus" xlink:href="#zoomMin" x="42" y="9" onmousedown="handleZoom(evt,'out')"/>
  <use id="reset" xlink:href="#resetDef" x="30" y="36" onmousedown="handleReset()"/>
   <use id="arrowup" xlink:href="#arrowUp" x="0" y="0" onmousedown="handlePan(0,-1)"/>
  <use id="arrowright" xlink:href="#arrowRight" x="0" y="0" onmousedown="handlePan(1,0)"/>
  <use id="arrowdown" xlink:href="#arrowDown" x="0" y="0" onmousedown="handlePan(0,1)"/>
  <use id="arrowleft" xlink:href="#arrowLeft" x="0" y="0" onmousedown="handlePan(-1,0)"/>
</g>
<svg viewBox="0 0 15 15" width="100%" height="30px" preserveAspectRatio="xMaxYMin meet">
 <g id="arrow_out" transform="scale(0.3 0.3)">
  <a xlink:href="classQskSkinnable__inherit__graph_org.svg" target="_base">
   <rect id="button" ry="5" rx="5" y="6" x="6" height="38" width="38"
        fill="#f2f5e9" fill-opacity="0.5" stroke="#606060" stroke-width="1.0"/>
   <path id="arrow"
     d="M 11.500037,31.436501 C 11.940474,20.09759 22.043105,11.32322 32.158766,21.979434 L 37.068811,17.246167 C 37.068811,17.246167 37.088388,32 37.088388,32 L 22.160133,31.978069 C 22.160133,31.978069 26.997745,27.140456 26.997745,27.140456 C 18.528582,18.264221 13.291696,25.230495 11.500037,31.436501 z"
     style="fill:#404040;"/>
  </a>
 </g>
</svg>

<style type='text/css'>
<![CDATA[
[data-mouse-over-selected='false'] { opacity: 0.7; }
[data-mouse-over-selected='true']  { opacity: 1.0; }
]]>
</style>
<script type="application/ecmascript"><![CDATA[
document.addEventListener('DOMContentLoaded', (event) => {
  highlightEdges();
  highlightAdjacentNodes();
});
]]></script>
</svg>
