<?xml version="1.0" encoding="UTF-8" standalone="no"?>
<!DOCTYPE svg PUBLIC "-//W3C//DTD SVG 1.1//EN"
 "http://www.w3.org/Graphics/SVG/1.1/DTD/svg11.dtd">
<!-- Generated by graphviz version 2.43.0 (0)
 -->
<!-- Title: QskScrollBox Pages: 1 -->
<svg width="202pt" height="357pt"
 viewBox="0.00 0.00 202.00 357.00" xmlns="http://www.w3.org/2000/svg" xmlns:xlink="http://www.w3.org/1999/xlink">
<g id="graph0" class="graph" transform="scale(1 1) rotate(0) translate(4 353)">
<title>QskScrollBox</title>
<!-- Node1 -->
<g id="Node000001" class="node">
<title>Node1</title>
<g id="a_Node000001"><a xlink:title=" ">
<polygon fill="#999999" stroke="#666666" points="142,-184 61,-184 61,-165 142,-165 142,-184"/>
<text text-anchor="middle" x="101.5" y="-172" font-family="Helvetica,sans-Serif" font-size="10.00">QskScrollBox</text>
</a>
</g>
</g>
<!-- Node6 -->
<g id="Node000006" class="node">
<title>Node6</title>
<g id="a_Node000006"><a xlink:href="classQskScrollView.html" target="_top" xlink:title=" ">
<polygon fill="white" stroke="#bfbfbf" points="144.5,-129 58.5,-129 58.5,-110 144.5,-110 144.5,-129"/>
<text text-anchor="middle" x="101.5" y="-117" font-family="Helvetica,sans-Serif" font-size="10.00">QskScrollView</text>
</a>
</g>
</g>
<!-- Node1&#45;&gt;Node6 -->
<g id="edge5_Node000001_Node000006" class="edge">
<title>Node1&#45;&gt;Node6</title>
<g id="a_edge5_Node000001_Node000006"><a xlink:title=" ">
<path fill="none" stroke="#63b8ff" d="M101.5,-154.66C101.5,-145.93 101.5,-135.99 101.5,-129.09"/>
<polygon fill="#63b8ff" stroke="#63b8ff" points="98,-154.75 101.5,-164.75 105,-154.75 98,-154.75"/>
</a>
</g>
</g>
<!-- Node2 -->
<g id="Node000002" class="node">
<title>Node2</title>
<g id="a_Node000002"><a xlink:href="classQskControl.html" target="_top" xlink:title="Base class of all controls.">
<polygon fill="white" stroke="#666666" points="137,-239 66,-239 66,-220 137,-220 137,-239"/>
<text text-anchor="middle" x="101.5" y="-227" font-family="Helvetica,sans-Serif" font-size="10.00">QskControl</text>
</a>
</g>
</g>
<!-- Node2&#45;&gt;Node1 -->
<g id="edge1_Node000001_Node000002" class="edge">
<title>Node2&#45;&gt;Node1</title>
<g id="a_edge1_Node000001_Node000002"><a xlink:title=" ">
<path fill="none" stroke="#63b8ff" d="M101.5,-209.66C101.5,-200.93 101.5,-190.99 101.5,-184.09"/>
<polygon fill="#63b8ff" stroke="#63b8ff" points="98,-209.75 101.5,-219.75 105,-209.75 98,-209.75"/>
</a>
</g>
</g>
<!-- Node3 -->
<g id="Node000003" class="node">
<title>Node3</title>
<g id="a_Node000003"><a xlink:href="classQskItem.html" target="_top" xlink:title=" ">
<polygon fill="white" stroke="#666666" points="86.5,-294 28.5,-294 28.5,-275 86.5,-275 86.5,-294"/>
<text text-anchor="middle" x="57.5" y="-282" font-family="Helvetica,sans-Serif" font-size="10.00">QskItem</text>
</a>
</g>
</g>
<!-- Node3&#45;&gt;Node2 -->
<g id="edge2_Node000002_Node000003" class="edge">
<title>Node3&#45;&gt;Node2</title>
<g id="a_edge2_Node000002_Node000003"><a xlink:title=" ">
<path fill="none" stroke="#63b8ff" d="M71.23,-266.96C78.9,-257.72 88.13,-246.6 94.37,-239.09"/>
<polygon fill="#63b8ff" stroke="#63b8ff" points="68.46,-264.82 64.77,-274.75 73.85,-269.29 68.46,-264.82"/>
</a>
</g>
</g>
<!-- Node4 -->
<g id="Node000004" class="node">
<title>Node4</title>
<g id="a_Node000004"><a xlink:title=" ">
<polygon fill="white" stroke="#bfbfbf" points="94.5,-349 20.5,-349 20.5,-330 94.5,-330 94.5,-349"/>
<text text-anchor="middle" x="57.5" y="-337" font-family="Helvetica,sans-Serif" font-size="10.00">QQuickItem</text>
</a>
</g>
</g>
<!-- Node4&#45;&gt;Node3 -->
<g id="edge3_Node000003_Node000004" class="edge">
<title>Node4&#45;&gt;Node3</title>
<g id="a_edge3_Node000003_Node000004"><a xlink:title=" ">
<path fill="none" stroke="#63b8ff" d="M57.5,-319.66C57.5,-310.93 57.5,-300.99 57.5,-294.09"/>
<polygon fill="#63b8ff" stroke="#63b8ff" points="54,-319.75 57.5,-329.75 61,-319.75 54,-319.75"/>
</a>
</g>
</g>
<!-- Node5 -->
<g id="Node000005" class="node">
<title>Node5</title>
<g id="a_Node000005"><a xlink:href="classQskSkinnable.html" target="_top" xlink:title=" ">
<polygon fill="white" stroke="#666666" points="188,-294 105,-294 105,-275 188,-275 188,-294"/>
<text text-anchor="middle" x="146.5" y="-282" font-family="Helvetica,sans-Serif" font-size="10.00">QskSkinnable</text>
</a>
</g>
</g>
<!-- Node5&#45;&gt;Node2 -->
<g id="edge4_Node000002_Node000005" class="edge">
<title>Node5&#45;&gt;Node2</title>
<g id="a_edge4_Node000002_Node000005"><a xlink:title=" ">
<path fill="none" stroke="#63b8ff" d="M132.45,-266.96C124.61,-257.72 115.17,-246.6 108.79,-239.09"/>
<polygon fill="#63b8ff" stroke="#63b8ff" points="129.93,-269.39 139.07,-274.75 135.26,-264.86 129.93,-269.39"/>
</a>
</g>
</g>
<!-- Node7 -->
<g id="Node000007" class="node">
<title>Node7</title>
<g id="a_Node000007"><a xlink:href="classQskListView.html" target="_top" xlink:title=" ">
<polygon fill="white" stroke="#bfbfbf" points="91,-74 14,-74 14,-55 91,-55 91,-74"/>
<text text-anchor="middle" x="52.5" y="-62" font-family="Helvetica,sans-Serif" font-size="10.00">QskListView</text>
</a>
</g>
</g>
<!-- Node6&#45;&gt;Node7 -->
<g id="edge6_Node000006_Node000007" class="edge">
<title>Node6&#45;&gt;Node7</title>
<g id="a_edge6_Node000006_Node000007"><a xlink:title=" ">
<path fill="none" stroke="#63b8ff" d="M86.47,-102.24C77.88,-92.95 67.46,-81.68 60.44,-74.09"/>
<polygon fill="#63b8ff" stroke="#63b8ff" points="84.05,-104.78 93.41,-109.75 89.19,-100.03 84.05,-104.78"/>
</a>
</g>
</g>
<!-- Node9 -->
<g id="Node000009" class="node">
<title>Node9</title>
<g id="a_Node000009"><a xlink:href="classQskScrollArea.html" target="_top" xlink:title=" ">
<polygon fill="white" stroke="#bfbfbf" points="194,-74 109,-74 109,-55 194,-55 194,-74"/>
<text text-anchor="middle" x="151.5" y="-62" font-family="Helvetica,sans-Serif" font-size="10.00">QskScrollArea</text>
</a>
</g>
</g>
<!-- Node6&#45;&gt;Node9 -->
<g id="edge8_Node000006_Node000009" class="edge">
<title>Node6&#45;&gt;Node9</title>
<g id="a_edge8_Node000006_Node000009"><a xlink:title=" ">
<path fill="none" stroke="#63b8ff" d="M116.84,-102.24C125.6,-92.95 136.24,-81.68 143.4,-74.09"/>
<polygon fill="#63b8ff" stroke="#63b8ff" points="114.07,-100.07 109.76,-109.75 119.16,-104.88 114.07,-100.07"/>
</a>
</g>
</g>
<!-- Node8 -->
<g id="Node000008" class="node">
<title>Node8</title>
<g id="a_Node000008"><a xlink:href="classQskSimpleListBox.html" target="_top" xlink:title=" ">
<polygon fill="white" stroke="#666666" points="105,-19 0,-19 0,0 105,0 105,-19"/>
<text text-anchor="middle" x="52.5" y="-7" font-family="Helvetica,sans-Serif" font-size="10.00">QskSimpleListBox</text>
</a>
</g>
</g>
<!-- Node7&#45;&gt;Node8 -->
<g id="edge7_Node000007_Node000008" class="edge">
<title>Node7&#45;&gt;Node8</title>
<g id="a_edge7_Node000007_Node000008"><a xlink:title=" ">
<path fill="none" stroke="#63b8ff" d="M52.5,-44.66C52.5,-35.93 52.5,-25.99 52.5,-19.09"/>
<polygon fill="#63b8ff" stroke="#63b8ff" points="49,-44.75 52.5,-54.75 56,-44.75 49,-44.75"/>
</a>
</g>
</g>
</g>
</svg>
