<?xml version="1.0" encoding="UTF-8" standalone="no"?>
<!DOCTYPE svg PUBLIC "-//W3C//DTD SVG 1.1//EN"
 "http://www.w3.org/Graphics/SVG/1.1/DTD/svg11.dtd">
<!-- Generated by graphviz version 2.43.0 (0)
 -->
<!-- Title: QskAnimator Pages: 1 -->
<svg width="418pt" height="175pt"
 viewBox="0.00 0.00 418.00 175.00" xmlns="http://www.w3.org/2000/svg" xmlns:xlink="http://www.w3.org/1999/xlink">

<svg id="main" version="1.1" xmlns="http://www.w3.org/2000/svg" xmlns:xlink="http://www.w3.org/1999/xlink" xml:space="preserve" onload="init(evt)">
<style type="text/css"><![CDATA[
.node, .edge {opacity: 0.7;}
.node.selected, .edge.selected {opacity: 1;}
.edge:hover path { stroke: red; }
.edge:hover polygon { stroke: red; fill: red; }
]]></style>
<script type="application/ecmascript" xlink:href="svg.min.js"/>
<svg id="graph" class="graph">
<g id="graph0" class="graph" transform="scale(1 1) rotate(0) translate(4 171)">
<title>QskAnimator</title>
<!-- Node1 -->
<g id="Node000001" class="node">
<title>Node1</title>
<g id="a_Node000001"><a xlink:title=" ">
<polygon fill="#999999" stroke="#666666" points="80,-93 0,-93 0,-74 80,-74 80,-93"/>
<text text-anchor="middle" x="40" y="-81" font-family="Helvetica,sans-Serif" font-size="10.00">QskAnimator</text>
</a>
</g>
</g>
<!-- Node2 -->
<g id="Node000002" class="node">
<title>Node2</title>
<g id="a_Node000002"><a xlink:href="classQskFlickAnimator.html" target="_top" xlink:title=" ">
<polygon fill="white" stroke="#bfbfbf" points="231,-130 127,-130 127,-111 231,-111 231,-130"/>
<text text-anchor="middle" x="179" y="-118" font-family="Helvetica,sans-Serif" font-size="10.00">QskFlickAnimator</text>
</a>
</g>
</g>
<!-- Node1&#45;&gt;Node2 -->
<g id="edge1_Node000001_Node000002" class="edge">
<title>Node1&#45;&gt;Node2</title>
<g id="a_edge1_Node000001_Node000002"><a xlink:title=" ">
<path fill="none" stroke="#63b8ff" d="M86.13,-95.69C104.4,-100.62 125.19,-106.24 142.36,-110.88"/>
<polygon fill="#63b8ff" stroke="#63b8ff" points="86.85,-92.26 76.28,-93.03 85.02,-99.01 86.85,-92.26"/>
</a>
</g>
</g>
<!-- Node3 -->
<g id="Node000003" class="node">
<title>Node3</title>
<g id="a_Node000003"><a xlink:href="classQskStackBoxAnimator.html" target="_top" xlink:title=" ">
<polygon fill="white" stroke="#bfbfbf" points="242,-93 116,-93 116,-74 242,-74 242,-93"/>
<text text-anchor="middle" x="179" y="-81" font-family="Helvetica,sans-Serif" font-size="10.00">QskStackBoxAnimator</text>
</a>
</g>
</g>
<!-- Node1&#45;&gt;Node3 -->
<g id="edge2_Node000001_Node000003" class="edge">
<title>Node1&#45;&gt;Node3</title>
<g id="a_edge2_Node000001_Node000003"><a xlink:title=" ">
<path fill="none" stroke="#63b8ff" d="M90.48,-83.5C98.76,-83.5 107.43,-83.5 115.98,-83.5"/>
<polygon fill="#63b8ff" stroke="#63b8ff" points="90.26,-80 80.26,-83.5 90.26,-87 90.26,-80"/>
</a>
</g>
</g>
<!-- Node8 -->
<g id="Node000008" class="node">
<title>Node8</title>
<g id="a_Node000008"><a xlink:href="classQskVariantAnimator.html" target="_top" xlink:title=" ">
<polygon fill="white" stroke="#bfbfbf" points="236.5,-38 121.5,-38 121.5,-19 236.5,-19 236.5,-38"/>
<text text-anchor="middle" x="179" y="-26" font-family="Helvetica,sans-Serif" font-size="10.00">QskVariantAnimator</text>
</a>
</g>
</g>
<!-- Node1&#45;&gt;Node8 -->
<g id="edge7_Node000001_Node000008" class="edge">
<title>Node1&#45;&gt;Node8</title>
<g id="a_edge7_Node000001_Node000008"><a xlink:title=" ">
<path fill="none" stroke="#63b8ff" d="M74.18,-70.18C98.81,-60.29 131.83,-47.04 153.95,-38.16"/>
<polygon fill="#63b8ff" stroke="#63b8ff" points="72.84,-66.95 64.86,-73.92 75.45,-73.44 72.84,-66.95"/>
</a>
</g>
</g>
<!-- Node4 -->
<g id="Node000004" class="node">
<title>Node4</title>
<g id="a_Node000004"><a xlink:href="classQskStackBoxAnimator1.html" target="_top" xlink:title=" ">
<polygon fill="white" stroke="#bfbfbf" points="410,-167 278,-167 278,-148 410,-148 410,-167"/>
<text text-anchor="middle" x="344" y="-155" font-family="Helvetica,sans-Serif" font-size="10.00">QskStackBoxAnimator1</text>
</a>
</g>
</g>
<!-- Node3&#45;&gt;Node4 -->
<g id="edge3_Node000003_Node000004" class="edge">
<title>Node3&#45;&gt;Node4</title>
<g id="a_edge3_Node000003_Node000004"><a xlink:title=" ">
<path fill="none" stroke="#63b8ff" d="M231.15,-96.86C234.92,-98.54 238.58,-100.41 242,-102.5 261.58,-114.46 258.26,-127.81 278,-139.5 283.74,-142.9 290.15,-145.68 296.64,-147.94"/>
<polygon fill="#63b8ff" stroke="#63b8ff" points="232.2,-93.51 221.61,-93.08 229.61,-100.02 232.2,-93.51"/>
</a>
</g>
</g>
<!-- Node5 -->
<g id="Node000005" class="node">
<title>Node5</title>
<g id="a_Node000005"><a xlink:href="classQskStackBoxAnimator2.html" target="_top" xlink:title=" ">
<polygon fill="white" stroke="#bfbfbf" points="410,-130 278,-130 278,-111 410,-111 410,-130"/>
<text text-anchor="middle" x="344" y="-118" font-family="Helvetica,sans-Serif" font-size="10.00">QskStackBoxAnimator2</text>
</a>
</g>
</g>
<!-- Node3&#45;&gt;Node5 -->
<g id="edge4_Node000003_Node000005" class="edge">
<title>Node3&#45;&gt;Node5</title>
<g id="a_edge4_Node000003_Node000005"><a xlink:title=" ">
<path fill="none" stroke="#63b8ff" d="M231.93,-95.29C254.19,-100.34 279.84,-106.16 300.88,-110.94"/>
<polygon fill="#63b8ff" stroke="#63b8ff" points="232.5,-91.83 221.98,-93.03 230.95,-98.66 232.5,-91.83"/>
</a>
</g>
</g>
<!-- Node6 -->
<g id="Node000006" class="node">
<title>Node6</title>
<g id="a_Node000006"><a xlink:href="classQskStackBoxAnimator3.html" target="_top" xlink:title=" ">
<polygon fill="white" stroke="#bfbfbf" points="410,-93 278,-93 278,-74 410,-74 410,-93"/>
<text text-anchor="middle" x="344" y="-81" font-family="Helvetica,sans-Serif" font-size="10.00">QskStackBoxAnimator3</text>
</a>
</g>
</g>
<!-- Node3&#45;&gt;Node6 -->
<g id="edge5_Node000003_Node000006" class="edge">
<title>Node3&#45;&gt;Node6</title>
<g id="a_edge5_Node000003_Node000006"><a xlink:title=" ">
<path fill="none" stroke="#63b8ff" d="M252.35,-83.5C260.83,-83.5 269.45,-83.5 277.83,-83.5"/>
<polygon fill="#63b8ff" stroke="#63b8ff" points="252.09,-80 242.09,-83.5 252.09,-87 252.09,-80"/>
</a>
</g>
</g>
<!-- Node7 -->
<g id="Node000007" class="node">
<title>Node7</title>
<g id="a_Node000007"><a xlink:href="classQskStackBoxAnimator4.html" target="_top" xlink:title=" ">
<polygon fill="white" stroke="#bfbfbf" points="410,-56 278,-56 278,-37 410,-37 410,-56"/>
<text text-anchor="middle" x="344" y="-44" font-family="Helvetica,sans-Serif" font-size="10.00">QskStackBoxAnimator4</text>
</a>
</g>
</g>
<!-- Node3&#45;&gt;Node7 -->
<g id="edge6_Node000003_Node000007" class="edge">
<title>Node3&#45;&gt;Node7</title>
<g id="a_edge6_Node000003_Node000007"><a xlink:title=" ">
<path fill="none" stroke="#63b8ff" d="M231.93,-71.71C254.19,-66.66 279.84,-60.84 300.88,-56.06"/>
<polygon fill="#63b8ff" stroke="#63b8ff" points="230.95,-68.34 221.98,-73.97 232.5,-75.17 230.95,-68.34"/>
</a>
</g>
</g>
<!-- Node9 -->
<g id="Node000009" class="node">
<title>Node9</title>
<g id="a_Node000009"><a xlink:href="classQskHintAnimator.html" target="_top" xlink:title=" ">
<polygon fill="white" stroke="#bfbfbf" points="394.5,-19 293.5,-19 293.5,0 394.5,0 394.5,-19"/>
<text text-anchor="middle" x="344" y="-7" font-family="Helvetica,sans-Serif" font-size="10.00">QskHintAnimator</text>
</a>
</g>
</g>
<!-- Node8&#45;&gt;Node9 -->
<g id="edge8_Node000008_Node000009" class="edge">
<title>Node8&#45;&gt;Node9</title>
<g id="a_edge8_Node000008_Node000009"><a xlink:title=" ">
<path fill="none" stroke="#63b8ff" d="M246.67,-20.73C262.28,-18.91 278.63,-17 293.34,-15.29"/>
<polygon fill="#63b8ff" stroke="#63b8ff" points="246.08,-17.27 236.55,-21.91 246.89,-24.23 246.08,-17.27"/>
</a>
</g>
</g>
</g>
</svg>
</svg>

<style type='text/css'>
<![CDATA[
[data-mouse-over-selected='false'] { opacity: 0.7; }
[data-mouse-over-selected='true']  { opacity: 1.0; }
]]>
</style>
<script type="application/ecmascript"><![CDATA[
document.addEventListener('DOMContentLoaded', (event) => {
  highlightEdges();
  highlightAdjacentNodes();
});
]]></script>
</svg>
