<?xml version="1.0" encoding="UTF-8" standalone="no"?>
<!DOCTYPE svg PUBLIC "-//W3C//DTD SVG 1.1//EN"
 "http://www.w3.org/Graphics/SVG/1.1/DTD/svg11.dtd">
<!-- Generated by graphviz version 2.43.0 (0)
 -->
<!-- Title: QskFillNode Pages: 1 -->
<svg width="486pt" height="137pt"
 viewBox="0.00 0.00 485.50 137.00" xmlns="http://www.w3.org/2000/svg" xmlns:xlink="http://www.w3.org/1999/xlink">
<g id="graph0" class="graph" transform="scale(1 1) rotate(0) translate(4 133)">
<title>QskFillNode</title>
<!-- Node1 -->
<g id="Node000001" class="node">
<title>Node1</title>
<g id="a_Node000001"><a xlink:title=" ">
<polygon fill="#999999" stroke="#666666" points="295,-74 220,-74 220,-55 295,-55 295,-74"/>
<text text-anchor="middle" x="257.5" y="-62" font-family="Helvetica,sans-Serif" font-size="10.00">QskFillNode</text>
</a>
</g>
</g>
<!-- Node3 -->
<g id="Node000003" class="node">
<title>Node3</title>
<g id="a_Node000003"><a xlink:href="classQskArcRenderNode.html" target="_top" xlink:title=" ">
<polygon fill="white" stroke="#bfbfbf" points="111,-19 0,-19 0,0 111,0 111,-19"/>
<text text-anchor="middle" x="55.5" y="-7" font-family="Helvetica,sans-Serif" font-size="10.00">QskArcRenderNode</text>
</a>
</g>
</g>
<!-- Node1&#45;&gt;Node3 -->
<g id="edge2_Node000001_Node000003" class="edge">
<title>Node1&#45;&gt;Node3</title>
<g id="a_edge2_Node000001_Node000003"><a xlink:title=" ">
<path fill="none" stroke="#63b8ff" d="M215.34,-52.44C177.52,-42.52 122.81,-28.16 88.21,-19.08"/>
<polygon fill="#63b8ff" stroke="#63b8ff" points="214.48,-55.83 225.05,-54.98 216.26,-49.06 214.48,-55.83"/>
</a>
</g>
</g>
<!-- Node4 -->
<g id="Node000004" class="node">
<title>Node4</title>
<g id="a_Node000004"><a xlink:href="classQskBoxRectangleNode.html" target="_top" xlink:title=" ">
<polygon fill="white" stroke="#bfbfbf" points="257.5,-19 129.5,-19 129.5,0 257.5,0 257.5,-19"/>
<text text-anchor="middle" x="193.5" y="-7" font-family="Helvetica,sans-Serif" font-size="10.00">QskBoxRectangleNode</text>
</a>
</g>
</g>
<!-- Node1&#45;&gt;Node4 -->
<g id="edge3_Node000001_Node000004" class="edge">
<title>Node1&#45;&gt;Node4</title>
<g id="a_edge3_Node000001_Node000004"><a xlink:title=" ">
<path fill="none" stroke="#63b8ff" d="M239.51,-48.6C228.04,-39.11 213.59,-27.13 203.97,-19.17"/>
<polygon fill="#63b8ff" stroke="#63b8ff" points="237.28,-51.3 247.22,-54.98 241.75,-45.91 237.28,-51.3"/>
</a>
</g>
</g>
<!-- Node5 -->
<g id="Node000005" class="node">
<title>Node5</title>
<g id="a_Node000005"><a xlink:href="classQskShapeNode.html" target="_top" xlink:title=" ">
<polygon fill="white" stroke="#bfbfbf" points="367,-19 276,-19 276,0 367,0 367,-19"/>
<text text-anchor="middle" x="321.5" y="-7" font-family="Helvetica,sans-Serif" font-size="10.00">QskShapeNode</text>
</a>
</g>
</g>
<!-- Node1&#45;&gt;Node5 -->
<g id="edge4_Node000001_Node000005" class="edge">
<title>Node1&#45;&gt;Node5</title>
<g id="a_edge4_Node000001_Node000005"><a xlink:title=" ">
<path fill="none" stroke="#63b8ff" d="M275.49,-48.6C286.96,-39.11 301.41,-27.13 311.03,-19.17"/>
<polygon fill="#63b8ff" stroke="#63b8ff" points="273.25,-45.91 267.78,-54.98 277.72,-51.3 273.25,-45.91"/>
</a>
</g>
</g>
<!-- Node6 -->
<g id="Node000006" class="node">
<title>Node6</title>
<g id="a_Node000006"><a xlink:href="classQskStrokeNode.html" target="_top" xlink:title=" ">
<polygon fill="white" stroke="#bfbfbf" points="477.5,-19 385.5,-19 385.5,0 477.5,0 477.5,-19"/>
<text text-anchor="middle" x="431.5" y="-7" font-family="Helvetica,sans-Serif" font-size="10.00">QskStrokeNode</text>
</a>
</g>
</g>
<!-- Node1&#45;&gt;Node6 -->
<g id="edge5_Node000001_Node000006" class="edge">
<title>Node1&#45;&gt;Node6</title>
<g id="a_edge5_Node000001_Node000006"><a xlink:title=" ">
<path fill="none" stroke="#63b8ff" d="M295.07,-52.06C327.59,-42.15 373.9,-28.04 403.32,-19.08"/>
<polygon fill="#63b8ff" stroke="#63b8ff" points="294,-48.72 285.46,-54.98 296.04,-55.42 294,-48.72"/>
</a>
</g>
</g>
<!-- Node2 -->
<g id="Node000002" class="node">
<title>Node2</title>
<g id="a_Node000002"><a xlink:title=" ">
<polygon fill="white" stroke="#bfbfbf" points="313.5,-129 201.5,-129 201.5,-110 313.5,-110 313.5,-129"/>
<text text-anchor="middle" x="257.5" y="-117" font-family="Helvetica,sans-Serif" font-size="10.00">QSGGeometryNode</text>
</a>
</g>
</g>
<!-- Node2&#45;&gt;Node1 -->
<g id="edge1_Node000001_Node000002" class="edge">
<title>Node2&#45;&gt;Node1</title>
<g id="a_edge1_Node000001_Node000002"><a xlink:title=" ">
<path fill="none" stroke="#63b8ff" d="M257.5,-99.66C257.5,-90.93 257.5,-80.99 257.5,-74.09"/>
<polygon fill="#63b8ff" stroke="#63b8ff" points="254,-99.75 257.5,-109.75 261,-99.75 254,-99.75"/>
</a>
</g>
</g>
</g>
</svg>
