<?xml version="1.0" encoding="UTF-8" standalone="no"?>
<!DOCTYPE svg PUBLIC "-//W3C//DTD SVG 1.1//EN"
 "http://www.w3.org/Graphics/SVG/1.1/DTD/svg11.dtd">
<!-- Generated by graphviz version 2.43.0 (0)
 -->
<!-- Title: skinny Pages: 1 -->
<!--zoomable 150 -->

<svg id="main" version="1.1" xmlns="http://www.w3.org/2000/svg" xmlns:xlink="http://www.w3.org/1999/xlink" xml:space="preserve" onload="init(evt)">
<style type="text/css"><![CDATA[
.node, .edge {opacity: 0.7;}
.node.selected, .edge.selected {opacity: 1;}
.edge:hover path { stroke: red; }
.edge:hover polygon { stroke: red; fill: red; }
]]></style>

<defs>
  <circle id="rim" cx="0" cy="0" r="7"/>
  <circle id="rim2" cx="0" cy="0" r="3.5"/>
  <g id="zoomPlus">
    <use xlink:href="#rim" fill="#404040"><set attributeName="fill" to="#808080" begin="zoomplus.mouseover" end="zoomplus.mouseout"/></use>
    <path d="M-4,0h8M0,-4v8" fill="none" stroke="white" stroke-width="1.5" pointer-events="none"/>
  </g>
  <g id="zoomMin">
    <use xlink:href="#rim" fill="#404040"><set attributeName="fill" to="#808080" begin="zoomminus.mouseover" end="zoomminus.mouseout"/></use>
    <path d="M-4,0h8" fill="none" stroke="white" stroke-width="1.5" pointer-events="none"/>
  </g>
  <g id="arrowUp" transform="translate(30 24)">
    <use xlink:href="#rim"/>
    <path pointer-events="none" fill="none" stroke="white" stroke-width="1.5" d="M0,-3.0v7 M-2.5,-0.5L0,-3.0L2.5,-0.5"/>
  </g>
  <g id="arrowRight" transform="rotate(90) translate(36 -43)">
    <use xlink:href="#rim"/>
    <path pointer-events="none" fill="none" stroke="white" stroke-width="1.5" d="M0,-3.0v7 M-2.5,-0.5L0,-3.0L2.5,-0.5"/>
  </g>
  <g id="arrowDown" transform="rotate(180) translate(-30 -48)">
    <use xlink:href="#rim"/>
    <path pointer-events="none" fill="none" stroke="white" stroke-width="1.5" d="M0,-3.0v7 M-2.5,-0.5L0,-3.0L2.5,-0.5"/>
  </g>
  <g id="arrowLeft" transform="rotate(270) translate(-36 17)">
    <use xlink:href="#rim"/>
    <path pointer-events="none" fill="none" stroke="white" stroke-width="1.5" d="M0,-3.0v7 M-2.5,-0.5L0,-3.0L2.5,-0.5"/>
  </g>
  <g id="resetDef">
    <use xlink:href="#rim2" fill="#404040"><set attributeName="fill" to="#808080" begin="reset.mouseover" end="reset.mouseout"/></use>
  </g>
</defs>
<script type="application/ecmascript">
var viewWidth = 868;
var viewHeight = 150;
</script>
<script type="application/ecmascript" xlink:href="svg.min.js"/>
<svg id="graph" class="graph">
<g id="viewport">
<title>skinny</title>
<polygon fill="white" stroke="transparent" points="-4,4 -4,-146 864.14,-146 864.14,4 -4,4"/>
<!-- table -->
<g id="node1" class="node">
<title>table</title>
<polygon fill="none" stroke="black" points="98.04,-72.5 98.04,-141.5 728.04,-141.5 728.04,-72.5 98.04,-72.5"/>
<text text-anchor="middle" x="413.04" y="-126.3" font-family="Times,serif" font-size="14.00">QSkinny: key functionality and classes</text>
<polyline fill="none" stroke="black" points="98.04,-118.5 728.04,-118.5 "/>
<text text-anchor="middle" x="199.54" y="-103.3" font-family="Times,serif" font-size="14.00">Controls</text>
<polyline fill="none" stroke="black" points="98.04,-95.5 301.04,-95.5 "/>
<text text-anchor="middle" x="199.54" y="-80.3" font-family="Times,serif" font-size="14.00">API, logic and layout of UI</text>
<polyline fill="none" stroke="black" points="301.04,-72.5 301.04,-118.5 "/>
<text text-anchor="middle" x="435.04" y="-103.3" font-family="Times,serif" font-size="14.00">Rendering</text>
<polyline fill="none" stroke="black" points="301.04,-95.5 569.04,-95.5 "/>
<text text-anchor="middle" x="435.04" y="-80.3" font-family="Times,serif" font-size="14.00">Delegation of rendering commands</text>
<polyline fill="none" stroke="black" points="569.04,-72.5 569.04,-118.5 "/>
<text text-anchor="middle" x="648.54" y="-103.3" font-family="Times,serif" font-size="14.00">Styling</text>
<polyline fill="none" stroke="black" points="569.04,-95.5 728.04,-95.5 "/>
<text text-anchor="middle" x="648.54" y="-80.3" font-family="Times,serif" font-size="14.00">Visual configuration</text>
</g>
<!-- QskControl -->
<g id="node2" class="node">
<title>QskControl</title>
<g id="a_node2"><a xlink:href="classQskControl.html" target="_top" xlink:title="QskControl">
<ellipse fill="none" stroke="black" cx="63.04" cy="-18" rx="63.09" ry="18"/>
<text text-anchor="middle" x="63.04" y="-14.3" font-family="Times,serif" font-size="14.00">QskControl</text>
</a>
</g>
</g>
<!-- table&#45;&gt;QskControl -->
<g id="edge1" class="edge">
<title>table:s&#45;&gt;QskControl</title>
<path fill="none" stroke="black" d="M199.04,-72C199.04,-62.63 153.61,-46.38 115.27,-34.34"/>
<polygon fill="black" stroke="black" points="116.29,-31 105.7,-31.38 114.22,-37.68 116.29,-31"/>
</g>
<!-- QskLayout -->
<g id="node3" class="node">
<title>QskLayout</title>
<g id="a_node3"><a xlink:href="" target="_top" xlink:title="QskLayout">
<ellipse fill="none" stroke="black" cx="204.04" cy="-18" rx="59.59" ry="18"/>
<text text-anchor="middle" x="204.04" y="-14.3" font-family="Times,serif" font-size="14.00">QskLayout</text>
</a>
</g>
</g>
<!-- table&#45;&gt;QskLayout -->
<g id="edge2" class="edge">
<title>table:s&#45;&gt;QskLayout</title>
<path fill="none" stroke="black" d="M199.04,-72C199.04,-63.65 199.67,-54.58 200.47,-46.35"/>
<polygon fill="black" stroke="black" points="203.98,-46.47 201.6,-36.15 197.03,-45.7 203.98,-46.47"/>
</g>
<!-- QskSkinlet -->
<g id="node4" class="node">
<title>QskSkinlet</title>
<g id="a_node4"><a xlink:href="classQskSkinlet.html" target="_top" xlink:title="QskSkinlet">
<ellipse fill="none" stroke="black" cx="360.04" cy="-18" rx="61.19" ry="18"/>
<text text-anchor="middle" x="360.04" y="-14.3" font-family="Times,serif" font-size="14.00">QskSkinlet</text>
</a>
</g>
</g>
<!-- table&#45;&gt;QskSkinlet -->
<g id="edge3" class="edge">
<title>table:s&#45;&gt;QskSkinlet</title>
<path fill="none" stroke="black" d="M435.04,-72C435.04,-56.02 423.55,-44.43 409.57,-36.25"/>
<polygon fill="black" stroke="black" points="411.1,-33.1 400.62,-31.58 407.87,-39.3 411.1,-33.1"/>
</g>
<!-- QskGraphic -->
<g id="node5" class="node">
<title>QskGraphic</title>
<g id="a_node5"><a xlink:href="classQskGraphic.html" target="_top" xlink:title="QskGraphic">
<ellipse fill="none" stroke="black" cx="504.04" cy="-18" rx="64.99" ry="18"/>
<text text-anchor="middle" x="504.04" y="-14.3" font-family="Times,serif" font-size="14.00">QskGraphic</text>
</a>
</g>
</g>
<!-- table&#45;&gt;QskGraphic -->
<g id="edge4" class="edge">
<title>table:s&#45;&gt;QskGraphic</title>
<path fill="none" stroke="black" d="M435.04,-72C435.04,-57.4 444.89,-46.26 457.14,-38.06"/>
<polygon fill="black" stroke="black" points="459.1,-40.96 465.91,-32.85 455.53,-34.95 459.1,-40.96"/>
</g>
<!-- QskSkin -->
<g id="node6" class="node">
<title>QskSkin</title>
<g id="a_node6"><a xlink:href="classQskSkin.html" target="_top" xlink:title="QskSkin">
<ellipse fill="none" stroke="black" cx="645.04" cy="-18" rx="48.99" ry="18"/>
<text text-anchor="middle" x="645.04" y="-14.3" font-family="Times,serif" font-size="14.00">QskSkin</text>
</a>
</g>
</g>
<!-- table&#45;&gt;QskSkin -->
<g id="edge5" class="edge">
<title>table:s&#45;&gt;QskSkin</title>
<path fill="none" stroke="black" d="M649.04,-72C649.04,-63.66 648.55,-54.6 647.9,-46.37"/>
<polygon fill="black" stroke="black" points="651.36,-45.81 647,-36.16 644.39,-46.43 651.36,-45.81"/>
</g>
<!-- QskSkinnable -->
<g id="node7" class="node">
<title>QskSkinnable</title>
<g id="a_node7"><a xlink:href="classQskSkinnable.html" target="_top" xlink:title="QskSkinnable">
<ellipse fill="none" stroke="black" cx="786.04" cy="-18" rx="74.19" ry="18"/>
<text text-anchor="middle" x="786.04" y="-14.3" font-family="Times,serif" font-size="14.00">QskSkinnable</text>
</a>
</g>
</g>
<!-- table&#45;&gt;QskSkinnable -->
<g id="edge6" class="edge">
<title>table:s&#45;&gt;QskSkinnable</title>
<path fill="none" stroke="black" d="M649.04,-72C649.04,-55.22 685.26,-41.68 720.45,-32.49"/>
<polygon fill="black" stroke="black" points="721.47,-35.84 730.32,-30.01 719.77,-29.05 721.47,-35.84"/>
</g>
</g>
</svg>

<g id="navigator" transform="translate(0 0)" fill="#404254">
  <rect fill="#f2f5e9" fill-opacity="0.5" stroke="#606060" stroke-width=".5" x="0" y="0" width="60" height="60"/>
  <use id="zoomplus" xlink:href="#zoomPlus" x="17" y="9" onmousedown="handleZoom(evt,'in')"/>
  <use id="zoomminus" xlink:href="#zoomMin" x="42" y="9" onmousedown="handleZoom(evt,'out')"/>
  <use id="reset" xlink:href="#resetDef" x="30" y="36" onmousedown="handleReset()"/>
   <use id="arrowup" xlink:href="#arrowUp" x="0" y="0" onmousedown="handlePan(0,-1)"/>
  <use id="arrowright" xlink:href="#arrowRight" x="0" y="0" onmousedown="handlePan(1,0)"/>
  <use id="arrowdown" xlink:href="#arrowDown" x="0" y="0" onmousedown="handlePan(0,1)"/>
  <use id="arrowleft" xlink:href="#arrowLeft" x="0" y="0" onmousedown="handlePan(-1,0)"/>
</g>
<svg viewBox="0 0 15 15" width="100%" height="30px" preserveAspectRatio="xMaxYMin meet">
 <g id="arrow_out" transform="scale(0.3 0.3)">
  <a xlink:href="dot_inline_dotgraph_1_org.svg" target="_base">
   <rect id="button" ry="5" rx="5" y="6" x="6" height="38" width="38"
        fill="#f2f5e9" fill-opacity="0.5" stroke="#606060" stroke-width="1.0"/>
   <path id="arrow"
     d="M 11.500037,31.436501 C 11.940474,20.09759 22.043105,11.32322 32.158766,21.979434 L 37.068811,17.246167 C 37.068811,17.246167 37.088388,32 37.088388,32 L 22.160133,31.978069 C 22.160133,31.978069 26.997745,27.140456 26.997745,27.140456 C 18.528582,18.264221 13.291696,25.230495 11.500037,31.436501 z"
     style="fill:#404040;"/>
  </a>
 </g>
</svg>

<style type='text/css'>
<![CDATA[
[data-mouse-over-selected='false'] { opacity: 0.7; }
[data-mouse-over-selected='true']  { opacity: 1.0; }
]]>
</style>
<script type="application/ecmascript"><![CDATA[
document.addEventListener('DOMContentLoaded', (event) => {
  highlightEdges();
  highlightAdjacentNodes();
});
]]></script>
</svg>
