<?xml version="1.0" encoding="UTF-8" standalone="no"?>
<!DOCTYPE svg PUBLIC "-//W3C//DTD SVG 1.1//EN"
 "http://www.w3.org/Graphics/SVG/1.1/DTD/svg11.dtd">
<!-- Generated by graphviz version 2.43.0 (0)
 -->
<!-- Title: Graphical Class Hierarchy Pages: 1 -->
<svg width="249pt" height="138pt"
 viewBox="0.00 0.00 249.00 138.00" xmlns="http://www.w3.org/2000/svg" xmlns:xlink="http://www.w3.org/1999/xlink">
<g id="graph0" class="graph" transform="scale(1 1) rotate(0) translate(4 134)">
<title>Graphical Class Hierarchy</title>
<!-- Node0 -->
<g id="Node000000" class="node">
<title>Node0</title>
<g id="a_Node000000"><a xlink:href="classQskGesture.html" target="_top" xlink:title=" ">
<polygon fill="white" stroke="#666666" points="74,-74 0,-74 0,-55 74,-55 74,-74"/>
<text text-anchor="middle" x="37" y="-62" font-family="Helvetica,sans-Serif" font-size="10.00">QskGesture</text>
</a>
</g>
</g>
<!-- Node1 -->
<g id="Node000001" class="node">
<title>Node1</title>
<g id="a_Node000001"><a xlink:href="classQskPanGesture.html" target="_top" xlink:title=" ">
<polygon fill="white" stroke="#666666" points="221,-130 130,-130 130,-111 221,-111 221,-130"/>
<text text-anchor="middle" x="175.5" y="-118" font-family="Helvetica,sans-Serif" font-size="10.00">QskPanGesture</text>
</a>
</g>
</g>
<!-- Node0&#45;&gt;Node1 -->
<g id="edge114_Node000000_Node000001" class="edge">
<title>Node0&#45;&gt;Node1</title>
<g id="a_edge114_Node000000_Node000001"><a xlink:title=" ">
<path fill="none" stroke="#63b8ff" d="M62.6,-79.16C76.23,-86.85 93.68,-96 110,-102.5 117.99,-105.68 126.75,-108.53 135.17,-110.97"/>
<polygon fill="#63b8ff" stroke="#63b8ff" points="64.24,-76.07 53.83,-74.12 60.75,-82.14 64.24,-76.07"/>
</a>
</g>
</g>
<!-- Node2 -->
<g id="Node000002" class="node">
<title>Node2</title>
<g id="a_Node000002"><a xlink:href="classQskSwipeGesture.html" target="_top" xlink:title=" ">
<polygon fill="white" stroke="#666666" points="227,-93 124,-93 124,-74 227,-74 227,-93"/>
<text text-anchor="middle" x="175.5" y="-81" font-family="Helvetica,sans-Serif" font-size="10.00">QskSwipeGesture</text>
</a>
</g>
</g>
<!-- Node0&#45;&gt;Node2 -->
<g id="edge115_Node000000_Node000002" class="edge">
<title>Node0&#45;&gt;Node2</title>
<g id="a_edge115_Node000000_Node000002"><a xlink:title=" ">
<path fill="none" stroke="#63b8ff" d="M84.2,-70.93C96.99,-72.71 110.95,-74.65 123.98,-76.47"/>
<polygon fill="#63b8ff" stroke="#63b8ff" points="84.61,-67.45 74.22,-69.54 83.64,-74.39 84.61,-67.45"/>
</a>
</g>
</g>
<!-- Node3 -->
<g id="Node000003" class="node">
<title>Node3</title>
<g id="a_Node000003"><a xlink:href="classQskTapAndHoldGesture.html" target="_top" xlink:title=" ">
<polygon fill="white" stroke="#666666" points="241,-56 110,-56 110,-37 241,-37 241,-56"/>
<text text-anchor="middle" x="175.5" y="-44" font-family="Helvetica,sans-Serif" font-size="10.00">QskTapAndHoldGesture</text>
</a>
</g>
</g>
<!-- Node0&#45;&gt;Node3 -->
<g id="edge116_Node000000_Node000003" class="edge">
<title>Node0&#45;&gt;Node3</title>
<g id="a_edge116_Node000000_Node000003"><a xlink:title=" ">
<path fill="none" stroke="#63b8ff" d="M84.34,-58.39C92.55,-57.31 101.25,-56.16 109.86,-55.02"/>
<polygon fill="#63b8ff" stroke="#63b8ff" points="83.68,-54.95 74.22,-59.72 84.59,-61.89 83.68,-54.95"/>
</a>
</g>
</g>
<!-- Node4 -->
<g id="Node000004" class="node">
<title>Node4</title>
<g id="a_Node000004"><a xlink:href="classQskTapGesture.html" target="_top" xlink:title=" ">
<polygon fill="white" stroke="#666666" points="220.5,-19 130.5,-19 130.5,0 220.5,0 220.5,-19"/>
<text text-anchor="middle" x="175.5" y="-7" font-family="Helvetica,sans-Serif" font-size="10.00">QskTapGesture</text>
</a>
</g>
</g>
<!-- Node0&#45;&gt;Node4 -->
<g id="edge117_Node000000_Node000004" class="edge">
<title>Node0&#45;&gt;Node4</title>
<g id="a_edge117_Node000000_Node000004"><a xlink:title=" ">
<path fill="none" stroke="#63b8ff" d="M64.19,-50C77.63,-42.92 94.41,-34.64 110,-28.5 118.91,-24.99 128.73,-21.78 137.96,-19.04"/>
<polygon fill="#63b8ff" stroke="#63b8ff" points="62.23,-47.08 55.07,-54.89 65.53,-53.25 62.23,-47.08"/>
</a>
</g>
</g>
</g>
</svg>
