<?xml version="1.0" encoding="UTF-8" standalone="no"?>
<!DOCTYPE svg PUBLIC "-//W3C//DTD SVG 1.1//EN"
 "http://www.w3.org/Graphics/SVG/1.1/DTD/svg11.dtd">
<!-- Generated by graphviz version 2.43.0 (0)
 -->
<!-- Title: Graphical Class Hierarchy Pages: 1 -->
<svg width="436pt" height="841pt"
 viewBox="0.00 0.00 436.00 841.00" xmlns="http://www.w3.org/2000/svg" xmlns:xlink="http://www.w3.org/1999/xlink">
<g id="graph0" class="graph" transform="scale(1 1) rotate(0) translate(4 837)">
<title>Graphical Class Hierarchy</title>
<!-- Node0 -->
<g id="Node000000" class="node">
<title>Node0</title>
<g id="a_Node000000"><a xlink:href="classQskSkinlet.html" target="_top" xlink:title="Describes the rendering interface of a QskControl. Change the skinlet to change the appearance of the...">
<polygon fill="white" stroke="#666666" points="69,-426 0,-426 0,-407 69,-407 69,-426"/>
<text text-anchor="middle" x="34.5" y="-414" font-family="Helvetica,sans-Serif" font-size="10.00">QskSkinlet</text>
</a>
</g>
</g>
<!-- Node1 -->
<g id="Node000001" class="node">
<title>Node1</title>
<g id="a_Node000001"><a xlink:href="classQskBoxSkinlet.html" target="_top" xlink:title=" ">
<polygon fill="white" stroke="#666666" points="226,-833 138,-833 138,-814 226,-814 226,-833"/>
<text text-anchor="middle" x="182" y="-821" font-family="Helvetica,sans-Serif" font-size="10.00">QskBoxSkinlet</text>
</a>
</g>
</g>
<!-- Node0&#45;&gt;Node1 -->
<g id="edge132_Node000000_Node000001" class="edge">
<title>Node0&#45;&gt;Node1</title>
<g id="a_edge132_Node000000_Node000001"><a xlink:title=" ">
<path fill="none" stroke="#63b8ff" d="M36.27,-436.67C39.43,-508.63 53.76,-751.32 105,-805.5 113.57,-814.56 125.8,-819.44 137.94,-821.96"/>
<polygon fill="#63b8ff" stroke="#63b8ff" points="39.75,-436.15 35.84,-426.3 32.76,-436.44 39.75,-436.15"/>
</a>
</g>
</g>
<!-- Node2 -->
<g id="Node000002" class="node">
<title>Node2</title>
<g id="a_Node000002"><a xlink:href="classQskCheckBoxSkinlet.html" target="_top" xlink:title=" ">
<polygon fill="white" stroke="#666666" points="241,-796 123,-796 123,-777 241,-777 241,-796"/>
<text text-anchor="middle" x="182" y="-784" font-family="Helvetica,sans-Serif" font-size="10.00">QskCheckBoxSkinlet</text>
</a>
</g>
</g>
<!-- Node0&#45;&gt;Node2 -->
<g id="edge133_Node000000_Node000002" class="edge">
<title>Node0&#45;&gt;Node2</title>
<g id="a_edge133_Node000000_Node000002"><a xlink:title=" ">
<path fill="none" stroke="#63b8ff" d="M36.64,-436.04C40.94,-502.76 58.33,-720.04 105,-768.5 109.99,-773.68 116.16,-777.48 122.83,-780.26"/>
<polygon fill="#63b8ff" stroke="#63b8ff" points="40.13,-435.8 36.02,-426.04 33.15,-436.24 40.13,-435.8"/>
</a>
</g>
</g>
<!-- Node3 -->
<g id="Node000003" class="node">
<title>Node3</title>
<g id="a_Node000003"><a xlink:href="classQskComboBoxSkinlet.html" target="_top" xlink:title=" ">
<polygon fill="white" stroke="#666666" points="243,-759 121,-759 121,-740 243,-740 243,-759"/>
<text text-anchor="middle" x="182" y="-747" font-family="Helvetica,sans-Serif" font-size="10.00">QskComboBoxSkinlet</text>
</a>
</g>
</g>
<!-- Node0&#45;&gt;Node3 -->
<g id="edge134_Node000000_Node000003" class="edge">
<title>Node0&#45;&gt;Node3</title>
<g id="a_edge134_Node000000_Node000003"><a xlink:title=" ">
<path fill="none" stroke="#63b8ff" d="M37.16,-436.38C42.78,-498.75 63.11,-688.96 105,-731.5 109.47,-736.04 114.86,-739.52 120.69,-742.18"/>
<polygon fill="#63b8ff" stroke="#63b8ff" points="40.64,-435.94 36.28,-426.28 33.67,-436.55 40.64,-435.94"/>
</a>
</g>
</g>
<!-- Node4 -->
<g id="Node000004" class="node">
<title>Node4</title>
<g id="a_Node000004"><a xlink:href="classQskFocusIndicatorSkinlet.html" target="_top" xlink:title=" ">
<polygon fill="white" stroke="#666666" points="252,-722 112,-722 112,-703 252,-703 252,-722"/>
<text text-anchor="middle" x="182" y="-710" font-family="Helvetica,sans-Serif" font-size="10.00">QskFocusIndicatorSkinlet</text>
</a>
</g>
</g>
<!-- Node0&#45;&gt;Node4 -->
<g id="edge135_Node000000_Node000004" class="edge">
<title>Node0&#45;&gt;Node4</title>
<g id="a_edge135_Node000000_Node000004"><a xlink:title=" ">
<path fill="none" stroke="#63b8ff" d="M37.78,-436.24C44.77,-493.46 67.75,-657.71 105,-694.5 108.38,-697.83 112.25,-700.59 116.42,-702.87"/>
<polygon fill="#63b8ff" stroke="#63b8ff" points="41.22,-435.53 36.56,-426.01 34.26,-436.36 41.22,-435.53"/>
</a>
</g>
</g>
<!-- Node5 -->
<g id="Node000005" class="node">
<title>Node5</title>
<g id="a_Node000005"><a xlink:href="classQskGraphicLabelSkinlet.html" target="_top" xlink:title=" ">
<polygon fill="white" stroke="#666666" points="248.5,-685 115.5,-685 115.5,-666 248.5,-666 248.5,-685"/>
<text text-anchor="middle" x="182" y="-673" font-family="Helvetica,sans-Serif" font-size="10.00">QskGraphicLabelSkinlet</text>
</a>
</g>
</g>
<!-- Node0&#45;&gt;Node5 -->
<g id="edge136_Node000000_Node000005" class="edge">
<title>Node0&#45;&gt;Node5</title>
<g id="a_edge136_Node000000_Node000005"><a xlink:title=" ">
<path fill="none" stroke="#63b8ff" d="M34.97,-436.12C34.87,-481.97 41.36,-596.85 105,-657.5 108.53,-660.87 112.58,-663.64 116.92,-665.93"/>
<polygon fill="#63b8ff" stroke="#63b8ff" points="38.47,-436.07 35.11,-426.02 31.47,-435.98 38.47,-436.07"/>
</a>
</g>
</g>
<!-- Node6 -->
<g id="Node000006" class="node">
<title>Node6</title>
<g id="a_Node000006"><a xlink:href="classQskPageIndicatorSkinlet.html" target="_top" xlink:title=" ">
<polygon fill="white" stroke="#666666" points="249.5,-648 114.5,-648 114.5,-629 249.5,-629 249.5,-648"/>
<text text-anchor="middle" x="182" y="-636" font-family="Helvetica,sans-Serif" font-size="10.00">QskPageIndicatorSkinlet</text>
</a>
</g>
</g>
<!-- Node0&#45;&gt;Node6 -->
<g id="edge137_Node000000_Node000006" class="edge">
<title>Node0&#45;&gt;Node6</title>
<g id="a_edge137_Node000000_Node000006"><a xlink:title=" ">
<path fill="none" stroke="#63b8ff" d="M36.2,-436.41C38.75,-477.3 50.58,-571.06 105,-620.5 108.71,-623.87 112.94,-626.65 117.46,-628.93"/>
<polygon fill="#63b8ff" stroke="#63b8ff" points="39.69,-436.17 35.7,-426.36 32.7,-436.52 39.69,-436.17"/>
</a>
</g>
</g>
<!-- Node7 -->
<g id="Node000007" class="node">
<title>Node7</title>
<g id="a_Node000007"><a xlink:href="classQskPopupSkinlet.html" target="_top" xlink:title=" ">
<polygon fill="white" stroke="#666666" points="231.5,-611 132.5,-611 132.5,-592 231.5,-592 231.5,-611"/>
<text text-anchor="middle" x="182" y="-599" font-family="Helvetica,sans-Serif" font-size="10.00">QskPopupSkinlet</text>
</a>
</g>
</g>
<!-- Node0&#45;&gt;Node7 -->
<g id="edge138_Node000000_Node000007" class="edge">
<title>Node0&#45;&gt;Node7</title>
<g id="a_edge138_Node000000_Node000007"><a xlink:title=" ">
<path fill="none" stroke="#63b8ff" d="M37.88,-436.15C43.21,-471.28 59.44,-544.78 105,-583.5 112.75,-590.09 122.48,-594.36 132.37,-597.11"/>
<polygon fill="#63b8ff" stroke="#63b8ff" points="41.34,-435.62 36.51,-426.19 34.4,-436.57 41.34,-435.62"/>
</a>
</g>
</g>
<!-- Node11 -->
<g id="Node000011" class="node">
<title>Node11</title>
<g id="a_Node000011"><a xlink:href="classQskProgressIndicatorSkinlet.html" target="_top" xlink:title=" ">
<polygon fill="white" stroke="#666666" points="259,-574 105,-574 105,-555 259,-555 259,-574"/>
<text text-anchor="middle" x="182" y="-562" font-family="Helvetica,sans-Serif" font-size="10.00">QskProgressIndicatorSkinlet</text>
</a>
</g>
</g>
<!-- Node0&#45;&gt;Node11 -->
<g id="edge142_Node000000_Node000011" class="edge">
<title>Node0&#45;&gt;Node11</title>
<g id="a_edge142_Node000000_Node000011"><a xlink:title=" ">
<path fill="none" stroke="#63b8ff" d="M40.34,-435.79C48.58,-464.5 68.14,-518.12 105,-546.5 109.4,-549.89 114.35,-552.66 119.54,-554.91"/>
<polygon fill="#63b8ff" stroke="#63b8ff" points="43.72,-434.85 37.73,-426.11 36.96,-436.68 43.72,-434.85"/>
</a>
</g>
</g>
<!-- Node14 -->
<g id="Node000014" class="node">
<title>Node14</title>
<g id="a_Node000014"><a xlink:href="classQskPushButtonSkinlet.html" target="_top" xlink:title=" ">
<polygon fill="white" stroke="#666666" points="244.5,-537 119.5,-537 119.5,-518 244.5,-518 244.5,-537"/>
<text text-anchor="middle" x="182" y="-525" font-family="Helvetica,sans-Serif" font-size="10.00">QskPushButtonSkinlet</text>
</a>
</g>
</g>
<!-- Node0&#45;&gt;Node14 -->
<g id="edge145_Node000000_Node000014" class="edge">
<title>Node0&#45;&gt;Node14</title>
<g id="a_edge145_Node000000_Node000014"><a xlink:title=" ">
<path fill="none" stroke="#63b8ff" d="M44.39,-435.2C55.52,-456.54 76.63,-490.88 105,-509.5 110.21,-512.92 116.01,-515.7 122.01,-517.94"/>
<polygon fill="#63b8ff" stroke="#63b8ff" points="47.47,-433.53 39.86,-426.15 41.21,-436.66 47.47,-433.53"/>
</a>
</g>
</g>
<!-- Node15 -->
<g id="Node000015" class="node">
<title>Node15</title>
<g id="a_Node000015"><a xlink:href="classQskRadioBoxSkinlet.html" target="_top" xlink:title=" ">
<polygon fill="white" stroke="#666666" points="240,-500 124,-500 124,-481 240,-481 240,-500"/>
<text text-anchor="middle" x="182" y="-488" font-family="Helvetica,sans-Serif" font-size="10.00">QskRadioBoxSkinlet</text>
</a>
</g>
</g>
<!-- Node0&#45;&gt;Node15 -->
<g id="edge146_Node000000_Node000015" class="edge">
<title>Node0&#45;&gt;Node15</title>
<g id="a_edge146_Node000000_Node000015"><a xlink:title=" ">
<path fill="none" stroke="#63b8ff" d="M52.24,-433.62C65.45,-446.17 84.95,-462.68 105,-472.5 111.94,-475.9 119.56,-478.68 127.21,-480.94"/>
<polygon fill="#63b8ff" stroke="#63b8ff" points="54.46,-430.9 44.87,-426.41 49.57,-435.9 54.46,-430.9"/>
</a>
</g>
</g>
<!-- Node16 -->
<g id="Node000016" class="node">
<title>Node16</title>
<g id="a_Node000016"><a xlink:href="classQskScrollViewSkinlet.html" target="_top" xlink:title=" ">
<polygon fill="white" stroke="#666666" points="242,-463 122,-463 122,-444 242,-444 242,-463"/>
<text text-anchor="middle" x="182" y="-451" font-family="Helvetica,sans-Serif" font-size="10.00">QskScrollViewSkinlet</text>
</a>
</g>
</g>
<!-- Node0&#45;&gt;Node16 -->
<g id="edge147_Node000000_Node000016" class="edge">
<title>Node0&#45;&gt;Node16</title>
<g id="a_edge147_Node000000_Node000016"><a xlink:title=" ">
<path fill="none" stroke="#63b8ff" d="M78.92,-428.62C87.55,-430.95 96.55,-433.34 105,-435.5 116.17,-438.35 128.3,-441.29 139.52,-443.95"/>
<polygon fill="#63b8ff" stroke="#63b8ff" points="79.59,-425.17 69.02,-425.91 77.75,-431.92 79.59,-425.17"/>
</a>
</g>
</g>
<!-- Node18 -->
<g id="Node000018" class="node">
<title>Node18</title>
<g id="a_Node000018"><a xlink:href="classQskSegmentedBarSkinlet.html" target="_top" xlink:title=" ">
<polygon fill="white" stroke="#666666" points="252.5,-426 111.5,-426 111.5,-407 252.5,-407 252.5,-426"/>
<text text-anchor="middle" x="182" y="-414" font-family="Helvetica,sans-Serif" font-size="10.00">QskSegmentedBarSkinlet</text>
</a>
</g>
</g>
<!-- Node0&#45;&gt;Node18 -->
<g id="edge149_Node000000_Node000018" class="edge">
<title>Node0&#45;&gt;Node18</title>
<g id="a_edge149_Node000000_Node000018"><a xlink:title=" ">
<path fill="none" stroke="#63b8ff" d="M79.39,-416.5C89.46,-416.5 100.42,-416.5 111.29,-416.5"/>
<polygon fill="#63b8ff" stroke="#63b8ff" points="79.25,-413 69.25,-416.5 79.25,-420 79.25,-413"/>
</a>
</g>
</g>
<!-- Node19 -->
<g id="Node000019" class="node">
<title>Node19</title>
<g id="a_Node000019"><a xlink:href="classQskSeparatorSkinlet.html" target="_top" xlink:title=" ">
<polygon fill="white" stroke="#666666" points="240,-389 124,-389 124,-370 240,-370 240,-389"/>
<text text-anchor="middle" x="182" y="-377" font-family="Helvetica,sans-Serif" font-size="10.00">QskSeparatorSkinlet</text>
</a>
</g>
</g>
<!-- Node0&#45;&gt;Node19 -->
<g id="edge150_Node000000_Node000019" class="edge">
<title>Node0&#45;&gt;Node19</title>
<g id="a_edge150_Node000000_Node000019"><a xlink:title=" ">
<path fill="none" stroke="#63b8ff" d="M78.97,-405.18C87.59,-402.95 96.58,-400.64 105,-398.5 117.26,-395.38 130.64,-392.02 142.71,-389.01"/>
<polygon fill="#63b8ff" stroke="#63b8ff" points="77.87,-401.85 69.07,-407.75 79.63,-408.63 77.87,-401.85"/>
</a>
</g>
</g>
<!-- Node20 -->
<g id="Node000020" class="node">
<title>Node20</title>
<g id="a_Node000020"><a xlink:href="classQskSliderSkinlet.html" target="_top" xlink:title=" ">
<polygon fill="white" stroke="#666666" points="230.5,-352 133.5,-352 133.5,-333 230.5,-333 230.5,-352"/>
<text text-anchor="middle" x="182" y="-340" font-family="Helvetica,sans-Serif" font-size="10.00">QskSliderSkinlet</text>
</a>
</g>
</g>
<!-- Node0&#45;&gt;Node20 -->
<g id="edge151_Node000000_Node000020" class="edge">
<title>Node0&#45;&gt;Node20</title>
<g id="a_edge151_Node000000_Node000020"><a xlink:title=" ">
<path fill="none" stroke="#63b8ff" d="M52.33,-399.77C65.59,-387.48 85.11,-371.29 105,-361.5 113.79,-357.18 123.64,-353.78 133.27,-351.14"/>
<polygon fill="#63b8ff" stroke="#63b8ff" points="49.75,-397.39 44.93,-406.82 54.58,-402.46 49.75,-397.39"/>
</a>
</g>
</g>
<!-- Node21 -->
<g id="Node000021" class="node">
<title>Node21</title>
<g id="a_Node000021"><a xlink:href="classQskSpinBoxSkinlet.html" target="_top" xlink:title="This skinlet&#39;s purpose is to draw a QskSpinBox instance.">
<polygon fill="white" stroke="#666666" points="236.5,-315 127.5,-315 127.5,-296 236.5,-296 236.5,-315"/>
<text text-anchor="middle" x="182" y="-303" font-family="Helvetica,sans-Serif" font-size="10.00">QskSpinBoxSkinlet</text>
</a>
</g>
</g>
<!-- Node0&#45;&gt;Node21 -->
<g id="edge152_Node000000_Node000021" class="edge">
<title>Node0&#45;&gt;Node21</title>
<g id="a_edge152_Node000000_Node000021"><a xlink:title=" ">
<path fill="none" stroke="#63b8ff" d="M44.48,-398.07C55.7,-377.01 76.89,-343.09 105,-324.5 111.69,-320.07 119.34,-316.68 127.14,-314.07"/>
<polygon fill="#63b8ff" stroke="#63b8ff" points="41.35,-396.49 39.91,-406.99 47.59,-399.68 41.35,-396.49"/>
</a>
</g>
</g>
<!-- Node22 -->
<g id="Node000022" class="node">
<title>Node22</title>
<g id="a_Node000022"><a xlink:href="classQskStatusIndicatorSkinlet.html" target="_top" xlink:title=" ">
<polygon fill="white" stroke="#666666" points="253.5,-278 110.5,-278 110.5,-259 253.5,-259 253.5,-278"/>
<text text-anchor="middle" x="182" y="-266" font-family="Helvetica,sans-Serif" font-size="10.00">QskStatusIndicatorSkinlet</text>
</a>
</g>
</g>
<!-- Node0&#45;&gt;Node22 -->
<g id="edge153_Node000000_Node000022" class="edge">
<title>Node0&#45;&gt;Node22</title>
<g id="a_edge153_Node000000_Node000022"><a xlink:title=" ">
<path fill="none" stroke="#63b8ff" d="M40.54,-397.04C48.96,-368.53 68.65,-315.76 105,-287.5 109.94,-283.66 115.56,-280.59 121.45,-278.13"/>
<polygon fill="#63b8ff" stroke="#63b8ff" points="37.08,-396.42 37.77,-406.99 43.83,-398.3 37.08,-396.42"/>
</a>
</g>
</g>
<!-- Node23 -->
<g id="Node000023" class="node">
<title>Node23</title>
<g id="a_Node000023"><a xlink:href="classQskSubWindowAreaSkinlet.html" target="_top" xlink:title=" ">
<polygon fill="white" stroke="#666666" points="256.5,-241 107.5,-241 107.5,-222 256.5,-222 256.5,-241"/>
<text text-anchor="middle" x="182" y="-229" font-family="Helvetica,sans-Serif" font-size="10.00">QskSubWindowAreaSkinlet</text>
</a>
</g>
</g>
<!-- Node0&#45;&gt;Node23 -->
<g id="edge154_Node000000_Node000023" class="edge">
<title>Node0&#45;&gt;Node23</title>
<g id="a_edge154_Node000000_Node000023"><a xlink:title=" ">
<path fill="none" stroke="#63b8ff" d="M38.03,-396.56C43.57,-361.55 60.07,-289.09 105,-250.5 109.44,-246.69 114.53,-243.62 119.93,-241.16"/>
<polygon fill="#63b8ff" stroke="#63b8ff" points="34.51,-396.5 36.55,-406.9 41.44,-397.5 34.51,-396.5"/>
</a>
</g>
</g>
<!-- Node24 -->
<g id="Node000024" class="node">
<title>Node24</title>
<g id="a_Node000024"><a xlink:href="classQskSwitchButtonSkinlet.html" target="_top" xlink:title=" ">
<polygon fill="white" stroke="#666666" points="249,-204 115,-204 115,-185 249,-185 249,-204"/>
<text text-anchor="middle" x="182" y="-192" font-family="Helvetica,sans-Serif" font-size="10.00">QskSwitchButtonSkinlet</text>
</a>
</g>
</g>
<!-- Node0&#45;&gt;Node24 -->
<g id="edge155_Node000000_Node000024" class="edge">
<title>Node0&#45;&gt;Node24</title>
<g id="a_edge155_Node000000_Node000024"><a xlink:title=" ">
<path fill="none" stroke="#63b8ff" d="M36.3,-396.48C39.04,-355.74 51.2,-262.92 105,-213.5 109.21,-209.64 114.08,-206.53 119.28,-204.03"/>
<polygon fill="#63b8ff" stroke="#63b8ff" points="32.79,-396.54 35.74,-406.72 39.78,-396.92 32.79,-396.54"/>
</a>
</g>
</g>
<!-- Node25 -->
<g id="Node000025" class="node">
<title>Node25</title>
<g id="a_Node000025"><a xlink:href="classQskTabButtonSkinlet.html" target="_top" xlink:title=" ">
<polygon fill="white" stroke="#666666" points="241,-167 123,-167 123,-148 241,-148 241,-167"/>
<text text-anchor="middle" x="182" y="-155" font-family="Helvetica,sans-Serif" font-size="10.00">QskTabButtonSkinlet</text>
</a>
</g>
</g>
<!-- Node0&#45;&gt;Node25 -->
<g id="edge156_Node000000_Node000025" class="edge">
<title>Node0&#45;&gt;Node25</title>
<g id="a_edge156_Node000000_Node000025"><a xlink:title=" ">
<path fill="none" stroke="#63b8ff" d="M35.05,-396.38C35.18,-350.42 42.23,-237 105,-176.5 110.09,-171.59 116.25,-167.89 122.83,-165.12"/>
<polygon fill="#63b8ff" stroke="#63b8ff" points="31.55,-396.57 35.14,-406.54 38.55,-396.51 31.55,-396.57"/>
</a>
</g>
</g>
<!-- Node26 -->
<g id="Node000026" class="node">
<title>Node26</title>
<g id="a_Node000026"><a xlink:href="classQskTabViewSkinlet.html" target="_top" xlink:title=" ">
<polygon fill="white" stroke="#666666" points="237,-130 127,-130 127,-111 237,-111 237,-130"/>
<text text-anchor="middle" x="182" y="-118" font-family="Helvetica,sans-Serif" font-size="10.00">QskTabViewSkinlet</text>
</a>
</g>
</g>
<!-- Node0&#45;&gt;Node26 -->
<g id="edge157_Node000000_Node000026" class="edge">
<title>Node0&#45;&gt;Node26</title>
<g id="a_edge157_Node000000_Node000026"><a xlink:title=" ">
<path fill="none" stroke="#63b8ff" d="M37.86,-396.47C44.99,-339.17 68.17,-176.3 105,-139.5 111.06,-133.44 118.74,-129.22 126.88,-126.29"/>
<polygon fill="#63b8ff" stroke="#63b8ff" points="34.34,-396.39 36.61,-406.74 41.29,-397.23 34.34,-396.39"/>
</a>
</g>
</g>
<!-- Node27 -->
<g id="Node000027" class="node">
<title>Node27</title>
<g id="a_Node000027"><a xlink:href="classQskTextAreaSkinlet.html" target="_top" xlink:title=" ">
<polygon fill="white" stroke="#666666" points="238,-93 126,-93 126,-74 238,-74 238,-93"/>
<text text-anchor="middle" x="182" y="-81" font-family="Helvetica,sans-Serif" font-size="10.00">QskTextAreaSkinlet</text>
</a>
</g>
</g>
<!-- Node0&#45;&gt;Node27 -->
<g id="edge158_Node000000_Node000027" class="edge">
<title>Node0&#45;&gt;Node27</title>
<g id="a_edge158_Node000000_Node000027"><a xlink:title=" ">
<path fill="none" stroke="#63b8ff" d="M37.2,-396.71C42.91,-334.6 63.48,-145.16 105,-102.5 110.79,-96.55 118.13,-92.36 125.96,-89.43"/>
<polygon fill="#63b8ff" stroke="#63b8ff" points="33.7,-396.49 36.3,-406.76 40.67,-397.11 33.7,-396.49"/>
</a>
</g>
</g>
<!-- Node28 -->
<g id="Node000028" class="node">
<title>Node28</title>
<g id="a_Node000028"><a xlink:href="classQskTextFieldSkinlet.html" target="_top" xlink:title=" ">
<polygon fill="white" stroke="#666666" points="238.5,-56 125.5,-56 125.5,-37 238.5,-37 238.5,-56"/>
<text text-anchor="middle" x="182" y="-44" font-family="Helvetica,sans-Serif" font-size="10.00">QskTextFieldSkinlet</text>
</a>
</g>
</g>
<!-- Node0&#45;&gt;Node28 -->
<g id="edge159_Node000000_Node000028" class="edge">
<title>Node0&#45;&gt;Node28</title>
<g id="a_edge159_Node000000_Node000028"><a xlink:title=" ">
<path fill="none" stroke="#63b8ff" d="M36.7,-396.62C41.14,-329.68 58.84,-114 105,-65.5 110.63,-59.59 117.79,-55.4 125.46,-52.46"/>
<polygon fill="#63b8ff" stroke="#63b8ff" points="33.18,-396.8 36.04,-407 40.17,-397.24 33.18,-396.8"/>
</a>
</g>
</g>
<!-- Node29 -->
<g id="Node000029" class="node">
<title>Node29</title>
<g id="a_Node000029"><a xlink:href="classQskTextLabelSkinlet.html" target="_top" xlink:title=" ">
<polygon fill="white" stroke="#666666" points="240,-19 124,-19 124,0 240,0 240,-19"/>
<text text-anchor="middle" x="182" y="-7" font-family="Helvetica,sans-Serif" font-size="10.00">QskTextLabelSkinlet</text>
</a>
</g>
</g>
<!-- Node0&#45;&gt;Node29 -->
<g id="edge160_Node000000_Node000029" class="edge">
<title>Node0&#45;&gt;Node29</title>
<g id="a_edge160_Node000000_Node000029"><a xlink:title=" ">
<path fill="none" stroke="#63b8ff" d="M36.27,-396.33C39.43,-324.37 53.76,-81.68 105,-27.5 110.22,-21.98 116.79,-18.02 123.87,-15.19"/>
<polygon fill="#63b8ff" stroke="#63b8ff" points="32.76,-396.56 35.84,-406.7 39.75,-396.85 32.76,-396.56"/>
</a>
</g>
</g>
<!-- Node8 -->
<g id="Node000008" class="node">
<title>Node8</title>
<g id="a_Node000008"><a xlink:href="classQskDrawerSkinlet.html" target="_top" xlink:title=" ">
<polygon fill="white" stroke="#666666" points="413.5,-685 309.5,-685 309.5,-666 413.5,-666 413.5,-685"/>
<text text-anchor="middle" x="361.5" y="-673" font-family="Helvetica,sans-Serif" font-size="10.00">QskDrawerSkinlet</text>
</a>
</g>
</g>
<!-- Node7&#45;&gt;Node8 -->
<g id="edge139_Node000007_Node000008" class="edge">
<title>Node7&#45;&gt;Node8</title>
<g id="a_edge139_Node000007_Node000008"><a xlink:title=" ">
<path fill="none" stroke="#63b8ff" d="M241.34,-612.5C247.5,-614.7 253.51,-617.34 259,-620.5 278.89,-631.94 275.25,-645.83 295,-657.5 300.79,-660.92 307.24,-663.71 313.79,-665.98"/>
<polygon fill="#63b8ff" stroke="#63b8ff" points="242.18,-609.09 231.59,-609.38 240.05,-615.76 242.18,-609.09"/>
</a>
</g>
</g>
<!-- Node9 -->
<g id="Node000009" class="node">
<title>Node9</title>
<g id="a_Node000009"><a xlink:href="classQskMenuSkinlet.html" target="_top" xlink:title=" ">
<polygon fill="white" stroke="#666666" points="409.5,-648 313.5,-648 313.5,-629 409.5,-629 409.5,-648"/>
<text text-anchor="middle" x="361.5" y="-636" font-family="Helvetica,sans-Serif" font-size="10.00">QskMenuSkinlet</text>
</a>
</g>
</g>
<!-- Node7&#45;&gt;Node9 -->
<g id="edge140_Node000007_Node000009" class="edge">
<title>Node7&#45;&gt;Node9</title>
<g id="a_edge140_Node000007_Node000009"><a xlink:title=" ">
<path fill="none" stroke="#63b8ff" d="M238.57,-613.08C263.03,-618.18 291.41,-624.1 314.64,-628.94"/>
<polygon fill="#63b8ff" stroke="#63b8ff" points="239.21,-609.64 228.71,-611.03 237.79,-616.5 239.21,-609.64"/>
</a>
</g>
</g>
<!-- Node10 -->
<g id="Node000010" class="node">
<title>Node10</title>
<g id="a_Node000010"><a xlink:href="classQskSubWindowSkinlet.html" target="_top" xlink:title=" ">
<polygon fill="white" stroke="#666666" points="424.5,-611 298.5,-611 298.5,-592 424.5,-592 424.5,-611"/>
<text text-anchor="middle" x="361.5" y="-599" font-family="Helvetica,sans-Serif" font-size="10.00">QskSubWindowSkinlet</text>
</a>
</g>
</g>
<!-- Node7&#45;&gt;Node10 -->
<g id="edge141_Node000007_Node000010" class="edge">
<title>Node7&#45;&gt;Node10</title>
<g id="a_edge141_Node000007_Node000010"><a xlink:title=" ">
<path fill="none" stroke="#63b8ff" d="M241.67,-601.5C259.86,-601.5 279.96,-601.5 298.37,-601.5"/>
<polygon fill="#63b8ff" stroke="#63b8ff" points="241.5,-598 231.5,-601.5 241.5,-605 241.5,-598"/>
</a>
</g>
</g>
<!-- Node12 -->
<g id="Node000012" class="node">
<title>Node12</title>
<g id="a_Node000012"><a xlink:href="classQskProgressBarSkinlet.html" target="_top" xlink:title=" ">
<polygon fill="white" stroke="#666666" points="425.5,-574 297.5,-574 297.5,-555 425.5,-555 425.5,-574"/>
<text text-anchor="middle" x="361.5" y="-562" font-family="Helvetica,sans-Serif" font-size="10.00">QskProgressBarSkinlet</text>
</a>
</g>
</g>
<!-- Node11&#45;&gt;Node12 -->
<g id="edge143_Node000011_Node000012" class="edge">
<title>Node11&#45;&gt;Node12</title>
<g id="a_edge143_Node000011_Node000012"><a xlink:title=" ">
<path fill="none" stroke="#63b8ff" d="M269.3,-564.5C278.78,-564.5 288.3,-564.5 297.42,-564.5"/>
<polygon fill="#63b8ff" stroke="#63b8ff" points="269.05,-561 259.05,-564.5 269.05,-568 269.05,-561"/>
</a>
</g>
</g>
<!-- Node13 -->
<g id="Node000013" class="node">
<title>Node13</title>
<g id="a_Node000013"><a xlink:href="classQskProgressRingSkinlet.html" target="_top" xlink:title=" ">
<polygon fill="white" stroke="#666666" points="428,-537 295,-537 295,-518 428,-518 428,-537"/>
<text text-anchor="middle" x="361.5" y="-525" font-family="Helvetica,sans-Serif" font-size="10.00">QskProgressRingSkinlet</text>
</a>
</g>
</g>
<!-- Node11&#45;&gt;Node13 -->
<g id="edge144_Node000011_Node000013" class="edge">
<title>Node11&#45;&gt;Node13</title>
<g id="a_edge144_Node000011_Node000013"><a xlink:title=" ">
<path fill="none" stroke="#63b8ff" d="M238.57,-552.92C263.03,-547.82 291.41,-541.9 314.64,-537.06"/>
<polygon fill="#63b8ff" stroke="#63b8ff" points="237.79,-549.5 228.71,-554.97 239.21,-556.36 237.79,-549.5"/>
</a>
</g>
</g>
<!-- Node17 -->
<g id="Node000017" class="node">
<title>Node17</title>
<g id="a_Node000017"><a xlink:href="classQskListViewSkinlet.html" target="_top" xlink:title=" ">
<polygon fill="white" stroke="#666666" points="416.5,-463 306.5,-463 306.5,-444 416.5,-444 416.5,-463"/>
<text text-anchor="middle" x="361.5" y="-451" font-family="Helvetica,sans-Serif" font-size="10.00">QskListViewSkinlet</text>
</a>
</g>
</g>
<!-- Node16&#45;&gt;Node17 -->
<g id="edge148_Node000016_Node000017" class="edge">
<title>Node16&#45;&gt;Node17</title>
<g id="a_edge148_Node000016_Node000017"><a xlink:title=" ">
<path fill="none" stroke="#63b8ff" d="M252.25,-453.5C270.24,-453.5 289.36,-453.5 306.44,-453.5"/>
<polygon fill="#63b8ff" stroke="#63b8ff" points="252.1,-450 242.1,-453.5 252.1,-457 252.1,-450"/>
</a>
</g>
</g>
</g>
</svg>
