<?xml version="1.0" encoding="UTF-8" standalone="no"?>
<!DOCTYPE svg PUBLIC "-//W3C//DTD SVG 1.1//EN"
 "http://www.w3.org/Graphics/SVG/1.1/DTD/svg11.dtd">
<!-- Generated by graphviz version 2.43.0 (0)
 -->
<!-- Title: Graphical Class Hierarchy Pages: 1 -->
<svg width="436pt" height="804pt"
 viewBox="0.00 0.00 436.00 804.00" xmlns="http://www.w3.org/2000/svg" xmlns:xlink="http://www.w3.org/1999/xlink">
<g id="graph0" class="graph" transform="scale(1 1) rotate(0) translate(4 800)">
<title>Graphical Class Hierarchy</title>
<!-- Node0 -->
<g id="Node000000" class="node">
<title>Node0</title>
<g id="a_Node000000"><a xlink:href="classQskSkinlet.html" target="_top" xlink:title="Describes the rendering interface of a QskControl. Change the skinlet to change the appearance of the...">
<polygon fill="white" stroke="#666666" points="69,-407 0,-407 0,-388 69,-388 69,-407"/>
<text text-anchor="middle" x="34.5" y="-395" font-family="Helvetica,sans-Serif" font-size="10.00">QskSkinlet</text>
</a>
</g>
</g>
<!-- Node1 -->
<g id="Node000001" class="node">
<title>Node1</title>
<g id="a_Node000001"><a xlink:href="classQskBoxSkinlet.html" target="_top" xlink:title=" ">
<polygon fill="white" stroke="#666666" points="226,-796 138,-796 138,-777 226,-777 226,-796"/>
<text text-anchor="middle" x="182" y="-784" font-family="Helvetica,sans-Serif" font-size="10.00">QskBoxSkinlet</text>
</a>
</g>
</g>
<!-- Node0&#45;&gt;Node1 -->
<g id="edge126_Node000000_Node000001" class="edge">
<title>Node0&#45;&gt;Node1</title>
<g id="a_edge126_Node000000_Node000001"><a xlink:title=" ">
<path fill="none" stroke="#63b8ff" d="M36.43,-417.2C40.12,-486.41 55.95,-717.07 105,-768.5 113.61,-777.53 125.85,-782.39 137.99,-784.92"/>
<polygon fill="#63b8ff" stroke="#63b8ff" points="39.93,-417.01 35.93,-407.2 32.94,-417.36 39.93,-417.01"/>
</a>
</g>
</g>
<!-- Node2 -->
<g id="Node000002" class="node">
<title>Node2</title>
<g id="a_Node000002"><a xlink:href="classQskCheckBoxSkinlet.html" target="_top" xlink:title=" ">
<polygon fill="white" stroke="#666666" points="241,-759 123,-759 123,-740 241,-740 241,-759"/>
<text text-anchor="middle" x="182" y="-747" font-family="Helvetica,sans-Serif" font-size="10.00">QskCheckBoxSkinlet</text>
</a>
</g>
</g>
<!-- Node0&#45;&gt;Node2 -->
<g id="edge127_Node000000_Node000002" class="edge">
<title>Node0&#45;&gt;Node2</title>
<g id="a_edge127_Node000000_Node000002"><a xlink:title=" ">
<path fill="none" stroke="#63b8ff" d="M36.89,-417.29C41.82,-482.03 60.68,-685.95 105,-731.5 110.01,-736.65 116.21,-740.44 122.88,-743.21"/>
<polygon fill="#63b8ff" stroke="#63b8ff" points="40.37,-416.92 36.15,-407.2 33.39,-417.43 40.37,-416.92"/>
</a>
</g>
</g>
<!-- Node3 -->
<g id="Node000003" class="node">
<title>Node3</title>
<g id="a_Node000003"><a xlink:href="classQskComboBoxSkinlet.html" target="_top" xlink:title=" ">
<polygon fill="white" stroke="#666666" points="243,-722 121,-722 121,-703 243,-703 243,-722"/>
<text text-anchor="middle" x="182" y="-710" font-family="Helvetica,sans-Serif" font-size="10.00">QskComboBoxSkinlet</text>
</a>
</g>
</g>
<!-- Node0&#45;&gt;Node3 -->
<g id="edge128_Node000000_Node000003" class="edge">
<title>Node0&#45;&gt;Node3</title>
<g id="a_edge128_Node000000_Node000003"><a xlink:title=" ">
<path fill="none" stroke="#63b8ff" d="M37.41,-417.02C43.65,-476.63 65.3,-654.7 105,-694.5 109.5,-699.01 114.91,-702.47 120.74,-705.12"/>
<polygon fill="#63b8ff" stroke="#63b8ff" points="40.89,-416.63 36.4,-407.03 33.93,-417.34 40.89,-416.63"/>
</a>
</g>
</g>
<!-- Node4 -->
<g id="Node000004" class="node">
<title>Node4</title>
<g id="a_Node000004"><a xlink:href="classQskFocusIndicatorSkinlet.html" target="_top" xlink:title=" ">
<polygon fill="white" stroke="#666666" points="252,-685 112,-685 112,-666 252,-666 252,-685"/>
<text text-anchor="middle" x="182" y="-673" font-family="Helvetica,sans-Serif" font-size="10.00">QskFocusIndicatorSkinlet</text>
</a>
</g>
</g>
<!-- Node0&#45;&gt;Node4 -->
<g id="edge129_Node000000_Node000004" class="edge">
<title>Node0&#45;&gt;Node4</title>
<g id="a_edge129_Node000000_Node000004"><a xlink:title=" ">
<path fill="none" stroke="#63b8ff" d="M38.16,-417.4C45.9,-472.21 70.04,-623.53 105,-657.5 108.4,-660.81 112.3,-663.55 116.48,-665.81"/>
<polygon fill="#63b8ff" stroke="#63b8ff" points="41.6,-416.68 36.77,-407.25 34.66,-417.63 41.6,-416.68"/>
</a>
</g>
</g>
<!-- Node5 -->
<g id="Node000005" class="node">
<title>Node5</title>
<g id="a_Node000005"><a xlink:href="classQskGraphicLabelSkinlet.html" target="_top" xlink:title=" ">
<polygon fill="white" stroke="#666666" points="248.5,-648 115.5,-648 115.5,-629 248.5,-629 248.5,-648"/>
<text text-anchor="middle" x="182" y="-636" font-family="Helvetica,sans-Serif" font-size="10.00">QskGraphicLabelSkinlet</text>
</a>
</g>
</g>
<!-- Node0&#45;&gt;Node5 -->
<g id="edge130_Node000000_Node000005" class="edge">
<title>Node0&#45;&gt;Node5</title>
<g id="a_edge130_Node000000_Node000005"><a xlink:title=" ">
<path fill="none" stroke="#63b8ff" d="M35.52,-417.43C36.71,-461.03 45.93,-565.4 105,-620.5 108.57,-623.83 112.64,-626.58 116.99,-628.84"/>
<polygon fill="#63b8ff" stroke="#63b8ff" points="39.02,-417.22 35.37,-407.27 32.02,-417.32 39.02,-417.22"/>
</a>
</g>
</g>
<!-- Node6 -->
<g id="Node000006" class="node">
<title>Node6</title>
<g id="a_Node000006"><a xlink:href="classQskPageIndicatorSkinlet.html" target="_top" xlink:title=" ">
<polygon fill="white" stroke="#666666" points="249.5,-611 114.5,-611 114.5,-592 249.5,-592 249.5,-611"/>
<text text-anchor="middle" x="182" y="-599" font-family="Helvetica,sans-Serif" font-size="10.00">QskPageIndicatorSkinlet</text>
</a>
</g>
</g>
<!-- Node0&#45;&gt;Node6 -->
<g id="edge131_Node000000_Node000006" class="edge">
<title>Node0&#45;&gt;Node6</title>
<g id="a_edge131_Node000000_Node000006"><a xlink:title=" ">
<path fill="none" stroke="#63b8ff" d="M36.99,-417.73C40.94,-456.09 55.1,-539.48 105,-583.5 108.86,-586.91 113.26,-589.7 117.93,-591.99"/>
<polygon fill="#63b8ff" stroke="#63b8ff" points="40.44,-417.02 36.06,-407.37 33.47,-417.64 40.44,-417.02"/>
</a>
</g>
</g>
<!-- Node7 -->
<g id="Node000007" class="node">
<title>Node7</title>
<g id="a_Node000007"><a xlink:href="classQskPopupSkinlet.html" target="_top" xlink:title=" ">
<polygon fill="white" stroke="#666666" points="231.5,-574 132.5,-574 132.5,-555 231.5,-555 231.5,-574"/>
<text text-anchor="middle" x="182" y="-562" font-family="Helvetica,sans-Serif" font-size="10.00">QskPopupSkinlet</text>
</a>
</g>
</g>
<!-- Node0&#45;&gt;Node7 -->
<g id="edge132_Node000000_Node000007" class="edge">
<title>Node0&#45;&gt;Node7</title>
<g id="a_edge132_Node000000_Node000007"><a xlink:title=" ">
<path fill="none" stroke="#63b8ff" d="M39.01,-417.28C45.79,-449.47 63.82,-512.96 105,-546.5 112.78,-552.84 122.41,-557.01 132.18,-559.75"/>
<polygon fill="#63b8ff" stroke="#63b8ff" points="42.41,-416.44 37.06,-407.3 35.54,-417.78 42.41,-416.44"/>
</a>
</g>
</g>
<!-- Node11 -->
<g id="Node000011" class="node">
<title>Node11</title>
<g id="a_Node000011"><a xlink:href="classQskProgressIndicatorSkinlet.html" target="_top" xlink:title=" ">
<polygon fill="white" stroke="#666666" points="259,-537 105,-537 105,-518 259,-518 259,-537"/>
<text text-anchor="middle" x="182" y="-525" font-family="Helvetica,sans-Serif" font-size="10.00">QskProgressIndicatorSkinlet</text>
</a>
</g>
</g>
<!-- Node0&#45;&gt;Node11 -->
<g id="edge136_Node000000_Node000011" class="edge">
<title>Node0&#45;&gt;Node11</title>
<g id="a_edge136_Node000000_Node000011"><a xlink:title=" ">
<path fill="none" stroke="#63b8ff" d="M42.06,-416.64C51.75,-441.92 72.34,-485.98 105,-509.5 109.73,-512.91 115.02,-515.68 120.54,-517.93"/>
<polygon fill="#63b8ff" stroke="#63b8ff" points="45.29,-415.26 38.58,-407.07 38.71,-417.66 45.29,-415.26"/>
</a>
</g>
</g>
<!-- Node14 -->
<g id="Node000014" class="node">
<title>Node14</title>
<g id="a_Node000014"><a xlink:href="classQskPushButtonSkinlet.html" target="_top" xlink:title=" ">
<polygon fill="white" stroke="#666666" points="244.5,-500 119.5,-500 119.5,-481 244.5,-481 244.5,-500"/>
<text text-anchor="middle" x="182" y="-488" font-family="Helvetica,sans-Serif" font-size="10.00">QskPushButtonSkinlet</text>
</a>
</g>
</g>
<!-- Node0&#45;&gt;Node14 -->
<g id="edge139_Node000000_Node000014" class="edge">
<title>Node0&#45;&gt;Node14</title>
<g id="a_edge139_Node000000_Node000014"><a xlink:title=" ">
<path fill="none" stroke="#63b8ff" d="M47.46,-415.64C59.81,-432.91 80.68,-458.31 105,-472.5 110.86,-475.92 117.32,-478.68 123.94,-480.93"/>
<polygon fill="#63b8ff" stroke="#63b8ff" points="50.06,-413.25 41.5,-407.01 44.3,-417.22 50.06,-413.25"/>
</a>
</g>
</g>
<!-- Node15 -->
<g id="Node000015" class="node">
<title>Node15</title>
<g id="a_Node000015"><a xlink:href="classQskRadioBoxSkinlet.html" target="_top" xlink:title=" ">
<polygon fill="white" stroke="#666666" points="240,-463 124,-463 124,-444 240,-444 240,-463"/>
<text text-anchor="middle" x="182" y="-451" font-family="Helvetica,sans-Serif" font-size="10.00">QskRadioBoxSkinlet</text>
</a>
</g>
</g>
<!-- Node0&#45;&gt;Node15 -->
<g id="edge140_Node000000_Node000015" class="edge">
<title>Node0&#45;&gt;Node15</title>
<g id="a_edge140_Node000000_Node000015"><a xlink:title=" ">
<path fill="none" stroke="#63b8ff" d="M58.95,-412.38C72.08,-420.18 88.99,-429.35 105,-435.5 113.61,-438.8 123.01,-441.62 132.17,-443.98"/>
<polygon fill="#63b8ff" stroke="#63b8ff" points="60.49,-409.22 50.13,-407.01 56.85,-415.2 60.49,-409.22"/>
</a>
</g>
</g>
<!-- Node16 -->
<g id="Node000016" class="node">
<title>Node16</title>
<g id="a_Node000016"><a xlink:href="classQskScrollViewSkinlet.html" target="_top" xlink:title=" ">
<polygon fill="white" stroke="#666666" points="242,-426 122,-426 122,-407 242,-407 242,-426"/>
<text text-anchor="middle" x="182" y="-414" font-family="Helvetica,sans-Serif" font-size="10.00">QskScrollViewSkinlet</text>
</a>
</g>
</g>
<!-- Node0&#45;&gt;Node16 -->
<g id="edge141_Node000000_Node000016" class="edge">
<title>Node0&#45;&gt;Node16</title>
<g id="a_edge141_Node000000_Node000016"><a xlink:title=" ">
<path fill="none" stroke="#63b8ff" d="M79.54,-403.25C92.83,-404.99 107.65,-406.92 121.77,-408.77"/>
<polygon fill="#63b8ff" stroke="#63b8ff" points="79.62,-399.73 69.25,-401.91 78.71,-406.67 79.62,-399.73"/>
</a>
</g>
</g>
<!-- Node18 -->
<g id="Node000018" class="node">
<title>Node18</title>
<g id="a_Node000018"><a xlink:href="classQskSegmentedBarSkinlet.html" target="_top" xlink:title=" ">
<polygon fill="white" stroke="#666666" points="252.5,-389 111.5,-389 111.5,-370 252.5,-370 252.5,-389"/>
<text text-anchor="middle" x="182" y="-377" font-family="Helvetica,sans-Serif" font-size="10.00">QskSegmentedBarSkinlet</text>
</a>
</g>
</g>
<!-- Node0&#45;&gt;Node18 -->
<g id="edge143_Node000000_Node000018" class="edge">
<title>Node0&#45;&gt;Node18</title>
<g id="a_edge143_Node000000_Node000018"><a xlink:title=" ">
<path fill="none" stroke="#63b8ff" d="M79.39,-392.07C89.46,-390.82 100.42,-389.47 111.29,-388.12"/>
<polygon fill="#63b8ff" stroke="#63b8ff" points="78.74,-388.62 69.25,-393.33 79.6,-395.57 78.74,-388.62"/>
</a>
</g>
</g>
<!-- Node19 -->
<g id="Node000019" class="node">
<title>Node19</title>
<g id="a_Node000019"><a xlink:href="classQskSeparatorSkinlet.html" target="_top" xlink:title=" ">
<polygon fill="white" stroke="#666666" points="240,-352 124,-352 124,-333 240,-333 240,-352"/>
<text text-anchor="middle" x="182" y="-340" font-family="Helvetica,sans-Serif" font-size="10.00">QskSeparatorSkinlet</text>
</a>
</g>
</g>
<!-- Node0&#45;&gt;Node19 -->
<g id="edge144_Node000000_Node000019" class="edge">
<title>Node0&#45;&gt;Node19</title>
<g id="a_edge144_Node000000_Node000019"><a xlink:title=" ">
<path fill="none" stroke="#63b8ff" d="M60.1,-382.97C73.12,-375.75 89.56,-367.34 105,-361.5 114.67,-357.84 125.29,-354.69 135.46,-352.05"/>
<polygon fill="#63b8ff" stroke="#63b8ff" points="58.27,-379.98 51.3,-387.96 61.72,-386.07 58.27,-379.98"/>
</a>
</g>
</g>
<!-- Node20 -->
<g id="Node000020" class="node">
<title>Node20</title>
<g id="a_Node000020"><a xlink:href="classQskSliderSkinlet.html" target="_top" xlink:title=" ">
<polygon fill="white" stroke="#666666" points="230.5,-315 133.5,-315 133.5,-296 230.5,-296 230.5,-315"/>
<text text-anchor="middle" x="182" y="-303" font-family="Helvetica,sans-Serif" font-size="10.00">QskSliderSkinlet</text>
</a>
</g>
</g>
<!-- Node0&#45;&gt;Node20 -->
<g id="edge145_Node000000_Node000020" class="edge">
<title>Node0&#45;&gt;Node20</title>
<g id="a_edge145_Node000000_Node000020"><a xlink:title=" ">
<path fill="none" stroke="#63b8ff" d="M48.01,-379.38C60.52,-362.63 81.27,-338.32 105,-324.5 113.58,-319.5 123.45,-315.81 133.17,-313.09"/>
<polygon fill="#63b8ff" stroke="#63b8ff" points="44.95,-377.63 41.94,-387.79 50.63,-381.72 44.95,-377.63"/>
</a>
</g>
</g>
<!-- Node21 -->
<g id="Node000021" class="node">
<title>Node21</title>
<g id="a_Node000021"><a xlink:href="classQskSpinBoxSkinlet.html" target="_top" xlink:title="This skinlet&#39;s purpose is to draw a QskSpinBox instance.">
<polygon fill="white" stroke="#666666" points="236.5,-278 127.5,-278 127.5,-259 236.5,-259 236.5,-278"/>
<text text-anchor="middle" x="182" y="-266" font-family="Helvetica,sans-Serif" font-size="10.00">QskSpinBoxSkinlet</text>
</a>
</g>
</g>
<!-- Node0&#45;&gt;Node21 -->
<g id="edge146_Node000000_Node000021" class="edge">
<title>Node0&#45;&gt;Node21</title>
<g id="a_edge146_Node000000_Node000021"><a xlink:title=" ">
<path fill="none" stroke="#63b8ff" d="M42.35,-378.39C52.25,-353.56 72.97,-310.67 105,-287.5 111.61,-282.72 119.3,-279.13 127.2,-276.45"/>
<polygon fill="#63b8ff" stroke="#63b8ff" points="39.05,-377.22 38.77,-387.81 45.59,-379.71 39.05,-377.22"/>
</a>
</g>
</g>
<!-- Node22 -->
<g id="Node000022" class="node">
<title>Node22</title>
<g id="a_Node000022"><a xlink:href="classQskStatusIndicatorSkinlet.html" target="_top" xlink:title=" ">
<polygon fill="white" stroke="#666666" points="253.5,-241 110.5,-241 110.5,-222 253.5,-222 253.5,-241"/>
<text text-anchor="middle" x="182" y="-229" font-family="Helvetica,sans-Serif" font-size="10.00">QskStatusIndicatorSkinlet</text>
</a>
</g>
</g>
<!-- Node0&#45;&gt;Node22 -->
<g id="edge147_Node000000_Node000022" class="edge">
<title>Node0&#45;&gt;Node22</title>
<g id="a_edge147_Node000000_Node000022"><a xlink:title=" ">
<path fill="none" stroke="#63b8ff" d="M39.14,-378.04C46.1,-346.36 64.39,-283.81 105,-250.5 109.73,-246.62 115.15,-243.51 120.86,-241.03"/>
<polygon fill="#63b8ff" stroke="#63b8ff" points="35.7,-377.36 37.13,-387.86 42.56,-378.77 35.7,-377.36"/>
</a>
</g>
</g>
<!-- Node23 -->
<g id="Node000023" class="node">
<title>Node23</title>
<g id="a_Node000023"><a xlink:href="classQskSubWindowAreaSkinlet.html" target="_top" xlink:title=" ">
<polygon fill="white" stroke="#666666" points="256.5,-204 107.5,-204 107.5,-185 256.5,-185 256.5,-204"/>
<text text-anchor="middle" x="182" y="-192" font-family="Helvetica,sans-Serif" font-size="10.00">QskSubWindowAreaSkinlet</text>
</a>
</g>
</g>
<!-- Node0&#45;&gt;Node23 -->
<g id="edge148_Node000000_Node000023" class="edge">
<title>Node0&#45;&gt;Node23</title>
<g id="a_edge148_Node000000_Node000023"><a xlink:title=" ">
<path fill="none" stroke="#63b8ff" d="M37.11,-377.53C41.26,-339.67 55.76,-257.32 105,-213.5 109.27,-209.7 114.18,-206.64 119.41,-204.17"/>
<polygon fill="#63b8ff" stroke="#63b8ff" points="33.6,-377.47 36.13,-387.76 40.57,-378.14 33.6,-377.47"/>
</a>
</g>
</g>
<!-- Node24 -->
<g id="Node000024" class="node">
<title>Node24</title>
<g id="a_Node000024"><a xlink:href="classQskSwitchButtonSkinlet.html" target="_top" xlink:title=" ">
<polygon fill="white" stroke="#666666" points="249,-167 115,-167 115,-148 249,-148 249,-167"/>
<text text-anchor="middle" x="182" y="-155" font-family="Helvetica,sans-Serif" font-size="10.00">QskSwitchButtonSkinlet</text>
</a>
</g>
</g>
<!-- Node0&#45;&gt;Node24 -->
<g id="edge149_Node000000_Node000024" class="edge">
<title>Node0&#45;&gt;Node24</title>
<g id="a_edge149_Node000000_Node000024"><a xlink:title=" ">
<path fill="none" stroke="#63b8ff" d="M35.63,-377.8C37.04,-334.69 46.68,-231.44 105,-176.5 109.06,-172.68 113.77,-169.59 118.81,-167.1"/>
<polygon fill="#63b8ff" stroke="#63b8ff" points="32.13,-377.77 35.42,-387.84 39.13,-377.92 32.13,-377.77"/>
</a>
</g>
</g>
<!-- Node25 -->
<g id="Node000025" class="node">
<title>Node25</title>
<g id="a_Node000025"><a xlink:href="classQskTabButtonSkinlet.html" target="_top" xlink:title=" ">
<polygon fill="white" stroke="#666666" points="241,-130 123,-130 123,-111 241,-111 241,-130"/>
<text text-anchor="middle" x="182" y="-118" font-family="Helvetica,sans-Serif" font-size="10.00">QskTabButtonSkinlet</text>
</a>
</g>
</g>
<!-- Node0&#45;&gt;Node25 -->
<g id="edge150_Node000000_Node000025" class="edge">
<title>Node0&#45;&gt;Node25</title>
<g id="a_edge150_Node000000_Node000025"><a xlink:title=" ">
<path fill="none" stroke="#63b8ff" d="M38.21,-377.77C46.06,-323.44 70.47,-173.41 105,-139.5 110.05,-134.54 116.18,-130.82 122.75,-128.03"/>
<polygon fill="#63b8ff" stroke="#63b8ff" points="34.72,-377.45 36.79,-387.84 41.65,-378.42 34.72,-377.45"/>
</a>
</g>
</g>
<!-- Node26 -->
<g id="Node000026" class="node">
<title>Node26</title>
<g id="a_Node000026"><a xlink:href="classQskTabViewSkinlet.html" target="_top" xlink:title=" ">
<polygon fill="white" stroke="#666666" points="237,-93 127,-93 127,-74 237,-74 237,-93"/>
<text text-anchor="middle" x="182" y="-81" font-family="Helvetica,sans-Serif" font-size="10.00">QskTabViewSkinlet</text>
</a>
</g>
</g>
<!-- Node0&#45;&gt;Node26 -->
<g id="edge151_Node000000_Node000026" class="edge">
<title>Node0&#45;&gt;Node26</title>
<g id="a_edge151_Node000000_Node000026"><a xlink:title=" ">
<path fill="none" stroke="#63b8ff" d="M37.5,-377.74C43.9,-318.2 65.86,-142.18 105,-102.5 111.02,-96.4 118.68,-92.15 126.8,-89.21"/>
<polygon fill="#63b8ff" stroke="#63b8ff" points="34.01,-377.42 36.45,-387.73 40.97,-378.15 34.01,-377.42"/>
</a>
</g>
</g>
<!-- Node27 -->
<g id="Node000027" class="node">
<title>Node27</title>
<g id="a_Node000027"><a xlink:href="classQskTextInputSkinlet.html" target="_top" xlink:title=" ">
<polygon fill="white" stroke="#666666" points="239,-56 125,-56 125,-37 239,-37 239,-56"/>
<text text-anchor="middle" x="182" y="-44" font-family="Helvetica,sans-Serif" font-size="10.00">QskTextInputSkinlet</text>
</a>
</g>
</g>
<!-- Node0&#45;&gt;Node27 -->
<g id="edge152_Node000000_Node000027" class="edge">
<title>Node0&#45;&gt;Node27</title>
<g id="a_edge152_Node000000_Node000027"><a xlink:title=" ">
<path fill="none" stroke="#63b8ff" d="M36.93,-377.85C41.99,-313.56 61.19,-111.04 105,-65.5 110.47,-59.82 117.36,-55.73 124.75,-52.81"/>
<polygon fill="#63b8ff" stroke="#63b8ff" points="33.43,-377.63 36.17,-387.87 40.41,-378.16 33.43,-377.63"/>
</a>
</g>
</g>
<!-- Node28 -->
<g id="Node000028" class="node">
<title>Node28</title>
<g id="a_Node000028"><a xlink:href="classQskTextLabelSkinlet.html" target="_top" xlink:title=" ">
<polygon fill="white" stroke="#666666" points="240,-19 124,-19 124,0 240,0 240,-19"/>
<text text-anchor="middle" x="182" y="-7" font-family="Helvetica,sans-Serif" font-size="10.00">QskTextLabelSkinlet</text>
</a>
</g>
</g>
<!-- Node0&#45;&gt;Node28 -->
<g id="edge153_Node000000_Node000028" class="edge">
<title>Node0&#45;&gt;Node28</title>
<g id="a_edge153_Node000000_Node000028"><a xlink:title=" ">
<path fill="none" stroke="#63b8ff" d="M36.47,-377.43C40.22,-307.88 56.16,-78.68 105,-27.5 110.24,-22.01 116.83,-18.05 123.92,-15.23"/>
<polygon fill="#63b8ff" stroke="#63b8ff" points="32.95,-377.66 35.93,-387.83 39.94,-378.02 32.95,-377.66"/>
</a>
</g>
</g>
<!-- Node8 -->
<g id="Node000008" class="node">
<title>Node8</title>
<g id="a_Node000008"><a xlink:href="classQskDrawerSkinlet.html" target="_top" xlink:title=" ">
<polygon fill="white" stroke="#666666" points="413.5,-648 309.5,-648 309.5,-629 413.5,-629 413.5,-648"/>
<text text-anchor="middle" x="361.5" y="-636" font-family="Helvetica,sans-Serif" font-size="10.00">QskDrawerSkinlet</text>
</a>
</g>
</g>
<!-- Node7&#45;&gt;Node8 -->
<g id="edge133_Node000007_Node000008" class="edge">
<title>Node7&#45;&gt;Node8</title>
<g id="a_edge133_Node000007_Node000008"><a xlink:title=" ">
<path fill="none" stroke="#63b8ff" d="M241.34,-575.5C247.5,-577.7 253.51,-580.34 259,-583.5 278.89,-594.94 275.25,-608.83 295,-620.5 300.79,-623.92 307.24,-626.71 313.79,-628.98"/>
<polygon fill="#63b8ff" stroke="#63b8ff" points="242.18,-572.09 231.59,-572.38 240.05,-578.76 242.18,-572.09"/>
</a>
</g>
</g>
<!-- Node9 -->
<g id="Node000009" class="node">
<title>Node9</title>
<g id="a_Node000009"><a xlink:href="classQskMenuSkinlet.html" target="_top" xlink:title=" ">
<polygon fill="white" stroke="#666666" points="409.5,-611 313.5,-611 313.5,-592 409.5,-592 409.5,-611"/>
<text text-anchor="middle" x="361.5" y="-599" font-family="Helvetica,sans-Serif" font-size="10.00">QskMenuSkinlet</text>
</a>
</g>
</g>
<!-- Node7&#45;&gt;Node9 -->
<g id="edge134_Node000007_Node000009" class="edge">
<title>Node7&#45;&gt;Node9</title>
<g id="a_edge134_Node000007_Node000009"><a xlink:title=" ">
<path fill="none" stroke="#63b8ff" d="M238.57,-576.08C263.03,-581.18 291.41,-587.1 314.64,-591.94"/>
<polygon fill="#63b8ff" stroke="#63b8ff" points="239.21,-572.64 228.71,-574.03 237.79,-579.5 239.21,-572.64"/>
</a>
</g>
</g>
<!-- Node10 -->
<g id="Node000010" class="node">
<title>Node10</title>
<g id="a_Node000010"><a xlink:href="classQskSubWindowSkinlet.html" target="_top" xlink:title=" ">
<polygon fill="white" stroke="#666666" points="424.5,-574 298.5,-574 298.5,-555 424.5,-555 424.5,-574"/>
<text text-anchor="middle" x="361.5" y="-562" font-family="Helvetica,sans-Serif" font-size="10.00">QskSubWindowSkinlet</text>
</a>
</g>
</g>
<!-- Node7&#45;&gt;Node10 -->
<g id="edge135_Node000007_Node000010" class="edge">
<title>Node7&#45;&gt;Node10</title>
<g id="a_edge135_Node000007_Node000010"><a xlink:title=" ">
<path fill="none" stroke="#63b8ff" d="M241.67,-564.5C259.86,-564.5 279.96,-564.5 298.37,-564.5"/>
<polygon fill="#63b8ff" stroke="#63b8ff" points="241.5,-561 231.5,-564.5 241.5,-568 241.5,-561"/>
</a>
</g>
</g>
<!-- Node12 -->
<g id="Node000012" class="node">
<title>Node12</title>
<g id="a_Node000012"><a xlink:href="classQskProgressBarSkinlet.html" target="_top" xlink:title=" ">
<polygon fill="white" stroke="#666666" points="425.5,-537 297.5,-537 297.5,-518 425.5,-518 425.5,-537"/>
<text text-anchor="middle" x="361.5" y="-525" font-family="Helvetica,sans-Serif" font-size="10.00">QskProgressBarSkinlet</text>
</a>
</g>
</g>
<!-- Node11&#45;&gt;Node12 -->
<g id="edge137_Node000011_Node000012" class="edge">
<title>Node11&#45;&gt;Node12</title>
<g id="a_edge137_Node000011_Node000012"><a xlink:title=" ">
<path fill="none" stroke="#63b8ff" d="M269.3,-527.5C278.78,-527.5 288.3,-527.5 297.42,-527.5"/>
<polygon fill="#63b8ff" stroke="#63b8ff" points="269.05,-524 259.05,-527.5 269.05,-531 269.05,-524"/>
</a>
</g>
</g>
<!-- Node13 -->
<g id="Node000013" class="node">
<title>Node13</title>
<g id="a_Node000013"><a xlink:href="classQskProgressRingSkinlet.html" target="_top" xlink:title=" ">
<polygon fill="white" stroke="#666666" points="428,-500 295,-500 295,-481 428,-481 428,-500"/>
<text text-anchor="middle" x="361.5" y="-488" font-family="Helvetica,sans-Serif" font-size="10.00">QskProgressRingSkinlet</text>
</a>
</g>
</g>
<!-- Node11&#45;&gt;Node13 -->
<g id="edge138_Node000011_Node000013" class="edge">
<title>Node11&#45;&gt;Node13</title>
<g id="a_edge138_Node000011_Node000013"><a xlink:title=" ">
<path fill="none" stroke="#63b8ff" d="M238.57,-515.92C263.03,-510.82 291.41,-504.9 314.64,-500.06"/>
<polygon fill="#63b8ff" stroke="#63b8ff" points="237.79,-512.5 228.71,-517.97 239.21,-519.36 237.79,-512.5"/>
</a>
</g>
</g>
<!-- Node17 -->
<g id="Node000017" class="node">
<title>Node17</title>
<g id="a_Node000017"><a xlink:href="classQskListViewSkinlet.html" target="_top" xlink:title=" ">
<polygon fill="white" stroke="#666666" points="416.5,-426 306.5,-426 306.5,-407 416.5,-407 416.5,-426"/>
<text text-anchor="middle" x="361.5" y="-414" font-family="Helvetica,sans-Serif" font-size="10.00">QskListViewSkinlet</text>
</a>
</g>
</g>
<!-- Node16&#45;&gt;Node17 -->
<g id="edge142_Node000016_Node000017" class="edge">
<title>Node16&#45;&gt;Node17</title>
<g id="a_edge142_Node000016_Node000017"><a xlink:title=" ">
<path fill="none" stroke="#63b8ff" d="M252.25,-416.5C270.24,-416.5 289.36,-416.5 306.44,-416.5"/>
<polygon fill="#63b8ff" stroke="#63b8ff" points="252.1,-413 242.1,-416.5 252.1,-420 252.1,-413"/>
</a>
</g>
</g>
</g>
</svg>
