<?xml version="1.0" encoding="UTF-8" standalone="no"?>
<!DOCTYPE svg PUBLIC "-//W3C//DTD SVG 1.1//EN"
 "http://www.w3.org/Graphics/SVG/1.1/DTD/svg11.dtd">
<!-- Generated by graphviz version 2.43.0 (0)
 -->
<!-- Title: Graphical Class Hierarchy Pages: 1 -->
<svg width="338pt" height="138pt"
 viewBox="0.00 0.00 338.00 138.00" xmlns="http://www.w3.org/2000/svg" xmlns:xlink="http://www.w3.org/1999/xlink">
<g id="graph0" class="graph" transform="scale(1 1) rotate(0) translate(4 134)">
<title>Graphical Class Hierarchy</title>
<!-- Node0 -->
<g id="Node000000" class="node">
<title>Node0</title>
<g id="a_Node000000"><a xlink:title=" ">
<polygon fill="#e0e0e0" stroke="#999999" points="63,-74 0,-74 0,-55 63,-55 63,-74"/>
<text text-anchor="middle" x="31.5" y="-62" font-family="Helvetica,sans-Serif" font-size="10.00">QSGNode</text>
</a>
</g>
</g>
<!-- Node1 -->
<g id="Node000001" class="node">
<title>Node1</title>
<g id="a_Node000001"><a xlink:href="classQskArcNode.html" target="_top" xlink:title=" ">
<polygon fill="white" stroke="#666666" points="186,-130 109,-130 109,-111 186,-111 186,-130"/>
<text text-anchor="middle" x="147.5" y="-118" font-family="Helvetica,sans-Serif" font-size="10.00">QskArcNode</text>
</a>
</g>
</g>
<!-- Node0&#45;&gt;Node1 -->
<g id="edge106_Node000000_Node000001" class="edge">
<title>Node0&#45;&gt;Node1</title>
<g id="a_edge106_Node000000_Node000001"><a xlink:title=" ">
<path fill="none" stroke="#63b8ff" d="M56.54,-79.46C68.97,-86.87 84.53,-95.67 99,-102.5 105.38,-105.51 112.41,-108.4 119.06,-110.94"/>
<polygon fill="#63b8ff" stroke="#63b8ff" points="58.09,-76.3 47.72,-74.11 54.46,-82.29 58.09,-76.3"/>
</a>
</g>
</g>
<!-- Node2 -->
<g id="Node000002" class="node">
<title>Node2</title>
<g id="a_Node000002"><a xlink:href="classQskBoxNode.html" target="_top" xlink:title=" ">
<polygon fill="white" stroke="#666666" points="187.5,-93 107.5,-93 107.5,-74 187.5,-74 187.5,-93"/>
<text text-anchor="middle" x="147.5" y="-81" font-family="Helvetica,sans-Serif" font-size="10.00">QskBoxNode</text>
</a>
</g>
</g>
<!-- Node0&#45;&gt;Node2 -->
<g id="edge107_Node000000_Node000002" class="edge">
<title>Node0&#45;&gt;Node2</title>
<g id="a_edge107_Node000000_Node000002"><a xlink:title=" ">
<path fill="none" stroke="#63b8ff" d="M72.97,-71.25C84.12,-73.1 96.19,-75.11 107.27,-76.96"/>
<polygon fill="#63b8ff" stroke="#63b8ff" points="73.49,-67.78 63.05,-69.59 72.34,-74.69 73.49,-67.78"/>
</a>
</g>
</g>
<!-- Node3 -->
<g id="Node000003" class="node">
<title>Node3</title>
<g id="a_Node000003"><a xlink:href="classQskPaintedNode.html" target="_top" xlink:title=" ">
<polygon fill="white" stroke="#666666" points="196,-56 99,-56 99,-37 196,-37 196,-56"/>
<text text-anchor="middle" x="147.5" y="-44" font-family="Helvetica,sans-Serif" font-size="10.00">QskPaintedNode</text>
</a>
</g>
</g>
<!-- Node0&#45;&gt;Node3 -->
<g id="edge108_Node000000_Node000003" class="edge">
<title>Node0&#45;&gt;Node3</title>
<g id="a_edge108_Node000000_Node000003"><a xlink:title=" ">
<path fill="none" stroke="#63b8ff" d="M73.18,-58.08C81.44,-56.77 90.2,-55.39 98.68,-54.05"/>
<polygon fill="#63b8ff" stroke="#63b8ff" points="72.38,-54.66 63.05,-59.68 73.47,-61.57 72.38,-54.66"/>
</a>
</g>
</g>
<!-- Node5 -->
<g id="Node000005" class="node">
<title>Node5</title>
<g id="a_Node000005"><a xlink:href="classQskTreeNode.html" target="_top" xlink:title=" ">
<polygon fill="white" stroke="#666666" points="188,-19 107,-19 107,0 188,0 188,-19"/>
<text text-anchor="middle" x="147.5" y="-7" font-family="Helvetica,sans-Serif" font-size="10.00">QskTreeNode</text>
</a>
</g>
</g>
<!-- Node0&#45;&gt;Node5 -->
<g id="edge110_Node000000_Node000005" class="edge">
<title>Node0&#45;&gt;Node5</title>
<g id="a_edge110_Node000000_Node000005"><a xlink:title=" ">
<path fill="none" stroke="#63b8ff" d="M57.68,-49.98C69.97,-43.12 85.08,-35.03 99,-28.5 106.08,-25.18 113.9,-21.9 121.12,-19.02"/>
<polygon fill="#63b8ff" stroke="#63b8ff" points="55.89,-46.97 48.9,-54.93 59.33,-53.07 55.89,-46.97"/>
</a>
</g>
</g>
<!-- Node4 -->
<g id="Node000004" class="node">
<title>Node4</title>
<g id="a_Node000004"><a xlink:href="classQskGraphicNode.html" target="_top" xlink:title=" ">
<polygon fill="white" stroke="#666666" points="330,-56 232,-56 232,-37 330,-37 330,-56"/>
<text text-anchor="middle" x="281" y="-44" font-family="Helvetica,sans-Serif" font-size="10.00">QskGraphicNode</text>
</a>
</g>
</g>
<!-- Node3&#45;&gt;Node4 -->
<g id="edge109_Node000003_Node000004" class="edge">
<title>Node3&#45;&gt;Node4</title>
<g id="a_edge109_Node000003_Node000004"><a xlink:title=" ">
<path fill="none" stroke="#63b8ff" d="M206.57,-46.5C215.06,-46.5 223.71,-46.5 231.97,-46.5"/>
<polygon fill="#63b8ff" stroke="#63b8ff" points="206.35,-43 196.35,-46.5 206.35,-50 206.35,-43"/>
</a>
</g>
</g>
</g>
</svg>
