<?xml version="1.0" encoding="UTF-8" standalone="no"?>
<!DOCTYPE svg PUBLIC "-//W3C//DTD SVG 1.1//EN"
 "http://www.w3.org/Graphics/SVG/1.1/DTD/svg11.dtd">
<!-- Generated by graphviz version 2.43.0 (0)
 -->
<!-- Title: Graphical Class Hierarchy Pages: 1 -->
<svg width="963pt" height="915pt"
 viewBox="0.00 0.00 963.00 915.00" xmlns="http://www.w3.org/2000/svg" xmlns:xlink="http://www.w3.org/1999/xlink">
<g id="graph0" class="graph" transform="scale(1 1) rotate(0) translate(4 911)">
<title>Graphical Class Hierarchy</title>
<!-- Node0 -->
<g id="Node000000" class="node">
<title>Node0</title>
<g id="a_Node000000"><a xlink:title=" ">
<polygon fill="#e0e0e0" stroke="#999999" points="74,-371 0,-371 0,-352 74,-352 74,-371"/>
<text text-anchor="middle" x="37" y="-359" font-family="Helvetica,sans-Serif" font-size="10.00">QQuickItem</text>
</a>
</g>
</g>
<!-- Node1 -->
<g id="Node000001" class="node">
<title>Node1</title>
<g id="a_Node000001"><a xlink:href="classQskItem.html" target="_top" xlink:title=" ">
<polygon fill="white" stroke="#666666" points="180.5,-371 122.5,-371 122.5,-352 180.5,-352 180.5,-371"/>
<text text-anchor="middle" x="151.5" y="-359" font-family="Helvetica,sans-Serif" font-size="10.00">QskItem</text>
</a>
</g>
</g>
<!-- Node0&#45;&gt;Node1 -->
<g id="edge34_Node000000_Node000001" class="edge">
<title>Node0&#45;&gt;Node1</title>
<g id="a_edge34_Node000000_Node000001"><a xlink:title=" ">
<path fill="none" stroke="#63b8ff" d="M84.31,-361.5C97.16,-361.5 110.72,-361.5 122.2,-361.5"/>
<polygon fill="#63b8ff" stroke="#63b8ff" points="84.21,-358 74.21,-361.5 84.21,-365 84.21,-358"/>
</a>
</g>
</g>
<!-- Node2 -->
<g id="Node000002" class="node">
<title>Node2</title>
<g id="a_Node000002"><a xlink:href="classQskControl.html" target="_top" xlink:title="Base class of all controls.">
<polygon fill="white" stroke="#666666" points="300,-352 229,-352 229,-333 300,-333 300,-352"/>
<text text-anchor="middle" x="264.5" y="-340" font-family="Helvetica,sans-Serif" font-size="10.00">QskControl</text>
</a>
</g>
</g>
<!-- Node1&#45;&gt;Node2 -->
<g id="edge35_Node000001_Node000002" class="edge">
<title>Node1&#45;&gt;Node2</title>
<g id="a_edge35_Node000001_Node000002"><a xlink:title=" ">
<path fill="none" stroke="#63b8ff" d="M190.55,-354.99C202.93,-352.87 216.61,-350.53 228.74,-348.45"/>
<polygon fill="#63b8ff" stroke="#63b8ff" points="189.78,-351.57 180.51,-356.71 190.96,-358.47 189.78,-351.57"/>
</a>
</g>
</g>
<!-- Node3 -->
<g id="Node000003" class="node">
<title>Node3</title>
<g id="a_Node000003"><a xlink:href="classQskAbstractButton.html" target="_top" xlink:title=" ">
<polygon fill="white" stroke="#666666" points="447.5,-833 339.5,-833 339.5,-814 447.5,-814 447.5,-833"/>
<text text-anchor="middle" x="393.5" y="-821" font-family="Helvetica,sans-Serif" font-size="10.00">QskAbstractButton</text>
</a>
</g>
</g>
<!-- Node2&#45;&gt;Node3 -->
<g id="edge36_Node000002_Node000003" class="edge">
<title>Node2&#45;&gt;Node3</title>
<g id="a_edge36_Node000002_Node000003"><a xlink:title=" ">
<path fill="none" stroke="#63b8ff" d="M266.5,-362.23C270.01,-420.57 284.43,-596.56 336,-731.5 348.45,-764.07 372.63,-797.88 384.93,-813.93"/>
<polygon fill="#63b8ff" stroke="#63b8ff" points="269.99,-361.97 265.94,-352.18 263.01,-362.36 269.99,-361.97"/>
</a>
</g>
</g>
<!-- Node9 -->
<g id="Node000009" class="node">
<title>Node9</title>
<g id="a_Node000009"><a xlink:href="classQskBoundedControl.html" target="_top" xlink:title=" ">
<polygon fill="white" stroke="#666666" points="450,-722 337,-722 337,-703 450,-703 450,-722"/>
<text text-anchor="middle" x="393.5" y="-710" font-family="Helvetica,sans-Serif" font-size="10.00">QskBoundedControl</text>
</a>
</g>
</g>
<!-- Node2&#45;&gt;Node9 -->
<g id="edge42_Node000002_Node000009" class="edge">
<title>Node2&#45;&gt;Node9</title>
<g id="a_edge42_Node000002_Node000009"><a xlink:title=" ">
<path fill="none" stroke="#63b8ff" d="M268.38,-362.12C275.63,-408.49 296.9,-527.91 336,-620.5 349.56,-652.62 373.24,-686.63 385.18,-702.83"/>
<polygon fill="#63b8ff" stroke="#63b8ff" points="271.83,-361.56 266.87,-352.2 264.91,-362.61 271.83,-361.56"/>
</a>
</g>
</g>
<!-- Node18 -->
<g id="Node000018" class="node">
<title>Node18</title>
<g id="a_Node000018"><a xlink:href="classQskBox.html" target="_top" xlink:title=" ">
<polygon fill="white" stroke="#666666" points="420.5,-611 366.5,-611 366.5,-592 420.5,-592 420.5,-611"/>
<text text-anchor="middle" x="393.5" y="-599" font-family="Helvetica,sans-Serif" font-size="10.00">QskBox</text>
</a>
</g>
</g>
<!-- Node2&#45;&gt;Node18 -->
<g id="edge51_Node000002_Node000018" class="edge">
<title>Node2&#45;&gt;Node18</title>
<g id="a_edge51_Node000002_Node000018"><a xlink:title=" ">
<path fill="none" stroke="#63b8ff" d="M265.39,-362.43C266.24,-408.03 274.79,-520.82 336,-583.5 343.98,-591.68 355.67,-596.15 366.34,-598.59"/>
<polygon fill="#63b8ff" stroke="#63b8ff" points="268.89,-362.33 265.31,-352.36 261.89,-362.39 268.89,-362.33"/>
</a>
</g>
</g>
<!-- Node30 -->
<g id="Node000030" class="node">
<title>Node30</title>
<g id="a_Node000030"><a xlink:href="classQskComboBox.html" target="_top" xlink:title=" ">
<polygon fill="white" stroke="#666666" points="438,-574 349,-574 349,-555 438,-555 438,-574"/>
<text text-anchor="middle" x="393.5" y="-562" font-family="Helvetica,sans-Serif" font-size="10.00">QskComboBox</text>
</a>
</g>
</g>
<!-- Node2&#45;&gt;Node30 -->
<g id="edge63_Node000002_Node000030" class="edge">
<title>Node2&#45;&gt;Node30</title>
<g id="a_edge63_Node000002_Node000030"><a xlink:title=" ">
<path fill="none" stroke="#63b8ff" d="M266.64,-362.35C270.02,-402.78 283.41,-495.17 336,-546.5 339.68,-550.1 344.08,-552.97 348.78,-555.28"/>
<polygon fill="#63b8ff" stroke="#63b8ff" points="270.11,-361.92 265.91,-352.19 263.13,-362.42 270.11,-361.92"/>
</a>
</g>
</g>
<!-- Node31 -->
<g id="Node000031" class="node">
<title>Node31</title>
<g id="a_Node000031"><a xlink:href="classQskFocusIndicator.html" target="_top" xlink:title=" ">
<polygon fill="white" stroke="#666666" points="446.5,-537 340.5,-537 340.5,-518 446.5,-518 446.5,-537"/>
<text text-anchor="middle" x="393.5" y="-525" font-family="Helvetica,sans-Serif" font-size="10.00">QskFocusIndicator</text>
</a>
</g>
</g>
<!-- Node2&#45;&gt;Node31 -->
<g id="edge64_Node000002_Node000031" class="edge">
<title>Node2&#45;&gt;Node31</title>
<g id="a_edge64_Node000002_Node000031"><a xlink:title=" ">
<path fill="none" stroke="#63b8ff" d="M268.38,-362.27C274.47,-397.05 291.94,-469.28 336,-509.5 339.73,-512.9 344.09,-515.66 348.73,-517.9"/>
<polygon fill="#63b8ff" stroke="#63b8ff" points="271.77,-361.33 266.72,-352.02 264.86,-362.45 271.77,-361.33"/>
</a>
</g>
</g>
<!-- Node32 -->
<g id="Node000032" class="node">
<title>Node32</title>
<g id="a_Node000032"><a xlink:href="classQskGraphicLabel.html" target="_top" xlink:title=" ">
<polygon fill="white" stroke="#666666" points="443,-500 344,-500 344,-481 443,-481 443,-500"/>
<text text-anchor="middle" x="393.5" y="-488" font-family="Helvetica,sans-Serif" font-size="10.00">QskGraphicLabel</text>
</a>
</g>
</g>
<!-- Node2&#45;&gt;Node32 -->
<g id="edge65_Node000002_Node000032" class="edge">
<title>Node2&#45;&gt;Node32</title>
<g id="a_edge65_Node000002_Node000032"><a xlink:title=" ">
<path fill="none" stroke="#63b8ff" d="M271.02,-362.24C279.98,-390.68 300.37,-443.03 336,-472.5 340.12,-475.91 344.91,-478.68 349.9,-480.93"/>
<polygon fill="#63b8ff" stroke="#63b8ff" points="274.26,-360.86 268.05,-352.28 267.56,-362.86 274.26,-360.86"/>
</a>
</g>
</g>
<!-- Node33 -->
<g id="Node000033" class="node">
<title>Node33</title>
<g id="a_Node000033"><a xlink:href="classQskInputGrabber.html" target="_top" xlink:title=" ">
<polygon fill="white" stroke="#666666" points="443,-463 344,-463 344,-444 443,-444 443,-463"/>
<text text-anchor="middle" x="393.5" y="-451" font-family="Helvetica,sans-Serif" font-size="10.00">QskInputGrabber</text>
</a>
</g>
</g>
<!-- Node2&#45;&gt;Node33 -->
<g id="edge66_Node000002_Node000033" class="edge">
<title>Node2&#45;&gt;Node33</title>
<g id="a_edge66_Node000002_Node000033"><a xlink:title=" ">
<path fill="none" stroke="#63b8ff" d="M275.02,-361.14C286.66,-382.15 308.29,-415.91 336,-435.5 340.79,-438.89 346.25,-441.66 351.84,-443.92"/>
<polygon fill="#63b8ff" stroke="#63b8ff" points="278.06,-359.4 270.25,-352.23 271.88,-362.7 278.06,-359.4"/>
</a>
</g>
</g>
<!-- Node34 -->
<g id="Node000034" class="node">
<title>Node34</title>
<g id="a_Node000034"><a xlink:href="classQskInputPanel.html" target="_top" xlink:title=" ">
<polygon fill="white" stroke="#666666" points="436.5,-426 350.5,-426 350.5,-407 436.5,-407 436.5,-426"/>
<text text-anchor="middle" x="393.5" y="-414" font-family="Helvetica,sans-Serif" font-size="10.00">QskInputPanel</text>
</a>
</g>
</g>
<!-- Node2&#45;&gt;Node34 -->
<g id="edge67_Node000002_Node000034" class="edge">
<title>Node2&#45;&gt;Node34</title>
<g id="a_edge67_Node000002_Node000034"><a xlink:title=" ">
<path fill="none" stroke="#63b8ff" d="M283.32,-359.18C296.9,-371.18 316.53,-387.03 336,-397.5 342.84,-401.18 350.52,-404.33 357.96,-406.95"/>
<polygon fill="#63b8ff" stroke="#63b8ff" points="285.46,-356.4 275.69,-352.29 280.76,-361.6 285.46,-356.4"/>
</a>
</g>
</g>
<!-- Node35 -->
<g id="Node000035" class="node">
<title>Node35</title>
<g id="a_Node000035"><a xlink:href="classQskPageIndicator.html" target="_top" xlink:title=" ">
<polygon fill="white" stroke="#666666" points="444,-389 343,-389 343,-370 444,-370 444,-389"/>
<text text-anchor="middle" x="393.5" y="-377" font-family="Helvetica,sans-Serif" font-size="10.00">QskPageIndicator</text>
</a>
</g>
</g>
<!-- Node2&#45;&gt;Node35 -->
<g id="edge68_Node000002_Node000035" class="edge">
<title>Node2&#45;&gt;Node35</title>
<g id="a_edge68_Node000002_Node000035"><a xlink:title=" ">
<path fill="none" stroke="#63b8ff" d="M307.81,-354.83C324.63,-359.73 343.69,-365.28 359.46,-369.88"/>
<polygon fill="#63b8ff" stroke="#63b8ff" points="308.79,-351.47 298.21,-352.03 306.83,-358.19 308.79,-351.47"/>
</a>
</g>
</g>
<!-- Node36 -->
<g id="Node000036" class="node">
<title>Node36</title>
<g id="a_Node000036"><a xlink:href="classQskPopup.html" target="_top" xlink:title=" ">
<polygon fill="white" stroke="#666666" points="426,-352 361,-352 361,-333 426,-333 426,-352"/>
<text text-anchor="middle" x="393.5" y="-340" font-family="Helvetica,sans-Serif" font-size="10.00">QskPopup</text>
</a>
</g>
</g>
<!-- Node2&#45;&gt;Node36 -->
<g id="edge69_Node000002_Node000036" class="edge">
<title>Node2&#45;&gt;Node36</title>
<g id="a_edge69_Node000002_Node000036"><a xlink:title=" ">
<path fill="none" stroke="#63b8ff" d="M310.31,-342.5C327.01,-342.5 345.61,-342.5 360.88,-342.5"/>
<polygon fill="#63b8ff" stroke="#63b8ff" points="310.2,-339 300.2,-342.5 310.2,-346 310.2,-339"/>
</a>
</g>
</g>
<!-- Node43 -->
<g id="Node000043" class="node">
<title>Node43</title>
<g id="a_Node000043"><a xlink:href="classQskRadioBox.html" target="_top" xlink:title=" ">
<polygon fill="white" stroke="#666666" points="434.5,-315 352.5,-315 352.5,-296 434.5,-296 434.5,-315"/>
<text text-anchor="middle" x="393.5" y="-303" font-family="Helvetica,sans-Serif" font-size="10.00">QskRadioBox</text>
</a>
</g>
</g>
<!-- Node2&#45;&gt;Node43 -->
<g id="edge76_Node000002_Node000043" class="edge">
<title>Node2&#45;&gt;Node43</title>
<g id="a_edge76_Node000002_Node000043"><a xlink:title=" ">
<path fill="none" stroke="#63b8ff" d="M307.81,-330.17C324.63,-325.27 343.69,-319.72 359.46,-315.12"/>
<polygon fill="#63b8ff" stroke="#63b8ff" points="306.83,-326.81 298.21,-332.97 308.79,-333.53 306.83,-326.81"/>
</a>
</g>
</g>
<!-- Node44 -->
<g id="Node000044" class="node">
<title>Node44</title>
<g id="a_Node000044"><a xlink:href="classQskScrollBox.html" target="_top" xlink:title=" ">
<polygon fill="white" stroke="#666666" points="434,-278 353,-278 353,-259 434,-259 434,-278"/>
<text text-anchor="middle" x="393.5" y="-266" font-family="Helvetica,sans-Serif" font-size="10.00">QskScrollBox</text>
</a>
</g>
</g>
<!-- Node2&#45;&gt;Node44 -->
<g id="edge77_Node000002_Node000044" class="edge">
<title>Node2&#45;&gt;Node44</title>
<g id="a_edge77_Node000002_Node000044"><a xlink:title=" ">
<path fill="none" stroke="#63b8ff" d="M282.74,-325.83C296.29,-313.51 316.13,-297.1 336,-286.5 342.18,-283.21 349.06,-280.39 355.84,-278.04"/>
<polygon fill="#63b8ff" stroke="#63b8ff" points="280.1,-323.5 275.18,-332.88 284.88,-328.62 280.1,-323.5"/>
</a>
</g>
</g>
<!-- Node49 -->
<g id="Node000049" class="node">
<title>Node49</title>
<g id="a_Node000049"><a xlink:href="classQskSegmentedBar.html" target="_top" xlink:title=" ">
<polygon fill="white" stroke="#666666" points="447,-241 340,-241 340,-222 447,-222 447,-241"/>
<text text-anchor="middle" x="393.5" y="-229" font-family="Helvetica,sans-Serif" font-size="10.00">QskSegmentedBar</text>
</a>
</g>
</g>
<!-- Node2&#45;&gt;Node49 -->
<g id="edge82_Node000002_Node000049" class="edge">
<title>Node2&#45;&gt;Node49</title>
<g id="a_edge82_Node000002_Node000049"><a xlink:title=" ">
<path fill="none" stroke="#63b8ff" d="M275.02,-323.86C286.66,-302.85 308.29,-269.09 336,-249.5 340.79,-246.11 346.25,-243.34 351.84,-241.08"/>
<polygon fill="#63b8ff" stroke="#63b8ff" points="271.88,-322.3 270.25,-332.77 278.06,-325.6 271.88,-322.3"/>
</a>
</g>
</g>
<!-- Node50 -->
<g id="Node000050" class="node">
<title>Node50</title>
<g id="a_Node000050"><a xlink:href="classQskSeparator.html" target="_top" xlink:title="Separates a group of items from adjacent items.">
<polygon fill="white" stroke="#666666" points="435,-204 352,-204 352,-185 435,-185 435,-204"/>
<text text-anchor="middle" x="393.5" y="-192" font-family="Helvetica,sans-Serif" font-size="10.00">QskSeparator</text>
</a>
</g>
</g>
<!-- Node2&#45;&gt;Node50 -->
<g id="edge83_Node000002_Node000050" class="edge">
<title>Node2&#45;&gt;Node50</title>
<g id="a_edge83_Node000002_Node000050"><a xlink:title=" ">
<path fill="none" stroke="#63b8ff" d="M271.02,-322.76C279.98,-294.32 300.37,-241.97 336,-212.5 340.68,-208.63 346.2,-205.59 351.93,-203.19"/>
<polygon fill="#63b8ff" stroke="#63b8ff" points="267.56,-322.14 268.05,-332.72 274.26,-324.14 267.56,-322.14"/>
</a>
</g>
</g>
<!-- Node51 -->
<g id="Node000051" class="node">
<title>Node51</title>
<g id="a_Node000051"><a xlink:href="classQskStatusIndicator.html" target="_top" xlink:title=" ">
<polygon fill="white" stroke="#666666" points="448,-167 339,-167 339,-148 448,-148 448,-167"/>
<text text-anchor="middle" x="393.5" y="-155" font-family="Helvetica,sans-Serif" font-size="10.00">QskStatusIndicator</text>
</a>
</g>
</g>
<!-- Node2&#45;&gt;Node51 -->
<g id="edge84_Node000002_Node000051" class="edge">
<title>Node2&#45;&gt;Node51</title>
<g id="a_edge84_Node000002_Node000051"><a xlink:title=" ">
<path fill="none" stroke="#63b8ff" d="M268.38,-322.73C274.47,-287.95 291.94,-215.72 336,-175.5 339.73,-172.1 344.09,-169.34 348.73,-167.1"/>
<polygon fill="#63b8ff" stroke="#63b8ff" points="264.86,-322.55 266.72,-332.98 271.77,-323.67 264.86,-322.55"/>
</a>
</g>
</g>
<!-- Node52 -->
<g id="Node000052" class="node">
<title>Node52</title>
<g id="a_Node000052"><a xlink:href="classQskSubWindowArea.html" target="_top" xlink:title=" ">
<polygon fill="white" stroke="#666666" points="451,-130 336,-130 336,-111 451,-111 451,-130"/>
<text text-anchor="middle" x="393.5" y="-118" font-family="Helvetica,sans-Serif" font-size="10.00">QskSubWindowArea</text>
</a>
</g>
</g>
<!-- Node2&#45;&gt;Node52 -->
<g id="edge85_Node000002_Node000052" class="edge">
<title>Node2&#45;&gt;Node52</title>
<g id="a_edge85_Node000002_Node000052"><a xlink:title=" ">
<path fill="none" stroke="#63b8ff" d="M266.64,-322.65C270.02,-282.22 283.41,-189.83 336,-138.5 339.54,-135.05 343.73,-132.26 348.22,-130"/>
<polygon fill="#63b8ff" stroke="#63b8ff" points="263.13,-322.58 265.91,-332.81 270.11,-323.08 263.13,-322.58"/>
</a>
</g>
</g>
<!-- Node53 -->
<g id="Node000053" class="node">
<title>Node53</title>
<g id="a_Node000053"><a xlink:href="classQskTabView.html" target="_top" xlink:title=" ">
<polygon fill="white" stroke="#666666" points="431.5,-93 355.5,-93 355.5,-74 431.5,-74 431.5,-93"/>
<text text-anchor="middle" x="393.5" y="-81" font-family="Helvetica,sans-Serif" font-size="10.00">QskTabView</text>
</a>
</g>
</g>
<!-- Node2&#45;&gt;Node53 -->
<g id="edge86_Node000002_Node000053" class="edge">
<title>Node2&#45;&gt;Node53</title>
<g id="a_edge86_Node000002_Node000053"><a xlink:title=" ">
<path fill="none" stroke="#63b8ff" d="M265.39,-322.57C266.24,-276.97 274.79,-164.18 336,-101.5 341.25,-96.12 348.1,-92.35 355.21,-89.7"/>
<polygon fill="#63b8ff" stroke="#63b8ff" points="261.89,-322.61 265.31,-332.64 268.89,-322.67 261.89,-322.61"/>
</a>
</g>
</g>
<!-- Node54 -->
<g id="Node000054" class="node">
<title>Node54</title>
<g id="a_Node000054"><a xlink:href="classQskTextInput.html" target="_top" xlink:title=" ">
<polygon fill="white" stroke="#666666" points="433.5,-56 353.5,-56 353.5,-37 433.5,-37 433.5,-56"/>
<text text-anchor="middle" x="393.5" y="-44" font-family="Helvetica,sans-Serif" font-size="10.00">QskTextInput</text>
</a>
</g>
</g>
<!-- Node2&#45;&gt;Node54 -->
<g id="edge87_Node000002_Node000054" class="edge">
<title>Node2&#45;&gt;Node54</title>
<g id="a_edge87_Node000002_Node000054"><a xlink:title=" ">
<path fill="none" stroke="#63b8ff" d="M268.04,-322.51C275.67,-265.3 300.15,-102.57 336,-64.5 340.73,-59.48 346.85,-55.85 353.32,-53.24"/>
<polygon fill="#63b8ff" stroke="#63b8ff" points="264.52,-322.39 266.7,-332.76 271.46,-323.29 264.52,-322.39"/>
</a>
</g>
</g>
<!-- Node55 -->
<g id="Node000055" class="node">
<title>Node55</title>
<g id="a_Node000055"><a xlink:href="classQskTextLabel.html" target="_top" xlink:title=" ">
<polygon fill="white" stroke="#666666" points="434.5,-19 352.5,-19 352.5,0 434.5,0 434.5,-19"/>
<text text-anchor="middle" x="393.5" y="-7" font-family="Helvetica,sans-Serif" font-size="10.00">QskTextLabel</text>
</a>
</g>
</g>
<!-- Node2&#45;&gt;Node55 -->
<g id="edge88_Node000002_Node000055" class="edge">
<title>Node2&#45;&gt;Node55</title>
<g id="a_edge88_Node000002_Node000055"><a xlink:title=" ">
<path fill="none" stroke="#63b8ff" d="M267.37,-322.75C273.61,-260.76 295.66,-71.57 336,-27.5 340.45,-22.64 346.2,-19.09 352.34,-16.49"/>
<polygon fill="#63b8ff" stroke="#63b8ff" points="263.88,-322.49 266.39,-332.78 270.84,-323.17 263.88,-322.49"/>
</a>
</g>
</g>
<!-- Node4 -->
<g id="Node000004" class="node">
<title>Node4</title>
<g id="a_Node000004"><a xlink:href="classQskCheckBox.html" target="_top" xlink:title=" ">
<polygon fill="white" stroke="#666666" points="591.5,-907 507.5,-907 507.5,-888 591.5,-888 591.5,-907"/>
<text text-anchor="middle" x="549.5" y="-895" font-family="Helvetica,sans-Serif" font-size="10.00">QskCheckBox</text>
</a>
</g>
</g>
<!-- Node3&#45;&gt;Node4 -->
<g id="edge37_Node000003_Node000004" class="edge">
<title>Node3&#45;&gt;Node4</title>
<g id="a_edge37_Node000003_Node000004"><a xlink:title=" ">
<path fill="none" stroke="#63b8ff" d="M416.36,-838.97C434.56,-851.3 461.54,-868.3 487,-879.5 494.33,-882.73 502.4,-885.56 510.22,-887.97"/>
<polygon fill="#63b8ff" stroke="#63b8ff" points="417.91,-835.79 407.69,-833.01 413.94,-841.56 417.91,-835.79"/>
</a>
</g>
</g>
<!-- Node5 -->
<g id="Node000005" class="node">
<title>Node5</title>
<g id="a_Node000005"><a xlink:href="classQskPushButton.html" target="_top" xlink:title=" ">
<polygon fill="white" stroke="#666666" points="595,-870 504,-870 504,-851 595,-851 595,-870"/>
<text text-anchor="middle" x="549.5" y="-858" font-family="Helvetica,sans-Serif" font-size="10.00">QskPushButton</text>
</a>
</g>
</g>
<!-- Node3&#45;&gt;Node5 -->
<g id="edge38_Node000003_Node000005" class="edge">
<title>Node3&#45;&gt;Node5</title>
<g id="a_edge38_Node000003_Node000005"><a xlink:title=" ">
<path fill="none" stroke="#63b8ff" d="M444.13,-835.43C465.03,-840.44 489.01,-846.21 508.71,-850.94"/>
<polygon fill="#63b8ff" stroke="#63b8ff" points="444.7,-831.96 434.16,-833.03 443.06,-838.77 444.7,-831.96"/>
</a>
</g>
</g>
<!-- Node7 -->
<g id="Node000007" class="node">
<title>Node7</title>
<g id="a_Node000007"><a xlink:href="classQskSwitchButton.html" target="_top" xlink:title=" ">
<polygon fill="white" stroke="#666666" points="599.5,-833 499.5,-833 499.5,-814 599.5,-814 599.5,-833"/>
<text text-anchor="middle" x="549.5" y="-821" font-family="Helvetica,sans-Serif" font-size="10.00">QskSwitchButton</text>
</a>
</g>
</g>
<!-- Node3&#45;&gt;Node7 -->
<g id="edge40_Node000003_Node000007" class="edge">
<title>Node3&#45;&gt;Node7</title>
<g id="a_edge40_Node000003_Node000007"><a xlink:title=" ">
<path fill="none" stroke="#63b8ff" d="M458.27,-823.5C471.97,-823.5 486.25,-823.5 499.3,-823.5"/>
<polygon fill="#63b8ff" stroke="#63b8ff" points="457.93,-820 447.93,-823.5 457.93,-827 457.93,-820"/>
</a>
</g>
</g>
<!-- Node8 -->
<g id="Node000008" class="node">
<title>Node8</title>
<g id="a_Node000008"><a xlink:href="classQskTabButton.html" target="_top" xlink:title=" ">
<polygon fill="white" stroke="#666666" points="591.5,-796 507.5,-796 507.5,-777 591.5,-777 591.5,-796"/>
<text text-anchor="middle" x="549.5" y="-784" font-family="Helvetica,sans-Serif" font-size="10.00">QskTabButton</text>
</a>
</g>
</g>
<!-- Node3&#45;&gt;Node8 -->
<g id="edge41_Node000003_Node000008" class="edge">
<title>Node3&#45;&gt;Node8</title>
<g id="a_edge41_Node000003_Node000008"><a xlink:title=" ">
<path fill="none" stroke="#63b8ff" d="M444.13,-811.57C465.03,-806.56 489.01,-800.79 508.71,-796.06"/>
<polygon fill="#63b8ff" stroke="#63b8ff" points="443.06,-808.23 434.16,-813.97 444.7,-815.04 443.06,-808.23"/>
</a>
</g>
</g>
<!-- Node6 -->
<g id="Node000006" class="node">
<title>Node6</title>
<g id="a_Node000006"><a xlink:href="classQskDialogButton.html" target="_top" xlink:title=" ">
<polygon fill="white" stroke="#666666" points="764.5,-870 665.5,-870 665.5,-851 764.5,-851 764.5,-870"/>
<text text-anchor="middle" x="715" y="-858" font-family="Helvetica,sans-Serif" font-size="10.00">QskDialogButton</text>
</a>
</g>
</g>
<!-- Node5&#45;&gt;Node6 -->
<g id="edge39_Node000005_Node000006" class="edge">
<title>Node5&#45;&gt;Node6</title>
<g id="a_edge39_Node000005_Node000006"><a xlink:title=" ">
<path fill="none" stroke="#63b8ff" d="M605.4,-860.5C624.81,-860.5 646.5,-860.5 665.36,-860.5"/>
<polygon fill="#63b8ff" stroke="#63b8ff" points="605.18,-857 595.18,-860.5 605.18,-864 605.18,-857"/>
</a>
</g>
</g>
<!-- Node10 -->
<g id="Node000010" class="node">
<title>Node10</title>
<g id="a_Node000010"><a xlink:href="classQskBoundedInput.html" target="_top" xlink:title=" ">
<polygon fill="white" stroke="#666666" points="601,-759 498,-759 498,-740 601,-740 601,-759"/>
<text text-anchor="middle" x="549.5" y="-747" font-family="Helvetica,sans-Serif" font-size="10.00">QskBoundedInput</text>
</a>
</g>
</g>
<!-- Node9&#45;&gt;Node10 -->
<g id="edge43_Node000009_Node000010" class="edge">
<title>Node9&#45;&gt;Node10</title>
<g id="a_edge43_Node000009_Node000010"><a xlink:title=" ">
<path fill="none" stroke="#63b8ff" d="M444.13,-724.43C465.03,-729.44 489.01,-735.21 508.71,-739.94"/>
<polygon fill="#63b8ff" stroke="#63b8ff" points="444.7,-720.96 434.16,-722.03 443.06,-727.77 444.7,-720.96"/>
</a>
</g>
</g>
<!-- Node15 -->
<g id="Node000015" class="node">
<title>Node15</title>
<g id="a_Node000015"><a xlink:href="classQskProgressIndicator.html" target="_top" xlink:title=" ">
<polygon fill="white" stroke="#666666" points="609.5,-722 489.5,-722 489.5,-703 609.5,-703 609.5,-722"/>
<text text-anchor="middle" x="549.5" y="-710" font-family="Helvetica,sans-Serif" font-size="10.00">QskProgressIndicator</text>
</a>
</g>
</g>
<!-- Node9&#45;&gt;Node15 -->
<g id="edge48_Node000009_Node000015" class="edge">
<title>Node9&#45;&gt;Node15</title>
<g id="a_edge48_Node000009_Node000015"><a xlink:title=" ">
<path fill="none" stroke="#63b8ff" d="M460.1,-712.5C469.81,-712.5 479.77,-712.5 489.34,-712.5"/>
<polygon fill="#63b8ff" stroke="#63b8ff" points="460.1,-709 450.1,-712.5 460.1,-716 460.1,-709"/>
</a>
</g>
</g>
<!-- Node11 -->
<g id="Node000011" class="node">
<title>Node11</title>
<g id="a_Node000011"><a xlink:href="classQskBoundedRangeInput.html" target="_top" xlink:title=" ">
<polygon fill="white" stroke="#666666" points="782,-796 648,-796 648,-777 782,-777 782,-796"/>
<text text-anchor="middle" x="715" y="-784" font-family="Helvetica,sans-Serif" font-size="10.00">QskBoundedRangeInput</text>
</a>
</g>
</g>
<!-- Node10&#45;&gt;Node11 -->
<g id="edge44_Node000010_Node000011" class="edge">
<title>Node10&#45;&gt;Node11</title>
<g id="a_edge44_Node000010_Node000011"><a xlink:title=" ">
<path fill="none" stroke="#63b8ff" d="M602.59,-761.29C624.91,-766.34 650.65,-772.16 671.75,-776.94"/>
<polygon fill="#63b8ff" stroke="#63b8ff" points="603.13,-757.82 592.61,-759.03 601.59,-764.65 603.13,-757.82"/>
</a>
</g>
</g>
<!-- Node12 -->
<g id="Node000012" class="node">
<title>Node12</title>
<g id="a_Node000012"><a xlink:href="classQskBoundedValueInput.html" target="_top" xlink:title=" ">
<polygon fill="white" stroke="#666666" points="780,-759 650,-759 650,-740 780,-740 780,-759"/>
<text text-anchor="middle" x="715" y="-747" font-family="Helvetica,sans-Serif" font-size="10.00">QskBoundedValueInput</text>
</a>
</g>
</g>
<!-- Node10&#45;&gt;Node12 -->
<g id="edge45_Node000010_Node000012" class="edge">
<title>Node10&#45;&gt;Node12</title>
<g id="a_edge45_Node000010_Node000012"><a xlink:title=" ">
<path fill="none" stroke="#63b8ff" d="M611.64,-749.5C624.14,-749.5 637.32,-749.5 649.92,-749.5"/>
<polygon fill="#63b8ff" stroke="#63b8ff" points="611.34,-746 601.34,-749.5 611.34,-753 611.34,-746"/>
</a>
</g>
</g>
<!-- Node13 -->
<g id="Node000013" class="node">
<title>Node13</title>
<g id="a_Node000013"><a xlink:href="classQskSlider.html" target="_top" xlink:title=" ">
<polygon fill="white" stroke="#666666" points="918,-777 855,-777 855,-758 918,-758 918,-777"/>
<text text-anchor="middle" x="886.5" y="-765" font-family="Helvetica,sans-Serif" font-size="10.00">QskSlider</text>
</a>
</g>
</g>
<!-- Node12&#45;&gt;Node13 -->
<g id="edge46_Node000012_Node000013" class="edge">
<title>Node12&#45;&gt;Node13</title>
<g id="a_edge46_Node000012_Node000013"><a xlink:title=" ">
<path fill="none" stroke="#63b8ff" d="M790.13,-757.37C812.96,-759.8 836.84,-762.33 854.99,-764.26"/>
<polygon fill="#63b8ff" stroke="#63b8ff" points="790.39,-753.88 780.08,-756.31 789.66,-760.84 790.39,-753.88"/>
</a>
</g>
</g>
<!-- Node14 -->
<g id="Node000014" class="node">
<title>Node14</title>
<g id="a_Node000014"><a xlink:href="classQskSpinBox.html" target="_top" xlink:title="A control to edit, increment and decrement number values.">
<polygon fill="white" stroke="#666666" points="924,-740 849,-740 849,-721 924,-721 924,-740"/>
<text text-anchor="middle" x="886.5" y="-728" font-family="Helvetica,sans-Serif" font-size="10.00">QskSpinBox</text>
</a>
</g>
</g>
<!-- Node12&#45;&gt;Node14 -->
<g id="edge47_Node000012_Node000014" class="edge">
<title>Node12&#45;&gt;Node14</title>
<g id="a_edge47_Node000012_Node000014"><a xlink:title=" ">
<path fill="none" stroke="#63b8ff" d="M790.28,-741.17C810.58,-738.9 831.69,-736.53 848.86,-734.61"/>
<polygon fill="#63b8ff" stroke="#63b8ff" points="789.63,-737.72 780.08,-742.32 790.41,-744.68 789.63,-737.72"/>
</a>
</g>
</g>
<!-- Node16 -->
<g id="Node000016" class="node">
<title>Node16</title>
<g id="a_Node000016"><a xlink:href="classQskProgressBar.html" target="_top" xlink:title=" ">
<polygon fill="white" stroke="#666666" points="762,-722 668,-722 668,-703 762,-703 762,-722"/>
<text text-anchor="middle" x="715" y="-710" font-family="Helvetica,sans-Serif" font-size="10.00">QskProgressBar</text>
</a>
</g>
</g>
<!-- Node15&#45;&gt;Node16 -->
<g id="edge49_Node000015_Node000016" class="edge">
<title>Node15&#45;&gt;Node16</title>
<g id="a_edge49_Node000015_Node000016"><a xlink:title=" ">
<path fill="none" stroke="#63b8ff" d="M619.57,-712.5C635.88,-712.5 652.88,-712.5 667.88,-712.5"/>
<polygon fill="#63b8ff" stroke="#63b8ff" points="619.53,-709 609.53,-712.5 619.53,-716 619.53,-709"/>
</a>
</g>
</g>
<!-- Node17 -->
<g id="Node000017" class="node">
<title>Node17</title>
<g id="a_Node000017"><a xlink:href="classQskProgressRing.html" target="_top" xlink:title=" ">
<polygon fill="white" stroke="#666666" points="764.5,-685 665.5,-685 665.5,-666 764.5,-666 764.5,-685"/>
<text text-anchor="middle" x="715" y="-673" font-family="Helvetica,sans-Serif" font-size="10.00">QskProgressRing</text>
</a>
</g>
</g>
<!-- Node15&#45;&gt;Node17 -->
<g id="edge50_Node000015_Node000017" class="edge">
<title>Node15&#45;&gt;Node17</title>
<g id="a_edge50_Node000015_Node000017"><a xlink:title=" ">
<path fill="none" stroke="#63b8ff" d="M602.59,-700.71C624.91,-695.66 650.65,-689.84 671.75,-685.06"/>
<polygon fill="#63b8ff" stroke="#63b8ff" points="601.59,-697.35 592.61,-702.97 603.13,-704.18 601.59,-697.35"/>
</a>
</g>
</g>
<!-- Node19 -->
<g id="Node000019" class="node">
<title>Node19</title>
<g id="a_Node000019"><a xlink:href="classQskDialogButtonBox.html" target="_top" xlink:title=" ">
<polygon fill="white" stroke="#666666" points="608.5,-685 490.5,-685 490.5,-666 608.5,-666 608.5,-685"/>
<text text-anchor="middle" x="549.5" y="-673" font-family="Helvetica,sans-Serif" font-size="10.00">QskDialogButtonBox</text>
</a>
</g>
</g>
<!-- Node18&#45;&gt;Node19 -->
<g id="edge52_Node000018_Node000019" class="edge">
<title>Node18&#45;&gt;Node19</title>
<g id="a_edge52_Node000018_Node000019"><a xlink:title=" ">
<path fill="none" stroke="#63b8ff" d="M416.36,-616.97C434.56,-629.3 461.54,-646.3 487,-657.5 494.33,-660.73 502.4,-663.56 510.22,-665.97"/>
<polygon fill="#63b8ff" stroke="#63b8ff" points="417.91,-613.79 407.69,-611.01 413.94,-619.56 417.91,-613.79"/>
</a>
</g>
</g>
<!-- Node20 -->
<g id="Node000020" class="node">
<title>Node20</title>
<g id="a_Node000020"><a xlink:href="classQskGridBox.html" target="_top" xlink:title=" ">
<polygon fill="white" stroke="#666666" points="586.5,-648 512.5,-648 512.5,-629 586.5,-629 586.5,-648"/>
<text text-anchor="middle" x="549.5" y="-636" font-family="Helvetica,sans-Serif" font-size="10.00">QskGridBox</text>
</a>
</g>
</g>
<!-- Node18&#45;&gt;Node20 -->
<g id="edge53_Node000018_Node000020" class="edge">
<title>Node18&#45;&gt;Node20</title>
<g id="a_edge53_Node000018_Node000020"><a xlink:title=" ">
<path fill="none" stroke="#63b8ff" d="M430.66,-610.19C455.3,-616.11 487.79,-623.91 512.42,-629.83"/>
<polygon fill="#63b8ff" stroke="#63b8ff" points="431.16,-606.71 420.62,-607.78 429.53,-613.52 431.16,-606.71"/>
</a>
</g>
</g>
<!-- Node21 -->
<g id="Node000021" class="node">
<title>Node21</title>
<g id="a_Node000021"><a xlink:href="classQskIndexedLayoutBox.html" target="_top" xlink:title="Base class of layouts with index ordered elements.">
<polygon fill="white" stroke="#666666" points="612,-611 487,-611 487,-592 612,-592 612,-611"/>
<text text-anchor="middle" x="549.5" y="-599" font-family="Helvetica,sans-Serif" font-size="10.00">QskIndexedLayoutBox</text>
</a>
</g>
</g>
<!-- Node18&#45;&gt;Node21 -->
<g id="edge54_Node000018_Node000021" class="edge">
<title>Node18&#45;&gt;Node21</title>
<g id="a_edge54_Node000018_Node000021"><a xlink:title=" ">
<path fill="none" stroke="#63b8ff" d="M431.04,-601.5C447.76,-601.5 468.02,-601.5 486.98,-601.5"/>
<polygon fill="#63b8ff" stroke="#63b8ff" points="430.62,-598 420.62,-601.5 430.62,-605 430.62,-598"/>
</a>
</g>
</g>
<!-- Node26 -->
<g id="Node000026" class="node">
<title>Node26</title>
<g id="a_Node000026"><a xlink:href="classQskInputPanelBox.html" target="_top" xlink:title=" ">
<polygon fill="white" stroke="#666666" points="602,-574 497,-574 497,-555 602,-555 602,-574"/>
<text text-anchor="middle" x="549.5" y="-562" font-family="Helvetica,sans-Serif" font-size="10.00">QskInputPanelBox</text>
</a>
</g>
</g>
<!-- Node18&#45;&gt;Node26 -->
<g id="edge59_Node000018_Node000026" class="edge">
<title>Node18&#45;&gt;Node26</title>
<g id="a_edge59_Node000018_Node000026"><a xlink:title=" ">
<path fill="none" stroke="#63b8ff" d="M430.54,-592.84C454.05,-587.19 484.74,-579.82 508.92,-574.01"/>
<polygon fill="#63b8ff" stroke="#63b8ff" points="429.53,-589.48 420.62,-595.22 431.16,-596.29 429.53,-589.48"/>
</a>
</g>
</g>
<!-- Node27 -->
<g id="Node000027" class="node">
<title>Node27</title>
<g id="a_Node000027"><a xlink:href="classQskInputPredictionBar.html" target="_top" xlink:title=" ">
<polygon fill="white" stroke="#666666" points="612,-537 487,-537 487,-518 612,-518 612,-537"/>
<text text-anchor="middle" x="549.5" y="-525" font-family="Helvetica,sans-Serif" font-size="10.00">QskInputPredictionBar</text>
</a>
</g>
</g>
<!-- Node18&#45;&gt;Node27 -->
<g id="edge60_Node000018_Node000027" class="edge">
<title>Node18&#45;&gt;Node27</title>
<g id="a_edge60_Node000018_Node000027"><a xlink:title=" ">
<path fill="none" stroke="#63b8ff" d="M430.28,-593.03C437.43,-590.54 444.68,-587.41 451,-583.5 470.51,-571.43 467.43,-558.48 487,-546.5 493.19,-542.71 500.21,-539.62 507.23,-537.11"/>
<polygon fill="#63b8ff" stroke="#63b8ff" points="429.18,-589.71 420.69,-596.03 431.27,-596.39 429.18,-589.71"/>
</a>
</g>
</g>
<!-- Node28 -->
<g id="Node000028" class="node">
<title>Node28</title>
<g id="a_Node000028"><a xlink:href="classQskTabBar.html" target="_top" xlink:title=" ">
<polygon fill="white" stroke="#666666" points="583.5,-500 515.5,-500 515.5,-481 583.5,-481 583.5,-500"/>
<text text-anchor="middle" x="549.5" y="-488" font-family="Helvetica,sans-Serif" font-size="10.00">QskTabBar</text>
</a>
</g>
</g>
<!-- Node18&#45;&gt;Node28 -->
<g id="edge61_Node000018_Node000028" class="edge">
<title>Node18&#45;&gt;Node28</title>
<g id="a_edge61_Node000018_Node000028"><a xlink:title=" ">
<path fill="none" stroke="#63b8ff" d="M430.3,-594.89C437.74,-592.26 445.1,-588.6 451,-583.5 478.66,-559.57 459.24,-533.31 487,-509.5 494.97,-502.66 505.38,-498.28 515.37,-495.48"/>
<polygon fill="#63b8ff" stroke="#63b8ff" points="429.19,-591.57 420.6,-597.77 431.18,-598.28 429.19,-591.57"/>
</a>
</g>
</g>
<!-- Node29 -->
<g id="Node000029" class="node">
<title>Node29</title>
<g id="a_Node000029"><a xlink:href="classQskVirtualKeyboard.html" target="_top" xlink:title=" ">
<polygon fill="white" stroke="#666666" points="606,-463 493,-463 493,-444 606,-444 606,-463"/>
<text text-anchor="middle" x="549.5" y="-451" font-family="Helvetica,sans-Serif" font-size="10.00">QskVirtualKeyboard</text>
</a>
</g>
</g>
<!-- Node18&#45;&gt;Node29 -->
<g id="edge62_Node000018_Node000029" class="edge">
<title>Node18&#45;&gt;Node29</title>
<g id="a_edge62_Node000018_Node000029"><a xlink:title=" ">
<path fill="none" stroke="#63b8ff" d="M430.19,-595.71C437.83,-593.05 445.3,-589.17 451,-583.5 487.77,-546.92 450.07,-508.92 487,-472.5 490.9,-468.66 495.56,-465.59 500.54,-463.14"/>
<polygon fill="#63b8ff" stroke="#63b8ff" points="429.2,-592.36 420.55,-598.47 431.12,-599.09 429.2,-592.36"/>
</a>
</g>
</g>
<!-- Node22 -->
<g id="Node000022" class="node">
<title>Node22</title>
<g id="a_Node000022"><a xlink:href="classQskLinearBox.html" target="_top" xlink:title="Layout stringing items in rows and columns.">
<polygon fill="white" stroke="#666666" points="757,-648 673,-648 673,-629 757,-629 757,-648"/>
<text text-anchor="middle" x="715" y="-636" font-family="Helvetica,sans-Serif" font-size="10.00">QskLinearBox</text>
</a>
</g>
</g>
<!-- Node21&#45;&gt;Node22 -->
<g id="edge55_Node000021_Node000022" class="edge">
<title>Node21&#45;&gt;Node22</title>
<g id="a_edge55_Node000021_Node000022"><a xlink:title=" ">
<path fill="none" stroke="#63b8ff" d="M602.45,-613.26C625.2,-618.4 651.52,-624.36 672.89,-629.2"/>
<polygon fill="#63b8ff" stroke="#63b8ff" points="603.13,-609.82 592.61,-611.03 601.59,-616.65 603.13,-609.82"/>
</a>
</g>
</g>
<!-- Node24 -->
<g id="Node000024" class="node">
<title>Node24</title>
<g id="a_Node000024"><a xlink:href="classQskStackBox.html" target="_top" xlink:title=" ">
<polygon fill="white" stroke="#666666" points="755.5,-611 674.5,-611 674.5,-592 755.5,-592 755.5,-611"/>
<text text-anchor="middle" x="715" y="-599" font-family="Helvetica,sans-Serif" font-size="10.00">QskStackBox</text>
</a>
</g>
</g>
<!-- Node21&#45;&gt;Node24 -->
<g id="edge57_Node000021_Node000024" class="edge">
<title>Node21&#45;&gt;Node24</title>
<g id="a_edge57_Node000021_Node000024"><a xlink:title=" ">
<path fill="none" stroke="#63b8ff" d="M622.67,-601.5C640.43,-601.5 658.8,-601.5 674.37,-601.5"/>
<polygon fill="#63b8ff" stroke="#63b8ff" points="622.31,-598 612.31,-601.5 622.31,-605 622.31,-598"/>
</a>
</g>
</g>
<!-- Node23 -->
<g id="Node000023" class="node">
<title>Node23</title>
<g id="a_Node000023"><a xlink:href="classQskMainView.html" target="_top" xlink:title=" ">
<polygon fill="white" stroke="#666666" points="928,-648 845,-648 845,-629 928,-629 928,-648"/>
<text text-anchor="middle" x="886.5" y="-636" font-family="Helvetica,sans-Serif" font-size="10.00">QskMainView</text>
</a>
</g>
</g>
<!-- Node22&#45;&gt;Node23 -->
<g id="edge56_Node000022_Node000023" class="edge">
<title>Node22&#45;&gt;Node23</title>
<g id="a_edge56_Node000022_Node000023"><a xlink:title=" ">
<path fill="none" stroke="#63b8ff" d="M767.03,-638.5C791.94,-638.5 821.49,-638.5 844.85,-638.5"/>
<polygon fill="#63b8ff" stroke="#63b8ff" points="767.03,-635 757.03,-638.5 767.03,-642 767.03,-635"/>
</a>
</g>
</g>
<!-- Node25 -->
<g id="Node000025" class="node">
<title>Node25</title>
<g id="a_Node000025"><a xlink:href="classQskSwipeView.html" target="_top" xlink:title=" ">
<polygon fill="white" stroke="#666666" points="931,-611 842,-611 842,-592 931,-592 931,-611"/>
<text text-anchor="middle" x="886.5" y="-599" font-family="Helvetica,sans-Serif" font-size="10.00">QskSwipeView</text>
</a>
</g>
</g>
<!-- Node24&#45;&gt;Node25 -->
<g id="edge58_Node000024_Node000025" class="edge">
<title>Node24&#45;&gt;Node25</title>
<g id="a_edge58_Node000024_Node000025"><a xlink:title=" ">
<path fill="none" stroke="#63b8ff" d="M765.77,-601.5C789.88,-601.5 818.59,-601.5 841.84,-601.5"/>
<polygon fill="#63b8ff" stroke="#63b8ff" points="765.74,-598 755.74,-601.5 765.74,-605 765.74,-598"/>
</a>
</g>
</g>
<!-- Node37 -->
<g id="Node000037" class="node">
<title>Node37</title>
<g id="a_Node000037"><a xlink:href="classQskDrawer.html" target="_top" xlink:title=" ">
<polygon fill="white" stroke="#666666" points="585,-389 514,-389 514,-370 585,-370 585,-389"/>
<text text-anchor="middle" x="549.5" y="-377" font-family="Helvetica,sans-Serif" font-size="10.00">QskDrawer</text>
</a>
</g>
</g>
<!-- Node36&#45;&gt;Node37 -->
<g id="edge70_Node000036_Node000037" class="edge">
<title>Node36&#45;&gt;Node37</title>
<g id="a_edge70_Node000036_Node000037"><a xlink:title=" ">
<path fill="none" stroke="#63b8ff" d="M436.05,-352.48C460.38,-358.33 490.75,-365.62 513.79,-371.16"/>
<polygon fill="#63b8ff" stroke="#63b8ff" points="436.58,-349.01 426.04,-350.08 434.94,-355.82 436.58,-349.01"/>
</a>
</g>
</g>
<!-- Node38 -->
<g id="Node000038" class="node">
<title>Node38</title>
<g id="a_Node000038"><a xlink:href="classQskMenu.html" target="_top" xlink:title=" ">
<polygon fill="white" stroke="#666666" points="580.5,-352 518.5,-352 518.5,-333 580.5,-333 580.5,-352"/>
<text text-anchor="middle" x="549.5" y="-340" font-family="Helvetica,sans-Serif" font-size="10.00">QskMenu</text>
</a>
</g>
</g>
<!-- Node36&#45;&gt;Node38 -->
<g id="edge71_Node000036_Node000038" class="edge">
<title>Node36&#45;&gt;Node38</title>
<g id="a_edge71_Node000036_Node000038"><a xlink:title=" ">
<path fill="none" stroke="#63b8ff" d="M436.32,-342.5C462.23,-342.5 494.92,-342.5 518.32,-342.5"/>
<polygon fill="#63b8ff" stroke="#63b8ff" points="436.04,-339 426.04,-342.5 436.04,-346 436.04,-339"/>
</a>
</g>
</g>
<!-- Node39 -->
<g id="Node000039" class="node">
<title>Node39</title>
<g id="a_Node000039"><a xlink:href="classQskSubWindow.html" target="_top" xlink:title=" ">
<polygon fill="white" stroke="#666666" points="595.5,-315 503.5,-315 503.5,-296 595.5,-296 595.5,-315"/>
<text text-anchor="middle" x="549.5" y="-303" font-family="Helvetica,sans-Serif" font-size="10.00">QskSubWindow</text>
</a>
</g>
</g>
<!-- Node36&#45;&gt;Node39 -->
<g id="edge72_Node000036_Node000039" class="edge">
<title>Node36&#45;&gt;Node39</title>
<g id="a_edge72_Node000036_Node000039"><a xlink:title=" ">
<path fill="none" stroke="#63b8ff" d="M436.02,-332.53C458.63,-327.09 486.46,-320.41 508.78,-315.04"/>
<polygon fill="#63b8ff" stroke="#63b8ff" points="434.94,-329.18 426.04,-334.92 436.58,-335.99 434.94,-329.18"/>
</a>
</g>
</g>
<!-- Node40 -->
<g id="Node000040" class="node">
<title>Node40</title>
<g id="a_Node000040"><a xlink:href="classQskDialogSubWindow.html" target="_top" xlink:title=" ">
<polygon fill="white" stroke="#666666" points="777,-315 653,-315 653,-296 777,-296 777,-315"/>
<text text-anchor="middle" x="715" y="-303" font-family="Helvetica,sans-Serif" font-size="10.00">QskDialogSubWindow</text>
</a>
</g>
</g>
<!-- Node39&#45;&gt;Node40 -->
<g id="edge73_Node000039_Node000040" class="edge">
<title>Node39&#45;&gt;Node40</title>
<g id="a_edge73_Node000039_Node000040"><a xlink:title=" ">
<path fill="none" stroke="#63b8ff" d="M605.83,-305.5C620.94,-305.5 637.4,-305.5 652.82,-305.5"/>
<polygon fill="#63b8ff" stroke="#63b8ff" points="605.61,-302 595.61,-305.5 605.61,-309 605.61,-302"/>
</a>
</g>
</g>
<!-- Node41 -->
<g id="Node000041" class="node">
<title>Node41</title>
<g id="a_Node000041"><a xlink:href="classQskMessageSubWindow.html" target="_top" xlink:title=" ">
<polygon fill="white" stroke="#666666" points="954.5,-352 818.5,-352 818.5,-333 954.5,-333 954.5,-352"/>
<text text-anchor="middle" x="886.5" y="-340" font-family="Helvetica,sans-Serif" font-size="10.00">QskMessageSubWindow</text>
</a>
</g>
</g>
<!-- Node40&#45;&gt;Node41 -->
<g id="edge74_Node000040_Node000041" class="edge">
<title>Node40&#45;&gt;Node41</title>
<g id="a_edge74_Node000040_Node000041"><a xlink:title=" ">
<path fill="none" stroke="#63b8ff" d="M769.69,-317.22C792.9,-322.29 819.72,-328.14 841.7,-332.94"/>
<polygon fill="#63b8ff" stroke="#63b8ff" points="770.17,-313.74 759.65,-315.03 768.67,-320.58 770.17,-313.74"/>
</a>
</g>
</g>
<!-- Node42 -->
<g id="Node000042" class="node">
<title>Node42</title>
<g id="a_Node000042"><a xlink:href="classQskSelectionSubWindow.html" target="_top" xlink:title=" ">
<polygon fill="white" stroke="#666666" points="955,-315 818,-315 818,-296 955,-296 955,-315"/>
<text text-anchor="middle" x="886.5" y="-303" font-family="Helvetica,sans-Serif" font-size="10.00">QskSelectionSubWindow</text>
</a>
</g>
</g>
<!-- Node40&#45;&gt;Node42 -->
<g id="edge75_Node000040_Node000042" class="edge">
<title>Node40&#45;&gt;Node42</title>
<g id="a_edge75_Node000040_Node000042"><a xlink:title=" ">
<path fill="none" stroke="#63b8ff" d="M787.21,-305.5C797.34,-305.5 807.73,-305.5 817.79,-305.5"/>
<polygon fill="#63b8ff" stroke="#63b8ff" points="787.19,-302 777.19,-305.5 787.19,-309 787.19,-302"/>
</a>
</g>
</g>
<!-- Node45 -->
<g id="Node000045" class="node">
<title>Node45</title>
<g id="a_Node000045"><a xlink:href="classQskScrollView.html" target="_top" xlink:title=" ">
<polygon fill="white" stroke="#666666" points="592.5,-278 506.5,-278 506.5,-259 592.5,-259 592.5,-278"/>
<text text-anchor="middle" x="549.5" y="-266" font-family="Helvetica,sans-Serif" font-size="10.00">QskScrollView</text>
</a>
</g>
</g>
<!-- Node44&#45;&gt;Node45 -->
<g id="edge78_Node000044_Node000045" class="edge">
<title>Node44&#45;&gt;Node45</title>
<g id="a_edge78_Node000044_Node000045"><a xlink:title=" ">
<path fill="none" stroke="#63b8ff" d="M444.32,-268.5C464.32,-268.5 487.12,-268.5 506.28,-268.5"/>
<polygon fill="#63b8ff" stroke="#63b8ff" points="444.16,-265 434.16,-268.5 444.16,-272 444.16,-265"/>
</a>
</g>
</g>
<!-- Node46 -->
<g id="Node000046" class="node">
<title>Node46</title>
<g id="a_Node000046"><a xlink:href="classQskListView.html" target="_top" xlink:title=" ">
<polygon fill="white" stroke="#666666" points="753.5,-278 676.5,-278 676.5,-259 753.5,-259 753.5,-278"/>
<text text-anchor="middle" x="715" y="-266" font-family="Helvetica,sans-Serif" font-size="10.00">QskListView</text>
</a>
</g>
</g>
<!-- Node45&#45;&gt;Node46 -->
<g id="edge79_Node000045_Node000046" class="edge">
<title>Node45&#45;&gt;Node46</title>
<g id="a_edge79_Node000045_Node000046"><a xlink:title=" ">
<path fill="none" stroke="#63b8ff" d="M602.63,-268.5C626.64,-268.5 654.6,-268.5 676.5,-268.5"/>
<polygon fill="#63b8ff" stroke="#63b8ff" points="602.61,-265 592.61,-268.5 602.61,-272 602.61,-265"/>
</a>
</g>
</g>
<!-- Node48 -->
<g id="Node000048" class="node">
<title>Node48</title>
<g id="a_Node000048"><a xlink:href="classQskScrollArea.html" target="_top" xlink:title=" ">
<polygon fill="white" stroke="#666666" points="757.5,-241 672.5,-241 672.5,-222 757.5,-222 757.5,-241"/>
<text text-anchor="middle" x="715" y="-229" font-family="Helvetica,sans-Serif" font-size="10.00">QskScrollArea</text>
</a>
</g>
</g>
<!-- Node45&#45;&gt;Node48 -->
<g id="edge81_Node000045_Node000048" class="edge">
<title>Node45&#45;&gt;Node48</title>
<g id="a_edge81_Node000045_Node000048"><a xlink:title=" ">
<path fill="none" stroke="#63b8ff" d="M602.37,-256.76C624.94,-251.65 651.04,-245.75 672.32,-240.93"/>
<polygon fill="#63b8ff" stroke="#63b8ff" points="601.59,-253.35 592.61,-258.97 603.13,-260.18 601.59,-253.35"/>
</a>
</g>
</g>
<!-- Node47 -->
<g id="Node000047" class="node">
<title>Node47</title>
<g id="a_Node000047"><a xlink:href="classQskSimpleListBox.html" target="_top" xlink:title=" ">
<polygon fill="white" stroke="#666666" points="939,-278 834,-278 834,-259 939,-259 939,-278"/>
<text text-anchor="middle" x="886.5" y="-266" font-family="Helvetica,sans-Serif" font-size="10.00">QskSimpleListBox</text>
</a>
</g>
</g>
<!-- Node46&#45;&gt;Node47 -->
<g id="edge80_Node000046_Node000047" class="edge">
<title>Node46&#45;&gt;Node47</title>
<g id="a_edge80_Node000046_Node000047"><a xlink:title=" ">
<path fill="none" stroke="#63b8ff" d="M763.67,-268.5C785.54,-268.5 811.51,-268.5 833.85,-268.5"/>
<polygon fill="#63b8ff" stroke="#63b8ff" points="763.62,-265 753.62,-268.5 763.62,-272 763.62,-265"/>
</a>
</g>
</g>
<!-- Node56 -->
<g id="Node000056" class="node">
<title>Node56</title>
<g id="a_Node000056"><a xlink:href="classQskSkinnable.html" target="_top" xlink:title=" ">
<polygon fill="white" stroke="#666666" points="193,-334 110,-334 110,-315 193,-315 193,-334"/>
<text text-anchor="middle" x="151.5" y="-322" font-family="Helvetica,sans-Serif" font-size="10.00">QskSkinnable</text>
</a>
</g>
</g>
<!-- Node56&#45;&gt;Node2 -->
<g id="edge89_Node000056_Node000002" class="edge">
<title>Node56&#45;&gt;Node2</title>
<g id="a_edge89_Node000056_Node000002"><a xlink:title=" ">
<path fill="none" stroke="#63b8ff" d="M203.19,-332.72C211.8,-334.12 220.57,-335.54 228.65,-336.85"/>
<polygon fill="#63b8ff" stroke="#63b8ff" points="203.63,-329.25 193.2,-331.1 202.51,-336.16 203.63,-329.25"/>
</a>
</g>
</g>
</g>
</svg>
