<?xml version="1.0" encoding="UTF-8" standalone="no"?>
<!DOCTYPE svg PUBLIC "-//W3C//DTD SVG 1.1//EN"
 "http://www.w3.org/Graphics/SVG/1.1/DTD/svg11.dtd">
<!-- Generated by graphviz version 2.43.0 (0)
 -->
<!-- Title: Graphical Class Hierarchy Pages: 1 -->
<svg width="495pt" height="100pt"
 viewBox="0.00 0.00 495.00 99.50" xmlns="http://www.w3.org/2000/svg" xmlns:xlink="http://www.w3.org/1999/xlink">
<g id="graph0" class="graph" transform="scale(1 1) rotate(0) translate(4 95.5)">
<title>Graphical Class Hierarchy</title>
<!-- Node0 -->
<g id="Node000000" class="node">
<title>Node0</title>
<g id="a_Node000000"><a xlink:href="classQskLayoutElement.html" target="_top" xlink:title=" ">
<polygon fill="white" stroke="#666666" points="109,-69.5 0,-69.5 0,-50.5 109,-50.5 109,-69.5"/>
<text text-anchor="middle" x="54.5" y="-57.5" font-family="Helvetica,sans-Serif" font-size="10.00">QskLayoutElement</text>
</a>
</g>
</g>
<!-- Node1 -->
<g id="Node000001" class="node">
<title>Node1</title>
<g id="a_Node000001"><a xlink:href="classQskItemLayoutElement.html" target="_top" xlink:title=" ">
<polygon fill="white" stroke="#666666" points="287,-91.5 156,-91.5 156,-72.5 287,-72.5 287,-91.5"/>
<text text-anchor="middle" x="221.5" y="-79.5" font-family="Helvetica,sans-Serif" font-size="10.00">QskItemLayoutElement</text>
</a>
</g>
</g>
<!-- Node0&#45;&gt;Node1 -->
<g id="edge124_Node000000_Node000001" class="edge">
<title>Node0&#45;&gt;Node1</title>
<g id="a_edge124_Node000000_Node000001"><a xlink:title=" ">
<path fill="none" stroke="#63b8ff" d="M119.07,-68.48C131.17,-70.09 143.84,-71.78 155.97,-73.4"/>
<polygon fill="#63b8ff" stroke="#63b8ff" points="119.45,-65 109.07,-67.14 118.52,-71.93 119.45,-65"/>
</a>
</g>
</g>
<!-- Node2 -->
<g id="Node000002" class="node">
<title>Node2</title>
<g id="a_Node000002"><a xlink:href="classQskSubcontrolLayoutEngine_1_1LayoutElement.html" target="_top" xlink:title=" ">
<polygon fill="white" stroke="#666666" points="298,-54 145,-54 145,-24 298,-24 298,-54"/>
<text text-anchor="start" x="153" y="-42" font-family="Helvetica,sans-Serif" font-size="10.00">QskSubcontrolLayoutEngine</text>
<text text-anchor="middle" x="221.5" y="-31" font-family="Helvetica,sans-Serif" font-size="10.00">::LayoutElement</text>
</a>
</g>
</g>
<!-- Node0&#45;&gt;Node2 -->
<g id="edge125_Node000000_Node000002" class="edge">
<title>Node0&#45;&gt;Node2</title>
<g id="a_edge125_Node000000_Node000002"><a xlink:title=" ">
<path fill="none" stroke="#63b8ff" d="M119.13,-51.9C127.51,-50.84 136.16,-49.73 144.72,-48.64"/>
<polygon fill="#63b8ff" stroke="#63b8ff" points="118.55,-48.45 109.07,-53.18 119.43,-55.39 118.55,-48.45"/>
</a>
</g>
</g>
<!-- Node3 -->
<g id="Node000003" class="node">
<title>Node3</title>
<g id="a_Node000003"><a xlink:href="classQskSubcontrolLayoutEngine_1_1GraphicElement.html" target="_top" xlink:title=" ">
<polygon fill="white" stroke="#666666" points="487,-78 334,-78 334,-48 487,-48 487,-78"/>
<text text-anchor="start" x="342" y="-66" font-family="Helvetica,sans-Serif" font-size="10.00">QskSubcontrolLayoutEngine</text>
<text text-anchor="middle" x="410.5" y="-55" font-family="Helvetica,sans-Serif" font-size="10.00">::GraphicElement</text>
</a>
</g>
</g>
<!-- Node2&#45;&gt;Node3 -->
<g id="edge126_Node000002_Node000003" class="edge">
<title>Node2&#45;&gt;Node3</title>
<g id="a_edge126_Node000002_Node000003"><a xlink:title=" ">
<path fill="none" stroke="#63b8ff" d="M308.02,-49.98C316.58,-51.08 325.24,-52.19 333.7,-53.27"/>
<polygon fill="#63b8ff" stroke="#63b8ff" points="308.39,-46.49 298.02,-48.69 307.49,-53.44 308.39,-46.49"/>
</a>
</g>
</g>
<!-- Node4 -->
<g id="Node000004" class="node">
<title>Node4</title>
<g id="a_Node000004"><a xlink:href="classQskSubcontrolLayoutEngine_1_1TextElement.html" target="_top" xlink:title=" ">
<polygon fill="white" stroke="#666666" points="487,-30 334,-30 334,0 487,0 487,-30"/>
<text text-anchor="start" x="342" y="-18" font-family="Helvetica,sans-Serif" font-size="10.00">QskSubcontrolLayoutEngine</text>
<text text-anchor="middle" x="410.5" y="-7" font-family="Helvetica,sans-Serif" font-size="10.00">::TextElement</text>
</a>
</g>
</g>
<!-- Node2&#45;&gt;Node4 -->
<g id="edge127_Node000002_Node000004" class="edge">
<title>Node2&#45;&gt;Node4</title>
<g id="a_edge127_Node000002_Node000004"><a xlink:title=" ">
<path fill="none" stroke="#63b8ff" d="M308.02,-28.02C316.58,-26.92 325.24,-25.81 333.7,-24.73"/>
<polygon fill="#63b8ff" stroke="#63b8ff" points="307.49,-24.56 298.02,-29.31 308.39,-31.51 307.49,-24.56"/>
</a>
</g>
</g>
</g>
</svg>
